M48
; DRILL file KiCad 10.0.4 date 2026-07-22T20:09:28
; FORMAT={-:-/ absolute / metric / decimal}
; #@! TF.CreationDate,2026-07-22T20:09:28+08:00
; #@! TF.GenerationSoftware,Kicad,Pcbnew,10.0.4
; #@! TF.FileFunction,Plated,1,4,PTH
FMAT,2
METRIC
; #@! TA.AperFunction,Plated,PTH,ComponentDrill
T1C0.200
; #@! TA.AperFunction,Plated,PTH,ViaDrill
T2C0.300
; #@! TA.AperFunction,Plated,PTH,ComponentDrill
T3C0.500
; #@! TA.AperFunction,Plated,PTH,ComponentDrill
T4C0.600
; #@! TA.AperFunction,Plated,PTH,ComponentDrill
T5C0.750
; #@! TA.AperFunction,Plated,PTH,ComponentDrill
T6C1.000
; #@! TA.AperFunction,Plated,PTH,ComponentDrill
T7C2.500
%
G90
G05
T1
X27.1Y-22.76
X27.1Y-24.16
X27.8Y-22.06
X27.8Y-23.46
X27.8Y-24.86
X28.5Y-22.76
X28.5Y-24.16
X29.2Y-22.06
X29.2Y-23.46
X29.2Y-24.86
X29.9Y-22.76
X29.9Y-24.16
T2
X5.265Y-37.4
X7.633Y-87.629
X8.0Y-53.98
X8.085Y-65.844
X8.39Y-89.887
X8.647Y-85.928
X8.948Y-90.73
X10.469Y-81.678
X10.475Y-66.532
X11.784Y-95.101
X11.844Y-83.836
X11.968Y-35.145
X12.824Y-71.752
X13.995Y-77.672
X13.998Y-84.12
X14.987Y-57.077
X16.027Y-71.481
X16.675Y-28.64
X16.681Y-63.873
X16.905Y-19.485
X16.905Y-71.752
X16.905Y-80.632
X16.906Y-89.959
X17.403Y-24.892
X18.984Y-57.203
X19.048Y-16.779
X19.324Y-24.786
X19.639Y-19.503
X19.879Y-17.929
X21.925Y-67.308
X22.521Y-24.174
X22.665Y-27.761
X22.725Y-37.4
X23.016Y-87.988
X23.088Y-25.492
X23.09Y-28.64
X23.396Y-66.055
X24.65Y-68.82
X24.913Y-81.75
X25.019Y-87.988
X25.34Y-95.143
X25.578Y-31.481
X25.635Y-19.88
X26.158Y-87.215
X27.0Y-62.953
X27.521Y-57.84
X28.34Y-31.63
X28.734Y-69.741
X29.908Y-68.335
X30.565Y-32.068
X30.619Y-65.563
X30.649Y-69.403
X31.013Y-84.176
X31.074Y-62.752
X31.455Y-89.637
X31.558Y-69.591
X32.155Y-65.82
X32.359Y-95.142
X33.161Y-95.142
X33.936Y-60.424
X34.0Y-65.67
X34.128Y-68.845
X34.25Y-70.066
X34.365Y-84.25
X34.365Y-89.639
X34.422Y-87.556
X35.021Y-62.847
X35.527Y-65.413
X36.91Y-15.845
X36.91Y-17.305
X36.91Y-28.86
X37.275Y-60.424
X37.551Y-92.363
X38.4Y-92.822
X38.772Y-63.95
X39.384Y-96.755
X40.028Y-24.867
X40.324Y-60.653
X40.57Y-22.3
X40.935Y-31.396
X40.957Y-57.5
X41.337Y-25.932
X41.972Y-48.447
X43.0Y-64.964
X43.095Y-60.825
X43.253Y-46.498
X43.388Y-52.732
X44.083Y-63.055
X45.275Y-45.265
X45.275Y-52.065
X46.005Y-33.5
X46.005Y-58.32
X46.651Y-61.02
X46.805Y-27.765
X46.875Y-40.949
X47.612Y-47.3
X47.922Y-63.055
X48.288Y-48.133
X48.752Y-58.003
X49.0Y-65.453
X51.397Y-61.012
X51.825Y-66.6
X52.34Y-28.64
X53.832Y-63.055
X54.735Y-60.424
X57.59Y-45.51
X57.59Y-51.415
T3
X2.125Y-99.0
X2.674Y-97.674
X2.674Y-100.326
X4.0Y-97.125
X4.0Y-100.875
X5.326Y-97.674
X5.326Y-100.326
X5.875Y-99.0
X54.125Y-99.0
X54.674Y-97.674
X54.674Y-100.326
X56.0Y-97.125
X56.0Y-100.875
X57.326Y-97.674
X57.326Y-100.326
X57.875Y-99.0
T5
X5.0Y-78.0
X5.0Y-80.0
T6
X56.0Y-29.0
X56.0Y-31.54
X56.0Y-34.08
X56.0Y-36.62
X56.0Y-39.16
X56.0Y-41.7
T7
X4.0Y-99.0
X56.0Y-99.0
T4
X25.68Y-96.545G85X25.68Y-97.645
G05
X25.68Y-100.875G85X25.68Y-101.675
G05
X34.32Y-96.545G85X34.32Y-97.645
G05
X34.32Y-100.875G85X34.32Y-101.675
G05
M30
