M48
; DRILL file KiCad 10.0.4 date 2026-07-22T19:12:31
; FORMAT={-:-/ absolute / metric / decimal}
; #@! TF.CreationDate,2026-07-22T19:12:31+08:00
; #@! TF.GenerationSoftware,Kicad,Pcbnew,10.0.4
; #@! TF.FileFunction,Plated,1,4,PTH
FMAT,2
METRIC
; #@! TA.AperFunction,Plated,PTH,ComponentDrill
T1C0.200
; #@! TA.AperFunction,Plated,PTH,ViaDrill
T2C0.300
; #@! TA.AperFunction,Plated,PTH,ComponentDrill
T3C0.500
; #@! TA.AperFunction,Plated,PTH,ComponentDrill
T4C0.600
; #@! TA.AperFunction,Plated,PTH,ComponentDrill
T5C0.750
; #@! TA.AperFunction,Plated,PTH,ComponentDrill
T6C1.000
; #@! TA.AperFunction,Plated,PTH,ComponentDrill
T7C2.500
%
G90
G05
T1
X27.1Y-22.76
X27.1Y-24.16
X27.8Y-22.06
X27.8Y-23.46
X27.8Y-24.86
X28.5Y-22.76
X28.5Y-24.16
X29.2Y-22.06
X29.2Y-23.46
X29.2Y-24.86
X29.9Y-22.76
X29.9Y-24.16
T2
X7.05Y-90.77
X8.619Y-78.473
X11.844Y-84.582
X12.901Y-26.987
X15.225Y-72.007
X15.839Y-54.9
X17.319Y-65.151
X17.5Y-23.972
X18.998Y-61.125
X19.398Y-23.743
X19.677Y-64.185
X19.994Y-24.835
X20.279Y-59.979
X21.792Y-33.774
X21.825Y-93.007
X22.505Y-25.697
X22.507Y-19.941
X22.687Y-63.407
X23.122Y-20.739
X23.319Y-26.674
X23.588Y-66.198
X24.506Y-68.73
X24.931Y-30.98
X25.635Y-84.514
X25.741Y-68.69
X26.191Y-65.157
X26.221Y-81.961
X26.25Y-65.974
X26.441Y-29.451
X27.25Y-65.987
X27.897Y-69.958
X28.298Y-64.41
X29.56Y-64.811
X30.635Y-34.757
X30.89Y-69.32
X31.001Y-91.175
X31.484Y-62.949
X32.4Y-95.427
X32.75Y-68.907
X33.175Y-34.77
X33.2Y-58.723
X34.0Y-65.615
X35.0Y-90.272
X35.129Y-94.05
X35.585Y-62.583
X36.673Y-25.646
X36.673Y-93.827
X37.477Y-17.841
X37.477Y-25.547
X38.768Y-63.95
X39.5Y-61.016
X40.015Y-22.245
X40.11Y-33.917
X40.408Y-93.235
X41.771Y-63.648
X42.825Y-35.126
X46.0Y-67.614
X46.088Y-37.1
X47.99Y-64.753
X48.025Y-63.131
X50.825Y-36.27
X50.825Y-41.011
X52.1Y-56.002
X54.105Y-63.055
T3
X2.125Y-99.0
X2.674Y-97.674
X2.674Y-100.326
X4.0Y-97.125
X4.0Y-100.875
X5.326Y-97.674
X5.326Y-100.326
X5.875Y-99.0
X54.125Y-99.0
X54.674Y-97.674
X54.674Y-100.326
X56.0Y-97.125
X56.0Y-100.875
X57.326Y-97.674
X57.326Y-100.326
X57.875Y-99.0
T5
X5.0Y-78.0
X5.0Y-80.0
T6
X39.5Y-46.46
X39.5Y-49.0
X42.04Y-46.46
X42.04Y-49.0
X44.58Y-46.46
X44.58Y-49.0
X47.12Y-46.46
X47.12Y-49.0
X49.66Y-46.46
X49.66Y-49.0
X52.2Y-46.46
X52.2Y-49.0
X54.74Y-46.46
X54.74Y-49.0
X56.0Y-29.0
X56.0Y-31.54
X56.0Y-34.08
X56.0Y-36.62
X56.0Y-39.16
X56.0Y-41.7
X57.28Y-46.46
X57.28Y-49.0
T7
X4.0Y-99.0
X56.0Y-99.0
T4
X25.68Y-96.545G85X25.68Y-97.645
G05
X25.68Y-100.875G85X25.68Y-101.675
G05
X34.32Y-96.545G85X34.32Y-97.645
G05
X34.32Y-100.875G85X34.32Y-101.675
G05
M30
