%TF.GenerationSoftware,KiCad,Pcbnew,10.0.4*%
%TF.CreationDate,2026-07-22T20:09:27+08:00*%
%TF.ProjectId,ai_mobile_reader_routed,61695f6d-6f62-4696-9c65-5f7265616465,rev?*%
%TF.SameCoordinates,Original*%
%TF.FileFunction,Copper,L2,Inr*%
%TF.FilePolarity,Positive*%
%FSLAX46Y46*%
G04 Gerber Fmt 4.6, Leading zero omitted, Abs format (unit mm)*
G04 Created by KiCad (PCBNEW 10.0.4) date 2026-07-22 20:09:27*
%MOMM*%
%LPD*%
G01*
G04 APERTURE LIST*
G04 Aperture macros list*
%AMRoundRect*
0 Rectangle with rounded corners*
0 $1 Rounding radius*
0 $2 $3 $4 $5 $6 $7 $8 $9 X,Y pos of 4 corners*
0 Add a 4 corners polygon primitive as box body*
4,1,4,$2,$3,$4,$5,$6,$7,$8,$9,$2,$3,0*
0 Add four circle primitives for the rounded corners*
1,1,$1+$1,$2,$3*
1,1,$1+$1,$4,$5*
1,1,$1+$1,$6,$7*
1,1,$1+$1,$8,$9*
0 Add four rect primitives between the rounded corners*
20,1,$1+$1,$2,$3,$4,$5,0*
20,1,$1+$1,$4,$5,$6,$7,0*
20,1,$1+$1,$6,$7,$8,$9,0*
20,1,$1+$1,$8,$9,$2,$3,0*%
G04 Aperture macros list end*
%TA.AperFunction,ComponentPad*%
%ADD10R,1.700000X1.700000*%
%TD*%
%TA.AperFunction,ComponentPad*%
%ADD11C,1.700000*%
%TD*%
%TA.AperFunction,ComponentPad*%
%ADD12O,1.000000X2.100000*%
%TD*%
%TA.AperFunction,ComponentPad*%
%ADD13O,1.000000X1.800000*%
%TD*%
%TA.AperFunction,ComponentPad*%
%ADD14C,0.800000*%
%TD*%
%TA.AperFunction,ComponentPad*%
%ADD15C,5.000000*%
%TD*%
%TA.AperFunction,HeatsinkPad*%
%ADD16C,0.600000*%
%TD*%
%TA.AperFunction,ComponentPad*%
%ADD17RoundRect,0.250000X0.625000X-0.350000X0.625000X0.350000X-0.625000X0.350000X-0.625000X-0.350000X0*%
%TD*%
%TA.AperFunction,ComponentPad*%
%ADD18O,1.750000X1.200000*%
%TD*%
%TA.AperFunction,ViaPad*%
%ADD19C,0.600000*%
%TD*%
%TA.AperFunction,Conductor*%
%ADD20C,0.200000*%
%TD*%
G04 APERTURE END LIST*
D10*
%TO.N,BTN_BACK*%
%TO.C,J5*%
X56000000Y-29000000D03*
D11*
%TO.N,BTN_POWER*%
X56000000Y-31540000D03*
%TO.N,BTN_UP*%
X56000000Y-34080000D03*
%TO.N,BTN_HOME*%
X56000000Y-36620000D03*
%TO.N,BTN_DOWN*%
X56000000Y-39160000D03*
%TO.N,GND*%
X56000000Y-41700000D03*
%TD*%
D12*
%TO.N,GND*%
%TO.C,J1*%
X25680000Y-97095000D03*
D13*
X25680000Y-101275000D03*
D12*
X34320000Y-97095000D03*
D13*
X34320000Y-101275000D03*
%TD*%
D14*
%TO.N,GND*%
%TO.C,H1*%
X2125000Y-99000000D03*
X2674175Y-97674175D03*
X2674175Y-100325825D03*
X4000000Y-97125000D03*
D15*
X4000000Y-99000000D03*
D14*
X4000000Y-100875000D03*
X5325825Y-97674175D03*
X5325825Y-100325825D03*
X5875000Y-99000000D03*
%TD*%
D16*
%TO.N,GND*%
%TO.C,U1*%
X27100000Y-22760000D03*
X27100000Y-24160000D03*
X27800000Y-22060000D03*
X27800000Y-23460000D03*
X27800000Y-24860000D03*
X28500000Y-22760000D03*
X28500000Y-24160000D03*
X29200000Y-22060000D03*
X29200000Y-23460000D03*
X29200000Y-24860000D03*
X29900000Y-22760000D03*
X29900000Y-24160000D03*
%TD*%
D14*
%TO.N,GND*%
%TO.C,H2*%
X54125000Y-99000000D03*
X54674175Y-97674175D03*
X54674175Y-100325825D03*
X56000000Y-97125000D03*
D15*
X56000000Y-99000000D03*
D14*
X56000000Y-100875000D03*
X57325825Y-97674175D03*
X57325825Y-100325825D03*
X57875000Y-99000000D03*
%TD*%
D17*
%TO.N,VBAT*%
%TO.C,J2*%
X5000000Y-80000000D03*
D18*
%TO.N,GND*%
X5000000Y-78000000D03*
%TD*%
D19*
%TO.N,USB_VBUS*%
X32358700Y-95142200D03*
X37551100Y-92362900D03*
X11843800Y-83835900D03*
X11784200Y-95100800D03*
%TO.N,GND*%
X16906300Y-89958700D03*
X51397100Y-61012400D03*
X33936500Y-60424500D03*
X37275000Y-60424500D03*
X40323800Y-60652800D03*
X5265000Y-37400000D03*
X14987100Y-57077100D03*
X16905000Y-71752000D03*
X8647000Y-85928200D03*
X43095000Y-60824500D03*
X12824100Y-71752100D03*
X16905000Y-80632000D03*
X19638800Y-19503200D03*
X10469000Y-81678500D03*
X13995000Y-77672100D03*
X47612300Y-47300200D03*
X11968400Y-35145000D03*
X13997800Y-84120000D03*
X32155000Y-65820000D03*
X54735000Y-60424500D03*
X41971900Y-48447000D03*
X19323700Y-24785700D03*
X46650700Y-61019700D03*
X25339700Y-95143100D03*
X39383800Y-96755300D03*
X21925500Y-67308400D03*
X26158000Y-87214800D03*
X19047700Y-16778600D03*
X25019000Y-87987900D03*
X18983900Y-57203500D03*
X46005000Y-58320000D03*
X7632800Y-87628500D03*
X8947900Y-90730500D03*
X57590000Y-45510000D03*
X34422400Y-87555600D03*
X8084600Y-65844500D03*
X23015800Y-87987900D03*
X36910000Y-15845000D03*
X46805000Y-27765000D03*
X34365000Y-84250000D03*
X57590000Y-51415000D03*
X45275000Y-45265000D03*
X24912800Y-81749700D03*
X8390000Y-89887000D03*
X8000100Y-53980000D03*
X31013000Y-84175800D03*
X27520700Y-57840000D03*
X52340000Y-28640000D03*
X16905000Y-19484500D03*
X28733600Y-69740700D03*
X33161200Y-95142200D03*
X47922200Y-63055200D03*
%TO.N,+3V3*%
X10475200Y-66532000D03*
X34249700Y-70066400D03*
%TO.N,BTN_DOWN*%
X40028000Y-24867100D03*
%TO.N,EPD_VSH2*%
X34000000Y-65670000D03*
%TO.N,BTN_BACK*%
X40570000Y-22300000D03*
X40934600Y-31396300D03*
%TO.N,BTN_POWER*%
X46005000Y-33500000D03*
%TO.N,BTN_UP*%
X36910000Y-28860000D03*
%TO.N,BTN_HOME*%
X41337300Y-25931900D03*
X46875100Y-40949400D03*
%TO.N,USB_D-*%
X25578500Y-31481500D03*
X34365000Y-89638700D03*
%TO.N,PREVGH*%
X44082800Y-63055200D03*
X27000000Y-62953300D03*
%TO.N,EPD_VSH1*%
X43000000Y-64963600D03*
%TO.N,PREVGL*%
X51825000Y-66600000D03*
X24650000Y-68820400D03*
%TO.N,EPD_RESE*%
X16681000Y-63873100D03*
X35527400Y-65412600D03*
%TO.N,SD_CS*%
X43387900Y-52732500D03*
X30565200Y-32067600D03*
%TO.N,EN*%
X17403200Y-24892000D03*
X19878600Y-17928700D03*
%TO.N,BAT_ADC*%
X36910000Y-17305000D03*
X16027500Y-71481000D03*
X16675000Y-28640000D03*
%TO.N,USB_D+*%
X38400400Y-92821800D03*
X22725000Y-37400000D03*
X31455000Y-89637100D03*
%TO.N,EPD_VCOM*%
X53832200Y-63055200D03*
X23395600Y-66055100D03*
%TO.N,SD_DAT1*%
X48288400Y-48133200D03*
X48751700Y-58003300D03*
%TO.N,EPD_VSL*%
X49000000Y-65452700D03*
%TO.N,EPD_BUSY*%
X31558400Y-69590800D03*
X25635000Y-19880000D03*
%TO.N,EPD_CS*%
X29907800Y-68334600D03*
X28340000Y-31630000D03*
%TO.N,EPD_DC*%
X30648600Y-69403500D03*
X22521500Y-24173500D03*
%TO.N,EPD_RST*%
X23088400Y-25491600D03*
X30618900Y-65563300D03*
%TO.N,SPI_MOSI*%
X34127900Y-68845300D03*
X45275000Y-52065000D03*
X22665500Y-27761100D03*
X40957500Y-57500000D03*
%TO.N,SPI_SCK*%
X23090000Y-28640000D03*
X31074300Y-62751500D03*
X43252700Y-46498100D03*
%TO.N,EPD_GDR*%
X35021500Y-62846900D03*
%TO.N,EPD_VDD*%
X38771800Y-63950000D03*
%TD*%
%TO.N,USB_VBUS*%
D20*
X35062900Y-92362900D02*
X37551100Y-92362900D01*
X31757800Y-94541300D02*
X32321200Y-95104600D01*
X32321200Y-95104600D02*
X35062900Y-92362900D01*
X32321200Y-95104600D02*
X32358700Y-95142200D01*
X12343700Y-94541300D02*
X31757800Y-94541300D01*
X11784200Y-95100800D02*
X12343700Y-94541300D01*
%TO.N,+3V3*%
X30399500Y-68801800D02*
X30210700Y-68990600D01*
X13408900Y-69465700D02*
X10475200Y-66532000D01*
X30210700Y-68990600D02*
X25987200Y-68990600D01*
X25987200Y-68990600D02*
X25512100Y-69465700D01*
X25512100Y-69465700D02*
X13408900Y-69465700D01*
X34249700Y-70066400D02*
X32985100Y-68801800D01*
X32985100Y-68801800D02*
X30399500Y-68801800D01*
%TO.N,BTN_DOWN*%
X46294400Y-39160000D02*
X36278800Y-29144400D01*
X36278800Y-29144400D02*
X36278800Y-28616300D01*
X56000000Y-39160000D02*
X46294400Y-39160000D01*
X36278800Y-28616300D02*
X40028000Y-24867100D01*
%TO.N,BTN_BACK*%
X53696600Y-30151700D02*
X42179200Y-30151700D01*
X42179200Y-30151700D02*
X40934600Y-31396300D01*
X56000000Y-29000000D02*
X54848300Y-29000000D01*
X54848300Y-29000000D02*
X53696600Y-30151700D01*
%TO.N,BTN_POWER*%
X47965000Y-31540000D02*
X46005000Y-33500000D01*
X56000000Y-31540000D02*
X47965000Y-31540000D01*
%TO.N,BTN_UP*%
X36910000Y-28860000D02*
X42151700Y-34101700D01*
X42151700Y-34101700D02*
X55978300Y-34101700D01*
X55978300Y-34101700D02*
X56000000Y-34080000D01*
%TO.N,BTN_HOME*%
X56000000Y-36620000D02*
X57192800Y-37812800D01*
X57192800Y-37812800D02*
X57192800Y-39612200D01*
X57216100Y-35403900D02*
X56000000Y-36620000D01*
X47394500Y-40430000D02*
X46875100Y-40949400D01*
X41337300Y-25931900D02*
X55059400Y-25931900D01*
X57216100Y-28088600D02*
X57216100Y-35403900D01*
X56375000Y-40430000D02*
X47394500Y-40430000D01*
X55059400Y-25931900D02*
X57216100Y-28088600D01*
X57192800Y-39612200D02*
X56375000Y-40430000D01*
%TO.N,PREVGH*%
X36080600Y-63055100D02*
X35270700Y-62245200D01*
X35270700Y-62245200D02*
X34772400Y-62245200D01*
X44082800Y-63055200D02*
X36080600Y-63055200D01*
X36080600Y-63055200D02*
X36080600Y-63055100D01*
X33664400Y-63353200D02*
X27399900Y-63353200D01*
X34772400Y-62245200D02*
X33664400Y-63353200D01*
X27399900Y-63353200D02*
X27000000Y-62953300D01*
%TO.N,PREVGL*%
X24650000Y-68820400D02*
X26870400Y-66600000D01*
X26870400Y-66600000D02*
X51825000Y-66600000D01*
%TO.N,EPD_RESE*%
X33987900Y-63873100D02*
X35527400Y-65412600D01*
X16681000Y-63873100D02*
X33987900Y-63873100D01*
%TO.N,SD_CS*%
X30565200Y-32067600D02*
X43866500Y-45368900D01*
X43866500Y-52253900D02*
X43387900Y-52732500D01*
X43866500Y-45368900D02*
X43866500Y-52253900D01*
%TO.N,BAT_ADC*%
X33669400Y-20545600D02*
X36910000Y-17305000D01*
X24769400Y-20545600D02*
X33669400Y-20545600D01*
X16675000Y-28640000D02*
X24769400Y-20545600D01*
%TO.N,USB_D+*%
X35096600Y-89001400D02*
X38400400Y-92305200D01*
X38400400Y-92305200D02*
X38400400Y-92821800D01*
X31455000Y-89637100D02*
X32090700Y-89001400D01*
X32090700Y-89001400D02*
X35096600Y-89001400D01*
%TO.N,EPD_VCOM*%
X53832200Y-63055200D02*
X50546700Y-63055200D01*
X47566400Y-66035500D02*
X35288000Y-66035500D01*
X50546700Y-63055200D02*
X47566400Y-66035500D01*
X35288000Y-66035500D02*
X34209200Y-64956700D01*
X34209200Y-64956700D02*
X24494000Y-64956700D01*
X24494000Y-64956700D02*
X23395600Y-66055100D01*
%TO.N,SPI_MOSI*%
X45275000Y-46209400D02*
X44030500Y-44964900D01*
X45275000Y-53182500D02*
X45275000Y-52065000D01*
X44030500Y-44964900D02*
X44030500Y-44611100D01*
X45275000Y-52065000D02*
X45275000Y-46209400D01*
X44030500Y-44611100D02*
X27180500Y-27761100D01*
X27180500Y-27761100D02*
X22665500Y-27761100D01*
X40957500Y-57500000D02*
X45275000Y-53182500D01*
%TO.N,SPI_SCK*%
X39684100Y-46468300D02*
X23090000Y-29874200D01*
X43223000Y-46468300D02*
X39684100Y-46468300D01*
X39684100Y-46468300D02*
X31074300Y-55078100D01*
X31074300Y-55078100D02*
X31074300Y-62751500D01*
X23090000Y-29874200D02*
X23090000Y-28640000D01*
X43223000Y-46468400D02*
X43223000Y-46468300D01*
X43252700Y-46498100D02*
X43223000Y-46468400D01*
%TD*%
%TA.AperFunction,Conductor*%
%TO.N,GND*%
G36*
X33432732Y-65326885D02*
G01*
X33478487Y-65379689D01*
X33488431Y-65448847D01*
X33485469Y-65463286D01*
X33449500Y-65597525D01*
X33449500Y-65742475D01*
X33462427Y-65790717D01*
X33487017Y-65882488D01*
X33559488Y-66008011D01*
X33559493Y-66008017D01*
X33589295Y-66037819D01*
X33622780Y-66099142D01*
X33617796Y-66168834D01*
X33575924Y-66224767D01*
X33510460Y-66249184D01*
X33501614Y-66249500D01*
X30994140Y-66249500D01*
X30927101Y-66229815D01*
X30881346Y-66177011D01*
X30871402Y-66107853D01*
X30900427Y-66044297D01*
X30932140Y-66018113D01*
X30938350Y-66014527D01*
X30956915Y-66003809D01*
X31059409Y-65901315D01*
X31131884Y-65775785D01*
X31169400Y-65635775D01*
X31169400Y-65490825D01*
X31162023Y-65463294D01*
X31163685Y-65393445D01*
X31202846Y-65335582D01*
X31267074Y-65308077D01*
X31281797Y-65307200D01*
X33365693Y-65307200D01*
X33432732Y-65326885D01*
G37*
%TD.AperFunction*%
%TA.AperFunction,Conductor*%
G36*
X5943039Y-1520185D02*
G01*
X5988794Y-1572989D01*
X6000000Y-1624500D01*
X6000000Y-14250000D01*
X18876000Y-14250000D01*
X18943039Y-14269685D01*
X18988794Y-14322489D01*
X19000000Y-14374000D01*
X19000000Y-14500000D01*
X41000000Y-14500000D01*
X41000000Y-14374000D01*
X41019685Y-14306961D01*
X41072489Y-14261206D01*
X41124000Y-14250000D01*
X54000000Y-14250000D01*
X54000000Y-1624500D01*
X54019685Y-1557461D01*
X54072489Y-1511706D01*
X54124000Y-1500500D01*
X58375500Y-1500500D01*
X58442539Y-1520185D01*
X58488294Y-1572989D01*
X58499500Y-1624500D01*
X58499500Y-102375500D01*
X58479815Y-102442539D01*
X58427011Y-102488294D01*
X58375500Y-102499500D01*
X35203765Y-102499500D01*
X35136726Y-102479815D01*
X35090971Y-102427011D01*
X35081027Y-102357853D01*
X35100663Y-102306609D01*
X35206185Y-102148684D01*
X35206192Y-102148671D01*
X35281569Y-101966693D01*
X35281572Y-101966681D01*
X35319999Y-101773495D01*
X35320000Y-101773492D01*
X35320000Y-101525000D01*
X34620000Y-101525000D01*
X34620000Y-101025000D01*
X35320000Y-101025000D01*
X35320000Y-100776508D01*
X35319999Y-100776504D01*
X35281572Y-100583318D01*
X35281569Y-100583306D01*
X35206192Y-100401328D01*
X35206185Y-100401315D01*
X35096751Y-100237537D01*
X35096748Y-100237533D01*
X34957466Y-100098251D01*
X34957462Y-100098248D01*
X34793684Y-99988814D01*
X34793671Y-99988807D01*
X34611691Y-99913429D01*
X34611683Y-99913427D01*
X34570000Y-99905135D01*
X34570000Y-100708011D01*
X34560060Y-100690795D01*
X34504205Y-100634940D01*
X34435796Y-100595444D01*
X34359496Y-100575000D01*
X34280504Y-100575000D01*
X34204204Y-100595444D01*
X34135795Y-100634940D01*
X34079940Y-100690795D01*
X34070000Y-100708011D01*
X34070000Y-99905136D01*
X34069999Y-99905135D01*
X34028316Y-99913427D01*
X34028308Y-99913429D01*
X33846328Y-99988807D01*
X33846315Y-99988814D01*
X33682537Y-100098248D01*
X33682533Y-100098251D01*
X33543251Y-100237533D01*
X33543248Y-100237537D01*
X33433814Y-100401315D01*
X33433807Y-100401328D01*
X33358430Y-100583306D01*
X33358427Y-100583318D01*
X33320000Y-100776504D01*
X33320000Y-101025000D01*
X34020000Y-101025000D01*
X34020000Y-101525000D01*
X33320000Y-101525000D01*
X33320000Y-101773495D01*
X33358427Y-101966681D01*
X33358430Y-101966693D01*
X33433807Y-102148671D01*
X33433814Y-102148684D01*
X33539337Y-102306609D01*
X33560215Y-102373286D01*
X33541731Y-102440667D01*
X33489752Y-102487357D01*
X33436235Y-102499500D01*
X26563765Y-102499500D01*
X26496726Y-102479815D01*
X26450971Y-102427011D01*
X26441027Y-102357853D01*
X26460663Y-102306609D01*
X26566185Y-102148684D01*
X26566192Y-102148671D01*
X26641569Y-101966693D01*
X26641572Y-101966681D01*
X26679999Y-101773495D01*
X26680000Y-101773492D01*
X26680000Y-101525000D01*
X25980000Y-101525000D01*
X25980000Y-101025000D01*
X26680000Y-101025000D01*
X26680000Y-100776508D01*
X26679999Y-100776504D01*
X26641572Y-100583318D01*
X26641569Y-100583306D01*
X26566192Y-100401328D01*
X26566185Y-100401315D01*
X26456751Y-100237537D01*
X26456748Y-100237533D01*
X26317466Y-100098251D01*
X26317462Y-100098248D01*
X26153684Y-99988814D01*
X26153671Y-99988807D01*
X25971691Y-99913429D01*
X25971683Y-99913427D01*
X25930000Y-99905135D01*
X25930000Y-100708011D01*
X25920060Y-100690795D01*
X25864205Y-100634940D01*
X25795796Y-100595444D01*
X25719496Y-100575000D01*
X25640504Y-100575000D01*
X25564204Y-100595444D01*
X25495795Y-100634940D01*
X25439940Y-100690795D01*
X25430000Y-100708011D01*
X25430000Y-99905136D01*
X25429999Y-99905135D01*
X25388316Y-99913427D01*
X25388308Y-99913429D01*
X25206328Y-99988807D01*
X25206315Y-99988814D01*
X25042537Y-100098248D01*
X25042533Y-100098251D01*
X24903251Y-100237533D01*
X24903248Y-100237537D01*
X24793814Y-100401315D01*
X24793807Y-100401328D01*
X24718430Y-100583306D01*
X24718427Y-100583318D01*
X24680000Y-100776504D01*
X24680000Y-101025000D01*
X25380000Y-101025000D01*
X25380000Y-101525000D01*
X24680000Y-101525000D01*
X24680000Y-101773495D01*
X24718427Y-101966681D01*
X24718430Y-101966693D01*
X24793807Y-102148671D01*
X24793814Y-102148684D01*
X24899337Y-102306609D01*
X24920215Y-102373286D01*
X24901731Y-102440667D01*
X24849752Y-102487357D01*
X24796235Y-102499500D01*
X1624500Y-102499500D01*
X1557461Y-102479815D01*
X1511706Y-102427011D01*
X1500500Y-102375500D01*
X1500500Y-96446504D01*
X24680000Y-96446504D01*
X24680000Y-96845000D01*
X25380000Y-96845000D01*
X25380000Y-97345000D01*
X24680000Y-97345000D01*
X24680000Y-97743495D01*
X24718427Y-97936681D01*
X24718430Y-97936693D01*
X24793807Y-98118671D01*
X24793814Y-98118684D01*
X24903248Y-98282462D01*
X24903251Y-98282466D01*
X25042533Y-98421748D01*
X25042537Y-98421751D01*
X25206315Y-98531185D01*
X25206328Y-98531192D01*
X25388308Y-98606569D01*
X25430000Y-98614862D01*
X25430000Y-97811988D01*
X25439940Y-97829205D01*
X25495795Y-97885060D01*
X25564204Y-97924556D01*
X25640504Y-97945000D01*
X25719496Y-97945000D01*
X25795796Y-97924556D01*
X25864205Y-97885060D01*
X25920060Y-97829205D01*
X25930000Y-97811988D01*
X25930000Y-98614862D01*
X25971690Y-98606569D01*
X25971692Y-98606569D01*
X26153671Y-98531192D01*
X26153684Y-98531185D01*
X26317462Y-98421751D01*
X26317466Y-98421748D01*
X26456748Y-98282466D01*
X26456751Y-98282462D01*
X26566185Y-98118684D01*
X26566187Y-98118680D01*
X26610871Y-98010802D01*
X26654712Y-97956399D01*
X26721006Y-97934333D01*
X26788705Y-97951612D01*
X26813114Y-97970573D01*
X26818036Y-97975495D01*
X26926464Y-98038095D01*
X27047399Y-98070500D01*
X27047401Y-98070500D01*
X27172599Y-98070500D01*
X27172601Y-98070500D01*
X27293536Y-98038095D01*
X27401964Y-97975495D01*
X27490495Y-97886964D01*
X27553095Y-97778536D01*
X27585500Y-97657601D01*
X27585500Y-97532399D01*
X32414500Y-97532399D01*
X32414500Y-97657601D01*
X32446905Y-97778536D01*
X32509505Y-97886964D01*
X32598036Y-97975495D01*
X32706464Y-98038095D01*
X32827399Y-98070500D01*
X32827401Y-98070500D01*
X32952599Y-98070500D01*
X32952601Y-98070500D01*
X33073536Y-98038095D01*
X33181964Y-97975495D01*
X33186883Y-97970575D01*
X33248202Y-97937089D01*
X33317894Y-97942070D01*
X33373830Y-97983939D01*
X33389127Y-98010802D01*
X33433807Y-98118671D01*
X33433814Y-98118684D01*
X33543248Y-98282462D01*
X33543251Y-98282466D01*
X33682533Y-98421748D01*
X33682537Y-98421751D01*
X33846315Y-98531185D01*
X33846328Y-98531192D01*
X34028308Y-98606569D01*
X34070000Y-98614862D01*
X34070000Y-97811988D01*
X34079940Y-97829205D01*
X34135795Y-97885060D01*
X34204204Y-97924556D01*
X34280504Y-97945000D01*
X34359496Y-97945000D01*
X34435796Y-97924556D01*
X34504205Y-97885060D01*
X34560060Y-97829205D01*
X34570000Y-97811988D01*
X34570000Y-98614862D01*
X34611690Y-98606569D01*
X34611692Y-98606569D01*
X34793671Y-98531192D01*
X34793684Y-98531185D01*
X34957462Y-98421751D01*
X34957466Y-98421748D01*
X35096748Y-98282466D01*
X35096751Y-98282462D01*
X35206185Y-98118684D01*
X35206192Y-98118671D01*
X35281569Y-97936693D01*
X35281572Y-97936681D01*
X35319999Y-97743495D01*
X35320000Y-97743492D01*
X35320000Y-97345000D01*
X34620000Y-97345000D01*
X34620000Y-96845000D01*
X35320000Y-96845000D01*
X35320000Y-96446508D01*
X35319999Y-96446504D01*
X35281572Y-96253318D01*
X35281569Y-96253306D01*
X35206192Y-96071328D01*
X35206185Y-96071315D01*
X35096751Y-95907537D01*
X35096748Y-95907533D01*
X34957466Y-95768251D01*
X34957462Y-95768248D01*
X34793684Y-95658814D01*
X34793671Y-95658807D01*
X34611691Y-95583429D01*
X34611683Y-95583427D01*
X34570000Y-95575135D01*
X34570000Y-96378011D01*
X34560060Y-96360795D01*
X34504205Y-96304940D01*
X34435796Y-96265444D01*
X34359496Y-96245000D01*
X34280504Y-96245000D01*
X34204204Y-96265444D01*
X34135795Y-96304940D01*
X34079940Y-96360795D01*
X34070000Y-96378011D01*
X34070000Y-95575136D01*
X34069999Y-95575135D01*
X34028316Y-95583427D01*
X34028308Y-95583429D01*
X33846328Y-95658807D01*
X33846315Y-95658814D01*
X33682537Y-95768248D01*
X33682533Y-95768251D01*
X33543251Y-95907533D01*
X33543248Y-95907537D01*
X33433814Y-96071315D01*
X33433807Y-96071328D01*
X33358430Y-96253306D01*
X33358427Y-96253318D01*
X33320000Y-96446504D01*
X33320000Y-96845000D01*
X34020000Y-96845000D01*
X34020000Y-97345000D01*
X33363821Y-97345000D01*
X33296782Y-97325315D01*
X33276140Y-97308681D01*
X33181965Y-97214506D01*
X33181964Y-97214505D01*
X33073536Y-97151905D01*
X33073537Y-97151905D01*
X33033224Y-97141103D01*
X32952601Y-97119500D01*
X32827399Y-97119500D01*
X32746775Y-97141103D01*
X32706463Y-97151905D01*
X32598037Y-97214504D01*
X32598034Y-97214506D01*
X32509506Y-97303034D01*
X32509504Y-97303037D01*
X32446905Y-97411463D01*
X32446905Y-97411464D01*
X32414500Y-97532399D01*
X27585500Y-97532399D01*
X27553095Y-97411464D01*
X27490495Y-97303036D01*
X27401964Y-97214505D01*
X27293536Y-97151905D01*
X27293537Y-97151905D01*
X27253224Y-97141103D01*
X27172601Y-97119500D01*
X27047399Y-97119500D01*
X26966775Y-97141103D01*
X26926463Y-97151905D01*
X26818037Y-97214504D01*
X26818034Y-97214506D01*
X26723860Y-97308681D01*
X26662537Y-97342166D01*
X26636179Y-97345000D01*
X25980000Y-97345000D01*
X25980000Y-96845000D01*
X26680000Y-96845000D01*
X26680000Y-96446508D01*
X26679999Y-96446504D01*
X26641572Y-96253318D01*
X26641569Y-96253306D01*
X26566192Y-96071328D01*
X26566185Y-96071315D01*
X26456751Y-95907537D01*
X26456748Y-95907533D01*
X26317466Y-95768251D01*
X26317462Y-95768248D01*
X26153684Y-95658814D01*
X26153671Y-95658807D01*
X25971691Y-95583429D01*
X25971683Y-95583427D01*
X25930000Y-95575135D01*
X25930000Y-96378011D01*
X25920060Y-96360795D01*
X25864205Y-96304940D01*
X25795796Y-96265444D01*
X25719496Y-96245000D01*
X25640504Y-96245000D01*
X25564204Y-96265444D01*
X25495795Y-96304940D01*
X25439940Y-96360795D01*
X25430000Y-96378011D01*
X25430000Y-95575136D01*
X25429999Y-95575135D01*
X25388316Y-95583427D01*
X25388308Y-95583429D01*
X25206328Y-95658807D01*
X25206315Y-95658814D01*
X25042537Y-95768248D01*
X25042533Y-95768251D01*
X24903251Y-95907533D01*
X24903248Y-95907537D01*
X24793814Y-96071315D01*
X24793807Y-96071328D01*
X24718430Y-96253306D01*
X24718427Y-96253318D01*
X24680000Y-96446504D01*
X1500500Y-96446504D01*
X1500500Y-95028325D01*
X11233700Y-95028325D01*
X11233700Y-95173275D01*
X11271216Y-95313285D01*
X11271217Y-95313288D01*
X11343688Y-95438811D01*
X11343690Y-95438813D01*
X11343691Y-95438815D01*
X11446185Y-95541309D01*
X11446186Y-95541310D01*
X11446188Y-95541311D01*
X11571711Y-95613782D01*
X11571712Y-95613782D01*
X11571715Y-95613784D01*
X11711725Y-95651300D01*
X11711728Y-95651300D01*
X11856672Y-95651300D01*
X11856675Y-95651300D01*
X11996685Y-95613784D01*
X12122215Y-95541309D01*
X12224709Y-95438815D01*
X12297184Y-95313285D01*
X12334700Y-95173275D01*
X12334700Y-95097344D01*
X12343344Y-95067903D01*
X12349868Y-95037917D01*
X12353622Y-95032901D01*
X12354385Y-95030305D01*
X12371019Y-95009663D01*
X12452563Y-94928119D01*
X12513886Y-94894634D01*
X12540244Y-94891800D01*
X31561280Y-94891800D01*
X31628319Y-94911485D01*
X31648953Y-94928111D01*
X31696813Y-94975962D01*
X31771873Y-95051009D01*
X31805364Y-95112328D01*
X31808200Y-95138697D01*
X31808200Y-95214675D01*
X31834623Y-95313285D01*
X31845717Y-95354688D01*
X31918188Y-95480211D01*
X31918190Y-95480213D01*
X31918191Y-95480215D01*
X32020685Y-95582709D01*
X32020686Y-95582710D01*
X32020688Y-95582711D01*
X32146211Y-95655182D01*
X32146212Y-95655182D01*
X32146215Y-95655184D01*
X32286225Y-95692700D01*
X32286228Y-95692700D01*
X32431172Y-95692700D01*
X32431175Y-95692700D01*
X32571185Y-95655184D01*
X32696715Y-95582709D01*
X32799209Y-95480215D01*
X32871684Y-95354685D01*
X32909200Y-95214675D01*
X32909200Y-95069725D01*
X32909200Y-95063643D01*
X32928885Y-94996604D01*
X32945519Y-94975962D01*
X35171762Y-92749719D01*
X35233085Y-92716234D01*
X35259443Y-92713400D01*
X37071714Y-92713400D01*
X37138753Y-92733085D01*
X37159395Y-92749719D01*
X37213085Y-92803409D01*
X37213086Y-92803410D01*
X37213088Y-92803411D01*
X37338611Y-92875882D01*
X37338612Y-92875882D01*
X37338615Y-92875884D01*
X37478625Y-92913400D01*
X37478628Y-92913400D01*
X37623572Y-92913400D01*
X37623575Y-92913400D01*
X37719748Y-92887630D01*
X37789595Y-92889293D01*
X37847457Y-92928455D01*
X37871614Y-92975310D01*
X37887417Y-93034289D01*
X37959888Y-93159811D01*
X37959890Y-93159813D01*
X37959891Y-93159815D01*
X38062385Y-93262309D01*
X38062386Y-93262310D01*
X38062388Y-93262311D01*
X38187911Y-93334782D01*
X38187912Y-93334782D01*
X38187915Y-93334784D01*
X38327925Y-93372300D01*
X38327928Y-93372300D01*
X38472872Y-93372300D01*
X38472875Y-93372300D01*
X38612885Y-93334784D01*
X38738415Y-93262309D01*
X38840909Y-93159815D01*
X38913384Y-93034285D01*
X38950900Y-92894275D01*
X38950900Y-92749325D01*
X38913384Y-92609315D01*
X38840909Y-92483785D01*
X38787219Y-92430095D01*
X38753734Y-92368772D01*
X38750900Y-92342414D01*
X38750900Y-92259058D01*
X38750900Y-92259056D01*
X38727014Y-92169912D01*
X38714183Y-92147688D01*
X38680870Y-92089988D01*
X35311812Y-88720930D01*
X35311811Y-88720929D01*
X35311808Y-88720927D01*
X35231890Y-88674787D01*
X35231889Y-88674786D01*
X35231888Y-88674786D01*
X35142744Y-88650900D01*
X32044556Y-88650900D01*
X31955412Y-88674786D01*
X31955409Y-88674787D01*
X31875491Y-88720927D01*
X31875486Y-88720931D01*
X31546137Y-89050281D01*
X31484814Y-89083766D01*
X31458456Y-89086600D01*
X31382525Y-89086600D01*
X31253993Y-89121040D01*
X31242511Y-89124117D01*
X31116988Y-89196588D01*
X31116982Y-89196593D01*
X31014493Y-89299082D01*
X31014488Y-89299088D01*
X30942017Y-89424611D01*
X30942016Y-89424615D01*
X30904500Y-89564625D01*
X30904500Y-89709575D01*
X30942016Y-89849585D01*
X30942017Y-89849588D01*
X31014488Y-89975111D01*
X31014490Y-89975113D01*
X31014491Y-89975115D01*
X31116985Y-90077609D01*
X31116986Y-90077610D01*
X31116988Y-90077611D01*
X31242511Y-90150082D01*
X31242512Y-90150082D01*
X31242515Y-90150084D01*
X31382525Y-90187600D01*
X31382528Y-90187600D01*
X31527472Y-90187600D01*
X31527475Y-90187600D01*
X31667485Y-90150084D01*
X31793015Y-90077609D01*
X31895509Y-89975115D01*
X31967984Y-89849585D01*
X32005500Y-89709575D01*
X32005500Y-89633644D01*
X32014144Y-89604203D01*
X32020668Y-89574217D01*
X32024422Y-89569201D01*
X32025185Y-89566605D01*
X32041819Y-89545963D01*
X32199563Y-89388219D01*
X32260886Y-89354734D01*
X32287244Y-89351900D01*
X33710329Y-89351900D01*
X33777368Y-89371585D01*
X33823123Y-89424389D01*
X33833067Y-89493547D01*
X33830106Y-89507980D01*
X33814500Y-89566225D01*
X33814500Y-89711175D01*
X33851587Y-89849585D01*
X33852017Y-89851188D01*
X33924488Y-89976711D01*
X33924490Y-89976713D01*
X33924491Y-89976715D01*
X34026985Y-90079209D01*
X34026986Y-90079210D01*
X34026988Y-90079211D01*
X34152511Y-90151682D01*
X34152512Y-90151682D01*
X34152515Y-90151684D01*
X34292525Y-90189200D01*
X34292528Y-90189200D01*
X34437472Y-90189200D01*
X34437475Y-90189200D01*
X34577485Y-90151684D01*
X34703015Y-90079209D01*
X34805509Y-89976715D01*
X34877984Y-89851185D01*
X34915500Y-89711175D01*
X34915500Y-89615344D01*
X34935185Y-89548305D01*
X34987989Y-89502550D01*
X35057147Y-89492606D01*
X35120703Y-89521631D01*
X35127181Y-89527663D01*
X37294603Y-91695085D01*
X37302545Y-91709631D01*
X37314506Y-91721108D01*
X37318945Y-91739664D01*
X37328088Y-91756408D01*
X37326905Y-91772940D01*
X37330762Y-91789060D01*
X37324465Y-91807068D01*
X37323104Y-91826100D01*
X37312976Y-91839922D01*
X37307700Y-91855014D01*
X37290503Y-91870596D01*
X37283263Y-91880480D01*
X37276428Y-91885819D01*
X37213085Y-91922391D01*
X37154030Y-91981445D01*
X37148055Y-91986114D01*
X37122345Y-91996311D01*
X37098072Y-92009566D01*
X37085529Y-92010914D01*
X37083108Y-92011875D01*
X37080801Y-92011422D01*
X37071714Y-92012400D01*
X35016756Y-92012400D01*
X34927612Y-92036286D01*
X34927611Y-92036286D01*
X34927609Y-92036287D01*
X34927606Y-92036288D01*
X34847694Y-92082426D01*
X34847685Y-92082433D01*
X32408851Y-94521266D01*
X32347528Y-94554751D01*
X32277836Y-94549767D01*
X32233497Y-94521274D01*
X32001313Y-94289131D01*
X32001308Y-94289127D01*
X32001305Y-94289124D01*
X31973012Y-94260831D01*
X31973000Y-94260824D01*
X31972987Y-94260811D01*
X31930087Y-94236047D01*
X31929890Y-94235934D01*
X31929834Y-94235902D01*
X31893088Y-94214686D01*
X31893072Y-94214681D01*
X31893059Y-94214674D01*
X31892418Y-94214502D01*
X31892416Y-94214501D01*
X31853518Y-94204082D01*
X31853518Y-94204081D01*
X31853509Y-94204080D01*
X31803937Y-94190797D01*
X31803929Y-94190796D01*
X31769309Y-94190799D01*
X31769305Y-94190800D01*
X12297556Y-94190800D01*
X12208456Y-94214674D01*
X12208415Y-94214684D01*
X12208412Y-94214686D01*
X12128490Y-94260829D01*
X12128484Y-94260833D01*
X11875337Y-94513981D01*
X11814014Y-94547466D01*
X11787656Y-94550300D01*
X11711725Y-94550300D01*
X11583193Y-94584740D01*
X11571711Y-94587817D01*
X11446188Y-94660288D01*
X11446182Y-94660293D01*
X11343693Y-94762782D01*
X11343688Y-94762788D01*
X11271217Y-94888311D01*
X11271216Y-94888315D01*
X11233700Y-95028325D01*
X1500500Y-95028325D01*
X1500500Y-83763425D01*
X11293300Y-83763425D01*
X11293300Y-83908375D01*
X11330816Y-84048385D01*
X11330817Y-84048388D01*
X11403288Y-84173911D01*
X11403290Y-84173913D01*
X11403291Y-84173915D01*
X11505785Y-84276409D01*
X11505786Y-84276410D01*
X11505788Y-84276411D01*
X11631311Y-84348882D01*
X11631312Y-84348882D01*
X11631315Y-84348884D01*
X11771325Y-84386400D01*
X11771328Y-84386400D01*
X11916272Y-84386400D01*
X11916275Y-84386400D01*
X12056285Y-84348884D01*
X12181815Y-84276409D01*
X12284309Y-84173915D01*
X12356784Y-84048385D01*
X12394300Y-83908375D01*
X12394300Y-83763425D01*
X12356784Y-83623415D01*
X12284309Y-83497885D01*
X12181815Y-83395391D01*
X12181813Y-83395390D01*
X12181811Y-83395388D01*
X12056288Y-83322917D01*
X12056289Y-83322917D01*
X12044806Y-83319840D01*
X11916275Y-83285400D01*
X11771325Y-83285400D01*
X11642793Y-83319840D01*
X11631311Y-83322917D01*
X11505788Y-83395388D01*
X11505782Y-83395393D01*
X11403293Y-83497882D01*
X11403288Y-83497888D01*
X11330817Y-83623411D01*
X11330816Y-83623415D01*
X11293300Y-83763425D01*
X1500500Y-83763425D01*
X1500500Y-77749999D01*
X3650884Y-77749999D01*
X3650885Y-77750000D01*
X4719670Y-77750000D01*
X4699925Y-77769745D01*
X4650556Y-77855255D01*
X4625000Y-77950630D01*
X4625000Y-78049370D01*
X4650556Y-78144745D01*
X4699925Y-78230255D01*
X4719670Y-78250000D01*
X3650885Y-78250000D01*
X3652085Y-78257584D01*
X3705591Y-78422255D01*
X3784195Y-78576524D01*
X3885967Y-78716602D01*
X4008397Y-78839032D01*
X4148475Y-78940804D01*
X4191162Y-78962554D01*
X4241958Y-79010529D01*
X4258753Y-79078350D01*
X4236216Y-79144485D01*
X4181501Y-79187936D01*
X4178201Y-79189221D01*
X4132670Y-79206203D01*
X4132664Y-79206206D01*
X4017455Y-79292452D01*
X4017452Y-79292455D01*
X3931206Y-79407664D01*
X3931202Y-79407671D01*
X3880908Y-79542517D01*
X3874501Y-79602116D01*
X3874501Y-79602123D01*
X3874500Y-79602135D01*
X3874500Y-80397870D01*
X3874501Y-80397876D01*
X3880908Y-80457483D01*
X3931202Y-80592328D01*
X3931206Y-80592335D01*
X4017452Y-80707544D01*
X4017455Y-80707547D01*
X4132664Y-80793793D01*
X4132671Y-80793797D01*
X4267517Y-80844091D01*
X4267516Y-80844091D01*
X4274444Y-80844835D01*
X4327127Y-80850500D01*
X5672872Y-80850499D01*
X5732483Y-80844091D01*
X5867331Y-80793796D01*
X5982546Y-80707546D01*
X6068796Y-80592331D01*
X6119091Y-80457483D01*
X6125500Y-80397873D01*
X6125499Y-79602128D01*
X6119091Y-79542517D01*
X6068796Y-79407669D01*
X6068795Y-79407668D01*
X6068793Y-79407664D01*
X5982547Y-79292455D01*
X5982544Y-79292452D01*
X5867335Y-79206206D01*
X5867330Y-79206203D01*
X5821798Y-79189221D01*
X5765865Y-79147349D01*
X5741448Y-79081885D01*
X5756300Y-79013612D01*
X5805705Y-78964207D01*
X5808838Y-78962554D01*
X5851522Y-78940805D01*
X5991602Y-78839032D01*
X6114032Y-78716602D01*
X6215804Y-78576524D01*
X6294408Y-78422255D01*
X6347914Y-78257584D01*
X6349115Y-78250000D01*
X5280330Y-78250000D01*
X5300075Y-78230255D01*
X5349444Y-78144745D01*
X5375000Y-78049370D01*
X5375000Y-77950630D01*
X5349444Y-77855255D01*
X5300075Y-77769745D01*
X5280330Y-77750000D01*
X6349115Y-77750000D01*
X6349115Y-77749999D01*
X6347914Y-77742415D01*
X6294408Y-77577744D01*
X6215804Y-77423475D01*
X6114032Y-77283397D01*
X5991602Y-77160967D01*
X5851524Y-77059195D01*
X5697257Y-76980591D01*
X5532584Y-76927085D01*
X5361571Y-76900000D01*
X5250000Y-76900000D01*
X5250000Y-77719670D01*
X5230255Y-77699925D01*
X5144745Y-77650556D01*
X5049370Y-77625000D01*
X4950630Y-77625000D01*
X4855255Y-77650556D01*
X4769745Y-77699925D01*
X4750000Y-77719670D01*
X4750000Y-76900000D01*
X4638429Y-76900000D01*
X4467415Y-76927085D01*
X4302742Y-76980591D01*
X4148475Y-77059195D01*
X4008397Y-77160967D01*
X3885967Y-77283397D01*
X3784195Y-77423475D01*
X3705591Y-77577744D01*
X3652085Y-77742415D01*
X3650884Y-77749999D01*
X1500500Y-77749999D01*
X1500500Y-71408525D01*
X15477000Y-71408525D01*
X15477000Y-71553475D01*
X15514516Y-71693485D01*
X15514517Y-71693488D01*
X15586988Y-71819011D01*
X15586990Y-71819013D01*
X15586991Y-71819015D01*
X15689485Y-71921509D01*
X15689486Y-71921510D01*
X15689488Y-71921511D01*
X15815011Y-71993982D01*
X15815012Y-71993982D01*
X15815015Y-71993984D01*
X15955025Y-72031500D01*
X15955028Y-72031500D01*
X16099972Y-72031500D01*
X16099975Y-72031500D01*
X16239985Y-71993984D01*
X16365515Y-71921509D01*
X16468009Y-71819015D01*
X16540484Y-71693485D01*
X16578000Y-71553475D01*
X16578000Y-71408525D01*
X16540484Y-71268515D01*
X16468009Y-71142985D01*
X16365515Y-71040491D01*
X16365513Y-71040490D01*
X16365511Y-71040488D01*
X16239988Y-70968017D01*
X16239989Y-70968017D01*
X16228506Y-70964940D01*
X16099975Y-70930500D01*
X15955025Y-70930500D01*
X15826493Y-70964940D01*
X15815011Y-70968017D01*
X15689488Y-71040488D01*
X15689482Y-71040493D01*
X15586993Y-71142982D01*
X15586988Y-71142988D01*
X15514517Y-71268511D01*
X15514516Y-71268515D01*
X15477000Y-71408525D01*
X1500500Y-71408525D01*
X1500500Y-66459525D01*
X9924700Y-66459525D01*
X9924700Y-66604475D01*
X9929701Y-66623137D01*
X9962217Y-66744488D01*
X10034688Y-66870011D01*
X10034690Y-66870013D01*
X10034691Y-66870015D01*
X10137185Y-66972509D01*
X10137186Y-66972510D01*
X10137188Y-66972511D01*
X10262711Y-67044982D01*
X10262712Y-67044982D01*
X10262715Y-67044984D01*
X10402725Y-67082500D01*
X10478656Y-67082500D01*
X10545695Y-67102185D01*
X10566337Y-67118819D01*
X13128431Y-69680912D01*
X13193688Y-69746169D01*
X13193691Y-69746170D01*
X13193694Y-69746173D01*
X13273606Y-69792311D01*
X13273607Y-69792311D01*
X13273612Y-69792314D01*
X13362756Y-69816200D01*
X13362758Y-69816200D01*
X25558242Y-69816200D01*
X25558244Y-69816200D01*
X25647388Y-69792314D01*
X25647392Y-69792312D01*
X25674418Y-69776708D01*
X25674420Y-69776707D01*
X25727312Y-69746170D01*
X26096063Y-69377419D01*
X26157386Y-69343934D01*
X26183744Y-69341100D01*
X29974100Y-69341100D01*
X30041139Y-69360785D01*
X30086894Y-69413589D01*
X30098100Y-69465100D01*
X30098100Y-69475975D01*
X30118851Y-69553417D01*
X30135617Y-69615988D01*
X30208088Y-69741511D01*
X30208090Y-69741513D01*
X30208091Y-69741515D01*
X30310585Y-69844009D01*
X30310586Y-69844010D01*
X30310588Y-69844011D01*
X30436111Y-69916482D01*
X30436112Y-69916482D01*
X30436115Y-69916484D01*
X30576125Y-69954000D01*
X30576128Y-69954000D01*
X30721072Y-69954000D01*
X30721075Y-69954000D01*
X30861085Y-69916484D01*
X30861087Y-69916482D01*
X30861089Y-69916482D01*
X30861090Y-69916481D01*
X30862356Y-69915750D01*
X30940962Y-69870366D01*
X31008860Y-69853893D01*
X31074888Y-69876745D01*
X31110347Y-69915749D01*
X31117891Y-69928815D01*
X31220385Y-70031309D01*
X31220386Y-70031310D01*
X31220388Y-70031311D01*
X31345911Y-70103782D01*
X31345912Y-70103782D01*
X31345915Y-70103784D01*
X31485925Y-70141300D01*
X31485928Y-70141300D01*
X31630872Y-70141300D01*
X31630875Y-70141300D01*
X31770885Y-70103784D01*
X31896415Y-70031309D01*
X31998909Y-69928815D01*
X32071384Y-69803285D01*
X32108900Y-69663275D01*
X32108900Y-69518325D01*
X32071384Y-69378315D01*
X32070867Y-69377419D01*
X32048282Y-69338300D01*
X32031809Y-69270400D01*
X32054662Y-69204373D01*
X32109583Y-69161182D01*
X32155669Y-69152300D01*
X32788556Y-69152300D01*
X32855595Y-69171985D01*
X32876237Y-69188619D01*
X33662881Y-69975263D01*
X33696366Y-70036586D01*
X33699200Y-70062944D01*
X33699200Y-70138875D01*
X33736716Y-70278885D01*
X33736717Y-70278888D01*
X33809188Y-70404411D01*
X33809190Y-70404413D01*
X33809191Y-70404415D01*
X33911685Y-70506909D01*
X33911686Y-70506910D01*
X33911688Y-70506911D01*
X34037211Y-70579382D01*
X34037212Y-70579382D01*
X34037215Y-70579384D01*
X34177225Y-70616900D01*
X34177228Y-70616900D01*
X34322172Y-70616900D01*
X34322175Y-70616900D01*
X34462185Y-70579384D01*
X34587715Y-70506909D01*
X34690209Y-70404415D01*
X34762684Y-70278885D01*
X34800200Y-70138875D01*
X34800200Y-69993925D01*
X34762684Y-69853915D01*
X34762671Y-69853893D01*
X34690211Y-69728388D01*
X34690206Y-69728382D01*
X34587717Y-69625893D01*
X34587711Y-69625888D01*
X34462188Y-69553417D01*
X34462185Y-69553416D01*
X34437309Y-69546750D01*
X34377650Y-69510384D01*
X34347121Y-69447537D01*
X34355418Y-69378161D01*
X34399904Y-69324284D01*
X34407379Y-69319604D01*
X34465915Y-69285809D01*
X34568409Y-69183315D01*
X34640884Y-69057785D01*
X34678400Y-68917775D01*
X34678400Y-68772825D01*
X34640884Y-68632815D01*
X34595297Y-68553857D01*
X34568411Y-68507288D01*
X34568406Y-68507282D01*
X34465917Y-68404793D01*
X34465911Y-68404788D01*
X34340388Y-68332317D01*
X34340389Y-68332317D01*
X34321665Y-68327300D01*
X34200375Y-68294800D01*
X34055425Y-68294800D01*
X33934135Y-68327300D01*
X33915411Y-68332317D01*
X33789888Y-68404788D01*
X33789882Y-68404793D01*
X33687393Y-68507282D01*
X33687388Y-68507288D01*
X33614917Y-68632811D01*
X33614915Y-68632816D01*
X33606446Y-68664423D01*
X33570081Y-68724083D01*
X33507233Y-68754611D01*
X33437858Y-68746316D01*
X33398991Y-68720009D01*
X33200313Y-68521331D01*
X33200308Y-68521327D01*
X33120390Y-68475187D01*
X33120389Y-68475186D01*
X33120388Y-68475186D01*
X33031244Y-68451300D01*
X33031243Y-68451300D01*
X30582300Y-68451300D01*
X30515261Y-68431615D01*
X30469506Y-68378811D01*
X30458300Y-68327300D01*
X30458300Y-68262127D01*
X30458300Y-68262125D01*
X30420784Y-68122115D01*
X30348309Y-67996585D01*
X30245815Y-67894091D01*
X30245813Y-67894090D01*
X30245811Y-67894088D01*
X30120288Y-67821617D01*
X30120289Y-67821617D01*
X30108806Y-67818540D01*
X29980275Y-67784100D01*
X29835325Y-67784100D01*
X29706793Y-67818540D01*
X29695311Y-67821617D01*
X29569788Y-67894088D01*
X29569782Y-67894093D01*
X29467293Y-67996582D01*
X29467288Y-67996588D01*
X29394817Y-68122111D01*
X29394816Y-68122115D01*
X29357300Y-68262125D01*
X29357300Y-68262127D01*
X29357300Y-68407074D01*
X29377914Y-68484007D01*
X29376251Y-68553857D01*
X29337088Y-68611719D01*
X29272860Y-68639223D01*
X29258139Y-68640100D01*
X25941056Y-68640100D01*
X25851912Y-68663986D01*
X25851909Y-68663987D01*
X25771991Y-68710127D01*
X25771986Y-68710131D01*
X25403237Y-69078881D01*
X25376309Y-69093584D01*
X25350491Y-69110177D01*
X25344290Y-69111068D01*
X25341914Y-69112366D01*
X25315556Y-69115200D01*
X25302528Y-69115200D01*
X25235489Y-69095515D01*
X25189734Y-69042711D01*
X25179790Y-68973553D01*
X25182753Y-68959107D01*
X25182974Y-68958280D01*
X25200500Y-68892875D01*
X25200500Y-68816944D01*
X25220185Y-68749905D01*
X25236819Y-68729263D01*
X26979263Y-66986819D01*
X27040586Y-66953334D01*
X27066944Y-66950500D01*
X51345614Y-66950500D01*
X51412653Y-66970185D01*
X51433295Y-66986819D01*
X51486985Y-67040509D01*
X51486986Y-67040510D01*
X51486988Y-67040511D01*
X51612511Y-67112982D01*
X51612512Y-67112982D01*
X51612515Y-67112984D01*
X51752525Y-67150500D01*
X51752528Y-67150500D01*
X51897472Y-67150500D01*
X51897475Y-67150500D01*
X52037485Y-67112984D01*
X52163015Y-67040509D01*
X52265509Y-66938015D01*
X52337984Y-66812485D01*
X52375500Y-66672475D01*
X52375500Y-66527525D01*
X52337984Y-66387515D01*
X52298733Y-66319531D01*
X52265511Y-66261988D01*
X52265506Y-66261982D01*
X52163017Y-66159493D01*
X52163011Y-66159488D01*
X52037488Y-66087017D01*
X52037489Y-66087017D01*
X52026006Y-66083940D01*
X51897475Y-66049500D01*
X51752525Y-66049500D01*
X51623993Y-66083940D01*
X51612511Y-66087017D01*
X51486988Y-66159488D01*
X51486982Y-66159493D01*
X51433295Y-66213181D01*
X51371972Y-66246666D01*
X51345614Y-66249500D01*
X49093513Y-66249500D01*
X49026474Y-66229815D01*
X49000393Y-66199717D01*
X48988798Y-66218241D01*
X48925591Y-66248019D01*
X48906487Y-66249500D01*
X48147444Y-66249500D01*
X48080405Y-66229815D01*
X48034650Y-66177011D01*
X48024706Y-66107853D01*
X48053731Y-66044297D01*
X48059753Y-66037828D01*
X48352758Y-65744822D01*
X48374699Y-65732841D01*
X48394349Y-65717389D01*
X48404832Y-65716387D01*
X48414077Y-65711340D01*
X48439015Y-65713123D01*
X48463902Y-65710747D01*
X48473262Y-65715572D01*
X48483769Y-65716324D01*
X48503783Y-65731306D01*
X48526005Y-65742762D01*
X48535907Y-65755353D01*
X48539703Y-65758195D01*
X48547820Y-65770501D01*
X48559491Y-65790715D01*
X48661985Y-65893209D01*
X48661986Y-65893210D01*
X48661988Y-65893211D01*
X48787511Y-65965682D01*
X48787512Y-65965682D01*
X48787515Y-65965684D01*
X48927525Y-66003200D01*
X48927528Y-66003200D01*
X48935376Y-66005303D01*
X48934686Y-66007875D01*
X48986570Y-66030829D01*
X48998021Y-66048190D01*
X48999800Y-66044297D01*
X49058578Y-66006523D01*
X49065642Y-66005029D01*
X49072468Y-66003200D01*
X49072475Y-66003200D01*
X49212485Y-65965684D01*
X49338015Y-65893209D01*
X49440509Y-65790715D01*
X49512984Y-65665185D01*
X49550500Y-65525175D01*
X49550500Y-65380225D01*
X49512984Y-65240215D01*
X49475958Y-65176085D01*
X49440511Y-65114688D01*
X49440506Y-65114682D01*
X49338017Y-65012193D01*
X49338015Y-65012191D01*
X49317804Y-65000522D01*
X49269590Y-64949955D01*
X49256368Y-64881348D01*
X49282336Y-64816483D01*
X49292116Y-64805464D01*
X50655563Y-63442019D01*
X50716886Y-63408534D01*
X50743244Y-63405700D01*
X53352814Y-63405700D01*
X53419853Y-63425385D01*
X53440495Y-63442019D01*
X53494185Y-63495709D01*
X53494186Y-63495710D01*
X53494188Y-63495711D01*
X53619711Y-63568182D01*
X53619712Y-63568182D01*
X53619715Y-63568184D01*
X53759725Y-63605700D01*
X53759728Y-63605700D01*
X53904672Y-63605700D01*
X53904675Y-63605700D01*
X54044685Y-63568184D01*
X54170215Y-63495709D01*
X54272709Y-63393215D01*
X54345184Y-63267685D01*
X54382700Y-63127675D01*
X54382700Y-62982725D01*
X54345184Y-62842715D01*
X54334364Y-62823975D01*
X54272711Y-62717188D01*
X54272706Y-62717182D01*
X54170217Y-62614693D01*
X54170211Y-62614688D01*
X54044688Y-62542217D01*
X54044689Y-62542217D01*
X54032724Y-62539011D01*
X53904675Y-62504700D01*
X53759725Y-62504700D01*
X53631676Y-62539011D01*
X53619711Y-62542217D01*
X53494188Y-62614688D01*
X53494182Y-62614693D01*
X53440495Y-62668381D01*
X53379172Y-62701866D01*
X53352814Y-62704700D01*
X50500554Y-62704700D01*
X50411797Y-62728481D01*
X50411798Y-62728482D01*
X50411413Y-62728584D01*
X50411411Y-62728586D01*
X50331491Y-62774727D01*
X50331486Y-62774731D01*
X47457537Y-65648681D01*
X47396214Y-65682166D01*
X47369856Y-65685000D01*
X43314272Y-65685000D01*
X43247233Y-65665315D01*
X43201478Y-65612511D01*
X43191534Y-65543353D01*
X43220559Y-65479797D01*
X43252272Y-65453613D01*
X43260527Y-65448847D01*
X43338015Y-65404109D01*
X43440509Y-65301615D01*
X43512984Y-65176085D01*
X43550500Y-65036075D01*
X43550500Y-64891125D01*
X43512984Y-64751115D01*
X43469747Y-64676227D01*
X43440511Y-64625588D01*
X43440506Y-64625582D01*
X43338017Y-64523093D01*
X43338011Y-64523088D01*
X43212488Y-64450617D01*
X43212489Y-64450617D01*
X43201006Y-64447540D01*
X43072475Y-64413100D01*
X42927525Y-64413100D01*
X42798993Y-64447540D01*
X42787511Y-64450617D01*
X42661988Y-64523088D01*
X42661982Y-64523093D01*
X42559493Y-64625582D01*
X42559488Y-64625588D01*
X42487017Y-64751111D01*
X42487016Y-64751115D01*
X42449500Y-64891125D01*
X42449500Y-65036075D01*
X42459819Y-65074585D01*
X42487017Y-65176088D01*
X42559488Y-65301611D01*
X42559490Y-65301613D01*
X42559491Y-65301615D01*
X42661985Y-65404109D01*
X42736962Y-65447397D01*
X42747728Y-65453613D01*
X42795944Y-65504180D01*
X42809166Y-65572787D01*
X42783198Y-65637652D01*
X42726284Y-65678180D01*
X42685728Y-65685000D01*
X36185930Y-65685000D01*
X36118891Y-65665315D01*
X36073136Y-65612511D01*
X36063192Y-65543353D01*
X36066155Y-65528907D01*
X36067156Y-65525172D01*
X36077900Y-65485075D01*
X36077900Y-65340125D01*
X36040384Y-65200115D01*
X36026510Y-65176085D01*
X35967911Y-65074588D01*
X35967906Y-65074582D01*
X35865417Y-64972093D01*
X35865411Y-64972088D01*
X35739888Y-64899617D01*
X35739889Y-64899617D01*
X35708204Y-64891127D01*
X35599875Y-64862100D01*
X35599872Y-64862100D01*
X35523944Y-64862100D01*
X35456905Y-64842415D01*
X35436263Y-64825781D01*
X34203111Y-63592629D01*
X34187015Y-63583336D01*
X34163987Y-63570041D01*
X34115773Y-63519476D01*
X34102549Y-63450869D01*
X34128517Y-63386004D01*
X34138301Y-63374980D01*
X34374257Y-63139023D01*
X34435578Y-63105540D01*
X34505269Y-63110524D01*
X34561203Y-63152395D01*
X34569320Y-63164701D01*
X34580991Y-63184915D01*
X34683485Y-63287409D01*
X34683486Y-63287410D01*
X34683488Y-63287411D01*
X34809011Y-63359882D01*
X34809012Y-63359882D01*
X34809015Y-63359884D01*
X34949025Y-63397400D01*
X34949028Y-63397400D01*
X35093972Y-63397400D01*
X35093975Y-63397400D01*
X35233985Y-63359884D01*
X35359515Y-63287409D01*
X35462009Y-63184915D01*
X35473712Y-63164643D01*
X35491805Y-63147391D01*
X35506789Y-63127376D01*
X35516654Y-63123696D01*
X35524276Y-63116429D01*
X35548827Y-63111696D01*
X35572253Y-63102959D01*
X35582542Y-63105197D01*
X35592883Y-63103204D01*
X35616096Y-63112496D01*
X35640526Y-63117811D01*
X35653345Y-63127407D01*
X35657748Y-63129170D01*
X35668780Y-63138962D01*
X35794074Y-63264256D01*
X35794784Y-63265065D01*
X35800130Y-63270411D01*
X35800131Y-63270412D01*
X35865388Y-63335669D01*
X35865391Y-63335671D01*
X35865394Y-63335673D01*
X35945306Y-63381811D01*
X35945307Y-63381811D01*
X35945312Y-63381814D01*
X36034456Y-63405700D01*
X36126744Y-63405700D01*
X38238214Y-63405700D01*
X38305253Y-63425385D01*
X38351008Y-63478189D01*
X38360952Y-63547347D01*
X38334859Y-63604481D01*
X38336238Y-63605539D01*
X38331288Y-63611988D01*
X38258817Y-63737511D01*
X38258816Y-63737515D01*
X38221300Y-63877525D01*
X38221300Y-64022475D01*
X38258816Y-64162485D01*
X38258817Y-64162488D01*
X38331288Y-64288011D01*
X38331290Y-64288013D01*
X38331291Y-64288015D01*
X38433785Y-64390509D01*
X38433786Y-64390510D01*
X38433788Y-64390511D01*
X38559311Y-64462982D01*
X38559312Y-64462982D01*
X38559315Y-64462984D01*
X38699325Y-64500500D01*
X38699328Y-64500500D01*
X38844272Y-64500500D01*
X38844275Y-64500500D01*
X38984285Y-64462984D01*
X39109815Y-64390509D01*
X39212309Y-64288015D01*
X39284784Y-64162485D01*
X39322300Y-64022475D01*
X39322300Y-63877525D01*
X39284784Y-63737515D01*
X39240383Y-63660611D01*
X39212311Y-63611988D01*
X39207362Y-63605539D01*
X39210094Y-63603442D01*
X39184220Y-63556058D01*
X39189204Y-63486366D01*
X39231076Y-63430433D01*
X39296540Y-63406016D01*
X39305386Y-63405700D01*
X43603414Y-63405700D01*
X43670453Y-63425385D01*
X43691095Y-63442019D01*
X43744785Y-63495709D01*
X43744786Y-63495710D01*
X43744788Y-63495711D01*
X43870311Y-63568182D01*
X43870312Y-63568182D01*
X43870315Y-63568184D01*
X44010325Y-63605700D01*
X44010328Y-63605700D01*
X44155272Y-63605700D01*
X44155275Y-63605700D01*
X44295285Y-63568184D01*
X44420815Y-63495709D01*
X44523309Y-63393215D01*
X44595784Y-63267685D01*
X44633300Y-63127675D01*
X44633300Y-62982725D01*
X44595784Y-62842715D01*
X44584964Y-62823975D01*
X44523311Y-62717188D01*
X44523306Y-62717182D01*
X44420817Y-62614693D01*
X44420811Y-62614688D01*
X44295288Y-62542217D01*
X44295289Y-62542217D01*
X44283324Y-62539011D01*
X44155275Y-62504700D01*
X44010325Y-62504700D01*
X43882276Y-62539011D01*
X43870311Y-62542217D01*
X43744788Y-62614688D01*
X43744782Y-62614693D01*
X43691095Y-62668381D01*
X43629772Y-62701866D01*
X43603414Y-62704700D01*
X36277244Y-62704700D01*
X36210205Y-62685015D01*
X36189563Y-62668381D01*
X35485913Y-61964731D01*
X35485908Y-61964727D01*
X35405990Y-61918587D01*
X35405989Y-61918586D01*
X35405988Y-61918586D01*
X35316844Y-61894700D01*
X34726256Y-61894700D01*
X34637112Y-61918586D01*
X34637109Y-61918587D01*
X34557191Y-61964727D01*
X34557186Y-61964731D01*
X33555537Y-62966381D01*
X33494214Y-62999866D01*
X33467856Y-63002700D01*
X31738510Y-63002700D01*
X31671471Y-62983015D01*
X31625716Y-62930211D01*
X31615772Y-62861053D01*
X31618736Y-62846605D01*
X31624800Y-62823975D01*
X31624800Y-62679025D01*
X31587284Y-62539015D01*
X31514809Y-62413485D01*
X31461119Y-62359795D01*
X31427634Y-62298472D01*
X31424800Y-62272114D01*
X31424800Y-55274644D01*
X31444485Y-55207605D01*
X31461119Y-55186963D01*
X39792963Y-46855119D01*
X39854286Y-46821634D01*
X39880644Y-46818800D01*
X42743514Y-46818800D01*
X42810553Y-46838485D01*
X42831195Y-46855119D01*
X42914685Y-46938609D01*
X42914686Y-46938610D01*
X42914688Y-46938611D01*
X43040211Y-47011082D01*
X43040212Y-47011082D01*
X43040215Y-47011084D01*
X43180225Y-47048600D01*
X43180228Y-47048600D01*
X43325172Y-47048600D01*
X43325175Y-47048600D01*
X43359908Y-47039293D01*
X43429756Y-47040956D01*
X43487619Y-47080118D01*
X43515123Y-47144346D01*
X43516000Y-47159068D01*
X43516000Y-52057356D01*
X43507355Y-52086796D01*
X43500832Y-52116783D01*
X43497077Y-52121798D01*
X43496315Y-52124395D01*
X43479681Y-52145037D01*
X43479037Y-52145681D01*
X43417714Y-52179166D01*
X43391356Y-52182000D01*
X43315425Y-52182000D01*
X43186893Y-52216440D01*
X43175411Y-52219517D01*
X43049888Y-52291988D01*
X43049882Y-52291993D01*
X42947393Y-52394482D01*
X42947388Y-52394488D01*
X42874917Y-52520011D01*
X42874916Y-52520015D01*
X42837400Y-52660025D01*
X42837400Y-52804975D01*
X42874916Y-52944985D01*
X42874917Y-52944988D01*
X42947388Y-53070511D01*
X42947390Y-53070513D01*
X42947391Y-53070515D01*
X43049885Y-53173009D01*
X43049886Y-53173010D01*
X43049888Y-53173011D01*
X43175411Y-53245482D01*
X43175412Y-53245482D01*
X43175415Y-53245484D01*
X43315425Y-53283000D01*
X43315428Y-53283000D01*
X43460372Y-53283000D01*
X43460375Y-53283000D01*
X43600385Y-53245484D01*
X43725915Y-53173009D01*
X43828409Y-53070515D01*
X43900884Y-52944985D01*
X43938400Y-52804975D01*
X43938400Y-52729044D01*
X43958085Y-52662005D01*
X43974719Y-52641363D01*
X44146970Y-52469112D01*
X44193114Y-52389188D01*
X44208437Y-52332000D01*
X44217000Y-52300044D01*
X44217000Y-45946444D01*
X44236685Y-45879405D01*
X44289489Y-45833650D01*
X44358647Y-45823706D01*
X44422203Y-45852731D01*
X44428681Y-45858763D01*
X44888181Y-46318263D01*
X44921666Y-46379586D01*
X44924500Y-46405944D01*
X44924500Y-51585614D01*
X44904815Y-51652653D01*
X44888181Y-51673295D01*
X44834493Y-51726982D01*
X44834488Y-51726988D01*
X44762017Y-51852511D01*
X44762016Y-51852515D01*
X44724500Y-51992525D01*
X44724500Y-52137475D01*
X44762016Y-52277485D01*
X44762017Y-52277488D01*
X44834488Y-52403011D01*
X44834493Y-52403017D01*
X44888181Y-52456705D01*
X44921666Y-52518028D01*
X44924500Y-52544386D01*
X44924500Y-52985956D01*
X44904815Y-53052995D01*
X44888181Y-53073637D01*
X41048637Y-56913181D01*
X40987314Y-56946666D01*
X40960956Y-56949500D01*
X40885025Y-56949500D01*
X40756493Y-56983940D01*
X40745011Y-56987017D01*
X40619488Y-57059488D01*
X40619482Y-57059493D01*
X40516993Y-57161982D01*
X40516988Y-57161988D01*
X40444517Y-57287511D01*
X40444516Y-57287515D01*
X40407000Y-57427525D01*
X40407000Y-57572475D01*
X40444516Y-57712485D01*
X40444517Y-57712488D01*
X40516988Y-57838011D01*
X40516990Y-57838013D01*
X40516991Y-57838015D01*
X40619485Y-57940509D01*
X40619486Y-57940510D01*
X40619488Y-57940511D01*
X40745011Y-58012982D01*
X40745012Y-58012982D01*
X40745015Y-58012984D01*
X40885025Y-58050500D01*
X40885028Y-58050500D01*
X41029972Y-58050500D01*
X41029975Y-58050500D01*
X41169985Y-58012984D01*
X41295515Y-57940509D01*
X41305199Y-57930825D01*
X48201200Y-57930825D01*
X48201200Y-58075775D01*
X48238716Y-58215785D01*
X48238717Y-58215788D01*
X48311188Y-58341311D01*
X48311190Y-58341313D01*
X48311191Y-58341315D01*
X48413685Y-58443809D01*
X48413686Y-58443810D01*
X48413688Y-58443811D01*
X48539211Y-58516282D01*
X48539212Y-58516282D01*
X48539215Y-58516284D01*
X48679225Y-58553800D01*
X48679228Y-58553800D01*
X48824172Y-58553800D01*
X48824175Y-58553800D01*
X48964185Y-58516284D01*
X49089715Y-58443809D01*
X49192209Y-58341315D01*
X49264684Y-58215785D01*
X49302200Y-58075775D01*
X49302200Y-57930825D01*
X49264684Y-57790815D01*
X49192209Y-57665285D01*
X49089715Y-57562791D01*
X49089713Y-57562790D01*
X49089711Y-57562788D01*
X48964188Y-57490317D01*
X48964189Y-57490317D01*
X48952706Y-57487240D01*
X48824175Y-57452800D01*
X48679225Y-57452800D01*
X48550693Y-57487240D01*
X48539211Y-57490317D01*
X48413688Y-57562788D01*
X48413682Y-57562793D01*
X48311193Y-57665282D01*
X48311188Y-57665288D01*
X48238717Y-57790811D01*
X48238716Y-57790815D01*
X48201200Y-57930825D01*
X41305199Y-57930825D01*
X41398009Y-57838015D01*
X41470484Y-57712485D01*
X41508000Y-57572475D01*
X41508000Y-57496544D01*
X41527685Y-57429505D01*
X41544319Y-57408863D01*
X42040001Y-56913181D01*
X45555470Y-53397712D01*
X45601614Y-53317788D01*
X45610935Y-53283000D01*
X45625500Y-53228644D01*
X45625500Y-52544386D01*
X45645185Y-52477347D01*
X45661819Y-52456705D01*
X45715509Y-52403015D01*
X45787984Y-52277485D01*
X45825500Y-52137475D01*
X45825500Y-51992525D01*
X45787984Y-51852515D01*
X45715509Y-51726985D01*
X45661819Y-51673295D01*
X45628334Y-51611972D01*
X45625500Y-51585614D01*
X45625500Y-48060725D01*
X47737900Y-48060725D01*
X47737900Y-48205675D01*
X47775416Y-48345685D01*
X47775417Y-48345688D01*
X47847888Y-48471211D01*
X47847890Y-48471213D01*
X47847891Y-48471215D01*
X47950385Y-48573709D01*
X47950386Y-48573710D01*
X47950388Y-48573711D01*
X48075911Y-48646182D01*
X48075912Y-48646182D01*
X48075915Y-48646184D01*
X48215925Y-48683700D01*
X48215928Y-48683700D01*
X48360872Y-48683700D01*
X48360875Y-48683700D01*
X48500885Y-48646184D01*
X48626415Y-48573709D01*
X48728909Y-48471215D01*
X48801384Y-48345685D01*
X48838900Y-48205675D01*
X48838900Y-48060725D01*
X48801384Y-47920715D01*
X48728909Y-47795185D01*
X48626415Y-47692691D01*
X48626413Y-47692690D01*
X48626411Y-47692688D01*
X48500888Y-47620217D01*
X48500889Y-47620217D01*
X48489406Y-47617140D01*
X48360875Y-47582700D01*
X48215925Y-47582700D01*
X48087393Y-47617140D01*
X48075911Y-47620217D01*
X47950388Y-47692688D01*
X47950382Y-47692693D01*
X47847893Y-47795182D01*
X47847888Y-47795188D01*
X47775417Y-47920711D01*
X47775416Y-47920715D01*
X47737900Y-48060725D01*
X45625500Y-48060725D01*
X45625500Y-46163258D01*
X45625500Y-46163256D01*
X45601614Y-46074112D01*
X45555470Y-45994188D01*
X44417319Y-44856037D01*
X44383834Y-44794714D01*
X44381000Y-44768356D01*
X44381000Y-44564958D01*
X44381000Y-44564956D01*
X44357114Y-44475812D01*
X44310970Y-44395888D01*
X28485238Y-28570156D01*
X35928300Y-28570156D01*
X35928300Y-28581479D01*
X35928300Y-29190544D01*
X35947045Y-29260501D01*
X35947045Y-29260502D01*
X35952185Y-29279686D01*
X35998327Y-29359608D01*
X35998329Y-29359611D01*
X35998330Y-29359612D01*
X46013931Y-39375212D01*
X46079188Y-39440469D01*
X46079191Y-39440470D01*
X46079194Y-39440473D01*
X46159106Y-39486611D01*
X46159107Y-39486611D01*
X46159112Y-39486614D01*
X46248256Y-39510500D01*
X54867481Y-39510500D01*
X54934520Y-39530185D01*
X54977966Y-39578205D01*
X55018799Y-39658344D01*
X55058768Y-39736788D01*
X55160586Y-39876928D01*
X55160588Y-39876930D01*
X55163450Y-39880869D01*
X55162024Y-39881905D01*
X55187485Y-39938745D01*
X55177039Y-40007829D01*
X55130902Y-40060300D01*
X55064622Y-40079500D01*
X47348356Y-40079500D01*
X47267253Y-40101230D01*
X47267254Y-40101231D01*
X47259213Y-40103385D01*
X47259209Y-40103387D01*
X47179291Y-40149527D01*
X47179286Y-40149531D01*
X46966237Y-40362581D01*
X46904914Y-40396066D01*
X46878556Y-40398900D01*
X46802625Y-40398900D01*
X46674093Y-40433340D01*
X46662611Y-40436417D01*
X46537088Y-40508888D01*
X46537082Y-40508893D01*
X46434593Y-40611382D01*
X46434588Y-40611388D01*
X46362117Y-40736911D01*
X46362116Y-40736915D01*
X46324600Y-40876925D01*
X46324600Y-41021875D01*
X46362116Y-41161885D01*
X46362117Y-41161888D01*
X46434588Y-41287411D01*
X46434590Y-41287413D01*
X46434591Y-41287415D01*
X46537085Y-41389909D01*
X46537086Y-41389910D01*
X46537088Y-41389911D01*
X46662611Y-41462382D01*
X46662612Y-41462382D01*
X46662615Y-41462384D01*
X46802625Y-41499900D01*
X46802628Y-41499900D01*
X46947572Y-41499900D01*
X46947575Y-41499900D01*
X47087585Y-41462384D01*
X47213115Y-41389909D01*
X47315609Y-41287415D01*
X47388084Y-41161885D01*
X47425600Y-41021875D01*
X47425600Y-40945944D01*
X47434244Y-40916503D01*
X47440768Y-40886517D01*
X47444522Y-40881501D01*
X47445285Y-40878905D01*
X47461919Y-40858263D01*
X47503363Y-40816819D01*
X47564686Y-40783334D01*
X47591044Y-40780500D01*
X54756001Y-40780500D01*
X54823040Y-40800185D01*
X54868795Y-40852989D01*
X54878739Y-40922147D01*
X54856319Y-40977386D01*
X54845377Y-40992445D01*
X54748904Y-41181782D01*
X54683242Y-41383869D01*
X54683242Y-41383872D01*
X54650000Y-41593753D01*
X54650000Y-41806246D01*
X54683242Y-42016127D01*
X54683242Y-42016130D01*
X54748904Y-42218217D01*
X54845375Y-42407550D01*
X54884728Y-42461716D01*
X55517037Y-41829408D01*
X55534075Y-41892993D01*
X55599901Y-42007007D01*
X55692993Y-42100099D01*
X55807007Y-42165925D01*
X55870590Y-42182962D01*
X55238282Y-42815269D01*
X55238282Y-42815270D01*
X55292449Y-42854624D01*
X55481782Y-42951095D01*
X55683870Y-43016757D01*
X55893754Y-43050000D01*
X56106246Y-43050000D01*
X56316127Y-43016757D01*
X56316130Y-43016757D01*
X56518217Y-42951095D01*
X56707554Y-42854622D01*
X56761716Y-42815270D01*
X56761717Y-42815270D01*
X56129408Y-42182962D01*
X56192993Y-42165925D01*
X56307007Y-42100099D01*
X56400099Y-42007007D01*
X56465925Y-41892993D01*
X56482962Y-41829409D01*
X57115270Y-42461717D01*
X57115270Y-42461716D01*
X57154622Y-42407554D01*
X57251095Y-42218217D01*
X57316757Y-42016130D01*
X57316757Y-42016127D01*
X57350000Y-41806246D01*
X57350000Y-41593753D01*
X57316757Y-41383872D01*
X57316757Y-41383869D01*
X57251095Y-41181782D01*
X57154624Y-40992449D01*
X57115270Y-40938282D01*
X57115269Y-40938282D01*
X56482962Y-41570590D01*
X56465925Y-41507007D01*
X56400099Y-41392993D01*
X56307007Y-41299901D01*
X56192993Y-41234075D01*
X56129408Y-41217037D01*
X56767040Y-40579405D01*
X56777227Y-40530914D01*
X56798797Y-40501884D01*
X57473270Y-39827412D01*
X57519414Y-39747488D01*
X57543300Y-39658344D01*
X57543300Y-39566056D01*
X57543300Y-37766656D01*
X57519414Y-37677512D01*
X57497683Y-37639873D01*
X57473270Y-37597588D01*
X57048652Y-37172970D01*
X57015167Y-37111647D01*
X57018402Y-37046971D01*
X57019873Y-37042445D01*
X57073402Y-36877701D01*
X57100500Y-36706611D01*
X57100500Y-36533389D01*
X57073402Y-36362299D01*
X57019873Y-36197555D01*
X57019869Y-36197547D01*
X57018401Y-36193029D01*
X57016406Y-36123188D01*
X57048649Y-36067031D01*
X57496570Y-35619112D01*
X57542714Y-35539188D01*
X57547989Y-35519500D01*
X57566600Y-35450044D01*
X57566600Y-28042456D01*
X57542714Y-27953312D01*
X57542711Y-27953306D01*
X57496573Y-27873394D01*
X57496570Y-27873391D01*
X57496569Y-27873388D01*
X57431312Y-27808131D01*
X55274612Y-25651430D01*
X55274611Y-25651429D01*
X55274608Y-25651427D01*
X55194690Y-25605287D01*
X55194689Y-25605286D01*
X55194688Y-25605286D01*
X55105544Y-25581400D01*
X55105543Y-25581400D01*
X41816686Y-25581400D01*
X41749647Y-25561715D01*
X41729005Y-25545081D01*
X41675317Y-25491393D01*
X41675311Y-25491388D01*
X41549788Y-25418917D01*
X41549789Y-25418917D01*
X41538306Y-25415840D01*
X41409775Y-25381400D01*
X41264825Y-25381400D01*
X41136293Y-25415840D01*
X41124811Y-25418917D01*
X40999288Y-25491388D01*
X40999282Y-25491393D01*
X40896793Y-25593882D01*
X40896788Y-25593888D01*
X40824317Y-25719411D01*
X40824316Y-25719415D01*
X40786800Y-25859425D01*
X40786800Y-26004375D01*
X40796909Y-26042100D01*
X40824317Y-26144388D01*
X40896788Y-26269911D01*
X40896790Y-26269913D01*
X40896791Y-26269915D01*
X40999285Y-26372409D01*
X40999286Y-26372410D01*
X40999288Y-26372411D01*
X41124811Y-26444882D01*
X41124812Y-26444882D01*
X41124815Y-26444884D01*
X41264825Y-26482400D01*
X41264828Y-26482400D01*
X41409772Y-26482400D01*
X41409775Y-26482400D01*
X41549785Y-26444884D01*
X41675315Y-26372409D01*
X41729005Y-26318719D01*
X41790328Y-26285234D01*
X41816686Y-26282400D01*
X54862856Y-26282400D01*
X54929895Y-26302085D01*
X54950537Y-26318719D01*
X56319638Y-27687819D01*
X56353123Y-27749142D01*
X56348139Y-27818834D01*
X56306267Y-27874767D01*
X56240803Y-27899184D01*
X56231957Y-27899500D01*
X55125323Y-27899500D01*
X55052264Y-27914032D01*
X55052260Y-27914033D01*
X54969399Y-27969399D01*
X54914033Y-28052260D01*
X54914032Y-28052264D01*
X54899500Y-28125321D01*
X54899500Y-28528268D01*
X54879815Y-28595307D01*
X54827011Y-28641062D01*
X54807594Y-28648043D01*
X54713010Y-28673386D01*
X54713009Y-28673387D01*
X54633091Y-28719527D01*
X54633086Y-28719531D01*
X53587737Y-29764881D01*
X53526414Y-29798366D01*
X53500056Y-29801200D01*
X42133056Y-29801200D01*
X42043912Y-29825086D01*
X42043909Y-29825087D01*
X41963991Y-29871227D01*
X41963986Y-29871231D01*
X41025737Y-30809481D01*
X40964414Y-30842966D01*
X40938056Y-30845800D01*
X40862125Y-30845800D01*
X40733593Y-30880240D01*
X40722111Y-30883317D01*
X40596588Y-30955788D01*
X40596582Y-30955793D01*
X40494093Y-31058282D01*
X40494088Y-31058288D01*
X40421617Y-31183811D01*
X40421616Y-31183815D01*
X40384100Y-31323825D01*
X40384100Y-31468775D01*
X40399624Y-31526714D01*
X40397962Y-31596562D01*
X40358800Y-31654425D01*
X40294571Y-31681929D01*
X40225669Y-31670343D01*
X40192169Y-31646487D01*
X37496819Y-28951137D01*
X37463334Y-28889814D01*
X37460500Y-28863456D01*
X37460500Y-28787527D01*
X37460500Y-28787525D01*
X37422984Y-28647515D01*
X37419258Y-28641062D01*
X37350511Y-28521988D01*
X37350506Y-28521982D01*
X37248017Y-28419493D01*
X37248015Y-28419491D01*
X37212526Y-28399001D01*
X37164311Y-28348435D01*
X37151088Y-28279828D01*
X37177056Y-28214963D01*
X37186837Y-28203943D01*
X39936863Y-25453919D01*
X39998186Y-25420434D01*
X40024544Y-25417600D01*
X40100472Y-25417600D01*
X40100475Y-25417600D01*
X40240485Y-25380084D01*
X40366015Y-25307609D01*
X40468509Y-25205115D01*
X40540984Y-25079585D01*
X40578500Y-24939575D01*
X40578500Y-24794625D01*
X40540984Y-24654615D01*
X40517538Y-24614006D01*
X40468511Y-24529088D01*
X40468506Y-24529082D01*
X40366017Y-24426593D01*
X40366011Y-24426588D01*
X40240488Y-24354117D01*
X40240489Y-24354117D01*
X40229006Y-24351040D01*
X40100475Y-24316600D01*
X39955525Y-24316600D01*
X39826993Y-24351040D01*
X39815511Y-24354117D01*
X39689988Y-24426588D01*
X39689982Y-24426593D01*
X39587493Y-24529082D01*
X39587488Y-24529088D01*
X39515017Y-24654611D01*
X39515016Y-24654615D01*
X39477500Y-24794625D01*
X39477500Y-24794627D01*
X39477500Y-24870556D01*
X39457815Y-24937595D01*
X39441181Y-24958237D01*
X35998331Y-28401086D01*
X35998329Y-28401089D01*
X35983072Y-28427515D01*
X35964606Y-28459500D01*
X35952186Y-28481012D01*
X35928300Y-28570156D01*
X28485238Y-28570156D01*
X27395712Y-27480630D01*
X27395711Y-27480629D01*
X27395708Y-27480627D01*
X27315790Y-27434487D01*
X27315789Y-27434486D01*
X27315788Y-27434486D01*
X27226644Y-27410600D01*
X27226643Y-27410600D01*
X23144886Y-27410600D01*
X23077847Y-27390915D01*
X23057205Y-27374281D01*
X23003517Y-27320593D01*
X23003511Y-27320588D01*
X22877988Y-27248117D01*
X22877989Y-27248117D01*
X22866506Y-27245040D01*
X22737975Y-27210600D01*
X22593025Y-27210600D01*
X22464493Y-27245040D01*
X22453011Y-27248117D01*
X22327488Y-27320588D01*
X22327482Y-27320593D01*
X22224993Y-27423082D01*
X22224988Y-27423088D01*
X22152517Y-27548611D01*
X22152516Y-27548615D01*
X22115000Y-27688625D01*
X22115000Y-27833575D01*
X22152516Y-27973585D01*
X22152517Y-27973588D01*
X22224988Y-28099111D01*
X22224990Y-28099113D01*
X22224991Y-28099115D01*
X22327485Y-28201609D01*
X22327486Y-28201610D01*
X22327488Y-28201611D01*
X22376142Y-28229701D01*
X22453015Y-28274084D01*
X22487293Y-28283269D01*
X22546953Y-28319633D01*
X22577482Y-28382480D01*
X22574974Y-28435135D01*
X22539500Y-28567525D01*
X22539500Y-28712475D01*
X22577016Y-28852485D01*
X22577017Y-28852488D01*
X22649488Y-28978011D01*
X22649493Y-28978017D01*
X22703181Y-29031705D01*
X22736666Y-29093028D01*
X22739500Y-29119386D01*
X22739500Y-29920346D01*
X22746823Y-29947677D01*
X22746841Y-29947740D01*
X22763386Y-30009489D01*
X22763387Y-30009490D01*
X22809527Y-30089408D01*
X22809529Y-30089411D01*
X22809530Y-30089412D01*
X30988746Y-38268628D01*
X39100737Y-46380618D01*
X39134222Y-46441941D01*
X39129238Y-46511633D01*
X39100737Y-46555980D01*
X30793831Y-54862886D01*
X30793827Y-54862891D01*
X30747687Y-54942809D01*
X30747686Y-54942812D01*
X30723800Y-55031956D01*
X30723800Y-62272114D01*
X30704115Y-62339153D01*
X30687481Y-62359795D01*
X30633793Y-62413482D01*
X30633788Y-62413488D01*
X30561317Y-62539011D01*
X30561316Y-62539015D01*
X30523800Y-62679025D01*
X30523800Y-62823975D01*
X30528821Y-62842715D01*
X30529864Y-62846605D01*
X30528202Y-62916455D01*
X30489041Y-62974318D01*
X30424813Y-63001823D01*
X30410090Y-63002700D01*
X27674500Y-63002700D01*
X27607461Y-62983015D01*
X27561706Y-62930211D01*
X27552683Y-62888737D01*
X27551561Y-62888885D01*
X27550500Y-62880828D01*
X27550500Y-62880827D01*
X27550500Y-62880825D01*
X27512984Y-62740815D01*
X27505922Y-62728584D01*
X27440511Y-62615288D01*
X27440506Y-62615282D01*
X27338017Y-62512793D01*
X27338011Y-62512788D01*
X27212488Y-62440317D01*
X27212489Y-62440317D01*
X27201006Y-62437240D01*
X27072475Y-62402800D01*
X26927525Y-62402800D01*
X26798993Y-62437240D01*
X26787511Y-62440317D01*
X26661988Y-62512788D01*
X26661982Y-62512793D01*
X26559493Y-62615282D01*
X26559488Y-62615288D01*
X26487017Y-62740811D01*
X26487016Y-62740815D01*
X26449500Y-62880825D01*
X26449500Y-63025775D01*
X26483428Y-63152395D01*
X26487017Y-63165788D01*
X26559488Y-63291311D01*
X26559493Y-63291317D01*
X26579095Y-63310919D01*
X26612580Y-63372242D01*
X26607596Y-63441934D01*
X26565724Y-63497867D01*
X26500260Y-63522284D01*
X26491414Y-63522600D01*
X17160386Y-63522600D01*
X17093347Y-63502915D01*
X17072705Y-63486281D01*
X17019017Y-63432593D01*
X17019011Y-63432588D01*
X16893488Y-63360117D01*
X16893489Y-63360117D01*
X16882006Y-63357040D01*
X16753475Y-63322600D01*
X16608525Y-63322600D01*
X16479993Y-63357040D01*
X16468511Y-63360117D01*
X16342988Y-63432588D01*
X16342982Y-63432593D01*
X16240493Y-63535082D01*
X16240488Y-63535088D01*
X16168017Y-63660611D01*
X16168016Y-63660615D01*
X16130500Y-63800625D01*
X16130500Y-63945575D01*
X16151105Y-64022472D01*
X16168017Y-64085588D01*
X16240488Y-64211111D01*
X16240490Y-64211113D01*
X16240491Y-64211115D01*
X16342985Y-64313609D01*
X16342986Y-64313610D01*
X16342988Y-64313611D01*
X16468511Y-64386082D01*
X16468512Y-64386082D01*
X16468515Y-64386084D01*
X16608525Y-64423600D01*
X16608528Y-64423600D01*
X16753472Y-64423600D01*
X16753475Y-64423600D01*
X16893485Y-64386084D01*
X17019015Y-64313609D01*
X17072705Y-64259919D01*
X17134028Y-64226434D01*
X17160386Y-64223600D01*
X33791356Y-64223600D01*
X33820796Y-64232244D01*
X33850783Y-64238768D01*
X33855798Y-64242522D01*
X33858395Y-64243285D01*
X33879037Y-64259919D01*
X34013637Y-64394519D01*
X34047122Y-64455842D01*
X34042138Y-64525534D01*
X34000266Y-64581467D01*
X33934802Y-64605884D01*
X33925956Y-64606200D01*
X24447856Y-64606200D01*
X24358712Y-64630086D01*
X24358709Y-64630087D01*
X24278791Y-64676227D01*
X24278786Y-64676231D01*
X23486737Y-65468281D01*
X23425414Y-65501766D01*
X23399056Y-65504600D01*
X23323125Y-65504600D01*
X23194593Y-65539040D01*
X23183111Y-65542117D01*
X23057588Y-65614588D01*
X23057582Y-65614593D01*
X22955093Y-65717082D01*
X22955088Y-65717088D01*
X22882617Y-65842611D01*
X22882616Y-65842615D01*
X22845100Y-65982625D01*
X22845100Y-66127575D01*
X22881116Y-66261988D01*
X22882617Y-66267588D01*
X22955088Y-66393111D01*
X22955090Y-66393113D01*
X22955091Y-66393115D01*
X23057585Y-66495609D01*
X23057586Y-66495610D01*
X23057588Y-66495611D01*
X23183111Y-66568082D01*
X23183112Y-66568082D01*
X23183115Y-66568084D01*
X23323125Y-66605600D01*
X23323128Y-66605600D01*
X23468072Y-66605600D01*
X23468075Y-66605600D01*
X23608085Y-66568084D01*
X23733615Y-66495609D01*
X23836109Y-66393115D01*
X23908584Y-66267585D01*
X23946100Y-66127575D01*
X23946100Y-66051644D01*
X23965785Y-65984605D01*
X23982419Y-65963963D01*
X24602863Y-65343519D01*
X24664186Y-65310034D01*
X24690544Y-65307200D01*
X29956003Y-65307200D01*
X30023042Y-65326885D01*
X30068797Y-65379689D01*
X30078741Y-65448847D01*
X30075777Y-65463295D01*
X30068400Y-65490823D01*
X30068400Y-65490825D01*
X30068400Y-65635775D01*
X30100441Y-65755353D01*
X30105917Y-65775788D01*
X30178388Y-65901311D01*
X30178390Y-65901313D01*
X30178391Y-65901315D01*
X30280885Y-66003809D01*
X30280886Y-66003810D01*
X30280888Y-66003811D01*
X30305660Y-66018113D01*
X30353876Y-66068680D01*
X30367098Y-66137287D01*
X30341130Y-66202152D01*
X30284216Y-66242680D01*
X30243660Y-66249500D01*
X26824256Y-66249500D01*
X26735112Y-66273386D01*
X26735109Y-66273387D01*
X26655191Y-66319527D01*
X26655186Y-66319531D01*
X24741137Y-68233581D01*
X24679814Y-68267066D01*
X24653456Y-68269900D01*
X24577525Y-68269900D01*
X24448993Y-68304340D01*
X24437511Y-68307417D01*
X24311988Y-68379888D01*
X24311982Y-68379893D01*
X24209493Y-68482382D01*
X24209488Y-68482388D01*
X24137017Y-68607911D01*
X24137016Y-68607915D01*
X24099500Y-68747925D01*
X24099500Y-68892875D01*
X24106171Y-68917772D01*
X24117247Y-68959107D01*
X24115584Y-69028957D01*
X24076421Y-69086819D01*
X24012193Y-69114323D01*
X23997472Y-69115200D01*
X13605443Y-69115200D01*
X13538404Y-69095515D01*
X13517762Y-69078881D01*
X11062019Y-66623137D01*
X11028534Y-66561814D01*
X11025700Y-66535456D01*
X11025700Y-66459527D01*
X11025700Y-66459525D01*
X10988184Y-66319515D01*
X10961551Y-66273386D01*
X10915711Y-66193988D01*
X10915706Y-66193982D01*
X10813217Y-66091493D01*
X10813211Y-66091488D01*
X10687688Y-66019017D01*
X10687689Y-66019017D01*
X10676206Y-66015940D01*
X10547675Y-65981500D01*
X10402725Y-65981500D01*
X10274193Y-66015940D01*
X10262711Y-66019017D01*
X10137188Y-66091488D01*
X10137182Y-66091493D01*
X10034693Y-66193982D01*
X10034688Y-66193988D01*
X9962217Y-66319511D01*
X9962216Y-66319515D01*
X9924700Y-66459525D01*
X1500500Y-66459525D01*
X1500500Y-37327525D01*
X22174500Y-37327525D01*
X22174500Y-37472475D01*
X22210152Y-37605529D01*
X22212017Y-37612488D01*
X22284488Y-37738011D01*
X22284490Y-37738013D01*
X22284491Y-37738015D01*
X22386985Y-37840509D01*
X22386986Y-37840510D01*
X22386988Y-37840511D01*
X22512511Y-37912982D01*
X22512512Y-37912982D01*
X22512515Y-37912984D01*
X22652525Y-37950500D01*
X22652528Y-37950500D01*
X22797472Y-37950500D01*
X22797475Y-37950500D01*
X22937485Y-37912984D01*
X23063015Y-37840509D01*
X23165509Y-37738015D01*
X23237984Y-37612485D01*
X23275500Y-37472475D01*
X23275500Y-37327525D01*
X23237984Y-37187515D01*
X23229586Y-37172970D01*
X23165511Y-37061988D01*
X23165506Y-37061982D01*
X23063017Y-36959493D01*
X23063011Y-36959488D01*
X22937488Y-36887017D01*
X22937489Y-36887017D01*
X22902706Y-36877697D01*
X22797475Y-36849500D01*
X22652525Y-36849500D01*
X22547294Y-36877697D01*
X22512511Y-36887017D01*
X22386988Y-36959488D01*
X22386982Y-36959493D01*
X22284493Y-37061982D01*
X22284488Y-37061988D01*
X22212017Y-37187511D01*
X22212016Y-37187515D01*
X22174500Y-37327525D01*
X1500500Y-37327525D01*
X1500500Y-28567525D01*
X16124500Y-28567525D01*
X16124500Y-28712475D01*
X16162016Y-28852485D01*
X16162017Y-28852488D01*
X16234488Y-28978011D01*
X16234490Y-28978013D01*
X16234491Y-28978015D01*
X16336985Y-29080509D01*
X16336986Y-29080510D01*
X16336988Y-29080511D01*
X16462511Y-29152982D01*
X16462512Y-29152982D01*
X16462515Y-29152984D01*
X16602525Y-29190500D01*
X16602528Y-29190500D01*
X16747472Y-29190500D01*
X16747475Y-29190500D01*
X16887485Y-29152984D01*
X17013015Y-29080509D01*
X17115509Y-28978015D01*
X17187984Y-28852485D01*
X17225500Y-28712475D01*
X17225500Y-28636543D01*
X17245185Y-28569504D01*
X17261819Y-28548862D01*
X20391556Y-25419125D01*
X22537900Y-25419125D01*
X22537900Y-25564075D01*
X22575416Y-25704085D01*
X22575417Y-25704088D01*
X22647888Y-25829611D01*
X22647890Y-25829613D01*
X22647891Y-25829615D01*
X22750385Y-25932109D01*
X22750386Y-25932110D01*
X22750388Y-25932111D01*
X22875911Y-26004582D01*
X22875912Y-26004582D01*
X22875915Y-26004584D01*
X23015925Y-26042100D01*
X23015928Y-26042100D01*
X23160872Y-26042100D01*
X23160875Y-26042100D01*
X23300885Y-26004584D01*
X23426415Y-25932109D01*
X23528909Y-25829615D01*
X23601384Y-25704085D01*
X23638900Y-25564075D01*
X23638900Y-25419125D01*
X23601384Y-25279115D01*
X23528909Y-25153585D01*
X23426415Y-25051091D01*
X23426413Y-25051090D01*
X23426411Y-25051088D01*
X23300888Y-24978617D01*
X23300889Y-24978617D01*
X23289406Y-24975540D01*
X23160875Y-24941100D01*
X23015925Y-24941100D01*
X22887393Y-24975540D01*
X22875911Y-24978617D01*
X22750388Y-25051088D01*
X22750382Y-25051093D01*
X22647893Y-25153582D01*
X22647888Y-25153588D01*
X22575417Y-25279111D01*
X22575416Y-25279115D01*
X22537900Y-25419125D01*
X20391556Y-25419125D01*
X21759319Y-24051362D01*
X21820642Y-24017877D01*
X21890334Y-24022861D01*
X21946267Y-24064733D01*
X21970684Y-24130197D01*
X21971000Y-24139043D01*
X21971000Y-24245975D01*
X21999977Y-24354116D01*
X22008517Y-24385988D01*
X22080988Y-24511511D01*
X22080990Y-24511513D01*
X22080991Y-24511515D01*
X22183485Y-24614009D01*
X22183486Y-24614010D01*
X22183488Y-24614011D01*
X22309011Y-24686482D01*
X22309012Y-24686482D01*
X22309015Y-24686484D01*
X22449025Y-24724000D01*
X22449028Y-24724000D01*
X22593972Y-24724000D01*
X22593975Y-24724000D01*
X22733985Y-24686484D01*
X22859515Y-24614009D01*
X22962009Y-24511515D01*
X23034484Y-24385985D01*
X23072000Y-24245975D01*
X23072000Y-24101025D01*
X23034484Y-23961015D01*
X22962009Y-23835485D01*
X22859515Y-23732991D01*
X22859513Y-23732990D01*
X22859511Y-23732988D01*
X22733988Y-23660517D01*
X22733989Y-23660517D01*
X22722506Y-23657440D01*
X22593975Y-23623000D01*
X22487043Y-23623000D01*
X22420004Y-23603315D01*
X22374249Y-23550511D01*
X22364305Y-23481353D01*
X22393330Y-23417797D01*
X22399362Y-23411319D01*
X23583156Y-22227525D01*
X40019500Y-22227525D01*
X40019500Y-22372475D01*
X40057016Y-22512485D01*
X40057017Y-22512488D01*
X40129488Y-22638011D01*
X40129490Y-22638013D01*
X40129491Y-22638015D01*
X40231985Y-22740509D01*
X40231986Y-22740510D01*
X40231988Y-22740511D01*
X40357511Y-22812982D01*
X40357512Y-22812982D01*
X40357515Y-22812984D01*
X40497525Y-22850500D01*
X40497528Y-22850500D01*
X40642472Y-22850500D01*
X40642475Y-22850500D01*
X40782485Y-22812984D01*
X40908015Y-22740509D01*
X41010509Y-22638015D01*
X41082984Y-22512485D01*
X41120500Y-22372475D01*
X41120500Y-22227525D01*
X41082984Y-22087515D01*
X41010509Y-21961985D01*
X40908015Y-21859491D01*
X40908013Y-21859490D01*
X40908011Y-21859488D01*
X40782488Y-21787017D01*
X40782489Y-21787017D01*
X40771006Y-21783940D01*
X40642475Y-21749500D01*
X40497525Y-21749500D01*
X40368993Y-21783940D01*
X40357511Y-21787017D01*
X40231988Y-21859488D01*
X40231982Y-21859493D01*
X40129493Y-21961982D01*
X40129488Y-21961988D01*
X40057017Y-22087511D01*
X40057016Y-22087515D01*
X40019500Y-22227525D01*
X23583156Y-22227525D01*
X24878262Y-20932419D01*
X24939585Y-20898934D01*
X24965943Y-20896100D01*
X33715542Y-20896100D01*
X33715544Y-20896100D01*
X33804688Y-20872214D01*
X33884612Y-20826070D01*
X36818863Y-17891819D01*
X36880186Y-17858334D01*
X36906544Y-17855500D01*
X36982472Y-17855500D01*
X36982475Y-17855500D01*
X37122485Y-17817984D01*
X37248015Y-17745509D01*
X37350509Y-17643015D01*
X37422984Y-17517485D01*
X37460500Y-17377475D01*
X37460500Y-17232525D01*
X37422984Y-17092515D01*
X37350509Y-16966985D01*
X37248015Y-16864491D01*
X37248013Y-16864490D01*
X37248011Y-16864488D01*
X37122488Y-16792017D01*
X37122489Y-16792017D01*
X37111006Y-16788940D01*
X36982475Y-16754500D01*
X36837525Y-16754500D01*
X36708993Y-16788940D01*
X36697511Y-16792017D01*
X36571988Y-16864488D01*
X36571982Y-16864493D01*
X36469493Y-16966982D01*
X36469488Y-16966988D01*
X36397017Y-17092511D01*
X36397016Y-17092515D01*
X36359500Y-17232525D01*
X36359500Y-17232527D01*
X36359500Y-17308456D01*
X36339815Y-17375495D01*
X36323181Y-17396137D01*
X33560537Y-20158781D01*
X33499214Y-20192266D01*
X33472856Y-20195100D01*
X26282088Y-20195100D01*
X26215049Y-20175415D01*
X26169294Y-20122611D01*
X26159350Y-20053453D01*
X26162310Y-20039019D01*
X26185500Y-19952475D01*
X26185500Y-19807525D01*
X26147984Y-19667515D01*
X26075509Y-19541985D01*
X25973015Y-19439491D01*
X25973013Y-19439490D01*
X25973011Y-19439488D01*
X25847488Y-19367017D01*
X25847489Y-19367017D01*
X25836006Y-19363940D01*
X25707475Y-19329500D01*
X25562525Y-19329500D01*
X25433993Y-19363940D01*
X25422511Y-19367017D01*
X25296988Y-19439488D01*
X25296982Y-19439493D01*
X25194493Y-19541982D01*
X25194488Y-19541988D01*
X25122017Y-19667511D01*
X25122016Y-19667515D01*
X25084500Y-19807525D01*
X25084500Y-19952475D01*
X25107686Y-20039008D01*
X25106024Y-20108856D01*
X25066862Y-20166719D01*
X25002634Y-20194223D01*
X24987912Y-20195100D01*
X24723256Y-20195100D01*
X24637735Y-20218015D01*
X24637734Y-20218015D01*
X24634110Y-20218985D01*
X24554194Y-20265126D01*
X24554185Y-20265133D01*
X16766137Y-28053181D01*
X16704814Y-28086666D01*
X16678456Y-28089500D01*
X16602525Y-28089500D01*
X16473993Y-28123940D01*
X16462511Y-28127017D01*
X16336988Y-28199488D01*
X16336982Y-28199493D01*
X16234493Y-28301982D01*
X16234488Y-28301988D01*
X16162017Y-28427511D01*
X16162016Y-28427515D01*
X16124500Y-28567525D01*
X1500500Y-28567525D01*
X1500500Y-24819525D01*
X16852700Y-24819525D01*
X16852700Y-24964475D01*
X16883544Y-25079585D01*
X16890217Y-25104488D01*
X16962688Y-25230011D01*
X16962690Y-25230013D01*
X16962691Y-25230015D01*
X17065185Y-25332509D01*
X17065186Y-25332510D01*
X17065188Y-25332511D01*
X17190711Y-25404982D01*
X17190712Y-25404982D01*
X17190715Y-25404984D01*
X17330725Y-25442500D01*
X17330728Y-25442500D01*
X17475672Y-25442500D01*
X17475675Y-25442500D01*
X17615685Y-25404984D01*
X17741215Y-25332509D01*
X17843709Y-25230015D01*
X17916184Y-25104485D01*
X17953700Y-24964475D01*
X17953700Y-24819525D01*
X17916184Y-24679515D01*
X17878362Y-24614006D01*
X17843711Y-24553988D01*
X17843706Y-24553982D01*
X17741217Y-24451493D01*
X17741211Y-24451488D01*
X17615688Y-24379017D01*
X17615689Y-24379017D01*
X17604206Y-24375940D01*
X17475675Y-24341500D01*
X17330725Y-24341500D01*
X17202193Y-24375940D01*
X17190711Y-24379017D01*
X17065188Y-24451488D01*
X17065182Y-24451493D01*
X16962693Y-24553982D01*
X16962688Y-24553988D01*
X16890217Y-24679511D01*
X16890216Y-24679515D01*
X16852700Y-24819525D01*
X1500500Y-24819525D01*
X1500500Y-17856225D01*
X19328100Y-17856225D01*
X19328100Y-18001175D01*
X19365616Y-18141185D01*
X19365617Y-18141188D01*
X19438088Y-18266711D01*
X19438090Y-18266713D01*
X19438091Y-18266715D01*
X19540585Y-18369209D01*
X19540586Y-18369210D01*
X19540588Y-18369211D01*
X19666111Y-18441682D01*
X19666112Y-18441682D01*
X19666115Y-18441684D01*
X19806125Y-18479200D01*
X19806128Y-18479200D01*
X19951072Y-18479200D01*
X19951075Y-18479200D01*
X20091085Y-18441684D01*
X20216615Y-18369209D01*
X20319109Y-18266715D01*
X20391584Y-18141185D01*
X20429100Y-18001175D01*
X20429100Y-17856225D01*
X20391584Y-17716215D01*
X20319109Y-17590685D01*
X20216615Y-17488191D01*
X20216613Y-17488190D01*
X20216611Y-17488188D01*
X20091088Y-17415717D01*
X20091089Y-17415717D01*
X20079606Y-17412640D01*
X19951075Y-17378200D01*
X19806125Y-17378200D01*
X19677593Y-17412640D01*
X19666111Y-17415717D01*
X19540588Y-17488188D01*
X19540582Y-17488193D01*
X19438093Y-17590682D01*
X19438088Y-17590688D01*
X19365617Y-17716211D01*
X19365616Y-17716215D01*
X19328100Y-17856225D01*
X1500500Y-17856225D01*
X1500500Y-1624500D01*
X1520185Y-1557461D01*
X1572989Y-1511706D01*
X1624500Y-1500500D01*
X5876000Y-1500500D01*
X5943039Y-1520185D01*
G37*
%TD.AperFunction*%
%TD*%
M02*
