%TF.GenerationSoftware,KiCad,Pcbnew,10.0.4*%
%TF.CreationDate,2026-07-22T20:09:27+08:00*%
%TF.ProjectId,ai_mobile_reader_routed,61695f6d-6f62-4696-9c65-5f7265616465,rev?*%
%TF.SameCoordinates,Original*%
%TF.FileFunction,Copper,L4,Bot*%
%TF.FilePolarity,Positive*%
%FSLAX46Y46*%
G04 Gerber Fmt 4.6, Leading zero omitted, Abs format (unit mm)*
G04 Created by KiCad (PCBNEW 10.0.4) date 2026-07-22 20:09:27*
%MOMM*%
%LPD*%
G01*
G04 APERTURE LIST*
G04 Aperture macros list*
%AMRoundRect*
0 Rectangle with rounded corners*
0 $1 Rounding radius*
0 $2 $3 $4 $5 $6 $7 $8 $9 X,Y pos of 4 corners*
0 Add a 4 corners polygon primitive as box body*
4,1,4,$2,$3,$4,$5,$6,$7,$8,$9,$2,$3,0*
0 Add four circle primitives for the rounded corners*
1,1,$1+$1,$2,$3*
1,1,$1+$1,$4,$5*
1,1,$1+$1,$6,$7*
1,1,$1+$1,$8,$9*
0 Add four rect primitives between the rounded corners*
20,1,$1+$1,$2,$3,$4,$5,0*
20,1,$1+$1,$4,$5,$6,$7,0*
20,1,$1+$1,$6,$7,$8,$9,0*
20,1,$1+$1,$8,$9,$2,$3,0*%
G04 Aperture macros list end*
%TA.AperFunction,ComponentPad*%
%ADD10R,1.700000X1.700000*%
%TD*%
%TA.AperFunction,ComponentPad*%
%ADD11C,1.700000*%
%TD*%
%TA.AperFunction,ComponentPad*%
%ADD12O,1.000000X2.100000*%
%TD*%
%TA.AperFunction,ComponentPad*%
%ADD13O,1.000000X1.800000*%
%TD*%
%TA.AperFunction,ComponentPad*%
%ADD14C,0.800000*%
%TD*%
%TA.AperFunction,ComponentPad*%
%ADD15C,5.000000*%
%TD*%
%TA.AperFunction,HeatsinkPad*%
%ADD16C,0.600000*%
%TD*%
%TA.AperFunction,ComponentPad*%
%ADD17RoundRect,0.250000X0.625000X-0.350000X0.625000X0.350000X-0.625000X0.350000X-0.625000X-0.350000X0*%
%TD*%
%TA.AperFunction,ComponentPad*%
%ADD18O,1.750000X1.200000*%
%TD*%
%TA.AperFunction,SMDPad,CuDef*%
%ADD19R,0.300000X1.300000*%
%TD*%
%TA.AperFunction,SMDPad,CuDef*%
%ADD20R,1.800000X2.200000*%
%TD*%
%TA.AperFunction,ViaPad*%
%ADD21C,0.600000*%
%TD*%
%TA.AperFunction,Conductor*%
%ADD22C,0.200000*%
%TD*%
G04 APERTURE END LIST*
D10*
%TO.P,J5,1*%
%TO.N,BTN_BACK*%
X56000000Y-29000000D03*
D11*
%TO.P,J5,2*%
%TO.N,BTN_POWER*%
X56000000Y-31540000D03*
%TO.P,J5,3*%
%TO.N,BTN_UP*%
X56000000Y-34080000D03*
%TO.P,J5,4*%
%TO.N,BTN_HOME*%
X56000000Y-36620000D03*
%TO.P,J5,5*%
%TO.N,BTN_DOWN*%
X56000000Y-39160000D03*
%TO.P,J5,6*%
%TO.N,GND*%
X56000000Y-41700000D03*
%TD*%
D12*
%TO.P,J1,SH*%
%TO.N,GND*%
X25680000Y-97095000D03*
D13*
X25680000Y-101275000D03*
D12*
X34320000Y-97095000D03*
D13*
X34320000Y-101275000D03*
%TD*%
D14*
%TO.P,H1,1*%
%TO.N,GND*%
X2125000Y-99000000D03*
X2674175Y-97674175D03*
X2674175Y-100325825D03*
X4000000Y-97125000D03*
D15*
X4000000Y-99000000D03*
D14*
X4000000Y-100875000D03*
X5325825Y-97674175D03*
X5325825Y-100325825D03*
X5875000Y-99000000D03*
%TD*%
D16*
%TO.P,U1,41*%
%TO.N,GND*%
X27100000Y-22760000D03*
X27100000Y-24160000D03*
X27800000Y-22060000D03*
X27800000Y-23460000D03*
X27800000Y-24860000D03*
X28500000Y-22760000D03*
X28500000Y-24160000D03*
X29200000Y-22060000D03*
X29200000Y-23460000D03*
X29200000Y-24860000D03*
X29900000Y-22760000D03*
X29900000Y-24160000D03*
%TD*%
D14*
%TO.P,H2,1*%
%TO.N,GND*%
X54125000Y-99000000D03*
X54674175Y-97674175D03*
X54674175Y-100325825D03*
X56000000Y-97125000D03*
D15*
X56000000Y-99000000D03*
D14*
X56000000Y-100875000D03*
X57325825Y-97674175D03*
X57325825Y-100325825D03*
X57875000Y-99000000D03*
%TD*%
D17*
%TO.P,J2,1*%
%TO.N,VBAT*%
X5000000Y-80000000D03*
D18*
%TO.P,J2,2*%
%TO.N,GND*%
X5000000Y-78000000D03*
%TD*%
D19*
%TO.P,J3,1*%
%TO.N,N/C*%
X35750000Y-67150000D03*
%TO.P,J3,2*%
%TO.N,EPD_GDR*%
X35250000Y-67150000D03*
%TO.P,J3,3*%
%TO.N,EPD_RESE*%
X34750000Y-67150000D03*
%TO.P,J3,4*%
%TO.N,N/C*%
X34250000Y-67150000D03*
%TO.P,J3,5*%
%TO.N,EPD_VSH2*%
X33750000Y-67150000D03*
%TO.P,J3,6*%
%TO.N,GND*%
X33250000Y-67150000D03*
%TO.P,J3,7*%
X32750000Y-67150000D03*
%TO.P,J3,8*%
X32250000Y-67150000D03*
%TO.P,J3,9*%
%TO.N,EPD_BUSY*%
X31750000Y-67150000D03*
%TO.P,J3,10*%
%TO.N,EPD_RST*%
X31250000Y-67150000D03*
%TO.P,J3,11*%
%TO.N,EPD_DC*%
X30750000Y-67150000D03*
%TO.P,J3,12*%
%TO.N,EPD_CS*%
X30250000Y-67150000D03*
%TO.P,J3,13*%
%TO.N,SPI_SCK*%
X29750000Y-67150000D03*
%TO.P,J3,14*%
%TO.N,SPI_MOSI*%
X29250000Y-67150000D03*
%TO.P,J3,15*%
%TO.N,+3V3*%
X28750000Y-67150000D03*
%TO.P,J3,16*%
X28250000Y-67150000D03*
%TO.P,J3,17*%
%TO.N,GND*%
X27750000Y-67150000D03*
%TO.P,J3,18*%
%TO.N,EPD_VDD*%
X27250000Y-67150000D03*
%TO.P,J3,19*%
%TO.N,N/C*%
X26750000Y-67150000D03*
%TO.P,J3,20*%
%TO.N,EPD_VSH1*%
X26250000Y-67150000D03*
%TO.P,J3,21*%
%TO.N,PREVGH*%
X25750000Y-67150000D03*
%TO.P,J3,22*%
%TO.N,EPD_VSL*%
X25250000Y-67150000D03*
%TO.P,J3,23*%
%TO.N,PREVGL*%
X24750000Y-67150000D03*
%TO.P,J3,24*%
%TO.N,EPD_VCOM*%
X24250000Y-67150000D03*
D20*
%TO.P,J3,MP*%
%TO.N,N/C*%
X37650000Y-70400000D03*
X22350000Y-70400000D03*
%TD*%
D21*
%TO.N,USB_VBUS*%
X32358700Y-95142200D03*
X37551100Y-92362900D03*
X11843800Y-83835900D03*
X11784200Y-95100800D03*
%TO.N,GND*%
X16906300Y-89958700D03*
X51397100Y-61012400D03*
X33936500Y-60424500D03*
X37275000Y-60424500D03*
X40323800Y-60652800D03*
X5265000Y-37400000D03*
X14987100Y-57077100D03*
X16905000Y-71752000D03*
X8647000Y-85928200D03*
X43095000Y-60824500D03*
X12824100Y-71752100D03*
X16905000Y-80632000D03*
X19638800Y-19503200D03*
X10469000Y-81678500D03*
X13995000Y-77672100D03*
X47612300Y-47300200D03*
X11968400Y-35145000D03*
X13997800Y-84120000D03*
X32155000Y-65820000D03*
X54735000Y-60424500D03*
X41971900Y-48447000D03*
X19323700Y-24785700D03*
X46650700Y-61019700D03*
X25339700Y-95143100D03*
X39383800Y-96755300D03*
X21925500Y-67308400D03*
X26158000Y-87214800D03*
X19047700Y-16778600D03*
X25019000Y-87987900D03*
X18983900Y-57203500D03*
X46005000Y-58320000D03*
X7632800Y-87628500D03*
X8947900Y-90730500D03*
X57590000Y-45510000D03*
X34422400Y-87555600D03*
X8084600Y-65844500D03*
X23015800Y-87987900D03*
X36910000Y-15845000D03*
X46805000Y-27765000D03*
X34365000Y-84250000D03*
X57590000Y-51415000D03*
X45275000Y-45265000D03*
X24912800Y-81749700D03*
X8390000Y-89887000D03*
X8000100Y-53980000D03*
X31013000Y-84175800D03*
X27520700Y-57840000D03*
X52340000Y-28640000D03*
X16905000Y-19484500D03*
X28733600Y-69740700D03*
X33161200Y-95142200D03*
X47922200Y-63055200D03*
%TO.N,+3V3*%
X10475200Y-66532000D03*
X34249700Y-70066400D03*
%TO.N,BTN_DOWN*%
X40028000Y-24867100D03*
%TO.N,EPD_VSH2*%
X34000000Y-65670000D03*
%TO.N,BTN_BACK*%
X40570000Y-22300000D03*
X40934600Y-31396300D03*
%TO.N,BTN_POWER*%
X46005000Y-33500000D03*
%TO.N,BTN_UP*%
X36910000Y-28860000D03*
%TO.N,BTN_HOME*%
X41337300Y-25931900D03*
X46875100Y-40949400D03*
%TO.N,USB_D-*%
X25578500Y-31481500D03*
X34365000Y-89638700D03*
%TO.N,PREVGH*%
X44082800Y-63055200D03*
X27000000Y-62953300D03*
%TO.N,EPD_VSH1*%
X43000000Y-64963600D03*
%TO.N,PREVGL*%
X51825000Y-66600000D03*
X24650000Y-68820400D03*
%TO.N,EPD_RESE*%
X16681000Y-63873100D03*
X35527400Y-65412600D03*
%TO.N,SD_CS*%
X43387900Y-52732500D03*
X30565200Y-32067600D03*
%TO.N,EN*%
X17403200Y-24892000D03*
X19878600Y-17928700D03*
%TO.N,BAT_ADC*%
X36910000Y-17305000D03*
X16027500Y-71481000D03*
X16675000Y-28640000D03*
%TO.N,USB_D+*%
X38400400Y-92821800D03*
X22725000Y-37400000D03*
X31455000Y-89637100D03*
%TO.N,EPD_VCOM*%
X53832200Y-63055200D03*
X23395600Y-66055100D03*
%TO.N,SD_DAT1*%
X48288400Y-48133200D03*
X48751700Y-58003300D03*
%TO.N,EPD_VSL*%
X49000000Y-65452700D03*
%TO.N,EPD_BUSY*%
X31558400Y-69590800D03*
X25635000Y-19880000D03*
%TO.N,EPD_CS*%
X29907800Y-68334600D03*
X28340000Y-31630000D03*
%TO.N,EPD_DC*%
X30648600Y-69403500D03*
X22521500Y-24173500D03*
%TO.N,EPD_RST*%
X23088400Y-25491600D03*
X30618900Y-65563300D03*
%TO.N,SPI_MOSI*%
X34127900Y-68845300D03*
X45275000Y-52065000D03*
X22665500Y-27761100D03*
X40957500Y-57500000D03*
%TO.N,SPI_SCK*%
X23090000Y-28640000D03*
X31074300Y-62751500D03*
X43252700Y-46498100D03*
%TO.N,EPD_GDR*%
X35021500Y-62846900D03*
%TO.N,EPD_VDD*%
X38771800Y-63950000D03*
%TD*%
%TO.N,GND*%
D22*
X32155000Y-65820000D02*
X32250000Y-65915000D01*
X32750000Y-66417000D02*
X32531300Y-66198300D01*
X32750000Y-66417000D02*
X32750000Y-67150000D01*
X32250000Y-67150000D02*
X32250000Y-66198300D01*
X33250000Y-67150000D02*
X33250000Y-66198300D01*
X32531300Y-66198300D02*
X32250000Y-66198300D01*
X27750000Y-68757100D02*
X27750000Y-67150000D01*
X32968700Y-66198300D02*
X32750000Y-66417000D01*
X28733600Y-69740700D02*
X27750000Y-68757100D01*
X33250000Y-66198300D02*
X32968700Y-66198300D01*
X32250000Y-65915000D02*
X32250000Y-66198300D01*
%TO.N,+3V3*%
X28250000Y-66198300D02*
X28750000Y-66198300D01*
X28750000Y-67150000D02*
X28750000Y-66198300D01*
X28250000Y-68177400D02*
X29645200Y-69572600D01*
X28250000Y-67150000D02*
X28250000Y-66198300D01*
X30499900Y-70673600D02*
X33642500Y-70673600D01*
X29645200Y-69818900D02*
X30499900Y-70673600D01*
X33642500Y-70673600D02*
X34249700Y-70066400D01*
X28250000Y-67150000D02*
X28250000Y-68177400D01*
X29645200Y-69572600D02*
X29645200Y-69818900D01*
%TO.N,EPD_VSH2*%
X33750000Y-67150000D02*
X33750000Y-65920000D01*
X33750000Y-65920000D02*
X34000000Y-65670000D01*
%TO.N,PREVGH*%
X25750000Y-64203300D02*
X27000000Y-62953300D01*
X25750000Y-67150000D02*
X25750000Y-64203300D01*
%TO.N,EPD_VSH1*%
X41254400Y-63218000D02*
X38605700Y-63218000D01*
X43000000Y-64963600D02*
X41254400Y-63218000D01*
X26250000Y-66157000D02*
X26250000Y-66198300D01*
X38605700Y-63218000D02*
X38605700Y-63217900D01*
X38605700Y-63217900D02*
X37135900Y-61748100D01*
X26250000Y-67150000D02*
X26250000Y-66198300D01*
X37135900Y-61748100D02*
X30658900Y-61748100D01*
X30658900Y-61748100D02*
X26250000Y-66157000D01*
%TO.N,PREVGL*%
X24750000Y-68720400D02*
X24650000Y-68820400D01*
X24750000Y-67150000D02*
X24750000Y-68720400D01*
%TO.N,EPD_RESE*%
X34750000Y-66190000D02*
X35527400Y-65412600D01*
X34750000Y-67150000D02*
X34750000Y-66190000D01*
%TO.N,EPD_VCOM*%
X23538800Y-66198300D02*
X24250000Y-66198300D01*
X23395600Y-66055100D02*
X23538800Y-66198300D01*
X24250000Y-67150000D02*
X24250000Y-66198300D01*
%TO.N,EPD_VSL*%
X28223600Y-71075300D02*
X34124700Y-71075300D01*
X48604700Y-65848000D02*
X49000000Y-65452700D01*
X25250000Y-67150000D02*
X25250000Y-68101700D01*
X25250000Y-68101700D02*
X28223600Y-71075300D01*
X34124700Y-71075300D02*
X39352000Y-65848000D01*
X39352000Y-65848000D02*
X48604700Y-65848000D01*
%TO.N,EPD_BUSY*%
X31750000Y-69399200D02*
X31558400Y-69590800D01*
X31750000Y-67150000D02*
X31750000Y-69399200D01*
%TO.N,EPD_CS*%
X30250000Y-67150000D02*
X30250000Y-68101700D01*
X30250000Y-68101700D02*
X30140700Y-68101700D01*
X30140700Y-68101700D02*
X29907800Y-68334600D01*
%TO.N,EPD_DC*%
X30750000Y-67150000D02*
X30750000Y-69302100D01*
X30750000Y-69302100D02*
X30648600Y-69403500D01*
%TO.N,EPD_RST*%
X31250000Y-66194400D02*
X30618900Y-65563300D01*
X31250000Y-67150000D02*
X31250000Y-66194400D01*
%TO.N,SPI_MOSI*%
X29250000Y-67150000D02*
X29250000Y-68101700D01*
X30046900Y-69355400D02*
X30046900Y-69652600D01*
X32768400Y-70204800D02*
X34127900Y-68845300D01*
X30696700Y-70005200D02*
X30896300Y-70204800D01*
X29250000Y-68558500D02*
X30046900Y-69355400D01*
X30399500Y-70005200D02*
X30696700Y-70005200D01*
X30046900Y-69652600D02*
X30399500Y-70005200D01*
X30896300Y-70204800D02*
X32768400Y-70204800D01*
X29250000Y-68101700D02*
X29250000Y-68558500D01*
%TO.N,SPI_SCK*%
X29750000Y-64723600D02*
X29750000Y-67150000D01*
X31074300Y-63399300D02*
X29750000Y-64723600D01*
X31074300Y-62751500D02*
X31074300Y-63399300D01*
%TO.N,EPD_GDR*%
X35250000Y-67150000D02*
X35250000Y-66423300D01*
X35250000Y-66423300D02*
X35475000Y-66198300D01*
X35475000Y-66198300D02*
X35707400Y-66198300D01*
X35707400Y-66198300D02*
X36153000Y-65752700D01*
X36153000Y-63978400D02*
X35021500Y-62846900D01*
X36153000Y-65752700D02*
X36153000Y-63978400D01*
%TO.N,EPD_VDD*%
X30825200Y-62149800D02*
X30472600Y-62502400D01*
X38771800Y-63950000D02*
X38769700Y-63950000D01*
X27250000Y-67150000D02*
X27250000Y-66198300D01*
X30472600Y-62975700D02*
X27250000Y-66198300D01*
X30472600Y-62502400D02*
X30472600Y-62975700D01*
X36969500Y-62149800D02*
X30825200Y-62149800D01*
X38769700Y-63950000D02*
X36969500Y-62149800D01*
%TD*%
M02*
