%TF.GenerationSoftware,KiCad,Pcbnew,10.0.4*%
%TF.CreationDate,2026-07-22T19:12:30+08:00*%
%TF.ProjectId,ai_mobile_reader_routed,61695f6d-6f62-4696-9c65-5f7265616465,rev?*%
%TF.SameCoordinates,Original*%
%TF.FileFunction,Copper,L3,Inr*%
%TF.FilePolarity,Positive*%
%FSLAX46Y46*%
G04 Gerber Fmt 4.6, Leading zero omitted, Abs format (unit mm)*
G04 Created by KiCad (PCBNEW 10.0.4) date 2026-07-22 19:12:30*
%MOMM*%
%LPD*%
G01*
G04 APERTURE LIST*
G04 Aperture macros list*
%AMRoundRect*
0 Rectangle with rounded corners*
0 $1 Rounding radius*
0 $2 $3 $4 $5 $6 $7 $8 $9 X,Y pos of 4 corners*
0 Add a 4 corners polygon primitive as box body*
4,1,4,$2,$3,$4,$5,$6,$7,$8,$9,$2,$3,0*
0 Add four circle primitives for the rounded corners*
1,1,$1+$1,$2,$3*
1,1,$1+$1,$4,$5*
1,1,$1+$1,$6,$7*
1,1,$1+$1,$8,$9*
0 Add four rect primitives between the rounded corners*
20,1,$1+$1,$2,$3,$4,$5,0*
20,1,$1+$1,$4,$5,$6,$7,0*
20,1,$1+$1,$6,$7,$8,$9,0*
20,1,$1+$1,$8,$9,$2,$3,0*%
G04 Aperture macros list end*
%TA.AperFunction,ComponentPad*%
%ADD10R,1.700000X1.700000*%
%TD*%
%TA.AperFunction,ComponentPad*%
%ADD11C,1.700000*%
%TD*%
%TA.AperFunction,HeatsinkPad*%
%ADD12C,0.600000*%
%TD*%
%TA.AperFunction,ComponentPad*%
%ADD13O,1.000000X2.100000*%
%TD*%
%TA.AperFunction,ComponentPad*%
%ADD14O,1.000000X1.800000*%
%TD*%
%TA.AperFunction,ComponentPad*%
%ADD15C,0.800000*%
%TD*%
%TA.AperFunction,ComponentPad*%
%ADD16C,5.000000*%
%TD*%
%TA.AperFunction,ComponentPad*%
%ADD17RoundRect,0.250000X0.625000X-0.350000X0.625000X0.350000X-0.625000X0.350000X-0.625000X-0.350000X0*%
%TD*%
%TA.AperFunction,ComponentPad*%
%ADD18O,1.750000X1.200000*%
%TD*%
%TA.AperFunction,ViaPad*%
%ADD19C,0.600000*%
%TD*%
%TA.AperFunction,Conductor*%
%ADD20C,0.200000*%
%TD*%
G04 APERTURE END LIST*
D10*
%TO.N,BTN_BACK*%
%TO.C,J5*%
X56000000Y-29000000D03*
D11*
%TO.N,BTN_POWER*%
X56000000Y-31540000D03*
%TO.N,BTN_UP*%
X56000000Y-34080000D03*
%TO.N,BTN_HOME*%
X56000000Y-36620000D03*
%TO.N,BTN_DOWN*%
X56000000Y-39160000D03*
%TO.N,GND*%
X56000000Y-41700000D03*
%TD*%
D12*
%TO.N,GND*%
%TO.C,U1*%
X27100000Y-22760000D03*
X27100000Y-24160000D03*
X27800000Y-22060000D03*
X27800000Y-23460000D03*
X27800000Y-24860000D03*
X28500000Y-22760000D03*
X28500000Y-24160000D03*
X29200000Y-22060000D03*
X29200000Y-23460000D03*
X29200000Y-24860000D03*
X29900000Y-22760000D03*
X29900000Y-24160000D03*
%TD*%
D13*
%TO.N,GND*%
%TO.C,J1*%
X25680000Y-97095000D03*
D14*
X25680000Y-101275000D03*
D13*
X34320000Y-97095000D03*
D14*
X34320000Y-101275000D03*
%TD*%
D15*
%TO.N,GND*%
%TO.C,H2*%
X54125000Y-99000000D03*
X54674175Y-97674175D03*
X54674175Y-100325825D03*
X56000000Y-97125000D03*
D16*
X56000000Y-99000000D03*
D15*
X56000000Y-100875000D03*
X57325825Y-97674175D03*
X57325825Y-100325825D03*
X57875000Y-99000000D03*
%TD*%
D10*
%TO.N,GND*%
%TO.C,J4*%
X39500000Y-49000000D03*
D11*
X39500000Y-46460000D03*
%TO.N,+3V3*%
X42040000Y-49000000D03*
X42040000Y-46460000D03*
%TO.N,SD_CS*%
X44580000Y-49000000D03*
X44580000Y-46460000D03*
%TO.N,SPI_MOSI*%
X47120000Y-49000000D03*
X47120000Y-46460000D03*
%TO.N,SPI_SCK*%
X49660000Y-49000000D03*
X49660000Y-46460000D03*
%TO.N,SD_MISO*%
X52200000Y-49000000D03*
X52200000Y-46460000D03*
%TO.N,N/C*%
X54740000Y-49000000D03*
X54740000Y-46460000D03*
%TO.N,GND*%
X57280000Y-49000000D03*
X57280000Y-46460000D03*
%TD*%
D17*
%TO.N,VBAT*%
%TO.C,J2*%
X5000000Y-80000000D03*
D18*
%TO.N,GND*%
X5000000Y-78000000D03*
%TD*%
D15*
%TO.N,GND*%
%TO.C,H1*%
X2125000Y-99000000D03*
X2674175Y-97674175D03*
X2674175Y-100325825D03*
X4000000Y-97125000D03*
D16*
X4000000Y-99000000D03*
D15*
X4000000Y-100875000D03*
X5325825Y-97674175D03*
X5325825Y-100325825D03*
X5875000Y-99000000D03*
%TD*%
D19*
%TO.N,PREVGH*%
X25740700Y-68690200D03*
X46000000Y-67613900D03*
%TO.N,GND*%
X27897100Y-69957900D03*
X32750000Y-68906800D03*
X8618900Y-78472800D03*
%TO.N,+3V3*%
X15838600Y-54900400D03*
X28297700Y-64410500D03*
X19398000Y-23742900D03*
X17500000Y-23971600D03*
X12901400Y-26986700D03*
X35585000Y-62582900D03*
%TO.N,BTN_BACK*%
X42825000Y-35125600D03*
X40015300Y-22245300D03*
%TO.N,PREVGL*%
X24505700Y-68729500D03*
X52100000Y-56002000D03*
X47989800Y-64752700D03*
%TO.N,EPD_VCOM*%
X23588300Y-66198300D03*
X54105200Y-63055200D03*
%TO.N,EPD_GDR*%
X20279000Y-59979300D03*
X33200000Y-58723300D03*
%TO.N,EPD_RESE*%
X17319100Y-65151200D03*
X39500000Y-61015900D03*
X18998400Y-61124600D03*
%TO.N,USB_D+_MCU*%
X35128800Y-94050000D03*
X36673000Y-93826600D03*
%TO.N,USB_D+*%
X31001300Y-91175000D03*
X21792300Y-33773900D03*
%TO.N,BTN_UP*%
X50825000Y-36270200D03*
X36672900Y-25646100D03*
%TO.N,BTN_HOME*%
X40110500Y-33917300D03*
X46088200Y-37099600D03*
%TO.N,BTN_DOWN*%
X50825000Y-41010700D03*
X37476600Y-25546700D03*
%TO.N,EPD_BUSY*%
X31483700Y-62949000D03*
X22506600Y-19941500D03*
%TO.N,EPD_CS*%
X30890200Y-69320300D03*
X23121800Y-20739100D03*
%TO.N,EPD_DC*%
X19677300Y-64184600D03*
X19993700Y-24834600D03*
%TO.N,EPD_RST*%
X22505100Y-25696600D03*
X22686700Y-63407100D03*
%TO.N,SPI_MOSI*%
X23319200Y-26673800D03*
%TO.N,SPI_SCK*%
X29560500Y-64811500D03*
X26440900Y-29450900D03*
%TO.N,USB_D-*%
X35000000Y-90272100D03*
X24931300Y-30980000D03*
%TO.N,SD_CS*%
X30635000Y-34757200D03*
%TO.N,SD_MISO*%
X33175000Y-34770300D03*
%TO.N,BAT_ADC*%
X15225000Y-72006800D03*
X37476600Y-17841100D03*
%TO.N,USB_VBUS*%
X32400000Y-95427200D03*
X7050000Y-90769900D03*
X21825000Y-93007300D03*
X11843800Y-84582000D03*
X40408200Y-93235100D03*
%TO.N,EPD_VSH2*%
X34000000Y-65614900D03*
%TO.N,EPD_VDD*%
X38768000Y-63950000D03*
X27250000Y-65987100D03*
%TO.N,EPD_VSL*%
X48025300Y-63131200D03*
X26191100Y-65157200D03*
%TO.N,REG_L1*%
X25635100Y-84513800D03*
X26221100Y-81961000D03*
%TO.N,EPD_VSH1*%
X26250000Y-65974200D03*
X41770900Y-63647600D03*
%TD*%
%TO.N,GND*%
D20*
X39500000Y-46460000D02*
X39500000Y-49000000D01*
X57280000Y-46460000D02*
X56000000Y-45180000D01*
X5325800Y-97674200D02*
X5325800Y-81765900D01*
X4000000Y-100875000D02*
X4000000Y-99000000D01*
X56000000Y-45180000D02*
X56000000Y-41700000D01*
X39500000Y-46460000D02*
X39500000Y-33760000D01*
X39500000Y-33760000D02*
X29900000Y-24160000D01*
X57280000Y-46460000D02*
X57280000Y-49000000D01*
X56000000Y-100875000D02*
X56000000Y-99000000D01*
X4000000Y-97125000D02*
X4000000Y-99000000D01*
X5325800Y-81765900D02*
X8618900Y-78472800D01*
X56000000Y-97125000D02*
X56000000Y-99000000D01*
%TO.N,+3V3*%
X15838600Y-54900400D02*
X12901400Y-51963200D01*
X42040000Y-46460000D02*
X42040000Y-49000000D01*
X12901400Y-51963200D02*
X12901400Y-26986700D01*
%TO.N,BTN_BACK*%
X40015300Y-32315900D02*
X40015300Y-22245300D01*
X42825000Y-35125600D02*
X40015300Y-32315900D01*
%TO.N,PREVGL*%
X47989800Y-64752700D02*
X52100000Y-60642500D01*
X52100000Y-60642500D02*
X52100000Y-56002000D01*
%TO.N,EPD_RESE*%
X17319100Y-62803900D02*
X18998400Y-61124600D01*
X17319100Y-65151200D02*
X17319100Y-62803900D01*
%TO.N,USB_D+*%
X21792300Y-81966000D02*
X31001300Y-91175000D01*
X21792300Y-33773900D02*
X21792300Y-81966000D01*
%TO.N,EPD_BUSY*%
X31483700Y-32019300D02*
X22506600Y-23042200D01*
X31483700Y-62949000D02*
X31483700Y-32019300D01*
X22506600Y-23042200D02*
X22506600Y-19941500D01*
%TO.N,EPD_CS*%
X30890200Y-64423400D02*
X30890200Y-69320300D01*
X25660000Y-59193200D02*
X30890200Y-64423400D01*
X23121800Y-19693800D02*
X22767700Y-19339700D01*
X21904800Y-19640000D02*
X21904800Y-23788800D01*
X25660000Y-27544000D02*
X25660000Y-59193200D01*
X21904800Y-23788800D02*
X25660000Y-27544000D01*
X23121800Y-20739100D02*
X23121800Y-19693800D01*
X22767700Y-19339700D02*
X22205100Y-19339700D01*
X22205100Y-19339700D02*
X21904800Y-19640000D01*
%TO.N,EPD_DC*%
X19993700Y-24834600D02*
X19677300Y-25151000D01*
X19677300Y-25151000D02*
X19677300Y-64184600D01*
%TO.N,EPD_RST*%
X22686700Y-25878200D02*
X22686700Y-63407100D01*
X22505100Y-25696600D02*
X22686700Y-25878200D01*
%TO.N,SPI_MOSI*%
X47120000Y-46460000D02*
X47120000Y-49000000D01*
%TO.N,SPI_SCK*%
X49660000Y-46460000D02*
X49660000Y-49000000D01*
%TO.N,USB_D-*%
X25107400Y-79996400D02*
X25107400Y-31156100D01*
X25107400Y-31156100D02*
X24931300Y-30980000D01*
X35000000Y-90272100D02*
X35000000Y-89889000D01*
X35000000Y-89889000D02*
X25107400Y-79996400D01*
%TO.N,SD_CS*%
X44580000Y-46460000D02*
X44580000Y-49000000D01*
%TO.N,SD_MISO*%
X52200000Y-46460000D02*
X52200000Y-49000000D01*
%TD*%
%TA.AperFunction,Conductor*%
%TO.N,GND*%
G36*
X40615270Y-47221717D02*
G01*
X40615270Y-47221716D01*
X40654622Y-47167554D01*
X40751096Y-46978215D01*
X40783239Y-46879288D01*
X40822676Y-46821612D01*
X40887034Y-46794413D01*
X40955880Y-46806327D01*
X41007357Y-46853571D01*
X41019100Y-46879284D01*
X41020127Y-46882446D01*
X41042281Y-46925925D01*
X41098768Y-47036788D01*
X41200586Y-47176928D01*
X41323072Y-47299414D01*
X41428177Y-47375777D01*
X41463213Y-47401233D01*
X41621794Y-47482033D01*
X41672591Y-47530007D01*
X41689500Y-47592518D01*
X41689500Y-47867481D01*
X41669815Y-47934520D01*
X41621795Y-47977966D01*
X41463211Y-48058768D01*
X41389474Y-48112342D01*
X41323072Y-48160586D01*
X41323070Y-48160588D01*
X41323069Y-48160588D01*
X41200588Y-48283069D01*
X41200588Y-48283070D01*
X41200586Y-48283072D01*
X41156859Y-48343256D01*
X41098768Y-48423211D01*
X41084485Y-48451244D01*
X41036510Y-48502040D01*
X40968689Y-48518835D01*
X40902554Y-48496297D01*
X40859103Y-48441582D01*
X40850000Y-48394949D01*
X40850000Y-48102172D01*
X40849999Y-48102155D01*
X40843598Y-48042627D01*
X40843596Y-48042620D01*
X40793354Y-47907913D01*
X40793350Y-47907906D01*
X40707190Y-47792812D01*
X40707187Y-47792809D01*
X40592093Y-47706649D01*
X40592086Y-47706645D01*
X40457380Y-47656403D01*
X40457373Y-47656401D01*
X40374555Y-47647497D01*
X40374884Y-47644431D01*
X40357875Y-47645330D01*
X40298803Y-47612356D01*
X39629408Y-46942962D01*
X39692993Y-46925925D01*
X39807007Y-46860099D01*
X39900099Y-46767007D01*
X39965925Y-46652993D01*
X39982962Y-46589409D01*
X40615270Y-47221717D01*
G37*
%TD.AperFunction*%
%TA.AperFunction,Conductor*%
G36*
X5943039Y-1520185D02*
G01*
X5988794Y-1572989D01*
X6000000Y-1624500D01*
X6000000Y-14250000D01*
X18876000Y-14250000D01*
X18943039Y-14269685D01*
X18988794Y-14322489D01*
X19000000Y-14374000D01*
X19000000Y-14500000D01*
X41000000Y-14500000D01*
X41000000Y-14374000D01*
X41019685Y-14306961D01*
X41072489Y-14261206D01*
X41124000Y-14250000D01*
X54000000Y-14250000D01*
X54000000Y-1624500D01*
X54019685Y-1557461D01*
X54072489Y-1511706D01*
X54124000Y-1500500D01*
X58375500Y-1500500D01*
X58442539Y-1520185D01*
X58488294Y-1572989D01*
X58499500Y-1624500D01*
X58499500Y-45572342D01*
X58479815Y-45639381D01*
X58427011Y-45685136D01*
X58404423Y-45689128D01*
X57762962Y-46330590D01*
X57745925Y-46267007D01*
X57680099Y-46152993D01*
X57587007Y-46059901D01*
X57472993Y-45994075D01*
X57409409Y-45977037D01*
X58041716Y-45344728D01*
X57987550Y-45305375D01*
X57798217Y-45208904D01*
X57596129Y-45143242D01*
X57386246Y-45110000D01*
X57173754Y-45110000D01*
X56963872Y-45143242D01*
X56963869Y-45143242D01*
X56761782Y-45208904D01*
X56572439Y-45305380D01*
X56518282Y-45344727D01*
X56518282Y-45344728D01*
X57150591Y-45977037D01*
X57087007Y-45994075D01*
X56972993Y-46059901D01*
X56879901Y-46152993D01*
X56814075Y-46267007D01*
X56797037Y-46330591D01*
X56164728Y-45698282D01*
X56164727Y-45698282D01*
X56125380Y-45752439D01*
X56028904Y-45941783D01*
X55996760Y-46040712D01*
X55957322Y-46098388D01*
X55892964Y-46125586D01*
X55824117Y-46113671D01*
X55772642Y-46066427D01*
X55760898Y-46040711D01*
X55759873Y-46037555D01*
X55681232Y-45883212D01*
X55579414Y-45743072D01*
X55456928Y-45620586D01*
X55316788Y-45518768D01*
X55162445Y-45440127D01*
X54997701Y-45386598D01*
X54997699Y-45386597D01*
X54997698Y-45386597D01*
X54866271Y-45365781D01*
X54826611Y-45359500D01*
X54653389Y-45359500D01*
X54613728Y-45365781D01*
X54482302Y-45386597D01*
X54317552Y-45440128D01*
X54163211Y-45518768D01*
X54089474Y-45572342D01*
X54023072Y-45620586D01*
X54023070Y-45620588D01*
X54023069Y-45620588D01*
X53900588Y-45743069D01*
X53900588Y-45743070D01*
X53900586Y-45743072D01*
X53856859Y-45803256D01*
X53798768Y-45883211D01*
X53720128Y-46037552D01*
X53666597Y-46202302D01*
X53656349Y-46267007D01*
X53639500Y-46373389D01*
X53639500Y-46546611D01*
X53666598Y-46717701D01*
X53720127Y-46882445D01*
X53798768Y-47036788D01*
X53900586Y-47176928D01*
X54023072Y-47299414D01*
X54163212Y-47401232D01*
X54317555Y-47479873D01*
X54482299Y-47533402D01*
X54653389Y-47560500D01*
X54653390Y-47560500D01*
X54826610Y-47560500D01*
X54826611Y-47560500D01*
X54997701Y-47533402D01*
X55162445Y-47479873D01*
X55316788Y-47401232D01*
X55456928Y-47299414D01*
X55579414Y-47176928D01*
X55681232Y-47036788D01*
X55759873Y-46882445D01*
X55760896Y-46879294D01*
X55761610Y-46878250D01*
X55761734Y-46877952D01*
X55761796Y-46877977D01*
X55800327Y-46821618D01*
X55864683Y-46794415D01*
X55933530Y-46806323D01*
X55985011Y-46853562D01*
X55996760Y-46879287D01*
X56028904Y-46978217D01*
X56125375Y-47167550D01*
X56164728Y-47221716D01*
X56797037Y-46589408D01*
X56814075Y-46652993D01*
X56879901Y-46767007D01*
X56972993Y-46860099D01*
X57087007Y-46925925D01*
X57150591Y-46942962D01*
X56549971Y-47543581D01*
X56628711Y-47660895D01*
X56629920Y-47664729D01*
X56632844Y-47667491D01*
X56640343Y-47697778D01*
X56649727Y-47727529D01*
X56648671Y-47731408D01*
X56649638Y-47735312D01*
X56639573Y-47764844D01*
X56631383Y-47794947D01*
X56628397Y-47797640D01*
X56627100Y-47801447D01*
X56582051Y-47840483D01*
X56572440Y-47845380D01*
X56518282Y-47884727D01*
X56518282Y-47884728D01*
X57150591Y-48517037D01*
X57087007Y-48534075D01*
X56972993Y-48599901D01*
X56879901Y-48692993D01*
X56814075Y-48807007D01*
X56797037Y-48870591D01*
X56164728Y-48238282D01*
X56164727Y-48238282D01*
X56125380Y-48292439D01*
X56028904Y-48481783D01*
X55996760Y-48580712D01*
X55957322Y-48638388D01*
X55892964Y-48665586D01*
X55824117Y-48653671D01*
X55772642Y-48606427D01*
X55760898Y-48580712D01*
X55759873Y-48577555D01*
X55681232Y-48423212D01*
X55579414Y-48283072D01*
X55456928Y-48160586D01*
X55316788Y-48058768D01*
X55162445Y-47980127D01*
X54997701Y-47926598D01*
X54997699Y-47926597D01*
X54997698Y-47926597D01*
X54866271Y-47905781D01*
X54826611Y-47899500D01*
X54653389Y-47899500D01*
X54613728Y-47905781D01*
X54482302Y-47926597D01*
X54317552Y-47980128D01*
X54163211Y-48058768D01*
X54089474Y-48112342D01*
X54023072Y-48160586D01*
X54023070Y-48160588D01*
X54023069Y-48160588D01*
X53900588Y-48283069D01*
X53900588Y-48283070D01*
X53900586Y-48283072D01*
X53856859Y-48343256D01*
X53798768Y-48423211D01*
X53720128Y-48577552D01*
X53666597Y-48742302D01*
X53639500Y-48913389D01*
X53639500Y-49086611D01*
X53666598Y-49257701D01*
X53720127Y-49422445D01*
X53798768Y-49576788D01*
X53900586Y-49716928D01*
X54023072Y-49839414D01*
X54163212Y-49941232D01*
X54317555Y-50019873D01*
X54482299Y-50073402D01*
X54653389Y-50100500D01*
X54653390Y-50100500D01*
X54826610Y-50100500D01*
X54826611Y-50100500D01*
X54997701Y-50073402D01*
X55162445Y-50019873D01*
X55316788Y-49941232D01*
X55456928Y-49839414D01*
X55579414Y-49716928D01*
X55681232Y-49576788D01*
X55759873Y-49422445D01*
X55760896Y-49419294D01*
X55761610Y-49418250D01*
X55761734Y-49417952D01*
X55761796Y-49417977D01*
X55800327Y-49361618D01*
X55864683Y-49334415D01*
X55933530Y-49346323D01*
X55985011Y-49393562D01*
X55996760Y-49419287D01*
X56028904Y-49518217D01*
X56125375Y-49707550D01*
X56164728Y-49761716D01*
X56797037Y-49129408D01*
X56814075Y-49192993D01*
X56879901Y-49307007D01*
X56972993Y-49400099D01*
X57087007Y-49465925D01*
X57150590Y-49482962D01*
X56518282Y-50115269D01*
X56518282Y-50115270D01*
X56572449Y-50154624D01*
X56761782Y-50251095D01*
X56963870Y-50316757D01*
X57173754Y-50350000D01*
X57386246Y-50350000D01*
X57596127Y-50316757D01*
X57596130Y-50316757D01*
X57798217Y-50251095D01*
X57987554Y-50154622D01*
X58041716Y-50115270D01*
X58041717Y-50115270D01*
X57409408Y-49482962D01*
X57472993Y-49465925D01*
X57587007Y-49400099D01*
X57680099Y-49307007D01*
X57745925Y-49192993D01*
X57762962Y-49129408D01*
X58406052Y-49772499D01*
X58434146Y-49778401D01*
X58483904Y-49827451D01*
X58499500Y-49887656D01*
X58499500Y-102375500D01*
X58479815Y-102442539D01*
X58427011Y-102488294D01*
X58375500Y-102499500D01*
X35203765Y-102499500D01*
X35136726Y-102479815D01*
X35090971Y-102427011D01*
X35081027Y-102357853D01*
X35100663Y-102306609D01*
X35206185Y-102148684D01*
X35206192Y-102148671D01*
X35281569Y-101966693D01*
X35281572Y-101966681D01*
X35319999Y-101773495D01*
X35320000Y-101773492D01*
X35320000Y-101525000D01*
X34620000Y-101525000D01*
X34620000Y-101025000D01*
X35320000Y-101025000D01*
X35320000Y-100776508D01*
X35319999Y-100776504D01*
X35281572Y-100583318D01*
X35281569Y-100583306D01*
X35206192Y-100401328D01*
X35206185Y-100401315D01*
X35096751Y-100237537D01*
X35096748Y-100237533D01*
X34957466Y-100098251D01*
X34957462Y-100098248D01*
X34793684Y-99988814D01*
X34793671Y-99988807D01*
X34611691Y-99913429D01*
X34611683Y-99913427D01*
X34570000Y-99905135D01*
X34570000Y-100708011D01*
X34560060Y-100690795D01*
X34504205Y-100634940D01*
X34435796Y-100595444D01*
X34359496Y-100575000D01*
X34280504Y-100575000D01*
X34204204Y-100595444D01*
X34135795Y-100634940D01*
X34079940Y-100690795D01*
X34070000Y-100708011D01*
X34070000Y-99905136D01*
X34069999Y-99905135D01*
X34028316Y-99913427D01*
X34028308Y-99913429D01*
X33846328Y-99988807D01*
X33846315Y-99988814D01*
X33682537Y-100098248D01*
X33682533Y-100098251D01*
X33543251Y-100237533D01*
X33543248Y-100237537D01*
X33433814Y-100401315D01*
X33433807Y-100401328D01*
X33358430Y-100583306D01*
X33358427Y-100583318D01*
X33320000Y-100776504D01*
X33320000Y-101025000D01*
X34020000Y-101025000D01*
X34020000Y-101525000D01*
X33320000Y-101525000D01*
X33320000Y-101773495D01*
X33358427Y-101966681D01*
X33358430Y-101966693D01*
X33433807Y-102148671D01*
X33433814Y-102148684D01*
X33539337Y-102306609D01*
X33560215Y-102373286D01*
X33541731Y-102440667D01*
X33489752Y-102487357D01*
X33436235Y-102499500D01*
X26563765Y-102499500D01*
X26496726Y-102479815D01*
X26450971Y-102427011D01*
X26441027Y-102357853D01*
X26460663Y-102306609D01*
X26566185Y-102148684D01*
X26566192Y-102148671D01*
X26641569Y-101966693D01*
X26641572Y-101966681D01*
X26679999Y-101773495D01*
X26680000Y-101773492D01*
X26680000Y-101525000D01*
X25980000Y-101525000D01*
X25980000Y-101025000D01*
X26680000Y-101025000D01*
X26680000Y-100776508D01*
X26679999Y-100776504D01*
X26641572Y-100583318D01*
X26641569Y-100583306D01*
X26566192Y-100401328D01*
X26566185Y-100401315D01*
X26456751Y-100237537D01*
X26456748Y-100237533D01*
X26317466Y-100098251D01*
X26317462Y-100098248D01*
X26153684Y-99988814D01*
X26153671Y-99988807D01*
X25971691Y-99913429D01*
X25971683Y-99913427D01*
X25930000Y-99905135D01*
X25930000Y-100708011D01*
X25920060Y-100690795D01*
X25864205Y-100634940D01*
X25795796Y-100595444D01*
X25719496Y-100575000D01*
X25640504Y-100575000D01*
X25564204Y-100595444D01*
X25495795Y-100634940D01*
X25439940Y-100690795D01*
X25430000Y-100708011D01*
X25430000Y-99905136D01*
X25429999Y-99905135D01*
X25388316Y-99913427D01*
X25388308Y-99913429D01*
X25206328Y-99988807D01*
X25206315Y-99988814D01*
X25042537Y-100098248D01*
X25042533Y-100098251D01*
X24903251Y-100237533D01*
X24903248Y-100237537D01*
X24793814Y-100401315D01*
X24793807Y-100401328D01*
X24718430Y-100583306D01*
X24718427Y-100583318D01*
X24680000Y-100776504D01*
X24680000Y-101025000D01*
X25380000Y-101025000D01*
X25380000Y-101525000D01*
X24680000Y-101525000D01*
X24680000Y-101773495D01*
X24718427Y-101966681D01*
X24718430Y-101966693D01*
X24793807Y-102148671D01*
X24793814Y-102148684D01*
X24899337Y-102306609D01*
X24920215Y-102373286D01*
X24901731Y-102440667D01*
X24849752Y-102487357D01*
X24796235Y-102499500D01*
X1624500Y-102499500D01*
X1557461Y-102479815D01*
X1511706Y-102427011D01*
X1500500Y-102375500D01*
X1500500Y-96446504D01*
X24680000Y-96446504D01*
X24680000Y-96845000D01*
X25380000Y-96845000D01*
X25380000Y-97345000D01*
X24680000Y-97345000D01*
X24680000Y-97743495D01*
X24718427Y-97936681D01*
X24718430Y-97936693D01*
X24793807Y-98118671D01*
X24793814Y-98118684D01*
X24903248Y-98282462D01*
X24903251Y-98282466D01*
X25042533Y-98421748D01*
X25042537Y-98421751D01*
X25206315Y-98531185D01*
X25206328Y-98531192D01*
X25388308Y-98606569D01*
X25430000Y-98614862D01*
X25430000Y-97811988D01*
X25439940Y-97829205D01*
X25495795Y-97885060D01*
X25564204Y-97924556D01*
X25640504Y-97945000D01*
X25719496Y-97945000D01*
X25795796Y-97924556D01*
X25864205Y-97885060D01*
X25920060Y-97829205D01*
X25930000Y-97811988D01*
X25930000Y-98614862D01*
X25971690Y-98606569D01*
X25971692Y-98606569D01*
X26153671Y-98531192D01*
X26153684Y-98531185D01*
X26317462Y-98421751D01*
X26317466Y-98421748D01*
X26456748Y-98282466D01*
X26456751Y-98282462D01*
X26566185Y-98118684D01*
X26566186Y-98118682D01*
X26570129Y-98109163D01*
X26613968Y-98054757D01*
X26680261Y-98032689D01*
X26747961Y-98049965D01*
X26753400Y-98053647D01*
X26756634Y-98055514D01*
X26756635Y-98055515D01*
X26887865Y-98131281D01*
X27034234Y-98170500D01*
X27034236Y-98170500D01*
X27185764Y-98170500D01*
X27185766Y-98170500D01*
X27332135Y-98131281D01*
X27463365Y-98055515D01*
X27570515Y-97948365D01*
X27646281Y-97817135D01*
X27685500Y-97670766D01*
X27685500Y-97519234D01*
X32314500Y-97519234D01*
X32314500Y-97670765D01*
X32353719Y-97817136D01*
X32391602Y-97882750D01*
X32429485Y-97948365D01*
X32536635Y-98055515D01*
X32667865Y-98131281D01*
X32814234Y-98170500D01*
X32814236Y-98170500D01*
X32965764Y-98170500D01*
X32965766Y-98170500D01*
X33112135Y-98131281D01*
X33243365Y-98055515D01*
X33243366Y-98055513D01*
X33250403Y-98051451D01*
X33251676Y-98053656D01*
X33304956Y-98033043D01*
X33373405Y-98047063D01*
X33423407Y-98095864D01*
X33429867Y-98109157D01*
X33433809Y-98118674D01*
X33433814Y-98118684D01*
X33543248Y-98282462D01*
X33543251Y-98282466D01*
X33682533Y-98421748D01*
X33682537Y-98421751D01*
X33846315Y-98531185D01*
X33846328Y-98531192D01*
X34028308Y-98606569D01*
X34070000Y-98614862D01*
X34070000Y-97811988D01*
X34079940Y-97829205D01*
X34135795Y-97885060D01*
X34204204Y-97924556D01*
X34280504Y-97945000D01*
X34359496Y-97945000D01*
X34435796Y-97924556D01*
X34504205Y-97885060D01*
X34560060Y-97829205D01*
X34570000Y-97811988D01*
X34570000Y-98614862D01*
X34611690Y-98606569D01*
X34611692Y-98606569D01*
X34793671Y-98531192D01*
X34793684Y-98531185D01*
X34957462Y-98421751D01*
X34957466Y-98421748D01*
X35096748Y-98282466D01*
X35096751Y-98282462D01*
X35206185Y-98118684D01*
X35206192Y-98118671D01*
X35281569Y-97936693D01*
X35281572Y-97936681D01*
X35319999Y-97743495D01*
X35320000Y-97743492D01*
X35320000Y-97345000D01*
X34620000Y-97345000D01*
X34620000Y-96845000D01*
X35320000Y-96845000D01*
X35320000Y-96446508D01*
X35319999Y-96446504D01*
X35281572Y-96253318D01*
X35281569Y-96253306D01*
X35206192Y-96071328D01*
X35206185Y-96071315D01*
X35096751Y-95907537D01*
X35096748Y-95907533D01*
X34957466Y-95768251D01*
X34957462Y-95768248D01*
X34793684Y-95658814D01*
X34793671Y-95658807D01*
X34611691Y-95583429D01*
X34611683Y-95583427D01*
X34570000Y-95575135D01*
X34570000Y-96378011D01*
X34560060Y-96360795D01*
X34504205Y-96304940D01*
X34435796Y-96265444D01*
X34359496Y-96245000D01*
X34280504Y-96245000D01*
X34204204Y-96265444D01*
X34135795Y-96304940D01*
X34079940Y-96360795D01*
X34070000Y-96378011D01*
X34070000Y-95575136D01*
X34069999Y-95575135D01*
X34028316Y-95583427D01*
X34028308Y-95583429D01*
X33846328Y-95658807D01*
X33846315Y-95658814D01*
X33682537Y-95768248D01*
X33682533Y-95768251D01*
X33543251Y-95907533D01*
X33543248Y-95907537D01*
X33433814Y-96071315D01*
X33433807Y-96071328D01*
X33358430Y-96253306D01*
X33358427Y-96253318D01*
X33320000Y-96446504D01*
X33320000Y-96845000D01*
X34020000Y-96845000D01*
X34020000Y-97345000D01*
X33481784Y-97345000D01*
X33414745Y-97325315D01*
X33374397Y-97283000D01*
X33350515Y-97241635D01*
X33243365Y-97134485D01*
X33177750Y-97096602D01*
X33112136Y-97058719D01*
X33038950Y-97039109D01*
X32965766Y-97019500D01*
X32814234Y-97019500D01*
X32667863Y-97058719D01*
X32536635Y-97134485D01*
X32536632Y-97134487D01*
X32429487Y-97241632D01*
X32429485Y-97241635D01*
X32353719Y-97372863D01*
X32314500Y-97519234D01*
X27685500Y-97519234D01*
X27646281Y-97372865D01*
X27570515Y-97241635D01*
X27463365Y-97134485D01*
X27397750Y-97096602D01*
X27332136Y-97058719D01*
X27258950Y-97039109D01*
X27185766Y-97019500D01*
X27034234Y-97019500D01*
X26887863Y-97058719D01*
X26756635Y-97134485D01*
X26756632Y-97134487D01*
X26649487Y-97241632D01*
X26649483Y-97241638D01*
X26625603Y-97283000D01*
X26575036Y-97331216D01*
X26518216Y-97345000D01*
X25980000Y-97345000D01*
X25980000Y-96845000D01*
X26680000Y-96845000D01*
X26680000Y-96446508D01*
X26679999Y-96446504D01*
X26641572Y-96253318D01*
X26641569Y-96253306D01*
X26566192Y-96071328D01*
X26566185Y-96071315D01*
X26456751Y-95907537D01*
X26456748Y-95907533D01*
X26317466Y-95768251D01*
X26317462Y-95768248D01*
X26153684Y-95658814D01*
X26153671Y-95658807D01*
X25971691Y-95583429D01*
X25971683Y-95583427D01*
X25930000Y-95575135D01*
X25930000Y-96378011D01*
X25920060Y-96360795D01*
X25864205Y-96304940D01*
X25795796Y-96265444D01*
X25719496Y-96245000D01*
X25640504Y-96245000D01*
X25564204Y-96265444D01*
X25495795Y-96304940D01*
X25439940Y-96360795D01*
X25430000Y-96378011D01*
X25430000Y-95575136D01*
X25429999Y-95575135D01*
X25388316Y-95583427D01*
X25388308Y-95583429D01*
X25206328Y-95658807D01*
X25206315Y-95658814D01*
X25042537Y-95768248D01*
X25042533Y-95768251D01*
X24903251Y-95907533D01*
X24903248Y-95907537D01*
X24793814Y-96071315D01*
X24793807Y-96071328D01*
X24718430Y-96253306D01*
X24718427Y-96253318D01*
X24680000Y-96446504D01*
X1500500Y-96446504D01*
X1500500Y-95354725D01*
X31849500Y-95354725D01*
X31849500Y-95499675D01*
X31887016Y-95639685D01*
X31887017Y-95639688D01*
X31959488Y-95765211D01*
X31959490Y-95765213D01*
X31959491Y-95765215D01*
X32061985Y-95867709D01*
X32061986Y-95867710D01*
X32061988Y-95867711D01*
X32187511Y-95940182D01*
X32187512Y-95940182D01*
X32187515Y-95940184D01*
X32327525Y-95977700D01*
X32327528Y-95977700D01*
X32472472Y-95977700D01*
X32472475Y-95977700D01*
X32612485Y-95940184D01*
X32738015Y-95867709D01*
X32840509Y-95765215D01*
X32912984Y-95639685D01*
X32950500Y-95499675D01*
X32950500Y-95354725D01*
X32912984Y-95214715D01*
X32840509Y-95089185D01*
X32738015Y-94986691D01*
X32738013Y-94986690D01*
X32738011Y-94986688D01*
X32612488Y-94914217D01*
X32612489Y-94914217D01*
X32601006Y-94911140D01*
X32472475Y-94876700D01*
X32327525Y-94876700D01*
X32198993Y-94911140D01*
X32187511Y-94914217D01*
X32061988Y-94986688D01*
X32061982Y-94986693D01*
X31959493Y-95089182D01*
X31959488Y-95089188D01*
X31887017Y-95214711D01*
X31887016Y-95214715D01*
X31849500Y-95354725D01*
X1500500Y-95354725D01*
X1500500Y-93977525D01*
X34578300Y-93977525D01*
X34578300Y-94122475D01*
X34615816Y-94262485D01*
X34615817Y-94262488D01*
X34688288Y-94388011D01*
X34688290Y-94388013D01*
X34688291Y-94388015D01*
X34790785Y-94490509D01*
X34790786Y-94490510D01*
X34790788Y-94490511D01*
X34916311Y-94562982D01*
X34916312Y-94562982D01*
X34916315Y-94562984D01*
X35056325Y-94600500D01*
X35056328Y-94600500D01*
X35201272Y-94600500D01*
X35201275Y-94600500D01*
X35341285Y-94562984D01*
X35466815Y-94490509D01*
X35569309Y-94388015D01*
X35641784Y-94262485D01*
X35679300Y-94122475D01*
X35679300Y-93977525D01*
X35641784Y-93837515D01*
X35641782Y-93837511D01*
X35624744Y-93808000D01*
X35624743Y-93807999D01*
X35611811Y-93785600D01*
X35593639Y-93754125D01*
X36122500Y-93754125D01*
X36122500Y-93899075D01*
X36160016Y-94039085D01*
X36160017Y-94039088D01*
X36232488Y-94164611D01*
X36232490Y-94164613D01*
X36232491Y-94164615D01*
X36334985Y-94267109D01*
X36334986Y-94267110D01*
X36334988Y-94267111D01*
X36460511Y-94339582D01*
X36460512Y-94339582D01*
X36460515Y-94339584D01*
X36600525Y-94377100D01*
X36600528Y-94377100D01*
X36745472Y-94377100D01*
X36745475Y-94377100D01*
X36885485Y-94339584D01*
X37011015Y-94267109D01*
X37113509Y-94164615D01*
X37185984Y-94039085D01*
X37223500Y-93899075D01*
X37223500Y-93754125D01*
X37185984Y-93614115D01*
X37183315Y-93609493D01*
X37113511Y-93488588D01*
X37113506Y-93488582D01*
X37011017Y-93386093D01*
X37011011Y-93386088D01*
X36885488Y-93313617D01*
X36885489Y-93313617D01*
X36862940Y-93307575D01*
X36745475Y-93276100D01*
X36600525Y-93276100D01*
X36483060Y-93307575D01*
X36460511Y-93313617D01*
X36334988Y-93386088D01*
X36334982Y-93386093D01*
X36232493Y-93488582D01*
X36232488Y-93488588D01*
X36160017Y-93614111D01*
X36160016Y-93614115D01*
X36122500Y-93754125D01*
X35593639Y-93754125D01*
X35569309Y-93711985D01*
X35466815Y-93609491D01*
X35466813Y-93609490D01*
X35466811Y-93609488D01*
X35341288Y-93537017D01*
X35341289Y-93537017D01*
X35329806Y-93533940D01*
X35201275Y-93499500D01*
X35056325Y-93499500D01*
X34927793Y-93533940D01*
X34916311Y-93537017D01*
X34790788Y-93609488D01*
X34790782Y-93609493D01*
X34688293Y-93711982D01*
X34688288Y-93711988D01*
X34615817Y-93837511D01*
X34615816Y-93837515D01*
X34578300Y-93977525D01*
X1500500Y-93977525D01*
X1500500Y-92934825D01*
X21274500Y-92934825D01*
X21274500Y-93079775D01*
X21312016Y-93219785D01*
X21312017Y-93219788D01*
X21384488Y-93345311D01*
X21384490Y-93345313D01*
X21384491Y-93345315D01*
X21486985Y-93447809D01*
X21486986Y-93447810D01*
X21486988Y-93447811D01*
X21612511Y-93520282D01*
X21612512Y-93520282D01*
X21612515Y-93520284D01*
X21752525Y-93557800D01*
X21752528Y-93557800D01*
X21897472Y-93557800D01*
X21897475Y-93557800D01*
X22037485Y-93520284D01*
X22163015Y-93447809D01*
X22265509Y-93345315D01*
X22337984Y-93219785D01*
X22353300Y-93162625D01*
X39857700Y-93162625D01*
X39857700Y-93307575D01*
X39895216Y-93447585D01*
X39895217Y-93447588D01*
X39967688Y-93573111D01*
X39967690Y-93573113D01*
X39967691Y-93573115D01*
X40070185Y-93675609D01*
X40070186Y-93675610D01*
X40070188Y-93675611D01*
X40195711Y-93748082D01*
X40195712Y-93748082D01*
X40195715Y-93748084D01*
X40335725Y-93785600D01*
X40335728Y-93785600D01*
X40480672Y-93785600D01*
X40480675Y-93785600D01*
X40620685Y-93748084D01*
X40746215Y-93675609D01*
X40848709Y-93573115D01*
X40921184Y-93447585D01*
X40958700Y-93307575D01*
X40958700Y-93162625D01*
X40921184Y-93022615D01*
X40870499Y-92934827D01*
X40848711Y-92897088D01*
X40848706Y-92897082D01*
X40746217Y-92794593D01*
X40746211Y-92794588D01*
X40620688Y-92722117D01*
X40620689Y-92722117D01*
X40609206Y-92719040D01*
X40480675Y-92684600D01*
X40335725Y-92684600D01*
X40207193Y-92719040D01*
X40195711Y-92722117D01*
X40070188Y-92794588D01*
X40070182Y-92794593D01*
X39967693Y-92897082D01*
X39967688Y-92897088D01*
X39895217Y-93022611D01*
X39895216Y-93022615D01*
X39857700Y-93162625D01*
X22353300Y-93162625D01*
X22375500Y-93079775D01*
X22375500Y-92934825D01*
X22337984Y-92794815D01*
X22265509Y-92669285D01*
X22163015Y-92566791D01*
X22163013Y-92566790D01*
X22163011Y-92566788D01*
X22037488Y-92494317D01*
X22037489Y-92494317D01*
X22026006Y-92491240D01*
X21897475Y-92456800D01*
X21752525Y-92456800D01*
X21623993Y-92491240D01*
X21612511Y-92494317D01*
X21486988Y-92566788D01*
X21486982Y-92566793D01*
X21384493Y-92669282D01*
X21384488Y-92669288D01*
X21312017Y-92794811D01*
X21312016Y-92794815D01*
X21274500Y-92934825D01*
X1500500Y-92934825D01*
X1500500Y-90697425D01*
X6499500Y-90697425D01*
X6499500Y-90842375D01*
X6531691Y-90962511D01*
X6537017Y-90982388D01*
X6609488Y-91107911D01*
X6609490Y-91107913D01*
X6609491Y-91107915D01*
X6711985Y-91210409D01*
X6711986Y-91210410D01*
X6711988Y-91210411D01*
X6837511Y-91282882D01*
X6837512Y-91282882D01*
X6837515Y-91282884D01*
X6977525Y-91320400D01*
X6977528Y-91320400D01*
X7122472Y-91320400D01*
X7122475Y-91320400D01*
X7262485Y-91282884D01*
X7388015Y-91210409D01*
X7490509Y-91107915D01*
X7562984Y-90982385D01*
X7600500Y-90842375D01*
X7600500Y-90697425D01*
X7562984Y-90557415D01*
X7520935Y-90484585D01*
X7490511Y-90431888D01*
X7490506Y-90431882D01*
X7388017Y-90329393D01*
X7388011Y-90329388D01*
X7262488Y-90256917D01*
X7262489Y-90256917D01*
X7251006Y-90253840D01*
X7122475Y-90219400D01*
X6977525Y-90219400D01*
X6848993Y-90253840D01*
X6837511Y-90256917D01*
X6711988Y-90329388D01*
X6711982Y-90329393D01*
X6609493Y-90431882D01*
X6609488Y-90431888D01*
X6537017Y-90557411D01*
X6537016Y-90557415D01*
X6499500Y-90697425D01*
X1500500Y-90697425D01*
X1500500Y-84509525D01*
X11293300Y-84509525D01*
X11293300Y-84654475D01*
X11330816Y-84794485D01*
X11330817Y-84794488D01*
X11403288Y-84920011D01*
X11403290Y-84920013D01*
X11403291Y-84920015D01*
X11505785Y-85022509D01*
X11505786Y-85022510D01*
X11505788Y-85022511D01*
X11631311Y-85094982D01*
X11631312Y-85094982D01*
X11631315Y-85094984D01*
X11771325Y-85132500D01*
X11771328Y-85132500D01*
X11916272Y-85132500D01*
X11916275Y-85132500D01*
X12056285Y-85094984D01*
X12181815Y-85022509D01*
X12284309Y-84920015D01*
X12356784Y-84794485D01*
X12394300Y-84654475D01*
X12394300Y-84509525D01*
X12356784Y-84369515D01*
X12317406Y-84301311D01*
X12284311Y-84243988D01*
X12284306Y-84243982D01*
X12181817Y-84141493D01*
X12181811Y-84141488D01*
X12056288Y-84069017D01*
X12056289Y-84069017D01*
X12044806Y-84065940D01*
X11916275Y-84031500D01*
X11771325Y-84031500D01*
X11642793Y-84065940D01*
X11631311Y-84069017D01*
X11505788Y-84141488D01*
X11505782Y-84141493D01*
X11403293Y-84243982D01*
X11403288Y-84243988D01*
X11330817Y-84369511D01*
X11330816Y-84369515D01*
X11293300Y-84509525D01*
X1500500Y-84509525D01*
X1500500Y-77749999D01*
X3650884Y-77749999D01*
X3650885Y-77750000D01*
X4719670Y-77750000D01*
X4699925Y-77769745D01*
X4650556Y-77855255D01*
X4625000Y-77950630D01*
X4625000Y-78049370D01*
X4650556Y-78144745D01*
X4699925Y-78230255D01*
X4719670Y-78250000D01*
X3650885Y-78250000D01*
X3652085Y-78257584D01*
X3705591Y-78422255D01*
X3784195Y-78576524D01*
X3885967Y-78716602D01*
X4008397Y-78839032D01*
X4148475Y-78940804D01*
X4191162Y-78962554D01*
X4241958Y-79010529D01*
X4258753Y-79078350D01*
X4236216Y-79144485D01*
X4181501Y-79187936D01*
X4178201Y-79189221D01*
X4132670Y-79206203D01*
X4132664Y-79206206D01*
X4017455Y-79292452D01*
X4017452Y-79292455D01*
X3931206Y-79407664D01*
X3931202Y-79407671D01*
X3880908Y-79542517D01*
X3874501Y-79602116D01*
X3874501Y-79602123D01*
X3874500Y-79602135D01*
X3874500Y-80397870D01*
X3874501Y-80397876D01*
X3880908Y-80457483D01*
X3931202Y-80592328D01*
X3931206Y-80592335D01*
X4017452Y-80707544D01*
X4017455Y-80707547D01*
X4132664Y-80793793D01*
X4132671Y-80793797D01*
X4267517Y-80844091D01*
X4267516Y-80844091D01*
X4274444Y-80844835D01*
X4327127Y-80850500D01*
X5672872Y-80850499D01*
X5732483Y-80844091D01*
X5867331Y-80793796D01*
X5982546Y-80707546D01*
X6068796Y-80592331D01*
X6119091Y-80457483D01*
X6125500Y-80397873D01*
X6125499Y-79602128D01*
X6119091Y-79542517D01*
X6068796Y-79407669D01*
X6068795Y-79407668D01*
X6068793Y-79407664D01*
X5982547Y-79292455D01*
X5982544Y-79292452D01*
X5867335Y-79206206D01*
X5867330Y-79206203D01*
X5821798Y-79189221D01*
X5765865Y-79147349D01*
X5741448Y-79081885D01*
X5756300Y-79013612D01*
X5805705Y-78964207D01*
X5808838Y-78962554D01*
X5851522Y-78940805D01*
X5991602Y-78839032D01*
X6114032Y-78716602D01*
X6215804Y-78576524D01*
X6294408Y-78422255D01*
X6347914Y-78257584D01*
X6349115Y-78250000D01*
X5280330Y-78250000D01*
X5300075Y-78230255D01*
X5349444Y-78144745D01*
X5375000Y-78049370D01*
X5375000Y-77950630D01*
X5349444Y-77855255D01*
X5300075Y-77769745D01*
X5280330Y-77750000D01*
X6349115Y-77750000D01*
X6349115Y-77749999D01*
X6347914Y-77742415D01*
X6294408Y-77577744D01*
X6215804Y-77423475D01*
X6114032Y-77283397D01*
X5991602Y-77160967D01*
X5851524Y-77059195D01*
X5697257Y-76980591D01*
X5532584Y-76927085D01*
X5361571Y-76900000D01*
X5250000Y-76900000D01*
X5250000Y-77719670D01*
X5230255Y-77699925D01*
X5144745Y-77650556D01*
X5049370Y-77625000D01*
X4950630Y-77625000D01*
X4855255Y-77650556D01*
X4769745Y-77699925D01*
X4750000Y-77719670D01*
X4750000Y-76900000D01*
X4638429Y-76900000D01*
X4467415Y-76927085D01*
X4302742Y-76980591D01*
X4148475Y-77059195D01*
X4008397Y-77160967D01*
X3885967Y-77283397D01*
X3784195Y-77423475D01*
X3705591Y-77577744D01*
X3652085Y-77742415D01*
X3650884Y-77749999D01*
X1500500Y-77749999D01*
X1500500Y-71934325D01*
X14674500Y-71934325D01*
X14674500Y-72079275D01*
X14712016Y-72219285D01*
X14712017Y-72219288D01*
X14784488Y-72344811D01*
X14784490Y-72344813D01*
X14784491Y-72344815D01*
X14886985Y-72447309D01*
X14886986Y-72447310D01*
X14886988Y-72447311D01*
X15012511Y-72519782D01*
X15012512Y-72519782D01*
X15012515Y-72519784D01*
X15152525Y-72557300D01*
X15152528Y-72557300D01*
X15297472Y-72557300D01*
X15297475Y-72557300D01*
X15437485Y-72519784D01*
X15563015Y-72447309D01*
X15665509Y-72344815D01*
X15737984Y-72219285D01*
X15775500Y-72079275D01*
X15775500Y-71934325D01*
X15737984Y-71794315D01*
X15665509Y-71668785D01*
X15563015Y-71566291D01*
X15563013Y-71566290D01*
X15563011Y-71566288D01*
X15437488Y-71493817D01*
X15437489Y-71493817D01*
X15426006Y-71490740D01*
X15297475Y-71456300D01*
X15152525Y-71456300D01*
X15023993Y-71490740D01*
X15012511Y-71493817D01*
X14886988Y-71566288D01*
X14886982Y-71566293D01*
X14784493Y-71668782D01*
X14784488Y-71668788D01*
X14712017Y-71794311D01*
X14712016Y-71794315D01*
X14674500Y-71934325D01*
X1500500Y-71934325D01*
X1500500Y-65078725D01*
X16768600Y-65078725D01*
X16768600Y-65223675D01*
X16804411Y-65357321D01*
X16806117Y-65363688D01*
X16878588Y-65489211D01*
X16878590Y-65489213D01*
X16878591Y-65489215D01*
X16981085Y-65591709D01*
X16981086Y-65591710D01*
X16981088Y-65591711D01*
X17106611Y-65664182D01*
X17106612Y-65664182D01*
X17106615Y-65664184D01*
X17246625Y-65701700D01*
X17246628Y-65701700D01*
X17391572Y-65701700D01*
X17391575Y-65701700D01*
X17531585Y-65664184D01*
X17657115Y-65591709D01*
X17759609Y-65489215D01*
X17832084Y-65363685D01*
X17869600Y-65223675D01*
X17869600Y-65078725D01*
X17832084Y-64938715D01*
X17823290Y-64923484D01*
X17759611Y-64813188D01*
X17759606Y-64813182D01*
X17705919Y-64759495D01*
X17672434Y-64698172D01*
X17669600Y-64671814D01*
X17669600Y-63000444D01*
X17689285Y-62933405D01*
X17705919Y-62912763D01*
X18907263Y-61711419D01*
X18968586Y-61677934D01*
X18976667Y-61676454D01*
X18985753Y-61675100D01*
X19070875Y-61675100D01*
X19177541Y-61646518D01*
X19184523Y-61645478D01*
X19212414Y-61649341D01*
X19240556Y-61650012D01*
X19246554Y-61654071D01*
X19253731Y-61655066D01*
X19275106Y-61673396D01*
X19298418Y-61689174D01*
X19301269Y-61695831D01*
X19306770Y-61700549D01*
X19314840Y-61727523D01*
X19325923Y-61753402D01*
X19326753Y-61767336D01*
X19326798Y-61767487D01*
X19326768Y-61767590D01*
X19326800Y-61768124D01*
X19326800Y-63705214D01*
X19307115Y-63772253D01*
X19290481Y-63792895D01*
X19236793Y-63846582D01*
X19236788Y-63846588D01*
X19164317Y-63972111D01*
X19164316Y-63972115D01*
X19126800Y-64112125D01*
X19126800Y-64257075D01*
X19164316Y-64397085D01*
X19164317Y-64397088D01*
X19236788Y-64522611D01*
X19236790Y-64522613D01*
X19236791Y-64522615D01*
X19339285Y-64625109D01*
X19339286Y-64625110D01*
X19339288Y-64625111D01*
X19464811Y-64697582D01*
X19464812Y-64697582D01*
X19464815Y-64697584D01*
X19604825Y-64735100D01*
X19604828Y-64735100D01*
X19749772Y-64735100D01*
X19749775Y-64735100D01*
X19889785Y-64697584D01*
X20015315Y-64625109D01*
X20117809Y-64522615D01*
X20190284Y-64397085D01*
X20227800Y-64257075D01*
X20227800Y-64112125D01*
X20190284Y-63972115D01*
X20172362Y-63941074D01*
X20117811Y-63846588D01*
X20117806Y-63846582D01*
X20064119Y-63792895D01*
X20030634Y-63731572D01*
X20027800Y-63705214D01*
X20027800Y-60643510D01*
X20047485Y-60576471D01*
X20100289Y-60530716D01*
X20169447Y-60520772D01*
X20183891Y-60523735D01*
X20206525Y-60529800D01*
X20206527Y-60529800D01*
X20351472Y-60529800D01*
X20351475Y-60529800D01*
X20491485Y-60492284D01*
X20617015Y-60419809D01*
X20719509Y-60317315D01*
X20791984Y-60191785D01*
X20829500Y-60051775D01*
X20829500Y-59906825D01*
X20791984Y-59766815D01*
X20749038Y-59692431D01*
X20719511Y-59641288D01*
X20719506Y-59641282D01*
X20617017Y-59538793D01*
X20617011Y-59538788D01*
X20491488Y-59466317D01*
X20491489Y-59466317D01*
X20480006Y-59463240D01*
X20351475Y-59428800D01*
X20206525Y-59428800D01*
X20206520Y-59428800D01*
X20183891Y-59434864D01*
X20114041Y-59433200D01*
X20056180Y-59394037D01*
X20028677Y-59329808D01*
X20027800Y-59315089D01*
X20027800Y-33701425D01*
X21241800Y-33701425D01*
X21241800Y-33846375D01*
X21279316Y-33986385D01*
X21279317Y-33986388D01*
X21351788Y-34111911D01*
X21351793Y-34111917D01*
X21405481Y-34165605D01*
X21438966Y-34226928D01*
X21441800Y-34253286D01*
X21441800Y-82012143D01*
X21447515Y-82033470D01*
X21447516Y-82033474D01*
X21465687Y-82101290D01*
X21511827Y-82181208D01*
X21511831Y-82181213D01*
X30414481Y-91083863D01*
X30447966Y-91145186D01*
X30450800Y-91171544D01*
X30450800Y-91247475D01*
X30488316Y-91387485D01*
X30488317Y-91387488D01*
X30560788Y-91513011D01*
X30560790Y-91513013D01*
X30560791Y-91513015D01*
X30663285Y-91615509D01*
X30663286Y-91615510D01*
X30663288Y-91615511D01*
X30788811Y-91687982D01*
X30788812Y-91687982D01*
X30788815Y-91687984D01*
X30928825Y-91725500D01*
X30928828Y-91725500D01*
X31073772Y-91725500D01*
X31073775Y-91725500D01*
X31213785Y-91687984D01*
X31339315Y-91615509D01*
X31441809Y-91513015D01*
X31514284Y-91387485D01*
X31551800Y-91247475D01*
X31551800Y-91102525D01*
X31514284Y-90962515D01*
X31441809Y-90836985D01*
X31339315Y-90734491D01*
X31339313Y-90734490D01*
X31339311Y-90734488D01*
X31213788Y-90662017D01*
X31213789Y-90662017D01*
X31202306Y-90658940D01*
X31073775Y-90624500D01*
X31073772Y-90624500D01*
X30997844Y-90624500D01*
X30930805Y-90604815D01*
X30910163Y-90588181D01*
X25597963Y-85275981D01*
X25564478Y-85214658D01*
X25569462Y-85144966D01*
X25611334Y-85089033D01*
X25676798Y-85064616D01*
X25685644Y-85064300D01*
X25707572Y-85064300D01*
X25707575Y-85064300D01*
X25847585Y-85026784D01*
X25973115Y-84954309D01*
X26075609Y-84851815D01*
X26148084Y-84726285D01*
X26185600Y-84586275D01*
X26185600Y-84441325D01*
X26148084Y-84301315D01*
X26114984Y-84243985D01*
X26075611Y-84175788D01*
X26075606Y-84175782D01*
X25973117Y-84073293D01*
X25973111Y-84073288D01*
X25847588Y-84000817D01*
X25847589Y-84000817D01*
X25836106Y-83997740D01*
X25707575Y-83963300D01*
X25562625Y-83963300D01*
X25434093Y-83997740D01*
X25422611Y-84000817D01*
X25297088Y-84073288D01*
X25297082Y-84073293D01*
X25194593Y-84175782D01*
X25194588Y-84175788D01*
X25122117Y-84301311D01*
X25122116Y-84301315D01*
X25084600Y-84441325D01*
X25084600Y-84441327D01*
X25084600Y-84463256D01*
X25064915Y-84530295D01*
X25012111Y-84576050D01*
X24942953Y-84585994D01*
X24879397Y-84556969D01*
X24872919Y-84550937D01*
X22179119Y-81857137D01*
X22145634Y-81795814D01*
X22142800Y-81769456D01*
X22142800Y-66125825D01*
X23037800Y-66125825D01*
X23037800Y-66270775D01*
X23058186Y-66346855D01*
X23075317Y-66410788D01*
X23147788Y-66536311D01*
X23147790Y-66536313D01*
X23147791Y-66536315D01*
X23250285Y-66638809D01*
X23250286Y-66638810D01*
X23250288Y-66638811D01*
X23375811Y-66711282D01*
X23375812Y-66711282D01*
X23375815Y-66711284D01*
X23515825Y-66748800D01*
X23515828Y-66748800D01*
X23660772Y-66748800D01*
X23660775Y-66748800D01*
X23800785Y-66711284D01*
X23926315Y-66638809D01*
X24028809Y-66536315D01*
X24101284Y-66410785D01*
X24138800Y-66270775D01*
X24138800Y-66125825D01*
X24101284Y-65985815D01*
X24082290Y-65952917D01*
X24028811Y-65860288D01*
X24028806Y-65860282D01*
X23926317Y-65757793D01*
X23926311Y-65757788D01*
X23800788Y-65685317D01*
X23800789Y-65685317D01*
X23789306Y-65682240D01*
X23660775Y-65647800D01*
X23515825Y-65647800D01*
X23387293Y-65682240D01*
X23375811Y-65685317D01*
X23250288Y-65757788D01*
X23250282Y-65757793D01*
X23147793Y-65860282D01*
X23147788Y-65860288D01*
X23075317Y-65985811D01*
X23075316Y-65985815D01*
X23037800Y-66125825D01*
X22142800Y-66125825D01*
X22142800Y-63941074D01*
X22162485Y-63874035D01*
X22215289Y-63828280D01*
X22284447Y-63818336D01*
X22342291Y-63842702D01*
X22348681Y-63847605D01*
X22348685Y-63847609D01*
X22430412Y-63894794D01*
X22474211Y-63920082D01*
X22474212Y-63920082D01*
X22474215Y-63920084D01*
X22614225Y-63957600D01*
X22614228Y-63957600D01*
X22759172Y-63957600D01*
X22759175Y-63957600D01*
X22899185Y-63920084D01*
X23024715Y-63847609D01*
X23127209Y-63745115D01*
X23199684Y-63619585D01*
X23237200Y-63479575D01*
X23237200Y-63334625D01*
X23199684Y-63194615D01*
X23180556Y-63161485D01*
X23127211Y-63069088D01*
X23127206Y-63069082D01*
X23073519Y-63015395D01*
X23040034Y-62954072D01*
X23037200Y-62927714D01*
X23037200Y-27329757D01*
X23056885Y-27262718D01*
X23109689Y-27216963D01*
X23178847Y-27207019D01*
X23193274Y-27209977D01*
X23246725Y-27224300D01*
X23246729Y-27224300D01*
X23391672Y-27224300D01*
X23391675Y-27224300D01*
X23531685Y-27186784D01*
X23657215Y-27114309D01*
X23759709Y-27011815D01*
X23832184Y-26886285D01*
X23869700Y-26746275D01*
X23869700Y-26601325D01*
X23860654Y-26567565D01*
X23862315Y-26497717D01*
X23901477Y-26439854D01*
X23965705Y-26412349D01*
X24034608Y-26423935D01*
X24068109Y-26447791D01*
X25273181Y-27652863D01*
X25306666Y-27714186D01*
X25309500Y-27740544D01*
X25309500Y-30350078D01*
X25289815Y-30417117D01*
X25237011Y-30462872D01*
X25167853Y-30472816D01*
X25151822Y-30468420D01*
X25151635Y-30469120D01*
X25143786Y-30467017D01*
X25143785Y-30467016D01*
X25003775Y-30429500D01*
X24858825Y-30429500D01*
X24730293Y-30463940D01*
X24718811Y-30467017D01*
X24593288Y-30539488D01*
X24593282Y-30539493D01*
X24490793Y-30641982D01*
X24490788Y-30641988D01*
X24418317Y-30767511D01*
X24418316Y-30767515D01*
X24380800Y-30907525D01*
X24380800Y-31052475D01*
X24418316Y-31192485D01*
X24418317Y-31192488D01*
X24490788Y-31318011D01*
X24490790Y-31318013D01*
X24490791Y-31318015D01*
X24593285Y-31420509D01*
X24694901Y-31479177D01*
X24743115Y-31529743D01*
X24756900Y-31586563D01*
X24756900Y-68065289D01*
X24737215Y-68132328D01*
X24684411Y-68178083D01*
X24615253Y-68188027D01*
X24600809Y-68185064D01*
X24578179Y-68179000D01*
X24578175Y-68179000D01*
X24433225Y-68179000D01*
X24304693Y-68213440D01*
X24293211Y-68216517D01*
X24167688Y-68288988D01*
X24167682Y-68288993D01*
X24065193Y-68391482D01*
X24065188Y-68391488D01*
X23992717Y-68517011D01*
X23992716Y-68517015D01*
X23955200Y-68657025D01*
X23955200Y-68801975D01*
X23983597Y-68907953D01*
X23992717Y-68941988D01*
X24065188Y-69067511D01*
X24065190Y-69067513D01*
X24065191Y-69067515D01*
X24167685Y-69170009D01*
X24167686Y-69170010D01*
X24167688Y-69170011D01*
X24293211Y-69242482D01*
X24293212Y-69242482D01*
X24293215Y-69242484D01*
X24433225Y-69280000D01*
X24433228Y-69280000D01*
X24578173Y-69280000D01*
X24578175Y-69280000D01*
X24600805Y-69273936D01*
X24670655Y-69275598D01*
X24728518Y-69314759D01*
X24756023Y-69378987D01*
X24756900Y-69393710D01*
X24756900Y-80042543D01*
X24762007Y-80061601D01*
X24762008Y-80061605D01*
X24780787Y-80131690D01*
X24826927Y-80211608D01*
X24826931Y-80211613D01*
X25929037Y-81313719D01*
X25962522Y-81375042D01*
X25957538Y-81444734D01*
X25915666Y-81500667D01*
X25903358Y-81508786D01*
X25883088Y-81520489D01*
X25883082Y-81520493D01*
X25780593Y-81622982D01*
X25780588Y-81622988D01*
X25708117Y-81748511D01*
X25708116Y-81748515D01*
X25670600Y-81888525D01*
X25670600Y-81888527D01*
X25670600Y-82033470D01*
X25670599Y-82033471D01*
X25708117Y-82173488D01*
X25780588Y-82299011D01*
X25780590Y-82299013D01*
X25780591Y-82299015D01*
X25883085Y-82401509D01*
X25883086Y-82401510D01*
X25883088Y-82401511D01*
X26008611Y-82473982D01*
X26008612Y-82473982D01*
X26008615Y-82473984D01*
X26148625Y-82511500D01*
X26148628Y-82511500D01*
X26293572Y-82511500D01*
X26293575Y-82511500D01*
X26433585Y-82473984D01*
X26559115Y-82401509D01*
X26661609Y-82299015D01*
X26673312Y-82278743D01*
X26723876Y-82230529D01*
X26792483Y-82217304D01*
X26857348Y-82243270D01*
X26868380Y-82253062D01*
X34488518Y-89873200D01*
X34522003Y-89934523D01*
X34517019Y-90004215D01*
X34508225Y-90022880D01*
X34487016Y-90059614D01*
X34487016Y-90059615D01*
X34449500Y-90199625D01*
X34449500Y-90344575D01*
X34472895Y-90431885D01*
X34487017Y-90484588D01*
X34559488Y-90610111D01*
X34559490Y-90610113D01*
X34559491Y-90610115D01*
X34661985Y-90712609D01*
X34661986Y-90712610D01*
X34661988Y-90712611D01*
X34787511Y-90785082D01*
X34787512Y-90785082D01*
X34787515Y-90785084D01*
X34927525Y-90822600D01*
X34927528Y-90822600D01*
X35072472Y-90822600D01*
X35072475Y-90822600D01*
X35212485Y-90785084D01*
X35338015Y-90712609D01*
X35440509Y-90610115D01*
X35512984Y-90484585D01*
X35550500Y-90344575D01*
X35550500Y-90199625D01*
X35512984Y-90059615D01*
X35440509Y-89934085D01*
X35374440Y-89868016D01*
X35368992Y-89859648D01*
X35363737Y-89855810D01*
X35355131Y-89838357D01*
X35346458Y-89825035D01*
X35344067Y-89818849D01*
X35326614Y-89753712D01*
X35308074Y-89721600D01*
X35280470Y-89673788D01*
X25494219Y-79887537D01*
X25460734Y-79826214D01*
X25457900Y-79799856D01*
X25457900Y-69345943D01*
X25477585Y-69278904D01*
X25530389Y-69233149D01*
X25599547Y-69223205D01*
X25613983Y-69226165D01*
X25668225Y-69240700D01*
X25668228Y-69240700D01*
X25813172Y-69240700D01*
X25813175Y-69240700D01*
X25953185Y-69203184D01*
X26078715Y-69130709D01*
X26181209Y-69028215D01*
X26253684Y-68902685D01*
X26291200Y-68762675D01*
X26291200Y-68617725D01*
X26253684Y-68477715D01*
X26181209Y-68352185D01*
X26078715Y-68249691D01*
X26078713Y-68249690D01*
X26078711Y-68249688D01*
X25953188Y-68177217D01*
X25953189Y-68177217D01*
X25941706Y-68174140D01*
X25813175Y-68139700D01*
X25668225Y-68139700D01*
X25668223Y-68139700D01*
X25613992Y-68154231D01*
X25544142Y-68152568D01*
X25486280Y-68113404D01*
X25458777Y-68049176D01*
X25457900Y-68034456D01*
X25457900Y-66086883D01*
X25477585Y-66019844D01*
X25530389Y-65974089D01*
X25531227Y-65973968D01*
X25479209Y-65931019D01*
X25457935Y-65864467D01*
X25457900Y-65861516D01*
X25457900Y-65451034D01*
X25467432Y-65418569D01*
X25476378Y-65385910D01*
X25477253Y-65385122D01*
X25477585Y-65383995D01*
X25503142Y-65361849D01*
X25528338Y-65339199D01*
X25529500Y-65339010D01*
X25530389Y-65338240D01*
X25563880Y-65333424D01*
X25597304Y-65327994D01*
X25598383Y-65328463D01*
X25599547Y-65328296D01*
X25630339Y-65342358D01*
X25661379Y-65355855D01*
X25662414Y-65357006D01*
X25663103Y-65357321D01*
X25667677Y-65362861D01*
X25684974Y-65382102D01*
X25687249Y-65385504D01*
X25750591Y-65495215D01*
X25780867Y-65525491D01*
X25787643Y-65535623D01*
X25808548Y-65602292D01*
X25791956Y-65666555D01*
X25737017Y-65761711D01*
X25737016Y-65761715D01*
X25701673Y-65893611D01*
X25665310Y-65953270D01*
X25621904Y-65974355D01*
X25663103Y-65993170D01*
X25700877Y-66051948D01*
X25701656Y-66054724D01*
X25731313Y-66165400D01*
X25737017Y-66186688D01*
X25809488Y-66312211D01*
X25809490Y-66312213D01*
X25809491Y-66312215D01*
X25911985Y-66414709D01*
X25911986Y-66414710D01*
X25911988Y-66414711D01*
X26037511Y-66487182D01*
X26037512Y-66487182D01*
X26037515Y-66487184D01*
X26177525Y-66524700D01*
X26177528Y-66524700D01*
X26322472Y-66524700D01*
X26322475Y-66524700D01*
X26462485Y-66487184D01*
X26588015Y-66414709D01*
X26655869Y-66346855D01*
X26717192Y-66313370D01*
X26786884Y-66318354D01*
X26831231Y-66346855D01*
X26911985Y-66427609D01*
X26911986Y-66427610D01*
X26911988Y-66427611D01*
X27037511Y-66500082D01*
X27037512Y-66500082D01*
X27037515Y-66500084D01*
X27177525Y-66537600D01*
X27177528Y-66537600D01*
X27322472Y-66537600D01*
X27322475Y-66537600D01*
X27462485Y-66500084D01*
X27588015Y-66427609D01*
X27690509Y-66325115D01*
X27762984Y-66199585D01*
X27800500Y-66059575D01*
X27800500Y-65914625D01*
X27762984Y-65774615D01*
X27720886Y-65701700D01*
X27690511Y-65649088D01*
X27690506Y-65649082D01*
X27588017Y-65546593D01*
X27588011Y-65546588D01*
X27462488Y-65474117D01*
X27462489Y-65474117D01*
X27436051Y-65467033D01*
X27322475Y-65436600D01*
X27177525Y-65436600D01*
X27063949Y-65467033D01*
X27037511Y-65474117D01*
X26911988Y-65546588D01*
X26911981Y-65546594D01*
X26844431Y-65614143D01*
X26783107Y-65647628D01*
X26713416Y-65642642D01*
X26657483Y-65600770D01*
X26633067Y-65535305D01*
X26647920Y-65467033D01*
X26649365Y-65464460D01*
X26675861Y-65418569D01*
X26704084Y-65369685D01*
X26741600Y-65229675D01*
X26741600Y-65084725D01*
X26704084Y-64944715D01*
X26691826Y-64923484D01*
X26631611Y-64819188D01*
X26631606Y-64819182D01*
X26529117Y-64716693D01*
X26529111Y-64716688D01*
X26403588Y-64644217D01*
X26403589Y-64644217D01*
X26392106Y-64641140D01*
X26263575Y-64606700D01*
X26118625Y-64606700D01*
X25990093Y-64641140D01*
X25978611Y-64644217D01*
X25853088Y-64716688D01*
X25853082Y-64716693D01*
X25750593Y-64819182D01*
X25750591Y-64819185D01*
X25689287Y-64925366D01*
X25638719Y-64973581D01*
X25570112Y-64986803D01*
X25505248Y-64960835D01*
X25464720Y-64903921D01*
X25457900Y-64863365D01*
X25457900Y-64338025D01*
X27747200Y-64338025D01*
X27747200Y-64482975D01*
X27783901Y-64619944D01*
X27784717Y-64622988D01*
X27857188Y-64748511D01*
X27857190Y-64748513D01*
X27857191Y-64748515D01*
X27959685Y-64851009D01*
X27959686Y-64851010D01*
X27959688Y-64851011D01*
X28085211Y-64923482D01*
X28085212Y-64923482D01*
X28085215Y-64923484D01*
X28225225Y-64961000D01*
X28225228Y-64961000D01*
X28370172Y-64961000D01*
X28370175Y-64961000D01*
X28510185Y-64923484D01*
X28635715Y-64851009D01*
X28738209Y-64748515D01*
X28778613Y-64678532D01*
X28829180Y-64630317D01*
X28897787Y-64617094D01*
X28962652Y-64643062D01*
X29003180Y-64699976D01*
X29010000Y-64740533D01*
X29010000Y-64883975D01*
X29037553Y-64986803D01*
X29047517Y-65023988D01*
X29119988Y-65149511D01*
X29119990Y-65149513D01*
X29119991Y-65149515D01*
X29222485Y-65252009D01*
X29222486Y-65252010D01*
X29222488Y-65252011D01*
X29348011Y-65324482D01*
X29348012Y-65324482D01*
X29348015Y-65324484D01*
X29488025Y-65362000D01*
X29488028Y-65362000D01*
X29632972Y-65362000D01*
X29632975Y-65362000D01*
X29772985Y-65324484D01*
X29898515Y-65252009D01*
X30001009Y-65149515D01*
X30073484Y-65023985D01*
X30111000Y-64883975D01*
X30111000Y-64739025D01*
X30073484Y-64599015D01*
X30069250Y-64591682D01*
X30001011Y-64473488D01*
X30001006Y-64473482D01*
X29898517Y-64370993D01*
X29898511Y-64370988D01*
X29772988Y-64298517D01*
X29772989Y-64298517D01*
X29734157Y-64288112D01*
X29632975Y-64261000D01*
X29488025Y-64261000D01*
X29386843Y-64288112D01*
X29348011Y-64298517D01*
X29222488Y-64370988D01*
X29222482Y-64370993D01*
X29119993Y-64473482D01*
X29119991Y-64473485D01*
X29081465Y-64540215D01*
X29079587Y-64543467D01*
X29029020Y-64591682D01*
X28960412Y-64604904D01*
X28895548Y-64578936D01*
X28855020Y-64522022D01*
X28848200Y-64481466D01*
X28848200Y-64338027D01*
X28848200Y-64338025D01*
X28810684Y-64198015D01*
X28792131Y-64165881D01*
X28738211Y-64072488D01*
X28738206Y-64072482D01*
X28635717Y-63969993D01*
X28635711Y-63969988D01*
X28510188Y-63897517D01*
X28510189Y-63897517D01*
X28498706Y-63894440D01*
X28370175Y-63860000D01*
X28225225Y-63860000D01*
X28096693Y-63894440D01*
X28085211Y-63897517D01*
X27959688Y-63969988D01*
X27959682Y-63969993D01*
X27857193Y-64072482D01*
X27857188Y-64072488D01*
X27784717Y-64198011D01*
X27784716Y-64198015D01*
X27747200Y-64338025D01*
X25457900Y-64338025D01*
X25457900Y-59786144D01*
X25477585Y-59719105D01*
X25530389Y-59673350D01*
X25599547Y-59663406D01*
X25663103Y-59692431D01*
X25669581Y-59698463D01*
X30503381Y-64532263D01*
X30536866Y-64593586D01*
X30539700Y-64619944D01*
X30539700Y-68840914D01*
X30520015Y-68907953D01*
X30503381Y-68928595D01*
X30449693Y-68982282D01*
X30449688Y-68982288D01*
X30377217Y-69107811D01*
X30377216Y-69107815D01*
X30339700Y-69247825D01*
X30339700Y-69392775D01*
X30339951Y-69393710D01*
X30377217Y-69532788D01*
X30449688Y-69658311D01*
X30449690Y-69658313D01*
X30449691Y-69658315D01*
X30552185Y-69760809D01*
X30552186Y-69760810D01*
X30552188Y-69760811D01*
X30677711Y-69833282D01*
X30677712Y-69833282D01*
X30677715Y-69833284D01*
X30817725Y-69870800D01*
X30817728Y-69870800D01*
X30962672Y-69870800D01*
X30962675Y-69870800D01*
X31102685Y-69833284D01*
X31228215Y-69760809D01*
X31330709Y-69658315D01*
X31403184Y-69532785D01*
X31440700Y-69392775D01*
X31440700Y-69247825D01*
X31403184Y-69107815D01*
X31379914Y-69067511D01*
X31330711Y-68982288D01*
X31330706Y-68982282D01*
X31277019Y-68928595D01*
X31243534Y-68867272D01*
X31240700Y-68840914D01*
X31240700Y-67541425D01*
X45449500Y-67541425D01*
X45449500Y-67686375D01*
X45487016Y-67826385D01*
X45487017Y-67826388D01*
X45559488Y-67951911D01*
X45559490Y-67951913D01*
X45559491Y-67951915D01*
X45661985Y-68054409D01*
X45661986Y-68054410D01*
X45661988Y-68054411D01*
X45787511Y-68126882D01*
X45787512Y-68126882D01*
X45787515Y-68126884D01*
X45927525Y-68164400D01*
X45927528Y-68164400D01*
X46072472Y-68164400D01*
X46072475Y-68164400D01*
X46212485Y-68126884D01*
X46338015Y-68054409D01*
X46440509Y-67951915D01*
X46512984Y-67826385D01*
X46550500Y-67686375D01*
X46550500Y-67541425D01*
X46512984Y-67401415D01*
X46440509Y-67275885D01*
X46338015Y-67173391D01*
X46338013Y-67173390D01*
X46338011Y-67173388D01*
X46212488Y-67100917D01*
X46212489Y-67100917D01*
X46201006Y-67097840D01*
X46072475Y-67063400D01*
X45927525Y-67063400D01*
X45798993Y-67097840D01*
X45787511Y-67100917D01*
X45661988Y-67173388D01*
X45661982Y-67173393D01*
X45559493Y-67275882D01*
X45559488Y-67275888D01*
X45487017Y-67401411D01*
X45487016Y-67401415D01*
X45449500Y-67541425D01*
X31240700Y-67541425D01*
X31240700Y-65542425D01*
X33449500Y-65542425D01*
X33449500Y-65687375D01*
X33487016Y-65827385D01*
X33487017Y-65827388D01*
X33559488Y-65952911D01*
X33559490Y-65952913D01*
X33559491Y-65952915D01*
X33661985Y-66055409D01*
X33661986Y-66055410D01*
X33661988Y-66055411D01*
X33787511Y-66127882D01*
X33787512Y-66127882D01*
X33787515Y-66127884D01*
X33927525Y-66165400D01*
X33927528Y-66165400D01*
X34072472Y-66165400D01*
X34072475Y-66165400D01*
X34212485Y-66127884D01*
X34338015Y-66055409D01*
X34440509Y-65952915D01*
X34512984Y-65827385D01*
X34550500Y-65687375D01*
X34550500Y-65542425D01*
X34512984Y-65402415D01*
X34501256Y-65382102D01*
X34440511Y-65276888D01*
X34440506Y-65276882D01*
X34338017Y-65174393D01*
X34338011Y-65174388D01*
X34212488Y-65101917D01*
X34212489Y-65101917D01*
X34170690Y-65090717D01*
X34072475Y-65064400D01*
X33927525Y-65064400D01*
X33829310Y-65090717D01*
X33787511Y-65101917D01*
X33661988Y-65174388D01*
X33661982Y-65174393D01*
X33559493Y-65276882D01*
X33559488Y-65276888D01*
X33487017Y-65402411D01*
X33487016Y-65402415D01*
X33449500Y-65542425D01*
X31240700Y-65542425D01*
X31240700Y-64680225D01*
X47439300Y-64680225D01*
X47439300Y-64825175D01*
X47475695Y-64961000D01*
X47476817Y-64965188D01*
X47549288Y-65090711D01*
X47549290Y-65090713D01*
X47549291Y-65090715D01*
X47651785Y-65193209D01*
X47651786Y-65193210D01*
X47651788Y-65193211D01*
X47777311Y-65265682D01*
X47777312Y-65265682D01*
X47777315Y-65265684D01*
X47917325Y-65303200D01*
X47917328Y-65303200D01*
X48062272Y-65303200D01*
X48062275Y-65303200D01*
X48202285Y-65265684D01*
X48327815Y-65193209D01*
X48430309Y-65090715D01*
X48502784Y-64965185D01*
X48540300Y-64825175D01*
X48540300Y-64749244D01*
X48559985Y-64682205D01*
X48576619Y-64661563D01*
X50255457Y-62982725D01*
X53554700Y-62982725D01*
X53554700Y-63127675D01*
X53592216Y-63267685D01*
X53592217Y-63267688D01*
X53664688Y-63393211D01*
X53664690Y-63393213D01*
X53664691Y-63393215D01*
X53767185Y-63495709D01*
X53767186Y-63495710D01*
X53767188Y-63495711D01*
X53892711Y-63568182D01*
X53892712Y-63568182D01*
X53892715Y-63568184D01*
X54032725Y-63605700D01*
X54032728Y-63605700D01*
X54177672Y-63605700D01*
X54177675Y-63605700D01*
X54317685Y-63568184D01*
X54443215Y-63495709D01*
X54545709Y-63393215D01*
X54618184Y-63267685D01*
X54655700Y-63127675D01*
X54655700Y-62982725D01*
X54618184Y-62842715D01*
X54589589Y-62793188D01*
X54545711Y-62717188D01*
X54545706Y-62717182D01*
X54443217Y-62614693D01*
X54443211Y-62614688D01*
X54317688Y-62542217D01*
X54317689Y-62542217D01*
X54296924Y-62536653D01*
X54177675Y-62504700D01*
X54032725Y-62504700D01*
X53913476Y-62536653D01*
X53892711Y-62542217D01*
X53767188Y-62614688D01*
X53767182Y-62614693D01*
X53664693Y-62717182D01*
X53664688Y-62717188D01*
X53592217Y-62842711D01*
X53592216Y-62842715D01*
X53554700Y-62982725D01*
X50255457Y-62982725D01*
X50351265Y-62886917D01*
X51205782Y-62032400D01*
X52380470Y-60857712D01*
X52426614Y-60777788D01*
X52428704Y-60769987D01*
X52450500Y-60688644D01*
X52450500Y-56481386D01*
X52470185Y-56414347D01*
X52486819Y-56393705D01*
X52540509Y-56340015D01*
X52612984Y-56214485D01*
X52650500Y-56074475D01*
X52650500Y-55929525D01*
X52612984Y-55789515D01*
X52540509Y-55663985D01*
X52438015Y-55561491D01*
X52438013Y-55561490D01*
X52438011Y-55561488D01*
X52312488Y-55489017D01*
X52312489Y-55489017D01*
X52301006Y-55485940D01*
X52172475Y-55451500D01*
X52027525Y-55451500D01*
X51898993Y-55485940D01*
X51887511Y-55489017D01*
X51761988Y-55561488D01*
X51761982Y-55561493D01*
X51659493Y-55663982D01*
X51659488Y-55663988D01*
X51587017Y-55789511D01*
X51587016Y-55789515D01*
X51549500Y-55929525D01*
X51549500Y-56074475D01*
X51587016Y-56214485D01*
X51587017Y-56214488D01*
X51659488Y-56340011D01*
X51659493Y-56340017D01*
X51713181Y-56393705D01*
X51746666Y-56455028D01*
X51749500Y-56481386D01*
X51749500Y-60445956D01*
X51729815Y-60512995D01*
X51713181Y-60533637D01*
X48705895Y-63540922D01*
X48644572Y-63574407D01*
X48574880Y-63569423D01*
X48518947Y-63527551D01*
X48494530Y-63462087D01*
X48509382Y-63393814D01*
X48510806Y-63391277D01*
X48538284Y-63343685D01*
X48575800Y-63203675D01*
X48575800Y-63058725D01*
X48538284Y-62918715D01*
X48519925Y-62886917D01*
X48465811Y-62793188D01*
X48465806Y-62793182D01*
X48363317Y-62690693D01*
X48363311Y-62690688D01*
X48237788Y-62618217D01*
X48237789Y-62618217D01*
X48210810Y-62610988D01*
X48097775Y-62580700D01*
X47952825Y-62580700D01*
X47839790Y-62610988D01*
X47812811Y-62618217D01*
X47687288Y-62690688D01*
X47687282Y-62690693D01*
X47584793Y-62793182D01*
X47584788Y-62793188D01*
X47512317Y-62918711D01*
X47511726Y-62920917D01*
X47474800Y-63058725D01*
X47474800Y-63203675D01*
X47509889Y-63334627D01*
X47512317Y-63343688D01*
X47584788Y-63469211D01*
X47584790Y-63469213D01*
X47584791Y-63469215D01*
X47687285Y-63571709D01*
X47687286Y-63571710D01*
X47687288Y-63571711D01*
X47812811Y-63644182D01*
X47812812Y-63644182D01*
X47812815Y-63644184D01*
X47952825Y-63681700D01*
X47952828Y-63681700D01*
X48097772Y-63681700D01*
X48097775Y-63681700D01*
X48237785Y-63644184D01*
X48285340Y-63616727D01*
X48353239Y-63600254D01*
X48419266Y-63623105D01*
X48462458Y-63678026D01*
X48469101Y-63747579D01*
X48437085Y-63809682D01*
X48435022Y-63811795D01*
X48080937Y-64165881D01*
X48019614Y-64199366D01*
X47993256Y-64202200D01*
X47917325Y-64202200D01*
X47788793Y-64236640D01*
X47777311Y-64239717D01*
X47651788Y-64312188D01*
X47651782Y-64312193D01*
X47549293Y-64414682D01*
X47549288Y-64414688D01*
X47476817Y-64540211D01*
X47476816Y-64540215D01*
X47439300Y-64680225D01*
X31240700Y-64680225D01*
X31240700Y-64377258D01*
X31240700Y-64377256D01*
X31216814Y-64288112D01*
X31201161Y-64261000D01*
X31170670Y-64208188D01*
X30840007Y-63877525D01*
X38217500Y-63877525D01*
X38217500Y-64022475D01*
X38254506Y-64160582D01*
X38255017Y-64162488D01*
X38327488Y-64288011D01*
X38327490Y-64288013D01*
X38327491Y-64288015D01*
X38429985Y-64390509D01*
X38429986Y-64390510D01*
X38429988Y-64390511D01*
X38555511Y-64462982D01*
X38555512Y-64462982D01*
X38555515Y-64462984D01*
X38695525Y-64500500D01*
X38695528Y-64500500D01*
X38840472Y-64500500D01*
X38840475Y-64500500D01*
X38980485Y-64462984D01*
X39106015Y-64390509D01*
X39208509Y-64288015D01*
X39280984Y-64162485D01*
X39318500Y-64022475D01*
X39318500Y-63877525D01*
X39280984Y-63737515D01*
X39270915Y-63720075D01*
X39218332Y-63628998D01*
X39214299Y-63622013D01*
X39208509Y-63611985D01*
X39171649Y-63575125D01*
X41220400Y-63575125D01*
X41220400Y-63720075D01*
X41254572Y-63847606D01*
X41257917Y-63860088D01*
X41330388Y-63985611D01*
X41330390Y-63985613D01*
X41330391Y-63985615D01*
X41432885Y-64088109D01*
X41432886Y-64088110D01*
X41432888Y-64088111D01*
X41558411Y-64160582D01*
X41558412Y-64160582D01*
X41558415Y-64160584D01*
X41698425Y-64198100D01*
X41698428Y-64198100D01*
X41843372Y-64198100D01*
X41843375Y-64198100D01*
X41983385Y-64160584D01*
X42108915Y-64088109D01*
X42211409Y-63985615D01*
X42283884Y-63860085D01*
X42321400Y-63720075D01*
X42321400Y-63575125D01*
X42283884Y-63435115D01*
X42257554Y-63389511D01*
X42211411Y-63309588D01*
X42211406Y-63309582D01*
X42108917Y-63207093D01*
X42108911Y-63207088D01*
X41983388Y-63134617D01*
X41983389Y-63134617D01*
X41957470Y-63127672D01*
X41843375Y-63097100D01*
X41698425Y-63097100D01*
X41584330Y-63127672D01*
X41558411Y-63134617D01*
X41432888Y-63207088D01*
X41432882Y-63207093D01*
X41330393Y-63309582D01*
X41330388Y-63309588D01*
X41257917Y-63435111D01*
X41257916Y-63435115D01*
X41220400Y-63575125D01*
X39171649Y-63575125D01*
X39106015Y-63509491D01*
X39106013Y-63509490D01*
X39106011Y-63509488D01*
X38980488Y-63437017D01*
X38980489Y-63437017D01*
X38969006Y-63433940D01*
X38840475Y-63399500D01*
X38695525Y-63399500D01*
X38566993Y-63433940D01*
X38555511Y-63437017D01*
X38429988Y-63509488D01*
X38429982Y-63509493D01*
X38327493Y-63611982D01*
X38327488Y-63611988D01*
X38255017Y-63737511D01*
X38255016Y-63737515D01*
X38217500Y-63877525D01*
X30840007Y-63877525D01*
X26046819Y-59084337D01*
X26013334Y-59023014D01*
X26010500Y-58996656D01*
X26010500Y-30052845D01*
X26030185Y-29985806D01*
X26082989Y-29940051D01*
X26152147Y-29930107D01*
X26196499Y-29945457D01*
X26228415Y-29963884D01*
X26368425Y-30001400D01*
X26368428Y-30001400D01*
X26513372Y-30001400D01*
X26513375Y-30001400D01*
X26653385Y-29963884D01*
X26778915Y-29891409D01*
X26881409Y-29788915D01*
X26953884Y-29663385D01*
X26991400Y-29523375D01*
X26991400Y-29378425D01*
X26953884Y-29238415D01*
X26881409Y-29112885D01*
X26778915Y-29010391D01*
X26778913Y-29010390D01*
X26778911Y-29010388D01*
X26653388Y-28937917D01*
X26653389Y-28937917D01*
X26641906Y-28934840D01*
X26513375Y-28900400D01*
X26368425Y-28900400D01*
X26228415Y-28937916D01*
X26228414Y-28937916D01*
X26228412Y-28937917D01*
X26196499Y-28956342D01*
X26128599Y-28972813D01*
X26062572Y-28949961D01*
X26019382Y-28895039D01*
X26010500Y-28848954D01*
X26010500Y-27497858D01*
X26010500Y-27497856D01*
X25986614Y-27408712D01*
X25986613Y-27408711D01*
X25986613Y-27408709D01*
X25974195Y-27387202D01*
X25974193Y-27387199D01*
X25941029Y-27329757D01*
X25940470Y-27328788D01*
X22291619Y-23679937D01*
X22276915Y-23653009D01*
X22260323Y-23627191D01*
X22259431Y-23620990D01*
X22258134Y-23618614D01*
X22255300Y-23592256D01*
X22255300Y-23585944D01*
X22274985Y-23518905D01*
X22327789Y-23473150D01*
X22396947Y-23463206D01*
X22460503Y-23492231D01*
X22466981Y-23498263D01*
X31096881Y-32128163D01*
X31130366Y-32189486D01*
X31133200Y-32215844D01*
X31133200Y-34194399D01*
X31113515Y-34261438D01*
X31060711Y-34307193D01*
X30991553Y-34317137D01*
X30947200Y-34301786D01*
X30847488Y-34244217D01*
X30847489Y-34244217D01*
X30836006Y-34241140D01*
X30707475Y-34206700D01*
X30562525Y-34206700D01*
X30433993Y-34241140D01*
X30422511Y-34244217D01*
X30296988Y-34316688D01*
X30296982Y-34316693D01*
X30194493Y-34419182D01*
X30194488Y-34419188D01*
X30122017Y-34544711D01*
X30122016Y-34544715D01*
X30084500Y-34684725D01*
X30084500Y-34829675D01*
X30106857Y-34913111D01*
X30122017Y-34969688D01*
X30194488Y-35095211D01*
X30194490Y-35095213D01*
X30194491Y-35095215D01*
X30296985Y-35197709D01*
X30296986Y-35197710D01*
X30296988Y-35197711D01*
X30422511Y-35270182D01*
X30422512Y-35270182D01*
X30422515Y-35270184D01*
X30562525Y-35307700D01*
X30562528Y-35307700D01*
X30707472Y-35307700D01*
X30707475Y-35307700D01*
X30847485Y-35270184D01*
X30947201Y-35212612D01*
X31015099Y-35196140D01*
X31081126Y-35218992D01*
X31124317Y-35273913D01*
X31133200Y-35320000D01*
X31133200Y-62469614D01*
X31113515Y-62536653D01*
X31096881Y-62557295D01*
X31043193Y-62610982D01*
X31043188Y-62610988D01*
X30970717Y-62736511D01*
X30970716Y-62736515D01*
X30933200Y-62876525D01*
X30933200Y-63021475D01*
X30963517Y-63134617D01*
X30970717Y-63161488D01*
X31043188Y-63287011D01*
X31043190Y-63287013D01*
X31043191Y-63287015D01*
X31145685Y-63389509D01*
X31145686Y-63389510D01*
X31145688Y-63389511D01*
X31271211Y-63461982D01*
X31271212Y-63461982D01*
X31271215Y-63461984D01*
X31411225Y-63499500D01*
X31411228Y-63499500D01*
X31556172Y-63499500D01*
X31556175Y-63499500D01*
X31696185Y-63461984D01*
X31821715Y-63389509D01*
X31924209Y-63287015D01*
X31996684Y-63161485D01*
X32034200Y-63021475D01*
X32034200Y-62876525D01*
X31996684Y-62736515D01*
X31970227Y-62690691D01*
X31924211Y-62610988D01*
X31924206Y-62610982D01*
X31870519Y-62557295D01*
X31844926Y-62510425D01*
X35034500Y-62510425D01*
X35034500Y-62655375D01*
X35072016Y-62795385D01*
X35072017Y-62795388D01*
X35144488Y-62920911D01*
X35144490Y-62920913D01*
X35144491Y-62920915D01*
X35246985Y-63023409D01*
X35246986Y-63023410D01*
X35246988Y-63023411D01*
X35372511Y-63095882D01*
X35372512Y-63095882D01*
X35372515Y-63095884D01*
X35512525Y-63133400D01*
X35512528Y-63133400D01*
X35657472Y-63133400D01*
X35657475Y-63133400D01*
X35797485Y-63095884D01*
X35923015Y-63023409D01*
X36025509Y-62920915D01*
X36097984Y-62795385D01*
X36135500Y-62655375D01*
X36135500Y-62510425D01*
X36097984Y-62370415D01*
X36025509Y-62244885D01*
X35923015Y-62142391D01*
X35923013Y-62142390D01*
X35923011Y-62142388D01*
X35797488Y-62069917D01*
X35797489Y-62069917D01*
X35786006Y-62066840D01*
X35657475Y-62032400D01*
X35512525Y-62032400D01*
X35383993Y-62066840D01*
X35372511Y-62069917D01*
X35246988Y-62142388D01*
X35246982Y-62142393D01*
X35144493Y-62244882D01*
X35144488Y-62244888D01*
X35072017Y-62370411D01*
X35072016Y-62370415D01*
X35034500Y-62510425D01*
X31844926Y-62510425D01*
X31837034Y-62495972D01*
X31834200Y-62469614D01*
X31834200Y-60943425D01*
X38949500Y-60943425D01*
X38949500Y-61088375D01*
X38978096Y-61195095D01*
X38987017Y-61228388D01*
X39059488Y-61353911D01*
X39059490Y-61353913D01*
X39059491Y-61353915D01*
X39161985Y-61456409D01*
X39161986Y-61456410D01*
X39161988Y-61456411D01*
X39287511Y-61528882D01*
X39287512Y-61528882D01*
X39287515Y-61528884D01*
X39427525Y-61566400D01*
X39427528Y-61566400D01*
X39572472Y-61566400D01*
X39572475Y-61566400D01*
X39712485Y-61528884D01*
X39838015Y-61456409D01*
X39940509Y-61353915D01*
X40012984Y-61228385D01*
X40050500Y-61088375D01*
X40050500Y-60943425D01*
X40012984Y-60803415D01*
X40003265Y-60786582D01*
X39940511Y-60677888D01*
X39940506Y-60677882D01*
X39838017Y-60575393D01*
X39838011Y-60575388D01*
X39712488Y-60502917D01*
X39712489Y-60502917D01*
X39672806Y-60492284D01*
X39572475Y-60465400D01*
X39427525Y-60465400D01*
X39327194Y-60492284D01*
X39287511Y-60502917D01*
X39161988Y-60575388D01*
X39161982Y-60575393D01*
X39059493Y-60677882D01*
X39059488Y-60677888D01*
X38987017Y-60803411D01*
X38987016Y-60803415D01*
X38949500Y-60943425D01*
X31834200Y-60943425D01*
X31834200Y-58650825D01*
X32649500Y-58650825D01*
X32649500Y-58795775D01*
X32687016Y-58935785D01*
X32687017Y-58935788D01*
X32759488Y-59061311D01*
X32759490Y-59061313D01*
X32759491Y-59061315D01*
X32861985Y-59163809D01*
X32861986Y-59163810D01*
X32861988Y-59163811D01*
X32987511Y-59236282D01*
X32987512Y-59236282D01*
X32987515Y-59236284D01*
X33127525Y-59273800D01*
X33127528Y-59273800D01*
X33272472Y-59273800D01*
X33272475Y-59273800D01*
X33412485Y-59236284D01*
X33538015Y-59163809D01*
X33640509Y-59061315D01*
X33712984Y-58935785D01*
X33750500Y-58795775D01*
X33750500Y-58650825D01*
X33712984Y-58510815D01*
X33640509Y-58385285D01*
X33538015Y-58282791D01*
X33538013Y-58282790D01*
X33538011Y-58282788D01*
X33412488Y-58210317D01*
X33412489Y-58210317D01*
X33401006Y-58207240D01*
X33272475Y-58172800D01*
X33127525Y-58172800D01*
X32998993Y-58207240D01*
X32987511Y-58210317D01*
X32861988Y-58282788D01*
X32861982Y-58282793D01*
X32759493Y-58385282D01*
X32759488Y-58385288D01*
X32687017Y-58510811D01*
X32687016Y-58510815D01*
X32649500Y-58650825D01*
X31834200Y-58650825D01*
X31834200Y-46353753D01*
X38150000Y-46353753D01*
X38150000Y-46566246D01*
X38183242Y-46776127D01*
X38183242Y-46776130D01*
X38248904Y-46978217D01*
X38345375Y-47167550D01*
X38384728Y-47221716D01*
X39017037Y-46589408D01*
X39034075Y-46652993D01*
X39099901Y-46767007D01*
X39192993Y-46860099D01*
X39307007Y-46925925D01*
X39370590Y-46942962D01*
X38701195Y-47612356D01*
X38639872Y-47645841D01*
X38625167Y-47644924D01*
X38625444Y-47647497D01*
X38542626Y-47656401D01*
X38542619Y-47656403D01*
X38407913Y-47706645D01*
X38407906Y-47706649D01*
X38292812Y-47792809D01*
X38292809Y-47792812D01*
X38206649Y-47907906D01*
X38206645Y-47907913D01*
X38156403Y-48042620D01*
X38156401Y-48042627D01*
X38150000Y-48102155D01*
X38150000Y-48750000D01*
X39066988Y-48750000D01*
X39034075Y-48807007D01*
X39000000Y-48934174D01*
X39000000Y-49065826D01*
X39034075Y-49192993D01*
X39066988Y-49250000D01*
X38150000Y-49250000D01*
X38150000Y-49897844D01*
X38156401Y-49957372D01*
X38156403Y-49957379D01*
X38206645Y-50092086D01*
X38206649Y-50092093D01*
X38292809Y-50207187D01*
X38292812Y-50207190D01*
X38407906Y-50293350D01*
X38407913Y-50293354D01*
X38542620Y-50343596D01*
X38542627Y-50343598D01*
X38602155Y-50349999D01*
X38602172Y-50350000D01*
X39250000Y-50350000D01*
X39250000Y-49433012D01*
X39307007Y-49465925D01*
X39434174Y-49500000D01*
X39565826Y-49500000D01*
X39692993Y-49465925D01*
X39750000Y-49433012D01*
X39750000Y-50350000D01*
X40397828Y-50350000D01*
X40397844Y-50349999D01*
X40457372Y-50343598D01*
X40457379Y-50343596D01*
X40592086Y-50293354D01*
X40592093Y-50293350D01*
X40707187Y-50207190D01*
X40707190Y-50207187D01*
X40793350Y-50092093D01*
X40793354Y-50092086D01*
X40843596Y-49957379D01*
X40843598Y-49957372D01*
X40849999Y-49897844D01*
X40850000Y-49897827D01*
X40850000Y-49605050D01*
X40869685Y-49538011D01*
X40922489Y-49492256D01*
X40991647Y-49482312D01*
X41055203Y-49511337D01*
X41084485Y-49548756D01*
X41098766Y-49576786D01*
X41129357Y-49618890D01*
X41200586Y-49716928D01*
X41323072Y-49839414D01*
X41463212Y-49941232D01*
X41617555Y-50019873D01*
X41782299Y-50073402D01*
X41953389Y-50100500D01*
X41953390Y-50100500D01*
X42126610Y-50100500D01*
X42126611Y-50100500D01*
X42297701Y-50073402D01*
X42462445Y-50019873D01*
X42616788Y-49941232D01*
X42756928Y-49839414D01*
X42879414Y-49716928D01*
X42981232Y-49576788D01*
X43059873Y-49422445D01*
X43113402Y-49257701D01*
X43140500Y-49086611D01*
X43140500Y-48913389D01*
X43113402Y-48742299D01*
X43059873Y-48577555D01*
X42981232Y-48423212D01*
X42879414Y-48283072D01*
X42756928Y-48160586D01*
X42616788Y-48058768D01*
X42585109Y-48042627D01*
X42458205Y-47977966D01*
X42407409Y-47929991D01*
X42390500Y-47867481D01*
X42390500Y-47592518D01*
X42410185Y-47525479D01*
X42458206Y-47482033D01*
X42616786Y-47401233D01*
X42616785Y-47401233D01*
X42616788Y-47401232D01*
X42756928Y-47299414D01*
X42879414Y-47176928D01*
X42981232Y-47036788D01*
X43059873Y-46882445D01*
X43113402Y-46717701D01*
X43140500Y-46546611D01*
X43140500Y-46373389D01*
X43479500Y-46373389D01*
X43479500Y-46546611D01*
X43506598Y-46717701D01*
X43560127Y-46882445D01*
X43638768Y-47036788D01*
X43740586Y-47176928D01*
X43863072Y-47299414D01*
X43968177Y-47375777D01*
X44003213Y-47401233D01*
X44161794Y-47482033D01*
X44212591Y-47530007D01*
X44229500Y-47592518D01*
X44229500Y-47867481D01*
X44209815Y-47934520D01*
X44161795Y-47977966D01*
X44003211Y-48058768D01*
X43929474Y-48112342D01*
X43863072Y-48160586D01*
X43863070Y-48160588D01*
X43863069Y-48160588D01*
X43740588Y-48283069D01*
X43740588Y-48283070D01*
X43740586Y-48283072D01*
X43696859Y-48343256D01*
X43638768Y-48423211D01*
X43560128Y-48577552D01*
X43506597Y-48742302D01*
X43479500Y-48913389D01*
X43479500Y-49086611D01*
X43506598Y-49257701D01*
X43560127Y-49422445D01*
X43638768Y-49576788D01*
X43740586Y-49716928D01*
X43863072Y-49839414D01*
X44003212Y-49941232D01*
X44157555Y-50019873D01*
X44322299Y-50073402D01*
X44493389Y-50100500D01*
X44493390Y-50100500D01*
X44666610Y-50100500D01*
X44666611Y-50100500D01*
X44837701Y-50073402D01*
X45002445Y-50019873D01*
X45156788Y-49941232D01*
X45296928Y-49839414D01*
X45419414Y-49716928D01*
X45521232Y-49576788D01*
X45599873Y-49422445D01*
X45653402Y-49257701D01*
X45680500Y-49086611D01*
X45680500Y-48913389D01*
X45653402Y-48742299D01*
X45599873Y-48577555D01*
X45521232Y-48423212D01*
X45419414Y-48283072D01*
X45296928Y-48160586D01*
X45156788Y-48058768D01*
X45125109Y-48042627D01*
X44998205Y-47977966D01*
X44947409Y-47929991D01*
X44930500Y-47867481D01*
X44930500Y-47592518D01*
X44950185Y-47525479D01*
X44998206Y-47482033D01*
X45156786Y-47401233D01*
X45156785Y-47401233D01*
X45156788Y-47401232D01*
X45296928Y-47299414D01*
X45419414Y-47176928D01*
X45521232Y-47036788D01*
X45599873Y-46882445D01*
X45653402Y-46717701D01*
X45680500Y-46546611D01*
X45680500Y-46373389D01*
X46019500Y-46373389D01*
X46019500Y-46546611D01*
X46046598Y-46717701D01*
X46100127Y-46882445D01*
X46178768Y-47036788D01*
X46280586Y-47176928D01*
X46403072Y-47299414D01*
X46508177Y-47375777D01*
X46543213Y-47401233D01*
X46701794Y-47482033D01*
X46752591Y-47530007D01*
X46769500Y-47592518D01*
X46769500Y-47867481D01*
X46749815Y-47934520D01*
X46701795Y-47977966D01*
X46543211Y-48058768D01*
X46469474Y-48112342D01*
X46403072Y-48160586D01*
X46403070Y-48160588D01*
X46403069Y-48160588D01*
X46280588Y-48283069D01*
X46280588Y-48283070D01*
X46280586Y-48283072D01*
X46236859Y-48343256D01*
X46178768Y-48423211D01*
X46100128Y-48577552D01*
X46046597Y-48742302D01*
X46019500Y-48913389D01*
X46019500Y-49086611D01*
X46046598Y-49257701D01*
X46100127Y-49422445D01*
X46178768Y-49576788D01*
X46280586Y-49716928D01*
X46403072Y-49839414D01*
X46543212Y-49941232D01*
X46697555Y-50019873D01*
X46862299Y-50073402D01*
X47033389Y-50100500D01*
X47033390Y-50100500D01*
X47206610Y-50100500D01*
X47206611Y-50100500D01*
X47377701Y-50073402D01*
X47542445Y-50019873D01*
X47696788Y-49941232D01*
X47836928Y-49839414D01*
X47959414Y-49716928D01*
X48061232Y-49576788D01*
X48139873Y-49422445D01*
X48193402Y-49257701D01*
X48220500Y-49086611D01*
X48220500Y-48913389D01*
X48193402Y-48742299D01*
X48139873Y-48577555D01*
X48061232Y-48423212D01*
X47959414Y-48283072D01*
X47836928Y-48160586D01*
X47696788Y-48058768D01*
X47665109Y-48042627D01*
X47538205Y-47977966D01*
X47487409Y-47929991D01*
X47470500Y-47867481D01*
X47470500Y-47592518D01*
X47490185Y-47525479D01*
X47538206Y-47482033D01*
X47696786Y-47401233D01*
X47696785Y-47401233D01*
X47696788Y-47401232D01*
X47836928Y-47299414D01*
X47959414Y-47176928D01*
X48061232Y-47036788D01*
X48139873Y-46882445D01*
X48193402Y-46717701D01*
X48220500Y-46546611D01*
X48220500Y-46373389D01*
X48559500Y-46373389D01*
X48559500Y-46546611D01*
X48586598Y-46717701D01*
X48640127Y-46882445D01*
X48718768Y-47036788D01*
X48820586Y-47176928D01*
X48943072Y-47299414D01*
X49048177Y-47375777D01*
X49083213Y-47401233D01*
X49241794Y-47482033D01*
X49292591Y-47530007D01*
X49309500Y-47592518D01*
X49309500Y-47867481D01*
X49289815Y-47934520D01*
X49241795Y-47977966D01*
X49083211Y-48058768D01*
X49009474Y-48112342D01*
X48943072Y-48160586D01*
X48943070Y-48160588D01*
X48943069Y-48160588D01*
X48820588Y-48283069D01*
X48820588Y-48283070D01*
X48820586Y-48283072D01*
X48776859Y-48343256D01*
X48718768Y-48423211D01*
X48640128Y-48577552D01*
X48586597Y-48742302D01*
X48559500Y-48913389D01*
X48559500Y-49086611D01*
X48586598Y-49257701D01*
X48640127Y-49422445D01*
X48718768Y-49576788D01*
X48820586Y-49716928D01*
X48943072Y-49839414D01*
X49083212Y-49941232D01*
X49237555Y-50019873D01*
X49402299Y-50073402D01*
X49573389Y-50100500D01*
X49573390Y-50100500D01*
X49746610Y-50100500D01*
X49746611Y-50100500D01*
X49917701Y-50073402D01*
X50082445Y-50019873D01*
X50236788Y-49941232D01*
X50376928Y-49839414D01*
X50499414Y-49716928D01*
X50601232Y-49576788D01*
X50679873Y-49422445D01*
X50733402Y-49257701D01*
X50760500Y-49086611D01*
X50760500Y-48913389D01*
X50733402Y-48742299D01*
X50679873Y-48577555D01*
X50601232Y-48423212D01*
X50499414Y-48283072D01*
X50376928Y-48160586D01*
X50236788Y-48058768D01*
X50205109Y-48042627D01*
X50078205Y-47977966D01*
X50027409Y-47929991D01*
X50010500Y-47867481D01*
X50010500Y-47592518D01*
X50030185Y-47525479D01*
X50078206Y-47482033D01*
X50236786Y-47401233D01*
X50236785Y-47401233D01*
X50236788Y-47401232D01*
X50376928Y-47299414D01*
X50499414Y-47176928D01*
X50601232Y-47036788D01*
X50679873Y-46882445D01*
X50733402Y-46717701D01*
X50760500Y-46546611D01*
X50760500Y-46373389D01*
X51099500Y-46373389D01*
X51099500Y-46546611D01*
X51126598Y-46717701D01*
X51180127Y-46882445D01*
X51258768Y-47036788D01*
X51360586Y-47176928D01*
X51483072Y-47299414D01*
X51588177Y-47375777D01*
X51623213Y-47401233D01*
X51781794Y-47482033D01*
X51832591Y-47530007D01*
X51849500Y-47592518D01*
X51849500Y-47867481D01*
X51829815Y-47934520D01*
X51781795Y-47977966D01*
X51623211Y-48058768D01*
X51549474Y-48112342D01*
X51483072Y-48160586D01*
X51483070Y-48160588D01*
X51483069Y-48160588D01*
X51360588Y-48283069D01*
X51360588Y-48283070D01*
X51360586Y-48283072D01*
X51316859Y-48343256D01*
X51258768Y-48423211D01*
X51180128Y-48577552D01*
X51126597Y-48742302D01*
X51099500Y-48913389D01*
X51099500Y-49086611D01*
X51126598Y-49257701D01*
X51180127Y-49422445D01*
X51258768Y-49576788D01*
X51360586Y-49716928D01*
X51483072Y-49839414D01*
X51623212Y-49941232D01*
X51777555Y-50019873D01*
X51942299Y-50073402D01*
X52113389Y-50100500D01*
X52113390Y-50100500D01*
X52286610Y-50100500D01*
X52286611Y-50100500D01*
X52457701Y-50073402D01*
X52622445Y-50019873D01*
X52776788Y-49941232D01*
X52916928Y-49839414D01*
X53039414Y-49716928D01*
X53141232Y-49576788D01*
X53219873Y-49422445D01*
X53273402Y-49257701D01*
X53300500Y-49086611D01*
X53300500Y-48913389D01*
X53273402Y-48742299D01*
X53219873Y-48577555D01*
X53141232Y-48423212D01*
X53039414Y-48283072D01*
X52916928Y-48160586D01*
X52776788Y-48058768D01*
X52745109Y-48042627D01*
X52618205Y-47977966D01*
X52567409Y-47929991D01*
X52550500Y-47867481D01*
X52550500Y-47592518D01*
X52570185Y-47525479D01*
X52618206Y-47482033D01*
X52776786Y-47401233D01*
X52776785Y-47401233D01*
X52776788Y-47401232D01*
X52916928Y-47299414D01*
X53039414Y-47176928D01*
X53141232Y-47036788D01*
X53219873Y-46882445D01*
X53273402Y-46717701D01*
X53300500Y-46546611D01*
X53300500Y-46373389D01*
X53273402Y-46202299D01*
X53219873Y-46037555D01*
X53141232Y-45883212D01*
X53039414Y-45743072D01*
X52916928Y-45620586D01*
X52776788Y-45518768D01*
X52622445Y-45440127D01*
X52457701Y-45386598D01*
X52457699Y-45386597D01*
X52457698Y-45386597D01*
X52326271Y-45365781D01*
X52286611Y-45359500D01*
X52113389Y-45359500D01*
X52073728Y-45365781D01*
X51942302Y-45386597D01*
X51777552Y-45440128D01*
X51623211Y-45518768D01*
X51549474Y-45572342D01*
X51483072Y-45620586D01*
X51483070Y-45620588D01*
X51483069Y-45620588D01*
X51360588Y-45743069D01*
X51360588Y-45743070D01*
X51360586Y-45743072D01*
X51316859Y-45803256D01*
X51258768Y-45883211D01*
X51180128Y-46037552D01*
X51126597Y-46202302D01*
X51116349Y-46267007D01*
X51099500Y-46373389D01*
X50760500Y-46373389D01*
X50733402Y-46202299D01*
X50679873Y-46037555D01*
X50601232Y-45883212D01*
X50499414Y-45743072D01*
X50376928Y-45620586D01*
X50236788Y-45518768D01*
X50082445Y-45440127D01*
X49917701Y-45386598D01*
X49917699Y-45386597D01*
X49917698Y-45386597D01*
X49786271Y-45365781D01*
X49746611Y-45359500D01*
X49573389Y-45359500D01*
X49533728Y-45365781D01*
X49402302Y-45386597D01*
X49237552Y-45440128D01*
X49083211Y-45518768D01*
X49009474Y-45572342D01*
X48943072Y-45620586D01*
X48943070Y-45620588D01*
X48943069Y-45620588D01*
X48820588Y-45743069D01*
X48820588Y-45743070D01*
X48820586Y-45743072D01*
X48776859Y-45803256D01*
X48718768Y-45883211D01*
X48640128Y-46037552D01*
X48586597Y-46202302D01*
X48576349Y-46267007D01*
X48559500Y-46373389D01*
X48220500Y-46373389D01*
X48193402Y-46202299D01*
X48139873Y-46037555D01*
X48061232Y-45883212D01*
X47959414Y-45743072D01*
X47836928Y-45620586D01*
X47696788Y-45518768D01*
X47542445Y-45440127D01*
X47377701Y-45386598D01*
X47377699Y-45386597D01*
X47377698Y-45386597D01*
X47246271Y-45365781D01*
X47206611Y-45359500D01*
X47033389Y-45359500D01*
X46993728Y-45365781D01*
X46862302Y-45386597D01*
X46697552Y-45440128D01*
X46543211Y-45518768D01*
X46469474Y-45572342D01*
X46403072Y-45620586D01*
X46403070Y-45620588D01*
X46403069Y-45620588D01*
X46280588Y-45743069D01*
X46280588Y-45743070D01*
X46280586Y-45743072D01*
X46236859Y-45803256D01*
X46178768Y-45883211D01*
X46100128Y-46037552D01*
X46046597Y-46202302D01*
X46036349Y-46267007D01*
X46019500Y-46373389D01*
X45680500Y-46373389D01*
X45653402Y-46202299D01*
X45599873Y-46037555D01*
X45521232Y-45883212D01*
X45419414Y-45743072D01*
X45296928Y-45620586D01*
X45156788Y-45518768D01*
X45002445Y-45440127D01*
X44837701Y-45386598D01*
X44837699Y-45386597D01*
X44837698Y-45386597D01*
X44706271Y-45365781D01*
X44666611Y-45359500D01*
X44493389Y-45359500D01*
X44453728Y-45365781D01*
X44322302Y-45386597D01*
X44157552Y-45440128D01*
X44003211Y-45518768D01*
X43929474Y-45572342D01*
X43863072Y-45620586D01*
X43863070Y-45620588D01*
X43863069Y-45620588D01*
X43740588Y-45743069D01*
X43740588Y-45743070D01*
X43740586Y-45743072D01*
X43696859Y-45803256D01*
X43638768Y-45883211D01*
X43560128Y-46037552D01*
X43506597Y-46202302D01*
X43496349Y-46267007D01*
X43479500Y-46373389D01*
X43140500Y-46373389D01*
X43113402Y-46202299D01*
X43059873Y-46037555D01*
X42981232Y-45883212D01*
X42879414Y-45743072D01*
X42756928Y-45620586D01*
X42616788Y-45518768D01*
X42462445Y-45440127D01*
X42297701Y-45386598D01*
X42297699Y-45386597D01*
X42297698Y-45386597D01*
X42166271Y-45365781D01*
X42126611Y-45359500D01*
X41953389Y-45359500D01*
X41913728Y-45365781D01*
X41782302Y-45386597D01*
X41617552Y-45440128D01*
X41463211Y-45518768D01*
X41389474Y-45572342D01*
X41323072Y-45620586D01*
X41323070Y-45620588D01*
X41323069Y-45620588D01*
X41200588Y-45743069D01*
X41200588Y-45743070D01*
X41200586Y-45743072D01*
X41156859Y-45803256D01*
X41098768Y-45883211D01*
X41020128Y-46037550D01*
X41019487Y-46039522D01*
X41019102Y-46040712D01*
X41019099Y-46040720D01*
X41018381Y-46041769D01*
X41018266Y-46042048D01*
X41018207Y-46042023D01*
X40979657Y-46098393D01*
X40915297Y-46125587D01*
X40846451Y-46113668D01*
X40794979Y-46066420D01*
X40783239Y-46040711D01*
X40751096Y-45941784D01*
X40654624Y-45752449D01*
X40615270Y-45698282D01*
X40615269Y-45698282D01*
X39982962Y-46330590D01*
X39965925Y-46267007D01*
X39900099Y-46152993D01*
X39807007Y-46059901D01*
X39692993Y-45994075D01*
X39629409Y-45977037D01*
X40261716Y-45344728D01*
X40207550Y-45305375D01*
X40018217Y-45208904D01*
X39816129Y-45143242D01*
X39606246Y-45110000D01*
X39393754Y-45110000D01*
X39183872Y-45143242D01*
X39183869Y-45143242D01*
X38981782Y-45208904D01*
X38792439Y-45305380D01*
X38738282Y-45344727D01*
X38738282Y-45344728D01*
X39370591Y-45977037D01*
X39307007Y-45994075D01*
X39192993Y-46059901D01*
X39099901Y-46152993D01*
X39034075Y-46267007D01*
X39017037Y-46330591D01*
X38384728Y-45698282D01*
X38384727Y-45698282D01*
X38345380Y-45752439D01*
X38248904Y-45941782D01*
X38183242Y-46143869D01*
X38183242Y-46143872D01*
X38150000Y-46353753D01*
X31834200Y-46353753D01*
X31834200Y-41593753D01*
X54650000Y-41593753D01*
X54650000Y-41806246D01*
X54683242Y-42016127D01*
X54683242Y-42016130D01*
X54748904Y-42218217D01*
X54845375Y-42407550D01*
X54884728Y-42461716D01*
X55517037Y-41829408D01*
X55534075Y-41892993D01*
X55599901Y-42007007D01*
X55692993Y-42100099D01*
X55807007Y-42165925D01*
X55870590Y-42182962D01*
X55238282Y-42815269D01*
X55238282Y-42815270D01*
X55292449Y-42854624D01*
X55481782Y-42951095D01*
X55683870Y-43016757D01*
X55893754Y-43050000D01*
X56106246Y-43050000D01*
X56316127Y-43016757D01*
X56316130Y-43016757D01*
X56518217Y-42951095D01*
X56707554Y-42854622D01*
X56761716Y-42815270D01*
X56761717Y-42815270D01*
X56129408Y-42182962D01*
X56192993Y-42165925D01*
X56307007Y-42100099D01*
X56400099Y-42007007D01*
X56465925Y-41892993D01*
X56482962Y-41829409D01*
X57115270Y-42461717D01*
X57115270Y-42461716D01*
X57154622Y-42407554D01*
X57251095Y-42218217D01*
X57316757Y-42016130D01*
X57316757Y-42016127D01*
X57350000Y-41806246D01*
X57350000Y-41593753D01*
X57316757Y-41383872D01*
X57316757Y-41383869D01*
X57251095Y-41181782D01*
X57154624Y-40992449D01*
X57115270Y-40938282D01*
X57115269Y-40938282D01*
X56482962Y-41570590D01*
X56465925Y-41507007D01*
X56400099Y-41392993D01*
X56307007Y-41299901D01*
X56192993Y-41234075D01*
X56129409Y-41217037D01*
X56761716Y-40584728D01*
X56707550Y-40545375D01*
X56518217Y-40448904D01*
X56419287Y-40416760D01*
X56361611Y-40377323D01*
X56334413Y-40312964D01*
X56346328Y-40244118D01*
X56393572Y-40192642D01*
X56419290Y-40180897D01*
X56422445Y-40179873D01*
X56576788Y-40101232D01*
X56716928Y-39999414D01*
X56839414Y-39876928D01*
X56941232Y-39736788D01*
X57019873Y-39582445D01*
X57073402Y-39417701D01*
X57100500Y-39246611D01*
X57100500Y-39073389D01*
X57073402Y-38902299D01*
X57019873Y-38737555D01*
X56941232Y-38583212D01*
X56839414Y-38443072D01*
X56716928Y-38320586D01*
X56576788Y-38218768D01*
X56422445Y-38140127D01*
X56257701Y-38086598D01*
X56257699Y-38086597D01*
X56257698Y-38086597D01*
X56126271Y-38065781D01*
X56086611Y-38059500D01*
X55913389Y-38059500D01*
X55873728Y-38065781D01*
X55742302Y-38086597D01*
X55577552Y-38140128D01*
X55423211Y-38218768D01*
X55343256Y-38276859D01*
X55283072Y-38320586D01*
X55283070Y-38320588D01*
X55283069Y-38320588D01*
X55160588Y-38443069D01*
X55160588Y-38443070D01*
X55160586Y-38443072D01*
X55116859Y-38503256D01*
X55058768Y-38583211D01*
X54980128Y-38737552D01*
X54926597Y-38902302D01*
X54899500Y-39073389D01*
X54899500Y-39246611D01*
X54926598Y-39417701D01*
X54980127Y-39582445D01*
X55058768Y-39736788D01*
X55160586Y-39876928D01*
X55283072Y-39999414D01*
X55423212Y-40101232D01*
X55577555Y-40179873D01*
X55580708Y-40180897D01*
X55581752Y-40181611D01*
X55582048Y-40181734D01*
X55582022Y-40181795D01*
X55638383Y-40220330D01*
X55665585Y-40284688D01*
X55653674Y-40353535D01*
X55606433Y-40405013D01*
X55580712Y-40416760D01*
X55481783Y-40448904D01*
X55292439Y-40545380D01*
X55238282Y-40584727D01*
X55238282Y-40584728D01*
X55870591Y-41217037D01*
X55807007Y-41234075D01*
X55692993Y-41299901D01*
X55599901Y-41392993D01*
X55534075Y-41507007D01*
X55517037Y-41570591D01*
X54884728Y-40938282D01*
X54884727Y-40938282D01*
X54845380Y-40992439D01*
X54748904Y-41181782D01*
X54683242Y-41383869D01*
X54683242Y-41383872D01*
X54650000Y-41593753D01*
X31834200Y-41593753D01*
X31834200Y-40938225D01*
X50274500Y-40938225D01*
X50274500Y-41083175D01*
X50300922Y-41181782D01*
X50312017Y-41223188D01*
X50384488Y-41348711D01*
X50384490Y-41348713D01*
X50384491Y-41348715D01*
X50486985Y-41451209D01*
X50486986Y-41451210D01*
X50486988Y-41451211D01*
X50612511Y-41523682D01*
X50612512Y-41523682D01*
X50612515Y-41523684D01*
X50752525Y-41561200D01*
X50752528Y-41561200D01*
X50897472Y-41561200D01*
X50897475Y-41561200D01*
X51037485Y-41523684D01*
X51163015Y-41451209D01*
X51265509Y-41348715D01*
X51337984Y-41223185D01*
X51375500Y-41083175D01*
X51375500Y-40938225D01*
X51337984Y-40798215D01*
X51265509Y-40672685D01*
X51163015Y-40570191D01*
X51163013Y-40570190D01*
X51163011Y-40570188D01*
X51037488Y-40497717D01*
X51037489Y-40497717D01*
X51026006Y-40494640D01*
X50897475Y-40460200D01*
X50752525Y-40460200D01*
X50623993Y-40494640D01*
X50612511Y-40497717D01*
X50486988Y-40570188D01*
X50486982Y-40570193D01*
X50384493Y-40672682D01*
X50384488Y-40672688D01*
X50312017Y-40798211D01*
X50312016Y-40798215D01*
X50274500Y-40938225D01*
X31834200Y-40938225D01*
X31834200Y-37027125D01*
X45537700Y-37027125D01*
X45537700Y-37172075D01*
X45575216Y-37312085D01*
X45575217Y-37312088D01*
X45647688Y-37437611D01*
X45647690Y-37437613D01*
X45647691Y-37437615D01*
X45750185Y-37540109D01*
X45750186Y-37540110D01*
X45750188Y-37540111D01*
X45875711Y-37612582D01*
X45875712Y-37612582D01*
X45875715Y-37612584D01*
X46015725Y-37650100D01*
X46015728Y-37650100D01*
X46160672Y-37650100D01*
X46160675Y-37650100D01*
X46300685Y-37612584D01*
X46426215Y-37540109D01*
X46528709Y-37437615D01*
X46601184Y-37312085D01*
X46638700Y-37172075D01*
X46638700Y-37027125D01*
X46601184Y-36887115D01*
X46595746Y-36877697D01*
X46528711Y-36761588D01*
X46528706Y-36761582D01*
X46426217Y-36659093D01*
X46426211Y-36659088D01*
X46300688Y-36586617D01*
X46300689Y-36586617D01*
X46289206Y-36583540D01*
X46160675Y-36549100D01*
X46015725Y-36549100D01*
X45887193Y-36583540D01*
X45875711Y-36586617D01*
X45750188Y-36659088D01*
X45750182Y-36659093D01*
X45647693Y-36761582D01*
X45647688Y-36761588D01*
X45575217Y-36887111D01*
X45575216Y-36887115D01*
X45537700Y-37027125D01*
X31834200Y-37027125D01*
X31834200Y-36197725D01*
X50274500Y-36197725D01*
X50274500Y-36342675D01*
X50312016Y-36482685D01*
X50312017Y-36482688D01*
X50384488Y-36608211D01*
X50384490Y-36608213D01*
X50384491Y-36608215D01*
X50486985Y-36710709D01*
X50486986Y-36710710D01*
X50486988Y-36710711D01*
X50612511Y-36783182D01*
X50612512Y-36783182D01*
X50612515Y-36783184D01*
X50752525Y-36820700D01*
X50752528Y-36820700D01*
X50897472Y-36820700D01*
X50897475Y-36820700D01*
X51037485Y-36783184D01*
X51163015Y-36710709D01*
X51265509Y-36608215D01*
X51308710Y-36533389D01*
X54899500Y-36533389D01*
X54899500Y-36706611D01*
X54907677Y-36758239D01*
X54908207Y-36761588D01*
X54926598Y-36877701D01*
X54980127Y-37042445D01*
X55058768Y-37196788D01*
X55160586Y-37336928D01*
X55283072Y-37459414D01*
X55423212Y-37561232D01*
X55577555Y-37639873D01*
X55742299Y-37693402D01*
X55913389Y-37720500D01*
X55913390Y-37720500D01*
X56086610Y-37720500D01*
X56086611Y-37720500D01*
X56257701Y-37693402D01*
X56422445Y-37639873D01*
X56576788Y-37561232D01*
X56716928Y-37459414D01*
X56839414Y-37336928D01*
X56941232Y-37196788D01*
X57019873Y-37042445D01*
X57073402Y-36877701D01*
X57100500Y-36706611D01*
X57100500Y-36533389D01*
X57073402Y-36362299D01*
X57019873Y-36197555D01*
X56941232Y-36043212D01*
X56839414Y-35903072D01*
X56716928Y-35780586D01*
X56576788Y-35678768D01*
X56422445Y-35600127D01*
X56257701Y-35546598D01*
X56257699Y-35546597D01*
X56257698Y-35546597D01*
X56126271Y-35525781D01*
X56086611Y-35519500D01*
X55913389Y-35519500D01*
X55873728Y-35525781D01*
X55742302Y-35546597D01*
X55577552Y-35600128D01*
X55423211Y-35678768D01*
X55366874Y-35719700D01*
X55283072Y-35780586D01*
X55283070Y-35780588D01*
X55283069Y-35780588D01*
X55160588Y-35903069D01*
X55160588Y-35903070D01*
X55160586Y-35903072D01*
X55139434Y-35932185D01*
X55058768Y-36043211D01*
X54980128Y-36197552D01*
X54926597Y-36362302D01*
X54907531Y-36482685D01*
X54899500Y-36533389D01*
X51308710Y-36533389D01*
X51337984Y-36482685D01*
X51375500Y-36342675D01*
X51375500Y-36197725D01*
X51337984Y-36057715D01*
X51265509Y-35932185D01*
X51163015Y-35829691D01*
X51163013Y-35829690D01*
X51163011Y-35829688D01*
X51037488Y-35757217D01*
X51037489Y-35757217D01*
X51026006Y-35754140D01*
X50897475Y-35719700D01*
X50752525Y-35719700D01*
X50623993Y-35754140D01*
X50612511Y-35757217D01*
X50486988Y-35829688D01*
X50486982Y-35829693D01*
X50384493Y-35932182D01*
X50384488Y-35932188D01*
X50312017Y-36057711D01*
X50312016Y-36057715D01*
X50274500Y-36197725D01*
X31834200Y-36197725D01*
X31834200Y-34697825D01*
X32624500Y-34697825D01*
X32624500Y-34842775D01*
X32643347Y-34913111D01*
X32662017Y-34982788D01*
X32734488Y-35108311D01*
X32734490Y-35108313D01*
X32734491Y-35108315D01*
X32836985Y-35210809D01*
X32836986Y-35210810D01*
X32836988Y-35210811D01*
X32962511Y-35283282D01*
X32962512Y-35283282D01*
X32962515Y-35283284D01*
X33102525Y-35320800D01*
X33102528Y-35320800D01*
X33247472Y-35320800D01*
X33247475Y-35320800D01*
X33387485Y-35283284D01*
X33513015Y-35210809D01*
X33615509Y-35108315D01*
X33687984Y-34982785D01*
X33725500Y-34842775D01*
X33725500Y-34697825D01*
X33687984Y-34557815D01*
X33686598Y-34555415D01*
X33615511Y-34432288D01*
X33615506Y-34432282D01*
X33513017Y-34329793D01*
X33513011Y-34329788D01*
X33387488Y-34257317D01*
X33387489Y-34257317D01*
X33338599Y-34244217D01*
X33247475Y-34219800D01*
X33102525Y-34219800D01*
X33011401Y-34244217D01*
X32962511Y-34257317D01*
X32836988Y-34329788D01*
X32836982Y-34329793D01*
X32734493Y-34432282D01*
X32734488Y-34432288D01*
X32662017Y-34557811D01*
X32662016Y-34557815D01*
X32624500Y-34697825D01*
X31834200Y-34697825D01*
X31834200Y-31973158D01*
X31834200Y-31973156D01*
X31810314Y-31884012D01*
X31764170Y-31804088D01*
X25533707Y-25573625D01*
X36122400Y-25573625D01*
X36122400Y-25718575D01*
X36158706Y-25854069D01*
X36159917Y-25858588D01*
X36232388Y-25984111D01*
X36232390Y-25984113D01*
X36232391Y-25984115D01*
X36334885Y-26086609D01*
X36334886Y-26086610D01*
X36334888Y-26086611D01*
X36460411Y-26159082D01*
X36460412Y-26159082D01*
X36460415Y-26159084D01*
X36600425Y-26196600D01*
X36600428Y-26196600D01*
X36745372Y-26196600D01*
X36745375Y-26196600D01*
X36885385Y-26159084D01*
X37010915Y-26086609D01*
X37053383Y-26044140D01*
X37114704Y-26010656D01*
X37184395Y-26015640D01*
X37203064Y-26024436D01*
X37264109Y-26059681D01*
X37264110Y-26059682D01*
X37264112Y-26059682D01*
X37264115Y-26059684D01*
X37404125Y-26097200D01*
X37404128Y-26097200D01*
X37549072Y-26097200D01*
X37549075Y-26097200D01*
X37689085Y-26059684D01*
X37814615Y-25987209D01*
X37917109Y-25884715D01*
X37989584Y-25759185D01*
X38027100Y-25619175D01*
X38027100Y-25474225D01*
X37989584Y-25334215D01*
X37955457Y-25275106D01*
X37917111Y-25208688D01*
X37917106Y-25208682D01*
X37814617Y-25106193D01*
X37814611Y-25106188D01*
X37689088Y-25033717D01*
X37689089Y-25033717D01*
X37677606Y-25030640D01*
X37549075Y-24996200D01*
X37404125Y-24996200D01*
X37275593Y-25030640D01*
X37264111Y-25033717D01*
X37138588Y-25106188D01*
X37138581Y-25106194D01*
X37096116Y-25148659D01*
X37034793Y-25182143D01*
X36965101Y-25177158D01*
X36946441Y-25168366D01*
X36885385Y-25133116D01*
X36745375Y-25095600D01*
X36600425Y-25095600D01*
X36471893Y-25130040D01*
X36460411Y-25133117D01*
X36334888Y-25205588D01*
X36334882Y-25205593D01*
X36232393Y-25308082D01*
X36232388Y-25308088D01*
X36159917Y-25433611D01*
X36159916Y-25433615D01*
X36122400Y-25573625D01*
X25533707Y-25573625D01*
X22893419Y-22933337D01*
X22859934Y-22872014D01*
X22857100Y-22845656D01*
X22857100Y-22172825D01*
X39464800Y-22172825D01*
X39464800Y-22317775D01*
X39502316Y-22457785D01*
X39502317Y-22457788D01*
X39574788Y-22583311D01*
X39574793Y-22583317D01*
X39628481Y-22637005D01*
X39661966Y-22698328D01*
X39664800Y-22724686D01*
X39664800Y-32362044D01*
X39669455Y-32379414D01*
X39688686Y-32451187D01*
X39688687Y-32451190D01*
X39734827Y-32531108D01*
X39734831Y-32531113D01*
X40385138Y-33181420D01*
X40418623Y-33242743D01*
X40413639Y-33312435D01*
X40371767Y-33368368D01*
X40306303Y-33392785D01*
X40265364Y-33388876D01*
X40220449Y-33376841D01*
X40182975Y-33366800D01*
X40038025Y-33366800D01*
X39909493Y-33401240D01*
X39898011Y-33404317D01*
X39772488Y-33476788D01*
X39772482Y-33476793D01*
X39669993Y-33579282D01*
X39669988Y-33579288D01*
X39597517Y-33704811D01*
X39597516Y-33704815D01*
X39560000Y-33844825D01*
X39560000Y-33989775D01*
X39597516Y-34129785D01*
X39597517Y-34129788D01*
X39669988Y-34255311D01*
X39669990Y-34255313D01*
X39669991Y-34255315D01*
X39772485Y-34357809D01*
X39772486Y-34357810D01*
X39772488Y-34357811D01*
X39898011Y-34430282D01*
X39898012Y-34430282D01*
X39898015Y-34430284D01*
X40038025Y-34467800D01*
X40038028Y-34467800D01*
X40182972Y-34467800D01*
X40182975Y-34467800D01*
X40322985Y-34430284D01*
X40448515Y-34357809D01*
X40551009Y-34255315D01*
X40623484Y-34129785D01*
X40661000Y-33989775D01*
X40661000Y-33844825D01*
X40638923Y-33762433D01*
X40640586Y-33692586D01*
X40679748Y-33634723D01*
X40743976Y-33607219D01*
X40812879Y-33618805D01*
X40846379Y-33642661D01*
X42238181Y-35034463D01*
X42271666Y-35095786D01*
X42274500Y-35122144D01*
X42274500Y-35198075D01*
X42312016Y-35338085D01*
X42312017Y-35338088D01*
X42384488Y-35463611D01*
X42384490Y-35463613D01*
X42384491Y-35463615D01*
X42486985Y-35566109D01*
X42486986Y-35566110D01*
X42486988Y-35566111D01*
X42612511Y-35638582D01*
X42612512Y-35638582D01*
X42612515Y-35638584D01*
X42752525Y-35676100D01*
X42752528Y-35676100D01*
X42897472Y-35676100D01*
X42897475Y-35676100D01*
X43037485Y-35638584D01*
X43163015Y-35566109D01*
X43265509Y-35463615D01*
X43337984Y-35338085D01*
X43375500Y-35198075D01*
X43375500Y-35053125D01*
X43337984Y-34913115D01*
X43297371Y-34842772D01*
X43265511Y-34787588D01*
X43265506Y-34787582D01*
X43163017Y-34685093D01*
X43163011Y-34685088D01*
X43037488Y-34612617D01*
X43037489Y-34612617D01*
X43026006Y-34609540D01*
X42897475Y-34575100D01*
X42897472Y-34575100D01*
X42821544Y-34575100D01*
X42754505Y-34555415D01*
X42733863Y-34538781D01*
X42188471Y-33993389D01*
X54899500Y-33993389D01*
X54899500Y-34166611D01*
X54907677Y-34218239D01*
X54925344Y-34329788D01*
X54926598Y-34337701D01*
X54980127Y-34502445D01*
X55058768Y-34656788D01*
X55160586Y-34796928D01*
X55283072Y-34919414D01*
X55423212Y-35021232D01*
X55577555Y-35099873D01*
X55742299Y-35153402D01*
X55913389Y-35180500D01*
X55913390Y-35180500D01*
X56086610Y-35180500D01*
X56086611Y-35180500D01*
X56257701Y-35153402D01*
X56422445Y-35099873D01*
X56576788Y-35021232D01*
X56716928Y-34919414D01*
X56839414Y-34796928D01*
X56941232Y-34656788D01*
X57019873Y-34502445D01*
X57073402Y-34337701D01*
X57100500Y-34166611D01*
X57100500Y-33993389D01*
X57073402Y-33822299D01*
X57019873Y-33657555D01*
X56941232Y-33503212D01*
X56839414Y-33363072D01*
X56716928Y-33240586D01*
X56576788Y-33138768D01*
X56422445Y-33060127D01*
X56257701Y-33006598D01*
X56257699Y-33006597D01*
X56257698Y-33006597D01*
X56126271Y-32985781D01*
X56086611Y-32979500D01*
X55913389Y-32979500D01*
X55873728Y-32985781D01*
X55742302Y-33006597D01*
X55577552Y-33060128D01*
X55423211Y-33138768D01*
X55343256Y-33196859D01*
X55283072Y-33240586D01*
X55283070Y-33240588D01*
X55283069Y-33240588D01*
X55160588Y-33363069D01*
X55160588Y-33363070D01*
X55160586Y-33363072D01*
X55130620Y-33404317D01*
X55058768Y-33503211D01*
X54980128Y-33657552D01*
X54926597Y-33822302D01*
X54900609Y-33986385D01*
X54899500Y-33993389D01*
X42188471Y-33993389D01*
X40402119Y-32207037D01*
X40368634Y-32145714D01*
X40365800Y-32119356D01*
X40365800Y-31453389D01*
X54899500Y-31453389D01*
X54899500Y-31626611D01*
X54926598Y-31797701D01*
X54980127Y-31962445D01*
X55058768Y-32116788D01*
X55160586Y-32256928D01*
X55283072Y-32379414D01*
X55423212Y-32481232D01*
X55577555Y-32559873D01*
X55742299Y-32613402D01*
X55913389Y-32640500D01*
X55913390Y-32640500D01*
X56086610Y-32640500D01*
X56086611Y-32640500D01*
X56257701Y-32613402D01*
X56422445Y-32559873D01*
X56576788Y-32481232D01*
X56716928Y-32379414D01*
X56839414Y-32256928D01*
X56941232Y-32116788D01*
X57019873Y-31962445D01*
X57073402Y-31797701D01*
X57100500Y-31626611D01*
X57100500Y-31453389D01*
X57073402Y-31282299D01*
X57019873Y-31117555D01*
X56941232Y-30963212D01*
X56839414Y-30823072D01*
X56716928Y-30700586D01*
X56576788Y-30598768D01*
X56422445Y-30520127D01*
X56257701Y-30466598D01*
X56257699Y-30466597D01*
X56257698Y-30466597D01*
X56126271Y-30445781D01*
X56086611Y-30439500D01*
X55913389Y-30439500D01*
X55873728Y-30445781D01*
X55742302Y-30466597D01*
X55577552Y-30520128D01*
X55423211Y-30598768D01*
X55363733Y-30641982D01*
X55283072Y-30700586D01*
X55283070Y-30700588D01*
X55283069Y-30700588D01*
X55160588Y-30823069D01*
X55160588Y-30823070D01*
X55160586Y-30823072D01*
X55116859Y-30883256D01*
X55058768Y-30963211D01*
X54980128Y-31117552D01*
X54926597Y-31282302D01*
X54899500Y-31453389D01*
X40365800Y-31453389D01*
X40365800Y-28125321D01*
X54899500Y-28125321D01*
X54899500Y-29874678D01*
X54914032Y-29947735D01*
X54914033Y-29947739D01*
X54924821Y-29963884D01*
X54969399Y-30030601D01*
X55052260Y-30085966D01*
X55052264Y-30085967D01*
X55125321Y-30100499D01*
X55125324Y-30100500D01*
X55125326Y-30100500D01*
X56874676Y-30100500D01*
X56874677Y-30100499D01*
X56947740Y-30085966D01*
X57030601Y-30030601D01*
X57085966Y-29947740D01*
X57100500Y-29874674D01*
X57100500Y-28125326D01*
X57100500Y-28125323D01*
X57100499Y-28125321D01*
X57085967Y-28052264D01*
X57085966Y-28052260D01*
X57030601Y-27969399D01*
X56947740Y-27914034D01*
X56947739Y-27914033D01*
X56947735Y-27914032D01*
X56874677Y-27899500D01*
X56874674Y-27899500D01*
X55125326Y-27899500D01*
X55125323Y-27899500D01*
X55052264Y-27914032D01*
X55052260Y-27914033D01*
X54969399Y-27969399D01*
X54914033Y-28052260D01*
X54914032Y-28052264D01*
X54899500Y-28125321D01*
X40365800Y-28125321D01*
X40365800Y-22724686D01*
X40385485Y-22657647D01*
X40402119Y-22637005D01*
X40455809Y-22583315D01*
X40528284Y-22457785D01*
X40565800Y-22317775D01*
X40565800Y-22172825D01*
X40528284Y-22032815D01*
X40455809Y-21907285D01*
X40353315Y-21804791D01*
X40353313Y-21804790D01*
X40353311Y-21804788D01*
X40227788Y-21732317D01*
X40227789Y-21732317D01*
X40216306Y-21729240D01*
X40087775Y-21694800D01*
X39942825Y-21694800D01*
X39814293Y-21729240D01*
X39802811Y-21732317D01*
X39677288Y-21804788D01*
X39677282Y-21804793D01*
X39574793Y-21907282D01*
X39574788Y-21907288D01*
X39502317Y-22032811D01*
X39502316Y-22032815D01*
X39464800Y-22172825D01*
X22857100Y-22172825D01*
X22857100Y-21399693D01*
X22876785Y-21332654D01*
X22929589Y-21286899D01*
X22998747Y-21276955D01*
X23013184Y-21279915D01*
X23049325Y-21289600D01*
X23049328Y-21289600D01*
X23194272Y-21289600D01*
X23194275Y-21289600D01*
X23334285Y-21252084D01*
X23459815Y-21179609D01*
X23562309Y-21077115D01*
X23634784Y-20951585D01*
X23672300Y-20811575D01*
X23672300Y-20666625D01*
X23634784Y-20526615D01*
X23562309Y-20401085D01*
X23508619Y-20347395D01*
X23475134Y-20286072D01*
X23472300Y-20259714D01*
X23472300Y-19647658D01*
X23472300Y-19647656D01*
X23448414Y-19558512D01*
X23438303Y-19541000D01*
X23402270Y-19478588D01*
X22982912Y-19059230D01*
X22982911Y-19059229D01*
X22982908Y-19059227D01*
X22902990Y-19013087D01*
X22902989Y-19013086D01*
X22902988Y-19013086D01*
X22813844Y-18989200D01*
X22158956Y-18989200D01*
X22069812Y-19013086D01*
X22069811Y-19013086D01*
X22069809Y-19013087D01*
X22069806Y-19013088D01*
X21989894Y-19059226D01*
X21989885Y-19059233D01*
X21624332Y-19424785D01*
X21624328Y-19424791D01*
X21595347Y-19474988D01*
X21578187Y-19504709D01*
X21578186Y-19504712D01*
X21554300Y-19593856D01*
X21554300Y-23834945D01*
X21571496Y-23899124D01*
X21578184Y-23924084D01*
X21578187Y-23924091D01*
X21624327Y-24004008D01*
X21624331Y-24004013D01*
X22554737Y-24934419D01*
X22588222Y-24995742D01*
X22583238Y-25065434D01*
X22541366Y-25121367D01*
X22475902Y-25145784D01*
X22467056Y-25146100D01*
X22432625Y-25146100D01*
X22304093Y-25180540D01*
X22292611Y-25183617D01*
X22167088Y-25256088D01*
X22167082Y-25256093D01*
X22064593Y-25358582D01*
X22064588Y-25358588D01*
X21992117Y-25484111D01*
X21992116Y-25484115D01*
X21954600Y-25624125D01*
X21954600Y-25769075D01*
X21985585Y-25884711D01*
X21992117Y-25909088D01*
X22064588Y-26034611D01*
X22064590Y-26034613D01*
X22064591Y-26034615D01*
X22167085Y-26137109D01*
X22208147Y-26160816D01*
X22274200Y-26198952D01*
X22322416Y-26249519D01*
X22336200Y-26306339D01*
X22336200Y-33239925D01*
X22316515Y-33306964D01*
X22263711Y-33352719D01*
X22194553Y-33362663D01*
X22136714Y-33338301D01*
X22130315Y-33333391D01*
X22004788Y-33260917D01*
X22004789Y-33260917D01*
X21993306Y-33257840D01*
X21864775Y-33223400D01*
X21719825Y-33223400D01*
X21591293Y-33257840D01*
X21579811Y-33260917D01*
X21454288Y-33333388D01*
X21454282Y-33333393D01*
X21351793Y-33435882D01*
X21351788Y-33435888D01*
X21279317Y-33561411D01*
X21279316Y-33561415D01*
X21241800Y-33701425D01*
X20027800Y-33701425D01*
X20027800Y-25490530D01*
X20047485Y-25423491D01*
X20100289Y-25377736D01*
X20119696Y-25370758D01*
X20206185Y-25347584D01*
X20331715Y-25275109D01*
X20434209Y-25172615D01*
X20506684Y-25047085D01*
X20544200Y-24907075D01*
X20544200Y-24762125D01*
X20506684Y-24622115D01*
X20434212Y-24496591D01*
X20434211Y-24496588D01*
X20434206Y-24496582D01*
X20331717Y-24394093D01*
X20331711Y-24394088D01*
X20206188Y-24321617D01*
X20206189Y-24321617D01*
X20174347Y-24313085D01*
X20066175Y-24284100D01*
X19934046Y-24284100D01*
X19867007Y-24264415D01*
X19821252Y-24211611D01*
X19811308Y-24142453D01*
X19835673Y-24084609D01*
X19838498Y-24080925D01*
X19838509Y-24080915D01*
X19910984Y-23955385D01*
X19948500Y-23815375D01*
X19948500Y-23670425D01*
X19910984Y-23530415D01*
X19888938Y-23492231D01*
X19838511Y-23404888D01*
X19838506Y-23404882D01*
X19736017Y-23302393D01*
X19736011Y-23302388D01*
X19610488Y-23229917D01*
X19610489Y-23229917D01*
X19599006Y-23226840D01*
X19470475Y-23192400D01*
X19325525Y-23192400D01*
X19196993Y-23226840D01*
X19185511Y-23229917D01*
X19059988Y-23302388D01*
X19059982Y-23302393D01*
X18957493Y-23404882D01*
X18957488Y-23404888D01*
X18885017Y-23530411D01*
X18885016Y-23530415D01*
X18847500Y-23670425D01*
X18847500Y-23815375D01*
X18869941Y-23899124D01*
X18885017Y-23955388D01*
X18957488Y-24080911D01*
X18957490Y-24080913D01*
X18957491Y-24080915D01*
X19059985Y-24183409D01*
X19059986Y-24183410D01*
X19059988Y-24183411D01*
X19185511Y-24255882D01*
X19185512Y-24255882D01*
X19185515Y-24255884D01*
X19325525Y-24293400D01*
X19325528Y-24293400D01*
X19457654Y-24293400D01*
X19524693Y-24313085D01*
X19570448Y-24365889D01*
X19580392Y-24435047D01*
X19556027Y-24492891D01*
X19553193Y-24496582D01*
X19553191Y-24496585D01*
X19553189Y-24496588D01*
X19553187Y-24496591D01*
X19480717Y-24622111D01*
X19480716Y-24622115D01*
X19443200Y-24762125D01*
X19443200Y-24762127D01*
X19443200Y-24838056D01*
X19423515Y-24905095D01*
X19406881Y-24925737D01*
X19396832Y-24935785D01*
X19396828Y-24935791D01*
X19361951Y-24996198D01*
X19361952Y-24996199D01*
X19350686Y-25015711D01*
X19350686Y-25015712D01*
X19326800Y-25104856D01*
X19326800Y-60481075D01*
X19307115Y-60548114D01*
X19254311Y-60593869D01*
X19185153Y-60603813D01*
X19170707Y-60600850D01*
X19126502Y-60589005D01*
X19070875Y-60574100D01*
X18925925Y-60574100D01*
X18826094Y-60600850D01*
X18785911Y-60611617D01*
X18660388Y-60684088D01*
X18660382Y-60684093D01*
X18557893Y-60786582D01*
X18557888Y-60786588D01*
X18485417Y-60912111D01*
X18485416Y-60912115D01*
X18447900Y-61052125D01*
X18447900Y-61052127D01*
X18447900Y-61128056D01*
X18428215Y-61195095D01*
X18411581Y-61215737D01*
X17038631Y-62588686D01*
X17038627Y-62588691D01*
X16992487Y-62668609D01*
X16992486Y-62668612D01*
X16968600Y-62757756D01*
X16968600Y-64671814D01*
X16948915Y-64738853D01*
X16932281Y-64759495D01*
X16878593Y-64813182D01*
X16878588Y-64813188D01*
X16806117Y-64938711D01*
X16806116Y-64938715D01*
X16768600Y-65078725D01*
X1500500Y-65078725D01*
X1500500Y-26914225D01*
X12350900Y-26914225D01*
X12350900Y-27059175D01*
X12365674Y-27114311D01*
X12388417Y-27199188D01*
X12460888Y-27324711D01*
X12460893Y-27324717D01*
X12514581Y-27378405D01*
X12548066Y-27439728D01*
X12550900Y-27466086D01*
X12550900Y-52009343D01*
X12574786Y-52098487D01*
X12574787Y-52098490D01*
X12620927Y-52178408D01*
X12620931Y-52178413D01*
X15251781Y-54809263D01*
X15285266Y-54870586D01*
X15288100Y-54896944D01*
X15288100Y-54972875D01*
X15325616Y-55112885D01*
X15325617Y-55112888D01*
X15398088Y-55238411D01*
X15398090Y-55238413D01*
X15398091Y-55238415D01*
X15500585Y-55340909D01*
X15500586Y-55340910D01*
X15500588Y-55340911D01*
X15626111Y-55413382D01*
X15626112Y-55413382D01*
X15626115Y-55413384D01*
X15766125Y-55450900D01*
X15766128Y-55450900D01*
X15911072Y-55450900D01*
X15911075Y-55450900D01*
X16051085Y-55413384D01*
X16176615Y-55340909D01*
X16279109Y-55238415D01*
X16351584Y-55112885D01*
X16389100Y-54972875D01*
X16389100Y-54827925D01*
X16351584Y-54687915D01*
X16279109Y-54562385D01*
X16176615Y-54459891D01*
X16176613Y-54459890D01*
X16176611Y-54459888D01*
X16051088Y-54387417D01*
X16051089Y-54387417D01*
X16039606Y-54384340D01*
X15911075Y-54349900D01*
X15911072Y-54349900D01*
X15835144Y-54349900D01*
X15768105Y-54330215D01*
X15747463Y-54313581D01*
X13288219Y-51854337D01*
X13254734Y-51793014D01*
X13251900Y-51766656D01*
X13251900Y-27466086D01*
X13271585Y-27399047D01*
X13288219Y-27378405D01*
X13341909Y-27324715D01*
X13414384Y-27199185D01*
X13451900Y-27059175D01*
X13451900Y-26914225D01*
X13414384Y-26774215D01*
X13341909Y-26648685D01*
X13239415Y-26546191D01*
X13239413Y-26546190D01*
X13239411Y-26546188D01*
X13113888Y-26473717D01*
X13113889Y-26473717D01*
X13067604Y-26461315D01*
X12973875Y-26436200D01*
X12828925Y-26436200D01*
X12735196Y-26461315D01*
X12688911Y-26473717D01*
X12563388Y-26546188D01*
X12563382Y-26546193D01*
X12460893Y-26648682D01*
X12460888Y-26648688D01*
X12388417Y-26774211D01*
X12388416Y-26774215D01*
X12350900Y-26914225D01*
X1500500Y-26914225D01*
X1500500Y-23899125D01*
X16949500Y-23899125D01*
X16949500Y-24044075D01*
X16987016Y-24184085D01*
X16987017Y-24184088D01*
X17059488Y-24309611D01*
X17059490Y-24309613D01*
X17059491Y-24309615D01*
X17161985Y-24412109D01*
X17161986Y-24412110D01*
X17161988Y-24412111D01*
X17287511Y-24484582D01*
X17287512Y-24484582D01*
X17287515Y-24484584D01*
X17427525Y-24522100D01*
X17427528Y-24522100D01*
X17572472Y-24522100D01*
X17572475Y-24522100D01*
X17712485Y-24484584D01*
X17838015Y-24412109D01*
X17940509Y-24309615D01*
X18012984Y-24184085D01*
X18050500Y-24044075D01*
X18050500Y-23899125D01*
X18012984Y-23759115D01*
X17967270Y-23679937D01*
X17940511Y-23633588D01*
X17940506Y-23633582D01*
X17838017Y-23531093D01*
X17838011Y-23531088D01*
X17712488Y-23458617D01*
X17712489Y-23458617D01*
X17701006Y-23455540D01*
X17572475Y-23421100D01*
X17427525Y-23421100D01*
X17298993Y-23455540D01*
X17287511Y-23458617D01*
X17161988Y-23531088D01*
X17161982Y-23531093D01*
X17059493Y-23633582D01*
X17059488Y-23633588D01*
X16987017Y-23759111D01*
X16987016Y-23759115D01*
X16949500Y-23899125D01*
X1500500Y-23899125D01*
X1500500Y-17768625D01*
X36926100Y-17768625D01*
X36926100Y-17913575D01*
X36963616Y-18053585D01*
X36963617Y-18053588D01*
X37036088Y-18179111D01*
X37036090Y-18179113D01*
X37036091Y-18179115D01*
X37138585Y-18281609D01*
X37138586Y-18281610D01*
X37138588Y-18281611D01*
X37264111Y-18354082D01*
X37264112Y-18354082D01*
X37264115Y-18354084D01*
X37404125Y-18391600D01*
X37404128Y-18391600D01*
X37549072Y-18391600D01*
X37549075Y-18391600D01*
X37689085Y-18354084D01*
X37814615Y-18281609D01*
X37917109Y-18179115D01*
X37989584Y-18053585D01*
X38027100Y-17913575D01*
X38027100Y-17768625D01*
X37989584Y-17628615D01*
X37917109Y-17503085D01*
X37814615Y-17400591D01*
X37814613Y-17400590D01*
X37814611Y-17400588D01*
X37689088Y-17328117D01*
X37689089Y-17328117D01*
X37677606Y-17325040D01*
X37549075Y-17290600D01*
X37404125Y-17290600D01*
X37275593Y-17325040D01*
X37264111Y-17328117D01*
X37138588Y-17400588D01*
X37138582Y-17400593D01*
X37036093Y-17503082D01*
X37036088Y-17503088D01*
X36963617Y-17628611D01*
X36963616Y-17628615D01*
X36926100Y-17768625D01*
X1500500Y-17768625D01*
X1500500Y-1624500D01*
X1520185Y-1557461D01*
X1572989Y-1511706D01*
X1624500Y-1500500D01*
X5876000Y-1500500D01*
X5943039Y-1520185D01*
G37*
%TD.AperFunction*%
%TA.AperFunction,Conductor*%
G36*
X58406052Y-47232499D02*
G01*
X58434146Y-47238401D01*
X58483904Y-47287451D01*
X58499500Y-47347656D01*
X58499500Y-48112342D01*
X58479815Y-48179381D01*
X58427011Y-48225136D01*
X58404423Y-48229128D01*
X57762962Y-48870590D01*
X57745925Y-48807007D01*
X57680099Y-48692993D01*
X57587007Y-48599901D01*
X57472993Y-48534075D01*
X57409409Y-48517037D01*
X58041716Y-47884728D01*
X57987550Y-47845375D01*
X57977954Y-47840486D01*
X57927157Y-47792512D01*
X57910361Y-47724692D01*
X57932897Y-47658556D01*
X57977954Y-47619514D01*
X57987554Y-47614622D01*
X58041716Y-47575270D01*
X58041717Y-47575270D01*
X57409408Y-46942962D01*
X57472993Y-46925925D01*
X57587007Y-46860099D01*
X57680099Y-46767007D01*
X57745925Y-46652993D01*
X57762962Y-46589408D01*
X58406052Y-47232499D01*
G37*
%TD.AperFunction*%
%TD*%
M02*
