%TF.GenerationSoftware,KiCad,Pcbnew,10.0.4*%
%TF.CreationDate,2026-07-22T19:12:30+08:00*%
%TF.ProjectId,ai_mobile_reader_routed,61695f6d-6f62-4696-9c65-5f7265616465,rev?*%
%TF.SameCoordinates,Original*%
%TF.FileFunction,Copper,L2,Inr*%
%TF.FilePolarity,Positive*%
%FSLAX46Y46*%
G04 Gerber Fmt 4.6, Leading zero omitted, Abs format (unit mm)*
G04 Created by KiCad (PCBNEW 10.0.4) date 2026-07-22 19:12:30*
%MOMM*%
%LPD*%
G01*
G04 APERTURE LIST*
G04 Aperture macros list*
%AMRoundRect*
0 Rectangle with rounded corners*
0 $1 Rounding radius*
0 $2 $3 $4 $5 $6 $7 $8 $9 X,Y pos of 4 corners*
0 Add a 4 corners polygon primitive as box body*
4,1,4,$2,$3,$4,$5,$6,$7,$8,$9,$2,$3,0*
0 Add four circle primitives for the rounded corners*
1,1,$1+$1,$2,$3*
1,1,$1+$1,$4,$5*
1,1,$1+$1,$6,$7*
1,1,$1+$1,$8,$9*
0 Add four rect primitives between the rounded corners*
20,1,$1+$1,$2,$3,$4,$5,0*
20,1,$1+$1,$4,$5,$6,$7,0*
20,1,$1+$1,$6,$7,$8,$9,0*
20,1,$1+$1,$8,$9,$2,$3,0*%
G04 Aperture macros list end*
%TA.AperFunction,ComponentPad*%
%ADD10R,1.700000X1.700000*%
%TD*%
%TA.AperFunction,ComponentPad*%
%ADD11C,1.700000*%
%TD*%
%TA.AperFunction,HeatsinkPad*%
%ADD12C,0.600000*%
%TD*%
%TA.AperFunction,ComponentPad*%
%ADD13O,1.000000X2.100000*%
%TD*%
%TA.AperFunction,ComponentPad*%
%ADD14O,1.000000X1.800000*%
%TD*%
%TA.AperFunction,ComponentPad*%
%ADD15C,0.800000*%
%TD*%
%TA.AperFunction,ComponentPad*%
%ADD16C,5.000000*%
%TD*%
%TA.AperFunction,ComponentPad*%
%ADD17RoundRect,0.250000X0.625000X-0.350000X0.625000X0.350000X-0.625000X0.350000X-0.625000X-0.350000X0*%
%TD*%
%TA.AperFunction,ComponentPad*%
%ADD18O,1.750000X1.200000*%
%TD*%
%TA.AperFunction,ViaPad*%
%ADD19C,0.600000*%
%TD*%
%TA.AperFunction,Conductor*%
%ADD20C,0.200000*%
%TD*%
G04 APERTURE END LIST*
D10*
%TO.N,BTN_BACK*%
%TO.C,J5*%
X56000000Y-29000000D03*
D11*
%TO.N,BTN_POWER*%
X56000000Y-31540000D03*
%TO.N,BTN_UP*%
X56000000Y-34080000D03*
%TO.N,BTN_HOME*%
X56000000Y-36620000D03*
%TO.N,BTN_DOWN*%
X56000000Y-39160000D03*
%TO.N,GND*%
X56000000Y-41700000D03*
%TD*%
D12*
%TO.N,GND*%
%TO.C,U1*%
X27100000Y-22760000D03*
X27100000Y-24160000D03*
X27800000Y-22060000D03*
X27800000Y-23460000D03*
X27800000Y-24860000D03*
X28500000Y-22760000D03*
X28500000Y-24160000D03*
X29200000Y-22060000D03*
X29200000Y-23460000D03*
X29200000Y-24860000D03*
X29900000Y-22760000D03*
X29900000Y-24160000D03*
%TD*%
D13*
%TO.N,GND*%
%TO.C,J1*%
X25680000Y-97095000D03*
D14*
X25680000Y-101275000D03*
D13*
X34320000Y-97095000D03*
D14*
X34320000Y-101275000D03*
%TD*%
D15*
%TO.N,GND*%
%TO.C,H2*%
X54125000Y-99000000D03*
X54674175Y-97674175D03*
X54674175Y-100325825D03*
X56000000Y-97125000D03*
D16*
X56000000Y-99000000D03*
D15*
X56000000Y-100875000D03*
X57325825Y-97674175D03*
X57325825Y-100325825D03*
X57875000Y-99000000D03*
%TD*%
D10*
%TO.N,GND*%
%TO.C,J4*%
X39500000Y-49000000D03*
D11*
X39500000Y-46460000D03*
%TO.N,+3V3*%
X42040000Y-49000000D03*
X42040000Y-46460000D03*
%TO.N,SD_CS*%
X44580000Y-49000000D03*
X44580000Y-46460000D03*
%TO.N,SPI_MOSI*%
X47120000Y-49000000D03*
X47120000Y-46460000D03*
%TO.N,SPI_SCK*%
X49660000Y-49000000D03*
X49660000Y-46460000D03*
%TO.N,SD_MISO*%
X52200000Y-49000000D03*
X52200000Y-46460000D03*
%TO.N,N/C*%
X54740000Y-49000000D03*
X54740000Y-46460000D03*
%TO.N,GND*%
X57280000Y-49000000D03*
X57280000Y-46460000D03*
%TD*%
D17*
%TO.N,VBAT*%
%TO.C,J2*%
X5000000Y-80000000D03*
D18*
%TO.N,GND*%
X5000000Y-78000000D03*
%TD*%
D15*
%TO.N,GND*%
%TO.C,H1*%
X2125000Y-99000000D03*
X2674175Y-97674175D03*
X2674175Y-100325825D03*
X4000000Y-97125000D03*
D16*
X4000000Y-99000000D03*
D15*
X4000000Y-100875000D03*
X5325825Y-97674175D03*
X5325825Y-100325825D03*
X5875000Y-99000000D03*
%TD*%
D19*
%TO.N,PREVGH*%
X25740700Y-68690200D03*
X46000000Y-67613900D03*
%TO.N,GND*%
X27897100Y-69957900D03*
X32750000Y-68906800D03*
X8618900Y-78472800D03*
%TO.N,+3V3*%
X15838600Y-54900400D03*
X28297700Y-64410500D03*
X19398000Y-23742900D03*
X17500000Y-23971600D03*
X12901400Y-26986700D03*
X35585000Y-62582900D03*
%TO.N,BTN_BACK*%
X42825000Y-35125600D03*
X40015300Y-22245300D03*
%TO.N,PREVGL*%
X24505700Y-68729500D03*
X52100000Y-56002000D03*
X47989800Y-64752700D03*
%TO.N,EPD_VCOM*%
X23588300Y-66198300D03*
X54105200Y-63055200D03*
%TO.N,EPD_GDR*%
X20279000Y-59979300D03*
X33200000Y-58723300D03*
%TO.N,EPD_RESE*%
X17319100Y-65151200D03*
X39500000Y-61015900D03*
X18998400Y-61124600D03*
%TO.N,USB_D+_MCU*%
X35128800Y-94050000D03*
X36673000Y-93826600D03*
%TO.N,USB_D+*%
X31001300Y-91175000D03*
X21792300Y-33773900D03*
%TO.N,BTN_UP*%
X50825000Y-36270200D03*
X36672900Y-25646100D03*
%TO.N,BTN_HOME*%
X40110500Y-33917300D03*
X46088200Y-37099600D03*
%TO.N,BTN_DOWN*%
X50825000Y-41010700D03*
X37476600Y-25546700D03*
%TO.N,EPD_BUSY*%
X31483700Y-62949000D03*
X22506600Y-19941500D03*
%TO.N,EPD_CS*%
X30890200Y-69320300D03*
X23121800Y-20739100D03*
%TO.N,EPD_DC*%
X19677300Y-64184600D03*
X19993700Y-24834600D03*
%TO.N,EPD_RST*%
X22505100Y-25696600D03*
X22686700Y-63407100D03*
%TO.N,SPI_MOSI*%
X23319200Y-26673800D03*
%TO.N,SPI_SCK*%
X29560500Y-64811500D03*
X26440900Y-29450900D03*
%TO.N,USB_D-*%
X35000000Y-90272100D03*
X24931300Y-30980000D03*
%TO.N,SD_CS*%
X30635000Y-34757200D03*
%TO.N,SD_MISO*%
X33175000Y-34770300D03*
%TO.N,BAT_ADC*%
X15225000Y-72006800D03*
X37476600Y-17841100D03*
%TO.N,USB_VBUS*%
X32400000Y-95427200D03*
X7050000Y-90769900D03*
X21825000Y-93007300D03*
X11843800Y-84582000D03*
X40408200Y-93235100D03*
%TO.N,EPD_VSH2*%
X34000000Y-65614900D03*
%TO.N,EPD_VDD*%
X38768000Y-63950000D03*
X27250000Y-65987100D03*
%TO.N,EPD_VSL*%
X48025300Y-63131200D03*
X26191100Y-65157200D03*
%TO.N,REG_L1*%
X25635100Y-84513800D03*
X26221100Y-81961000D03*
%TO.N,EPD_VSH1*%
X26250000Y-65974200D03*
X41770900Y-63647600D03*
%TD*%
%TO.N,PREVGH*%
D20*
X45325400Y-68288500D02*
X26142400Y-68288500D01*
X26142400Y-68288500D02*
X25740700Y-68690200D01*
X46000000Y-67613900D02*
X45325400Y-68288500D01*
%TO.N,GND*%
X41554400Y-47809400D02*
X56089400Y-47809400D01*
X4549200Y-100325800D02*
X4000000Y-100875000D01*
X19382200Y-78472800D02*
X8618900Y-78472800D01*
X25680000Y-101275000D02*
X25680000Y-100073300D01*
X25126700Y-99000000D02*
X25680000Y-98446700D01*
X27897100Y-69957900D02*
X19382200Y-78472800D01*
X4000000Y-100875000D02*
X3223400Y-100875000D01*
X27897100Y-69957900D02*
X29164800Y-68690200D01*
X29200000Y-22060000D02*
X28500000Y-22760000D01*
X29164800Y-68690200D02*
X32533400Y-68690200D01*
X56089400Y-47809400D02*
X57280000Y-49000000D01*
X4000000Y-97125000D02*
X3223400Y-97125000D01*
X56549200Y-97674200D02*
X56000000Y-97125000D01*
X3223400Y-100875000D02*
X2674200Y-100325800D01*
X5875000Y-99000000D02*
X25126700Y-99000000D01*
X29900000Y-24160000D02*
X29200000Y-23460000D01*
X34873300Y-99520000D02*
X34873300Y-99000000D01*
X3223400Y-97125000D02*
X2674200Y-97674200D01*
X27800000Y-24860000D02*
X27100000Y-24160000D01*
X27100000Y-24160000D02*
X27800000Y-23460000D01*
X34873300Y-99000000D02*
X34320000Y-98446700D01*
X56000000Y-97125000D02*
X55223400Y-97125000D01*
X57325800Y-100325800D02*
X56549200Y-100325800D01*
X40651700Y-48712100D02*
X41554400Y-47809400D01*
X4000000Y-99000000D02*
X2125000Y-99000000D01*
X5325800Y-97674200D02*
X4549200Y-97674200D01*
X29200000Y-24860000D02*
X28500000Y-24160000D01*
X57325800Y-97674200D02*
X56549200Y-97674200D01*
X56000000Y-100875000D02*
X55223400Y-100875000D01*
X8146100Y-78000000D02*
X8618900Y-78472800D01*
X4549200Y-97674200D02*
X4000000Y-97125000D01*
X25126700Y-99520000D02*
X25126700Y-99000000D01*
X27800000Y-23460000D02*
X27100000Y-22760000D01*
X32533400Y-68690200D02*
X32750000Y-68906800D01*
X40651700Y-49000000D02*
X40651700Y-48712100D01*
X56000000Y-99000000D02*
X54125000Y-99000000D01*
X25680000Y-97095000D02*
X25680000Y-98446700D01*
X39500000Y-49000000D02*
X40651700Y-49000000D01*
X25680000Y-100073300D02*
X34320000Y-100073300D01*
X57875000Y-99000000D02*
X56000000Y-99000000D01*
X28500000Y-22760000D02*
X27800000Y-22060000D01*
X54125000Y-99000000D02*
X34873300Y-99000000D01*
X5000000Y-78000000D02*
X8146100Y-78000000D01*
X34320000Y-100073300D02*
X34873300Y-99520000D01*
X28500000Y-22760000D02*
X27800000Y-23460000D01*
X29900000Y-22760000D02*
X29200000Y-22060000D01*
X34320000Y-97095000D02*
X34320000Y-98446700D01*
X55223400Y-97125000D02*
X54674200Y-97674200D01*
X34320000Y-101275000D02*
X34320000Y-100073300D01*
X55223400Y-100875000D02*
X54674200Y-100325800D01*
X5325800Y-100325800D02*
X4549200Y-100325800D01*
X5875000Y-99000000D02*
X4000000Y-99000000D01*
X29900000Y-24160000D02*
X29200000Y-24860000D01*
X56549200Y-100325800D02*
X56000000Y-100875000D01*
X25680000Y-100073300D02*
X25126700Y-99520000D01*
%TO.N,+3V3*%
X28297700Y-64410500D02*
X28297700Y-54900400D01*
X14484900Y-26986700D02*
X17500000Y-23971600D01*
X31151800Y-64095100D02*
X29833600Y-65413300D01*
X36139600Y-54900400D02*
X28297700Y-54900400D01*
X29300500Y-65413300D02*
X28297700Y-64410500D01*
X17728700Y-23742900D02*
X17500000Y-23971600D01*
X29833600Y-65413300D02*
X29300500Y-65413300D01*
X34072800Y-64095100D02*
X31151800Y-64095100D01*
X42040000Y-49000000D02*
X36139600Y-54900400D01*
X28297700Y-54900400D02*
X15838600Y-54900400D01*
X35585000Y-62582900D02*
X34072800Y-64095100D01*
X19398000Y-23742900D02*
X17728700Y-23742900D01*
X12901400Y-26986700D02*
X14484900Y-26986700D01*
%TO.N,PREVGL*%
X25385400Y-67849800D02*
X44892700Y-67849800D01*
X44892700Y-67849800D02*
X47989800Y-64752700D01*
X24505700Y-68729500D02*
X25385400Y-67849800D01*
%TO.N,EPD_VCOM*%
X53421100Y-63739300D02*
X54105200Y-63055200D01*
X44794000Y-67020100D02*
X48074800Y-63739300D01*
X24410100Y-67020100D02*
X44794000Y-67020100D01*
X48074800Y-63739300D02*
X53421100Y-63739300D01*
X23588300Y-66198300D02*
X24410100Y-67020100D01*
%TO.N,USB_D+_MCU*%
X35128800Y-94050000D02*
X35352200Y-93826600D01*
X35352200Y-93826600D02*
X36673000Y-93826600D01*
%TO.N,BTN_UP*%
X53015200Y-34080000D02*
X50825000Y-36270200D01*
X50825000Y-36270200D02*
X39453800Y-24899000D01*
X37273400Y-24899000D02*
X36672900Y-25499500D01*
X39453800Y-24899000D02*
X37273400Y-24899000D01*
X56000000Y-34080000D02*
X53015200Y-34080000D01*
X36672900Y-25499500D02*
X36672900Y-25646100D01*
%TO.N,BTN_HOME*%
X46088200Y-37099600D02*
X42905900Y-33917300D01*
X42905900Y-33917300D02*
X40110500Y-33917300D01*
%TO.N,BTN_DOWN*%
X37476600Y-25546700D02*
X51089900Y-39160000D01*
X51089900Y-39160000D02*
X56000000Y-39160000D01*
X51089900Y-40745800D02*
X50825000Y-41010700D01*
X51089900Y-39160000D02*
X51089900Y-40745800D01*
%TO.N,SPI_SCK*%
X32601300Y-35611300D02*
X38811300Y-35611300D01*
X31694200Y-63627200D02*
X30744800Y-63627200D01*
X43328300Y-55331700D02*
X39989700Y-55331700D01*
X26440900Y-29450900D02*
X32601300Y-35611300D01*
X49660000Y-49000000D02*
X43328300Y-55331700D01*
X30744800Y-63627200D02*
X29560500Y-64811500D01*
X39989700Y-55331700D02*
X31694200Y-63627200D01*
X38811300Y-35611300D02*
X49660000Y-46460000D01*
%TO.N,SD_CS*%
X44580000Y-46460000D02*
X34700000Y-36580000D01*
X34700000Y-36580000D02*
X32457800Y-36580000D01*
X32457800Y-36580000D02*
X30635000Y-34757200D01*
%TO.N,SD_MISO*%
X33175000Y-34770300D02*
X40510300Y-34770300D01*
X40510300Y-34770300D02*
X52200000Y-46460000D01*
%TO.N,BAT_ADC*%
X37476600Y-17841100D02*
X37199900Y-17841100D01*
X22065000Y-32976000D02*
X21700900Y-32976000D01*
X15225000Y-39451900D02*
X15225000Y-72006800D01*
X21700900Y-32976000D02*
X15225000Y-39451900D01*
X37199900Y-17841100D02*
X22065000Y-32976000D01*
%TO.N,USB_VBUS*%
X7050000Y-89375800D02*
X11843800Y-84582000D01*
X40408200Y-93235100D02*
X40398000Y-93224900D01*
X32400000Y-93235100D02*
X32400000Y-95427200D01*
X32172200Y-93007300D02*
X32400000Y-93235100D01*
X21825000Y-93007300D02*
X32172200Y-93007300D01*
X19587600Y-90769900D02*
X21825000Y-93007300D01*
X7050000Y-90769900D02*
X19587600Y-90769900D01*
X32410200Y-93224900D02*
X32400000Y-93235100D01*
X7050000Y-90769900D02*
X7050000Y-89375800D01*
X40398000Y-93224900D02*
X32410200Y-93224900D01*
%TO.N,EPD_VDD*%
X27479600Y-66216700D02*
X27250000Y-65987100D01*
X36501300Y-66216700D02*
X27479600Y-66216700D01*
X38768000Y-63950000D02*
X36501300Y-66216700D01*
%TO.N,EPD_VSL*%
X26191100Y-65157200D02*
X27825000Y-65157200D01*
X34522100Y-64496800D02*
X35973000Y-63045900D01*
X35973000Y-63045900D02*
X47940000Y-63045900D01*
X28482800Y-65815000D02*
X30074400Y-65815000D01*
X47940000Y-63045900D02*
X48025300Y-63131200D01*
X30074400Y-65815000D02*
X31392600Y-64496800D01*
X31392600Y-64496800D02*
X34522100Y-64496800D01*
X27825000Y-65157200D02*
X28482800Y-65815000D01*
%TO.N,REG_L1*%
X25635100Y-82547000D02*
X25635100Y-84513800D01*
X26221100Y-81961000D02*
X25635100Y-82547000D01*
%TO.N,EPD_VSH1*%
X26894200Y-66618400D02*
X38800100Y-66618400D01*
X26250000Y-65974200D02*
X26894200Y-66618400D01*
X38800100Y-66618400D02*
X41770900Y-63647600D01*
%TD*%
%TA.AperFunction,Conductor*%
%TO.N,GND*%
G36*
X5943039Y-1520185D02*
G01*
X5988794Y-1572989D01*
X6000000Y-1624500D01*
X6000000Y-14250000D01*
X18876000Y-14250000D01*
X18943039Y-14269685D01*
X18988794Y-14322489D01*
X19000000Y-14374000D01*
X19000000Y-14500000D01*
X41000000Y-14500000D01*
X41000000Y-14374000D01*
X41019685Y-14306961D01*
X41072489Y-14261206D01*
X41124000Y-14250000D01*
X54000000Y-14250000D01*
X54000000Y-1624500D01*
X54019685Y-1557461D01*
X54072489Y-1511706D01*
X54124000Y-1500500D01*
X58375500Y-1500500D01*
X58442539Y-1520185D01*
X58488294Y-1572989D01*
X58499500Y-1624500D01*
X58499500Y-45572342D01*
X58479815Y-45639381D01*
X58427011Y-45685136D01*
X58404423Y-45689128D01*
X57762962Y-46330590D01*
X57745925Y-46267007D01*
X57680099Y-46152993D01*
X57587007Y-46059901D01*
X57472993Y-45994075D01*
X57409409Y-45977037D01*
X58041716Y-45344728D01*
X57987550Y-45305375D01*
X57798217Y-45208904D01*
X57596129Y-45143242D01*
X57386246Y-45110000D01*
X57173754Y-45110000D01*
X56963872Y-45143242D01*
X56963869Y-45143242D01*
X56761782Y-45208904D01*
X56572439Y-45305380D01*
X56518282Y-45344727D01*
X56518282Y-45344728D01*
X57150591Y-45977037D01*
X57087007Y-45994075D01*
X56972993Y-46059901D01*
X56879901Y-46152993D01*
X56814075Y-46267007D01*
X56797037Y-46330591D01*
X56164728Y-45698282D01*
X56164727Y-45698282D01*
X56125380Y-45752439D01*
X56028904Y-45941783D01*
X55996760Y-46040712D01*
X55957322Y-46098388D01*
X55892964Y-46125586D01*
X55824117Y-46113671D01*
X55772642Y-46066427D01*
X55760898Y-46040711D01*
X55759873Y-46037555D01*
X55681232Y-45883212D01*
X55579414Y-45743072D01*
X55456928Y-45620586D01*
X55316788Y-45518768D01*
X55162445Y-45440127D01*
X54997701Y-45386598D01*
X54997699Y-45386597D01*
X54997698Y-45386597D01*
X54866271Y-45365781D01*
X54826611Y-45359500D01*
X54653389Y-45359500D01*
X54613728Y-45365781D01*
X54482302Y-45386597D01*
X54317552Y-45440128D01*
X54163211Y-45518768D01*
X54089474Y-45572342D01*
X54023072Y-45620586D01*
X54023070Y-45620588D01*
X54023069Y-45620588D01*
X53900588Y-45743069D01*
X53900588Y-45743070D01*
X53900586Y-45743072D01*
X53856859Y-45803256D01*
X53798768Y-45883211D01*
X53720128Y-46037552D01*
X53666597Y-46202302D01*
X53656349Y-46267007D01*
X53639500Y-46373389D01*
X53639500Y-46546611D01*
X53666598Y-46717701D01*
X53720127Y-46882445D01*
X53798768Y-47036788D01*
X53900586Y-47176928D01*
X54023072Y-47299414D01*
X54163212Y-47401232D01*
X54317555Y-47479873D01*
X54482299Y-47533402D01*
X54653389Y-47560500D01*
X54653390Y-47560500D01*
X54826610Y-47560500D01*
X54826611Y-47560500D01*
X54997701Y-47533402D01*
X55162445Y-47479873D01*
X55316788Y-47401232D01*
X55456928Y-47299414D01*
X55579414Y-47176928D01*
X55681232Y-47036788D01*
X55759873Y-46882445D01*
X55760896Y-46879294D01*
X55761610Y-46878250D01*
X55761734Y-46877952D01*
X55761796Y-46877977D01*
X55800327Y-46821618D01*
X55864683Y-46794415D01*
X55933530Y-46806323D01*
X55985011Y-46853562D01*
X55996760Y-46879287D01*
X56028904Y-46978217D01*
X56125375Y-47167550D01*
X56164728Y-47221716D01*
X56797037Y-46589408D01*
X56814075Y-46652993D01*
X56879901Y-46767007D01*
X56972993Y-46860099D01*
X57087007Y-46925925D01*
X57150591Y-46942962D01*
X56549971Y-47543581D01*
X56628711Y-47660895D01*
X56629920Y-47664729D01*
X56632844Y-47667491D01*
X56640343Y-47697778D01*
X56649727Y-47727529D01*
X56648671Y-47731408D01*
X56649638Y-47735312D01*
X56639573Y-47764844D01*
X56631383Y-47794947D01*
X56628397Y-47797640D01*
X56627100Y-47801447D01*
X56582051Y-47840483D01*
X56572440Y-47845380D01*
X56518282Y-47884727D01*
X56518282Y-47884728D01*
X57150591Y-48517037D01*
X57087007Y-48534075D01*
X56972993Y-48599901D01*
X56879901Y-48692993D01*
X56814075Y-48807007D01*
X56797037Y-48870591D01*
X56164728Y-48238282D01*
X56164727Y-48238282D01*
X56125380Y-48292439D01*
X56028904Y-48481783D01*
X55996760Y-48580712D01*
X55957322Y-48638388D01*
X55892964Y-48665586D01*
X55824117Y-48653671D01*
X55772642Y-48606427D01*
X55760898Y-48580712D01*
X55759873Y-48577555D01*
X55681232Y-48423212D01*
X55579414Y-48283072D01*
X55456928Y-48160586D01*
X55316788Y-48058768D01*
X55162445Y-47980127D01*
X54997701Y-47926598D01*
X54997699Y-47926597D01*
X54997698Y-47926597D01*
X54866271Y-47905781D01*
X54826611Y-47899500D01*
X54653389Y-47899500D01*
X54613728Y-47905781D01*
X54482302Y-47926597D01*
X54317552Y-47980128D01*
X54163211Y-48058768D01*
X54089474Y-48112342D01*
X54023072Y-48160586D01*
X54023070Y-48160588D01*
X54023069Y-48160588D01*
X53900588Y-48283069D01*
X53900588Y-48283070D01*
X53900586Y-48283072D01*
X53856859Y-48343256D01*
X53798768Y-48423211D01*
X53720128Y-48577552D01*
X53666597Y-48742302D01*
X53639500Y-48913389D01*
X53639500Y-49086610D01*
X53666597Y-49257697D01*
X53666597Y-49257699D01*
X53666598Y-49257701D01*
X53720127Y-49422445D01*
X53798768Y-49576788D01*
X53900586Y-49716928D01*
X54023072Y-49839414D01*
X54163212Y-49941232D01*
X54317555Y-50019873D01*
X54482299Y-50073402D01*
X54653389Y-50100500D01*
X54653390Y-50100500D01*
X54826610Y-50100500D01*
X54826611Y-50100500D01*
X54997701Y-50073402D01*
X55162445Y-50019873D01*
X55316788Y-49941232D01*
X55456928Y-49839414D01*
X55579414Y-49716928D01*
X55681232Y-49576788D01*
X55759873Y-49422445D01*
X55760896Y-49419294D01*
X55761610Y-49418250D01*
X55761734Y-49417952D01*
X55761796Y-49417977D01*
X55800327Y-49361618D01*
X55864683Y-49334415D01*
X55933530Y-49346323D01*
X55985011Y-49393562D01*
X55996760Y-49419287D01*
X56028904Y-49518217D01*
X56125375Y-49707550D01*
X56164728Y-49761716D01*
X56797037Y-49129408D01*
X56814075Y-49192993D01*
X56879901Y-49307007D01*
X56972993Y-49400099D01*
X57087007Y-49465925D01*
X57150590Y-49482962D01*
X56518282Y-50115269D01*
X56518282Y-50115270D01*
X56572449Y-50154624D01*
X56761782Y-50251095D01*
X56963870Y-50316757D01*
X57173754Y-50350000D01*
X57386246Y-50350000D01*
X57596127Y-50316757D01*
X57596130Y-50316757D01*
X57798217Y-50251095D01*
X57987554Y-50154622D01*
X58041716Y-50115270D01*
X58041717Y-50115270D01*
X57409408Y-49482962D01*
X57472993Y-49465925D01*
X57587007Y-49400099D01*
X57680099Y-49307007D01*
X57745925Y-49192993D01*
X57762962Y-49129408D01*
X58406052Y-49772499D01*
X58434146Y-49778401D01*
X58483904Y-49827451D01*
X58499500Y-49887656D01*
X58499500Y-102375500D01*
X58479815Y-102442539D01*
X58427011Y-102488294D01*
X58375500Y-102499500D01*
X35203765Y-102499500D01*
X35136726Y-102479815D01*
X35090971Y-102427011D01*
X35081027Y-102357853D01*
X35100663Y-102306609D01*
X35206185Y-102148684D01*
X35206192Y-102148671D01*
X35281569Y-101966693D01*
X35281572Y-101966681D01*
X35319999Y-101773495D01*
X35320000Y-101773492D01*
X35320000Y-101525000D01*
X34620000Y-101525000D01*
X34620000Y-101025000D01*
X35320000Y-101025000D01*
X35320000Y-100776508D01*
X35319999Y-100776504D01*
X35281572Y-100583318D01*
X35281569Y-100583306D01*
X35206192Y-100401328D01*
X35206185Y-100401315D01*
X35096751Y-100237537D01*
X35096748Y-100237533D01*
X34957466Y-100098251D01*
X34957462Y-100098248D01*
X34793684Y-99988814D01*
X34793671Y-99988807D01*
X34611691Y-99913429D01*
X34611683Y-99913427D01*
X34570000Y-99905135D01*
X34570000Y-100708011D01*
X34560060Y-100690795D01*
X34504205Y-100634940D01*
X34435796Y-100595444D01*
X34359496Y-100575000D01*
X34280504Y-100575000D01*
X34204204Y-100595444D01*
X34135795Y-100634940D01*
X34079940Y-100690795D01*
X34070000Y-100708011D01*
X34070000Y-99905136D01*
X34069999Y-99905135D01*
X34028316Y-99913427D01*
X34028308Y-99913429D01*
X33846328Y-99988807D01*
X33846315Y-99988814D01*
X33682537Y-100098248D01*
X33682533Y-100098251D01*
X33543251Y-100237533D01*
X33543248Y-100237537D01*
X33433814Y-100401315D01*
X33433807Y-100401328D01*
X33358430Y-100583306D01*
X33358427Y-100583318D01*
X33320000Y-100776504D01*
X33320000Y-101025000D01*
X34020000Y-101025000D01*
X34020000Y-101525000D01*
X33320000Y-101525000D01*
X33320000Y-101773495D01*
X33358427Y-101966681D01*
X33358430Y-101966693D01*
X33433807Y-102148671D01*
X33433814Y-102148684D01*
X33539337Y-102306609D01*
X33560215Y-102373286D01*
X33541731Y-102440667D01*
X33489752Y-102487357D01*
X33436235Y-102499500D01*
X26563765Y-102499500D01*
X26496726Y-102479815D01*
X26450971Y-102427011D01*
X26441027Y-102357853D01*
X26460663Y-102306609D01*
X26566185Y-102148684D01*
X26566192Y-102148671D01*
X26641569Y-101966693D01*
X26641572Y-101966681D01*
X26679999Y-101773495D01*
X26680000Y-101773492D01*
X26680000Y-101525000D01*
X25980000Y-101525000D01*
X25980000Y-101025000D01*
X26680000Y-101025000D01*
X26680000Y-100776508D01*
X26679999Y-100776504D01*
X26641572Y-100583318D01*
X26641569Y-100583306D01*
X26566192Y-100401328D01*
X26566185Y-100401315D01*
X26456751Y-100237537D01*
X26456748Y-100237533D01*
X26317466Y-100098251D01*
X26317462Y-100098248D01*
X26153684Y-99988814D01*
X26153671Y-99988807D01*
X25971691Y-99913429D01*
X25971683Y-99913427D01*
X25930000Y-99905135D01*
X25930000Y-100708011D01*
X25920060Y-100690795D01*
X25864205Y-100634940D01*
X25795796Y-100595444D01*
X25719496Y-100575000D01*
X25640504Y-100575000D01*
X25564204Y-100595444D01*
X25495795Y-100634940D01*
X25439940Y-100690795D01*
X25430000Y-100708011D01*
X25430000Y-99905136D01*
X25429999Y-99905135D01*
X25388316Y-99913427D01*
X25388308Y-99913429D01*
X25206328Y-99988807D01*
X25206315Y-99988814D01*
X25042537Y-100098248D01*
X25042533Y-100098251D01*
X24903251Y-100237533D01*
X24903248Y-100237537D01*
X24793814Y-100401315D01*
X24793807Y-100401328D01*
X24718430Y-100583306D01*
X24718427Y-100583318D01*
X24680000Y-100776504D01*
X24680000Y-101025000D01*
X25380000Y-101025000D01*
X25380000Y-101525000D01*
X24680000Y-101525000D01*
X24680000Y-101773495D01*
X24718427Y-101966681D01*
X24718430Y-101966693D01*
X24793807Y-102148671D01*
X24793814Y-102148684D01*
X24899337Y-102306609D01*
X24920215Y-102373286D01*
X24901731Y-102440667D01*
X24849752Y-102487357D01*
X24796235Y-102499500D01*
X1624500Y-102499500D01*
X1557461Y-102479815D01*
X1511706Y-102427011D01*
X1500500Y-102375500D01*
X1500500Y-96446504D01*
X24680000Y-96446504D01*
X24680000Y-96845000D01*
X25380000Y-96845000D01*
X25380000Y-97345000D01*
X24680000Y-97345000D01*
X24680000Y-97743495D01*
X24718427Y-97936681D01*
X24718430Y-97936693D01*
X24793807Y-98118671D01*
X24793814Y-98118684D01*
X24903248Y-98282462D01*
X24903251Y-98282466D01*
X25042533Y-98421748D01*
X25042537Y-98421751D01*
X25206315Y-98531185D01*
X25206328Y-98531192D01*
X25388308Y-98606569D01*
X25430000Y-98614862D01*
X25430000Y-97811988D01*
X25439940Y-97829205D01*
X25495795Y-97885060D01*
X25564204Y-97924556D01*
X25640504Y-97945000D01*
X25719496Y-97945000D01*
X25795796Y-97924556D01*
X25864205Y-97885060D01*
X25920060Y-97829205D01*
X25930000Y-97811988D01*
X25930000Y-98614862D01*
X25971690Y-98606569D01*
X25971692Y-98606569D01*
X26153671Y-98531192D01*
X26153684Y-98531185D01*
X26317462Y-98421751D01*
X26317466Y-98421748D01*
X26456748Y-98282466D01*
X26456751Y-98282462D01*
X26566185Y-98118684D01*
X26566186Y-98118682D01*
X26570129Y-98109163D01*
X26613968Y-98054757D01*
X26680261Y-98032689D01*
X26747961Y-98049965D01*
X26753400Y-98053647D01*
X26756634Y-98055514D01*
X26756635Y-98055515D01*
X26887865Y-98131281D01*
X27034234Y-98170500D01*
X27034236Y-98170500D01*
X27185764Y-98170500D01*
X27185766Y-98170500D01*
X27332135Y-98131281D01*
X27463365Y-98055515D01*
X27570515Y-97948365D01*
X27646281Y-97817135D01*
X27685500Y-97670766D01*
X27685500Y-97519234D01*
X32314500Y-97519234D01*
X32314500Y-97670765D01*
X32353719Y-97817136D01*
X32391602Y-97882750D01*
X32429485Y-97948365D01*
X32536635Y-98055515D01*
X32667865Y-98131281D01*
X32814234Y-98170500D01*
X32814236Y-98170500D01*
X32965764Y-98170500D01*
X32965766Y-98170500D01*
X33112135Y-98131281D01*
X33243365Y-98055515D01*
X33243366Y-98055513D01*
X33250403Y-98051451D01*
X33251676Y-98053656D01*
X33304956Y-98033043D01*
X33373405Y-98047063D01*
X33423407Y-98095864D01*
X33429867Y-98109157D01*
X33433809Y-98118674D01*
X33433814Y-98118684D01*
X33543248Y-98282462D01*
X33543251Y-98282466D01*
X33682533Y-98421748D01*
X33682537Y-98421751D01*
X33846315Y-98531185D01*
X33846328Y-98531192D01*
X34028308Y-98606569D01*
X34070000Y-98614862D01*
X34070000Y-97811988D01*
X34079940Y-97829205D01*
X34135795Y-97885060D01*
X34204204Y-97924556D01*
X34280504Y-97945000D01*
X34359496Y-97945000D01*
X34435796Y-97924556D01*
X34504205Y-97885060D01*
X34560060Y-97829205D01*
X34570000Y-97811988D01*
X34570000Y-98614862D01*
X34611690Y-98606569D01*
X34611692Y-98606569D01*
X34793671Y-98531192D01*
X34793684Y-98531185D01*
X34957462Y-98421751D01*
X34957466Y-98421748D01*
X35096748Y-98282466D01*
X35096751Y-98282462D01*
X35206185Y-98118684D01*
X35206192Y-98118671D01*
X35281569Y-97936693D01*
X35281572Y-97936681D01*
X35319999Y-97743495D01*
X35320000Y-97743492D01*
X35320000Y-97345000D01*
X34620000Y-97345000D01*
X34620000Y-96845000D01*
X35320000Y-96845000D01*
X35320000Y-96446508D01*
X35319999Y-96446504D01*
X35281572Y-96253318D01*
X35281569Y-96253306D01*
X35206192Y-96071328D01*
X35206185Y-96071315D01*
X35096751Y-95907537D01*
X35096748Y-95907533D01*
X34957466Y-95768251D01*
X34957462Y-95768248D01*
X34793684Y-95658814D01*
X34793671Y-95658807D01*
X34611691Y-95583429D01*
X34611683Y-95583427D01*
X34570000Y-95575135D01*
X34570000Y-96378011D01*
X34560060Y-96360795D01*
X34504205Y-96304940D01*
X34435796Y-96265444D01*
X34359496Y-96245000D01*
X34280504Y-96245000D01*
X34204204Y-96265444D01*
X34135795Y-96304940D01*
X34079940Y-96360795D01*
X34070000Y-96378011D01*
X34070000Y-95575136D01*
X34069999Y-95575135D01*
X34028316Y-95583427D01*
X34028308Y-95583429D01*
X33846328Y-95658807D01*
X33846315Y-95658814D01*
X33682537Y-95768248D01*
X33682533Y-95768251D01*
X33543251Y-95907533D01*
X33543248Y-95907537D01*
X33433814Y-96071315D01*
X33433807Y-96071328D01*
X33358430Y-96253306D01*
X33358427Y-96253318D01*
X33320000Y-96446504D01*
X33320000Y-96845000D01*
X34020000Y-96845000D01*
X34020000Y-97345000D01*
X33481784Y-97345000D01*
X33414745Y-97325315D01*
X33374397Y-97283000D01*
X33350515Y-97241635D01*
X33243365Y-97134485D01*
X33177750Y-97096602D01*
X33112136Y-97058719D01*
X33038950Y-97039109D01*
X32965766Y-97019500D01*
X32814234Y-97019500D01*
X32667863Y-97058719D01*
X32536635Y-97134485D01*
X32536632Y-97134487D01*
X32429487Y-97241632D01*
X32429485Y-97241635D01*
X32353719Y-97372863D01*
X32314500Y-97519234D01*
X27685500Y-97519234D01*
X27646281Y-97372865D01*
X27570515Y-97241635D01*
X27463365Y-97134485D01*
X27397750Y-97096602D01*
X27332136Y-97058719D01*
X27258950Y-97039109D01*
X27185766Y-97019500D01*
X27034234Y-97019500D01*
X26887863Y-97058719D01*
X26756635Y-97134485D01*
X26756632Y-97134487D01*
X26649487Y-97241632D01*
X26649483Y-97241638D01*
X26625603Y-97283000D01*
X26575036Y-97331216D01*
X26518216Y-97345000D01*
X25980000Y-97345000D01*
X25980000Y-96845000D01*
X26680000Y-96845000D01*
X26680000Y-96446508D01*
X26679999Y-96446504D01*
X26641572Y-96253318D01*
X26641569Y-96253306D01*
X26566192Y-96071328D01*
X26566185Y-96071315D01*
X26456751Y-95907537D01*
X26456748Y-95907533D01*
X26317466Y-95768251D01*
X26317462Y-95768248D01*
X26153684Y-95658814D01*
X26153671Y-95658807D01*
X25971691Y-95583429D01*
X25971683Y-95583427D01*
X25930000Y-95575135D01*
X25930000Y-96378011D01*
X25920060Y-96360795D01*
X25864205Y-96304940D01*
X25795796Y-96265444D01*
X25719496Y-96245000D01*
X25640504Y-96245000D01*
X25564204Y-96265444D01*
X25495795Y-96304940D01*
X25439940Y-96360795D01*
X25430000Y-96378011D01*
X25430000Y-95575136D01*
X25429999Y-95575135D01*
X25388316Y-95583427D01*
X25388308Y-95583429D01*
X25206328Y-95658807D01*
X25206315Y-95658814D01*
X25042537Y-95768248D01*
X25042533Y-95768251D01*
X24903251Y-95907533D01*
X24903248Y-95907537D01*
X24793814Y-96071315D01*
X24793807Y-96071328D01*
X24718430Y-96253306D01*
X24718427Y-96253318D01*
X24680000Y-96446504D01*
X1500500Y-96446504D01*
X1500500Y-90697425D01*
X6499500Y-90697425D01*
X6499500Y-90842375D01*
X6531691Y-90962511D01*
X6537017Y-90982388D01*
X6609488Y-91107911D01*
X6609490Y-91107913D01*
X6609491Y-91107915D01*
X6711985Y-91210409D01*
X6711986Y-91210410D01*
X6711988Y-91210411D01*
X6837511Y-91282882D01*
X6837512Y-91282882D01*
X6837515Y-91282884D01*
X6977525Y-91320400D01*
X6977528Y-91320400D01*
X7122472Y-91320400D01*
X7122475Y-91320400D01*
X7262485Y-91282884D01*
X7388015Y-91210409D01*
X7441705Y-91156719D01*
X7503028Y-91123234D01*
X7529386Y-91120400D01*
X19391056Y-91120400D01*
X19458095Y-91140085D01*
X19478737Y-91156719D01*
X21238181Y-92916162D01*
X21271666Y-92977485D01*
X21274500Y-93003843D01*
X21274500Y-93079775D01*
X21312016Y-93219785D01*
X21312017Y-93219788D01*
X21384488Y-93345311D01*
X21384490Y-93345313D01*
X21384491Y-93345315D01*
X21486985Y-93447809D01*
X21486986Y-93447810D01*
X21486988Y-93447811D01*
X21612511Y-93520282D01*
X21612512Y-93520282D01*
X21612515Y-93520284D01*
X21752525Y-93557800D01*
X21752528Y-93557800D01*
X21897472Y-93557800D01*
X21897475Y-93557800D01*
X22037485Y-93520284D01*
X22163015Y-93447809D01*
X22216705Y-93394119D01*
X22278028Y-93360634D01*
X22304386Y-93357800D01*
X31925500Y-93357800D01*
X31992539Y-93377485D01*
X32038294Y-93430289D01*
X32049500Y-93481800D01*
X32049500Y-94947814D01*
X32029815Y-95014853D01*
X32013181Y-95035495D01*
X31959493Y-95089182D01*
X31959488Y-95089188D01*
X31887017Y-95214711D01*
X31887016Y-95214715D01*
X31849500Y-95354725D01*
X31849500Y-95499675D01*
X31887016Y-95639685D01*
X31887017Y-95639688D01*
X31959488Y-95765211D01*
X31959490Y-95765213D01*
X31959491Y-95765215D01*
X32061985Y-95867709D01*
X32061986Y-95867710D01*
X32061988Y-95867711D01*
X32187511Y-95940182D01*
X32187512Y-95940182D01*
X32187515Y-95940184D01*
X32327525Y-95977700D01*
X32327528Y-95977700D01*
X32472472Y-95977700D01*
X32472475Y-95977700D01*
X32612485Y-95940184D01*
X32738015Y-95867709D01*
X32840509Y-95765215D01*
X32912984Y-95639685D01*
X32950500Y-95499675D01*
X32950500Y-95354725D01*
X32912984Y-95214715D01*
X32840509Y-95089185D01*
X32786819Y-95035495D01*
X32753334Y-94974172D01*
X32750500Y-94947814D01*
X32750500Y-93699400D01*
X32770185Y-93632361D01*
X32822989Y-93586606D01*
X32874500Y-93575400D01*
X34552374Y-93575400D01*
X34619413Y-93595085D01*
X34665168Y-93647889D01*
X34675112Y-93717047D01*
X34659761Y-93761399D01*
X34615816Y-93837515D01*
X34578300Y-93977525D01*
X34578300Y-94122475D01*
X34615816Y-94262485D01*
X34615817Y-94262488D01*
X34688288Y-94388011D01*
X34688290Y-94388013D01*
X34688291Y-94388015D01*
X34790785Y-94490509D01*
X34790786Y-94490510D01*
X34790788Y-94490511D01*
X34916311Y-94562982D01*
X34916312Y-94562982D01*
X34916315Y-94562984D01*
X35056325Y-94600500D01*
X35056328Y-94600500D01*
X35201272Y-94600500D01*
X35201275Y-94600500D01*
X35341285Y-94562984D01*
X35466815Y-94490509D01*
X35569309Y-94388015D01*
X35641784Y-94262485D01*
X35641785Y-94262479D01*
X35644892Y-94254981D01*
X35647842Y-94256202D01*
X35676394Y-94209352D01*
X35739239Y-94178818D01*
X35759811Y-94177100D01*
X36193614Y-94177100D01*
X36260653Y-94196785D01*
X36281295Y-94213419D01*
X36334985Y-94267109D01*
X36334986Y-94267110D01*
X36334988Y-94267111D01*
X36460511Y-94339582D01*
X36460512Y-94339582D01*
X36460515Y-94339584D01*
X36600525Y-94377100D01*
X36600528Y-94377100D01*
X36745472Y-94377100D01*
X36745475Y-94377100D01*
X36885485Y-94339584D01*
X37011015Y-94267109D01*
X37113509Y-94164615D01*
X37185984Y-94039085D01*
X37223500Y-93899075D01*
X37223500Y-93754125D01*
X37217436Y-93731494D01*
X37219098Y-93661645D01*
X37258259Y-93603782D01*
X37322487Y-93576277D01*
X37337210Y-93575400D01*
X39918614Y-93575400D01*
X39985653Y-93595085D01*
X40006295Y-93611719D01*
X40070185Y-93675609D01*
X40070186Y-93675610D01*
X40070188Y-93675611D01*
X40195711Y-93748082D01*
X40195712Y-93748082D01*
X40195715Y-93748084D01*
X40335725Y-93785600D01*
X40335728Y-93785600D01*
X40480672Y-93785600D01*
X40480675Y-93785600D01*
X40620685Y-93748084D01*
X40746215Y-93675609D01*
X40848709Y-93573115D01*
X40921184Y-93447585D01*
X40958700Y-93307575D01*
X40958700Y-93162625D01*
X40921184Y-93022615D01*
X40848709Y-92897085D01*
X40746215Y-92794591D01*
X40746213Y-92794590D01*
X40746211Y-92794588D01*
X40620688Y-92722117D01*
X40620689Y-92722117D01*
X40609206Y-92719040D01*
X40480675Y-92684600D01*
X40335725Y-92684600D01*
X40207193Y-92719040D01*
X40195711Y-92722117D01*
X40070188Y-92794588D01*
X40070182Y-92794593D01*
X40026695Y-92838081D01*
X39965372Y-92871566D01*
X39939014Y-92874400D01*
X32586344Y-92874400D01*
X32519305Y-92854715D01*
X32498663Y-92838081D01*
X32387413Y-92726831D01*
X32387408Y-92726827D01*
X32307490Y-92680687D01*
X32307489Y-92680686D01*
X32307488Y-92680686D01*
X32218344Y-92656800D01*
X32218343Y-92656800D01*
X22304386Y-92656800D01*
X22237347Y-92637115D01*
X22216705Y-92620481D01*
X22163017Y-92566793D01*
X22163011Y-92566788D01*
X22037488Y-92494317D01*
X22037489Y-92494317D01*
X22026006Y-92491240D01*
X21897475Y-92456800D01*
X21897472Y-92456800D01*
X21821543Y-92456800D01*
X21754504Y-92437115D01*
X21733862Y-92420481D01*
X20495461Y-91182079D01*
X20415907Y-91102525D01*
X30450800Y-91102525D01*
X30450800Y-91247475D01*
X30488316Y-91387485D01*
X30488317Y-91387488D01*
X30560788Y-91513011D01*
X30560790Y-91513013D01*
X30560791Y-91513015D01*
X30663285Y-91615509D01*
X30663286Y-91615510D01*
X30663288Y-91615511D01*
X30788811Y-91687982D01*
X30788812Y-91687982D01*
X30788815Y-91687984D01*
X30928825Y-91725500D01*
X30928828Y-91725500D01*
X31073772Y-91725500D01*
X31073775Y-91725500D01*
X31213785Y-91687984D01*
X31339315Y-91615509D01*
X31441809Y-91513015D01*
X31514284Y-91387485D01*
X31551800Y-91247475D01*
X31551800Y-91102525D01*
X31514284Y-90962515D01*
X31441809Y-90836985D01*
X31339315Y-90734491D01*
X31339313Y-90734490D01*
X31339311Y-90734488D01*
X31213788Y-90662017D01*
X31213789Y-90662017D01*
X31202306Y-90658940D01*
X31073775Y-90624500D01*
X30928825Y-90624500D01*
X30800293Y-90658940D01*
X30788811Y-90662017D01*
X30663288Y-90734488D01*
X30663282Y-90734493D01*
X30560793Y-90836982D01*
X30560788Y-90836988D01*
X30488317Y-90962511D01*
X30488316Y-90962515D01*
X30450800Y-91102525D01*
X20415907Y-91102525D01*
X19802813Y-90489431D01*
X19802808Y-90489427D01*
X19722890Y-90443287D01*
X19722889Y-90443286D01*
X19722888Y-90443286D01*
X19633744Y-90419400D01*
X19633743Y-90419400D01*
X7529386Y-90419400D01*
X7499945Y-90410755D01*
X7469959Y-90404232D01*
X7464943Y-90400477D01*
X7462347Y-90399715D01*
X7441705Y-90383081D01*
X7436819Y-90378195D01*
X7403334Y-90316872D01*
X7400500Y-90290514D01*
X7400500Y-90199625D01*
X34449500Y-90199625D01*
X34449500Y-90344575D01*
X34472895Y-90431885D01*
X34487017Y-90484588D01*
X34559488Y-90610111D01*
X34559490Y-90610113D01*
X34559491Y-90610115D01*
X34661985Y-90712609D01*
X34661986Y-90712610D01*
X34661988Y-90712611D01*
X34787511Y-90785082D01*
X34787512Y-90785082D01*
X34787515Y-90785084D01*
X34927525Y-90822600D01*
X34927528Y-90822600D01*
X35072472Y-90822600D01*
X35072475Y-90822600D01*
X35212485Y-90785084D01*
X35338015Y-90712609D01*
X35440509Y-90610115D01*
X35512984Y-90484585D01*
X35550500Y-90344575D01*
X35550500Y-90199625D01*
X35512984Y-90059615D01*
X35440509Y-89934085D01*
X35338015Y-89831591D01*
X35338013Y-89831590D01*
X35338011Y-89831588D01*
X35212488Y-89759117D01*
X35212489Y-89759117D01*
X35201006Y-89756040D01*
X35072475Y-89721600D01*
X34927525Y-89721600D01*
X34798993Y-89756040D01*
X34787511Y-89759117D01*
X34661988Y-89831588D01*
X34661982Y-89831593D01*
X34559493Y-89934082D01*
X34559488Y-89934088D01*
X34487017Y-90059611D01*
X34487016Y-90059615D01*
X34449500Y-90199625D01*
X7400500Y-90199625D01*
X7400500Y-89572344D01*
X7420185Y-89505305D01*
X7436819Y-89484663D01*
X11752663Y-85168819D01*
X11813986Y-85135334D01*
X11840344Y-85132500D01*
X11916272Y-85132500D01*
X11916275Y-85132500D01*
X12056285Y-85094984D01*
X12181815Y-85022509D01*
X12284309Y-84920015D01*
X12356784Y-84794485D01*
X12394300Y-84654475D01*
X12394300Y-84509525D01*
X12376026Y-84441325D01*
X25084600Y-84441325D01*
X25084600Y-84586275D01*
X25107875Y-84673137D01*
X25122117Y-84726288D01*
X25194588Y-84851811D01*
X25194590Y-84851813D01*
X25194591Y-84851815D01*
X25297085Y-84954309D01*
X25297086Y-84954310D01*
X25297088Y-84954311D01*
X25422611Y-85026782D01*
X25422612Y-85026782D01*
X25422615Y-85026784D01*
X25562625Y-85064300D01*
X25562628Y-85064300D01*
X25707572Y-85064300D01*
X25707575Y-85064300D01*
X25847585Y-85026784D01*
X25973115Y-84954309D01*
X26075609Y-84851815D01*
X26148084Y-84726285D01*
X26185600Y-84586275D01*
X26185600Y-84441325D01*
X26148084Y-84301315D01*
X26114984Y-84243985D01*
X26075611Y-84175788D01*
X26075606Y-84175782D01*
X26021919Y-84122095D01*
X25988434Y-84060772D01*
X25985600Y-84034414D01*
X25985600Y-82743544D01*
X25994244Y-82714103D01*
X26000768Y-82684117D01*
X26004522Y-82679101D01*
X26005285Y-82676505D01*
X26021919Y-82655863D01*
X26129963Y-82547819D01*
X26191286Y-82514334D01*
X26217644Y-82511500D01*
X26293572Y-82511500D01*
X26293575Y-82511500D01*
X26433585Y-82473984D01*
X26559115Y-82401509D01*
X26661609Y-82299015D01*
X26734084Y-82173485D01*
X26771600Y-82033475D01*
X26771600Y-81888525D01*
X26734084Y-81748515D01*
X26661609Y-81622985D01*
X26559115Y-81520491D01*
X26559113Y-81520490D01*
X26559111Y-81520488D01*
X26433588Y-81448017D01*
X26433589Y-81448017D01*
X26422106Y-81444940D01*
X26293575Y-81410500D01*
X26148625Y-81410500D01*
X26020093Y-81444940D01*
X26008611Y-81448017D01*
X25883088Y-81520488D01*
X25883082Y-81520493D01*
X25780593Y-81622982D01*
X25780588Y-81622988D01*
X25708117Y-81748511D01*
X25708116Y-81748515D01*
X25670600Y-81888525D01*
X25670600Y-81888527D01*
X25670600Y-81964456D01*
X25650915Y-82031495D01*
X25634281Y-82052137D01*
X25354631Y-82331786D01*
X25354629Y-82331788D01*
X25342572Y-82352672D01*
X25337476Y-82361500D01*
X25322981Y-82386606D01*
X25308486Y-82411711D01*
X25284600Y-82500856D01*
X25284600Y-84034414D01*
X25264915Y-84101453D01*
X25248281Y-84122095D01*
X25194593Y-84175782D01*
X25194588Y-84175788D01*
X25122117Y-84301311D01*
X25122116Y-84301315D01*
X25084600Y-84441325D01*
X12376026Y-84441325D01*
X12356784Y-84369515D01*
X12317406Y-84301311D01*
X12284311Y-84243988D01*
X12284306Y-84243982D01*
X12181817Y-84141493D01*
X12181811Y-84141488D01*
X12056288Y-84069017D01*
X12056289Y-84069017D01*
X12025518Y-84060772D01*
X11916275Y-84031500D01*
X11771325Y-84031500D01*
X11662082Y-84060772D01*
X11631311Y-84069017D01*
X11505788Y-84141488D01*
X11505782Y-84141493D01*
X11403293Y-84243982D01*
X11403288Y-84243988D01*
X11330817Y-84369511D01*
X11330816Y-84369515D01*
X11293300Y-84509525D01*
X11293300Y-84509527D01*
X11293300Y-84585456D01*
X11273615Y-84652495D01*
X11256981Y-84673137D01*
X6769531Y-89160586D01*
X6769527Y-89160591D01*
X6723387Y-89240509D01*
X6723386Y-89240512D01*
X6699500Y-89329656D01*
X6699500Y-90290514D01*
X6679815Y-90357553D01*
X6663181Y-90378195D01*
X6609493Y-90431882D01*
X6609488Y-90431888D01*
X6537017Y-90557411D01*
X6537016Y-90557415D01*
X6499500Y-90697425D01*
X1500500Y-90697425D01*
X1500500Y-77749999D01*
X3650884Y-77749999D01*
X3650885Y-77750000D01*
X4719670Y-77750000D01*
X4699925Y-77769745D01*
X4650556Y-77855255D01*
X4625000Y-77950630D01*
X4625000Y-78049370D01*
X4650556Y-78144745D01*
X4699925Y-78230255D01*
X4719670Y-78250000D01*
X3650885Y-78250000D01*
X3652085Y-78257584D01*
X3705591Y-78422255D01*
X3784195Y-78576524D01*
X3885967Y-78716602D01*
X4008397Y-78839032D01*
X4148475Y-78940804D01*
X4191162Y-78962554D01*
X4241958Y-79010529D01*
X4258753Y-79078350D01*
X4236216Y-79144485D01*
X4181501Y-79187936D01*
X4178201Y-79189221D01*
X4132670Y-79206203D01*
X4132664Y-79206206D01*
X4017455Y-79292452D01*
X4017452Y-79292455D01*
X3931206Y-79407664D01*
X3931202Y-79407671D01*
X3880908Y-79542517D01*
X3874501Y-79602116D01*
X3874501Y-79602123D01*
X3874500Y-79602135D01*
X3874500Y-80397870D01*
X3874501Y-80397876D01*
X3880908Y-80457483D01*
X3931202Y-80592328D01*
X3931206Y-80592335D01*
X4017452Y-80707544D01*
X4017455Y-80707547D01*
X4132664Y-80793793D01*
X4132671Y-80793797D01*
X4267517Y-80844091D01*
X4267516Y-80844091D01*
X4274444Y-80844835D01*
X4327127Y-80850500D01*
X5672872Y-80850499D01*
X5732483Y-80844091D01*
X5867331Y-80793796D01*
X5982546Y-80707546D01*
X6068796Y-80592331D01*
X6119091Y-80457483D01*
X6125500Y-80397873D01*
X6125499Y-79602128D01*
X6119091Y-79542517D01*
X6068796Y-79407669D01*
X6068795Y-79407668D01*
X6068793Y-79407664D01*
X5982547Y-79292455D01*
X5982544Y-79292452D01*
X5867335Y-79206206D01*
X5867330Y-79206203D01*
X5821798Y-79189221D01*
X5765865Y-79147349D01*
X5741448Y-79081885D01*
X5756300Y-79013612D01*
X5805705Y-78964207D01*
X5808838Y-78962554D01*
X5851522Y-78940805D01*
X5991602Y-78839032D01*
X6114032Y-78716602D01*
X6215804Y-78576524D01*
X6294408Y-78422255D01*
X6347914Y-78257584D01*
X6349115Y-78250000D01*
X5280330Y-78250000D01*
X5300075Y-78230255D01*
X5349444Y-78144745D01*
X5375000Y-78049370D01*
X5375000Y-77950630D01*
X5349444Y-77855255D01*
X5300075Y-77769745D01*
X5280330Y-77750000D01*
X6349115Y-77750000D01*
X6349115Y-77749999D01*
X6347914Y-77742415D01*
X6294408Y-77577744D01*
X6215804Y-77423475D01*
X6114032Y-77283397D01*
X5991602Y-77160967D01*
X5851524Y-77059195D01*
X5697257Y-76980591D01*
X5532584Y-76927085D01*
X5361571Y-76900000D01*
X5250000Y-76900000D01*
X5250000Y-77719670D01*
X5230255Y-77699925D01*
X5144745Y-77650556D01*
X5049370Y-77625000D01*
X4950630Y-77625000D01*
X4855255Y-77650556D01*
X4769745Y-77699925D01*
X4750000Y-77719670D01*
X4750000Y-76900000D01*
X4638429Y-76900000D01*
X4467415Y-76927085D01*
X4302742Y-76980591D01*
X4148475Y-77059195D01*
X4008397Y-77160967D01*
X3885967Y-77283397D01*
X3784195Y-77423475D01*
X3705591Y-77577744D01*
X3652085Y-77742415D01*
X3650884Y-77749999D01*
X1500500Y-77749999D01*
X1500500Y-71934325D01*
X14674500Y-71934325D01*
X14674500Y-72079275D01*
X14712016Y-72219285D01*
X14712017Y-72219288D01*
X14784488Y-72344811D01*
X14784490Y-72344813D01*
X14784491Y-72344815D01*
X14886985Y-72447309D01*
X14886986Y-72447310D01*
X14886988Y-72447311D01*
X15012511Y-72519782D01*
X15012512Y-72519782D01*
X15012515Y-72519784D01*
X15152525Y-72557300D01*
X15152528Y-72557300D01*
X15297472Y-72557300D01*
X15297475Y-72557300D01*
X15437485Y-72519784D01*
X15563015Y-72447309D01*
X15665509Y-72344815D01*
X15737984Y-72219285D01*
X15775500Y-72079275D01*
X15775500Y-71934325D01*
X15737984Y-71794315D01*
X15665509Y-71668785D01*
X15611819Y-71615095D01*
X15578334Y-71553772D01*
X15575500Y-71527414D01*
X15575500Y-65078725D01*
X16768600Y-65078725D01*
X16768600Y-65223675D01*
X16799641Y-65339519D01*
X16806117Y-65363688D01*
X16878588Y-65489211D01*
X16878590Y-65489213D01*
X16878591Y-65489215D01*
X16981085Y-65591709D01*
X16981086Y-65591710D01*
X16981088Y-65591711D01*
X17106611Y-65664182D01*
X17106612Y-65664182D01*
X17106615Y-65664184D01*
X17246625Y-65701700D01*
X17246628Y-65701700D01*
X17391572Y-65701700D01*
X17391575Y-65701700D01*
X17531585Y-65664184D01*
X17657115Y-65591709D01*
X17759609Y-65489215D01*
X17832084Y-65363685D01*
X17869600Y-65223675D01*
X17869600Y-65078725D01*
X17832084Y-64938715D01*
X17800274Y-64883619D01*
X17759611Y-64813188D01*
X17759610Y-64813186D01*
X17759609Y-64813185D01*
X17657115Y-64710691D01*
X17657113Y-64710690D01*
X17657111Y-64710688D01*
X17531588Y-64638217D01*
X17531589Y-64638217D01*
X17502785Y-64630499D01*
X17391575Y-64600700D01*
X17246625Y-64600700D01*
X17135415Y-64630499D01*
X17106611Y-64638217D01*
X16981088Y-64710688D01*
X16981082Y-64710693D01*
X16878593Y-64813182D01*
X16878588Y-64813188D01*
X16806117Y-64938711D01*
X16806116Y-64938715D01*
X16768600Y-65078725D01*
X15575500Y-65078725D01*
X15575500Y-64112125D01*
X19126800Y-64112125D01*
X19126800Y-64257075D01*
X19164316Y-64397085D01*
X19164317Y-64397088D01*
X19236788Y-64522611D01*
X19236790Y-64522613D01*
X19236791Y-64522615D01*
X19339285Y-64625109D01*
X19339286Y-64625110D01*
X19339288Y-64625111D01*
X19464811Y-64697582D01*
X19464812Y-64697582D01*
X19464815Y-64697584D01*
X19604825Y-64735100D01*
X19604828Y-64735100D01*
X19749772Y-64735100D01*
X19749775Y-64735100D01*
X19889785Y-64697584D01*
X20015315Y-64625109D01*
X20117809Y-64522615D01*
X20190284Y-64397085D01*
X20227800Y-64257075D01*
X20227800Y-64112125D01*
X20190284Y-63972115D01*
X20135673Y-63877527D01*
X20117811Y-63846588D01*
X20117806Y-63846582D01*
X20015317Y-63744093D01*
X20015311Y-63744088D01*
X19889788Y-63671617D01*
X19889789Y-63671617D01*
X19878306Y-63668540D01*
X19749775Y-63634100D01*
X19604825Y-63634100D01*
X19476293Y-63668540D01*
X19464811Y-63671617D01*
X19339288Y-63744088D01*
X19339282Y-63744093D01*
X19236793Y-63846582D01*
X19236788Y-63846588D01*
X19164317Y-63972111D01*
X19164316Y-63972115D01*
X19126800Y-64112125D01*
X15575500Y-64112125D01*
X15575500Y-63334625D01*
X22136200Y-63334625D01*
X22136200Y-63479575D01*
X22172228Y-63614031D01*
X22173717Y-63619588D01*
X22246188Y-63745111D01*
X22246190Y-63745113D01*
X22246191Y-63745115D01*
X22348685Y-63847609D01*
X22348686Y-63847610D01*
X22348688Y-63847611D01*
X22474211Y-63920082D01*
X22474212Y-63920082D01*
X22474215Y-63920084D01*
X22614225Y-63957600D01*
X22614228Y-63957600D01*
X22759172Y-63957600D01*
X22759175Y-63957600D01*
X22899185Y-63920084D01*
X23024715Y-63847609D01*
X23127209Y-63745115D01*
X23199684Y-63619585D01*
X23237200Y-63479575D01*
X23237200Y-63334625D01*
X23199684Y-63194615D01*
X23180556Y-63161485D01*
X23127211Y-63069088D01*
X23127206Y-63069082D01*
X23024717Y-62966593D01*
X23024711Y-62966588D01*
X22899188Y-62894117D01*
X22899189Y-62894117D01*
X22887706Y-62891040D01*
X22759175Y-62856600D01*
X22614225Y-62856600D01*
X22485693Y-62891040D01*
X22474211Y-62894117D01*
X22348688Y-62966588D01*
X22348682Y-62966593D01*
X22246193Y-63069082D01*
X22246188Y-63069088D01*
X22173717Y-63194611D01*
X22173716Y-63194615D01*
X22136200Y-63334625D01*
X15575500Y-63334625D01*
X15575500Y-61052125D01*
X18447900Y-61052125D01*
X18447900Y-61197075D01*
X18485416Y-61337085D01*
X18485417Y-61337088D01*
X18557888Y-61462611D01*
X18557890Y-61462613D01*
X18557891Y-61462615D01*
X18660385Y-61565109D01*
X18660386Y-61565110D01*
X18660388Y-61565111D01*
X18785911Y-61637582D01*
X18785912Y-61637582D01*
X18785915Y-61637584D01*
X18925925Y-61675100D01*
X18925928Y-61675100D01*
X19070872Y-61675100D01*
X19070875Y-61675100D01*
X19210885Y-61637584D01*
X19336415Y-61565109D01*
X19438909Y-61462615D01*
X19511384Y-61337085D01*
X19548900Y-61197075D01*
X19548900Y-61052125D01*
X19511384Y-60912115D01*
X19438909Y-60786585D01*
X19336415Y-60684091D01*
X19336413Y-60684090D01*
X19336411Y-60684088D01*
X19210888Y-60611617D01*
X19210889Y-60611617D01*
X19199406Y-60608540D01*
X19070875Y-60574100D01*
X18925925Y-60574100D01*
X18797393Y-60608540D01*
X18785911Y-60611617D01*
X18660388Y-60684088D01*
X18660382Y-60684093D01*
X18557893Y-60786582D01*
X18557888Y-60786588D01*
X18485417Y-60912111D01*
X18485416Y-60912115D01*
X18447900Y-61052125D01*
X15575500Y-61052125D01*
X15575500Y-59906825D01*
X19728500Y-59906825D01*
X19728500Y-60051775D01*
X19766016Y-60191785D01*
X19766017Y-60191788D01*
X19838488Y-60317311D01*
X19838490Y-60317313D01*
X19838491Y-60317315D01*
X19940985Y-60419809D01*
X19940986Y-60419810D01*
X19940988Y-60419811D01*
X20066511Y-60492282D01*
X20066512Y-60492282D01*
X20066515Y-60492284D01*
X20206525Y-60529800D01*
X20206528Y-60529800D01*
X20351472Y-60529800D01*
X20351475Y-60529800D01*
X20491485Y-60492284D01*
X20617015Y-60419809D01*
X20719509Y-60317315D01*
X20791984Y-60191785D01*
X20829500Y-60051775D01*
X20829500Y-59906825D01*
X20791984Y-59766815D01*
X20719509Y-59641285D01*
X20617015Y-59538791D01*
X20617013Y-59538790D01*
X20617011Y-59538788D01*
X20491488Y-59466317D01*
X20491489Y-59466317D01*
X20480006Y-59463240D01*
X20351475Y-59428800D01*
X20206525Y-59428800D01*
X20077993Y-59463240D01*
X20066511Y-59466317D01*
X19940988Y-59538788D01*
X19940982Y-59538793D01*
X19838493Y-59641282D01*
X19838488Y-59641288D01*
X19766017Y-59766811D01*
X19766016Y-59766815D01*
X19728500Y-59906825D01*
X15575500Y-59906825D01*
X15575500Y-55561421D01*
X15595185Y-55494382D01*
X15647989Y-55448627D01*
X15717147Y-55438683D01*
X15731582Y-55441644D01*
X15766125Y-55450900D01*
X15766127Y-55450900D01*
X15911072Y-55450900D01*
X15911075Y-55450900D01*
X16051085Y-55413384D01*
X16176615Y-55340909D01*
X16230305Y-55287219D01*
X16291628Y-55253734D01*
X16317986Y-55250900D01*
X27823200Y-55250900D01*
X27890239Y-55270585D01*
X27935994Y-55323389D01*
X27947200Y-55374900D01*
X27947200Y-63931114D01*
X27927515Y-63998153D01*
X27910881Y-64018795D01*
X27857193Y-64072482D01*
X27857188Y-64072488D01*
X27784717Y-64198011D01*
X27784716Y-64198015D01*
X27747200Y-64338025D01*
X27747200Y-64482975D01*
X27768403Y-64562104D01*
X27784717Y-64622989D01*
X27787828Y-64630499D01*
X27785961Y-64631271D01*
X27799868Y-64688603D01*
X27777015Y-64754629D01*
X27722092Y-64797819D01*
X27676009Y-64806700D01*
X26670486Y-64806700D01*
X26603447Y-64787015D01*
X26582805Y-64770381D01*
X26529117Y-64716693D01*
X26529111Y-64716688D01*
X26403588Y-64644217D01*
X26403589Y-64644217D01*
X26392106Y-64641140D01*
X26263575Y-64606700D01*
X26118625Y-64606700D01*
X25990093Y-64641140D01*
X25978611Y-64644217D01*
X25853088Y-64716688D01*
X25853082Y-64716693D01*
X25750593Y-64819182D01*
X25750588Y-64819188D01*
X25678117Y-64944711D01*
X25678116Y-64944715D01*
X25640600Y-65084725D01*
X25640600Y-65229675D01*
X25676509Y-65363688D01*
X25678117Y-65369688D01*
X25750588Y-65495211D01*
X25750593Y-65495217D01*
X25772250Y-65516874D01*
X25805735Y-65578197D01*
X25800751Y-65647889D01*
X25791956Y-65666555D01*
X25737017Y-65761711D01*
X25737016Y-65761715D01*
X25699500Y-65901725D01*
X25699500Y-66046675D01*
X25737016Y-66186685D01*
X25737017Y-66186688D01*
X25809488Y-66312211D01*
X25809490Y-66312213D01*
X25809491Y-66312215D01*
X25911985Y-66414709D01*
X25952695Y-66438213D01*
X26000911Y-66488780D01*
X26014133Y-66557387D01*
X25988165Y-66622252D01*
X25931251Y-66662780D01*
X25890695Y-66669600D01*
X24606644Y-66669600D01*
X24539605Y-66649915D01*
X24518963Y-66633281D01*
X24175119Y-66289437D01*
X24141634Y-66228114D01*
X24138800Y-66201756D01*
X24138800Y-66125827D01*
X24138800Y-66125825D01*
X24101284Y-65985815D01*
X24052734Y-65901725D01*
X24028811Y-65860288D01*
X24028806Y-65860282D01*
X23926317Y-65757793D01*
X23926311Y-65757788D01*
X23800788Y-65685317D01*
X23800789Y-65685317D01*
X23789306Y-65682240D01*
X23660775Y-65647800D01*
X23515825Y-65647800D01*
X23387293Y-65682240D01*
X23375811Y-65685317D01*
X23250288Y-65757788D01*
X23250282Y-65757793D01*
X23147793Y-65860282D01*
X23147788Y-65860288D01*
X23075317Y-65985811D01*
X23075316Y-65985815D01*
X23037800Y-66125825D01*
X23037800Y-66270775D01*
X23075316Y-66410785D01*
X23075317Y-66410788D01*
X23147788Y-66536311D01*
X23147790Y-66536313D01*
X23147791Y-66536315D01*
X23250285Y-66638809D01*
X23250286Y-66638810D01*
X23250288Y-66638811D01*
X23375811Y-66711282D01*
X23375812Y-66711282D01*
X23375815Y-66711284D01*
X23515825Y-66748800D01*
X23591756Y-66748800D01*
X23658795Y-66768485D01*
X23679437Y-66785119D01*
X24194888Y-67300570D01*
X24274812Y-67346714D01*
X24363956Y-67370600D01*
X24363957Y-67370600D01*
X24363958Y-67370600D01*
X25069556Y-67370600D01*
X25136595Y-67390285D01*
X25182350Y-67443089D01*
X25192294Y-67512247D01*
X25163269Y-67575803D01*
X25157237Y-67582281D01*
X24596837Y-68142681D01*
X24535514Y-68176166D01*
X24509156Y-68179000D01*
X24433225Y-68179000D01*
X24304693Y-68213440D01*
X24293211Y-68216517D01*
X24167688Y-68288988D01*
X24167682Y-68288993D01*
X24065193Y-68391482D01*
X24065188Y-68391488D01*
X23992717Y-68517011D01*
X23992716Y-68517015D01*
X23955200Y-68657025D01*
X23955200Y-68801975D01*
X23990830Y-68934947D01*
X23992717Y-68941988D01*
X24065188Y-69067511D01*
X24065190Y-69067513D01*
X24065191Y-69067515D01*
X24167685Y-69170009D01*
X24167686Y-69170010D01*
X24167688Y-69170011D01*
X24293211Y-69242482D01*
X24293212Y-69242482D01*
X24293215Y-69242484D01*
X24433225Y-69280000D01*
X24433228Y-69280000D01*
X24578172Y-69280000D01*
X24578175Y-69280000D01*
X24718185Y-69242484D01*
X24843715Y-69170009D01*
X24946209Y-69067515D01*
X25018684Y-68941985D01*
X25018686Y-68941975D01*
X25019254Y-68940608D01*
X25020049Y-68939620D01*
X25022748Y-68934947D01*
X25023476Y-68935367D01*
X25063091Y-68886201D01*
X25129383Y-68864130D01*
X25197084Y-68881404D01*
X25241206Y-68926051D01*
X25300188Y-69028211D01*
X25300190Y-69028213D01*
X25300191Y-69028215D01*
X25402685Y-69130709D01*
X25402686Y-69130710D01*
X25402688Y-69130711D01*
X25528211Y-69203182D01*
X25528212Y-69203182D01*
X25528215Y-69203184D01*
X25668225Y-69240700D01*
X25668228Y-69240700D01*
X25813172Y-69240700D01*
X25813175Y-69240700D01*
X25953185Y-69203184D01*
X26078715Y-69130709D01*
X26181209Y-69028215D01*
X26253684Y-68902685D01*
X26291200Y-68762675D01*
X26291200Y-68762671D01*
X26292261Y-68754615D01*
X26293609Y-68754792D01*
X26310885Y-68695961D01*
X26363689Y-68650206D01*
X26415200Y-68639000D01*
X30506473Y-68639000D01*
X30573512Y-68658685D01*
X30619267Y-68711489D01*
X30629211Y-68780647D01*
X30600186Y-68844203D01*
X30568475Y-68870385D01*
X30552185Y-68879791D01*
X30552182Y-68879793D01*
X30449693Y-68982282D01*
X30449688Y-68982288D01*
X30377217Y-69107811D01*
X30377216Y-69107815D01*
X30339700Y-69247825D01*
X30339700Y-69392775D01*
X30377216Y-69532785D01*
X30377217Y-69532788D01*
X30449688Y-69658311D01*
X30449690Y-69658313D01*
X30449691Y-69658315D01*
X30552185Y-69760809D01*
X30552186Y-69760810D01*
X30552188Y-69760811D01*
X30677711Y-69833282D01*
X30677712Y-69833282D01*
X30677715Y-69833284D01*
X30817725Y-69870800D01*
X30817728Y-69870800D01*
X30962672Y-69870800D01*
X30962675Y-69870800D01*
X31102685Y-69833284D01*
X31228215Y-69760809D01*
X31330709Y-69658315D01*
X31403184Y-69532785D01*
X31440700Y-69392775D01*
X31440700Y-69247825D01*
X31403184Y-69107815D01*
X31379914Y-69067511D01*
X31330711Y-68982288D01*
X31330706Y-68982282D01*
X31228217Y-68879793D01*
X31228215Y-68879791D01*
X31211924Y-68870385D01*
X31163711Y-68819820D01*
X31150489Y-68751212D01*
X31176457Y-68686348D01*
X31233371Y-68645820D01*
X31273927Y-68639000D01*
X45371542Y-68639000D01*
X45371544Y-68639000D01*
X45460688Y-68615114D01*
X45496891Y-68594212D01*
X45540612Y-68568970D01*
X45908863Y-68200719D01*
X45970186Y-68167234D01*
X45996544Y-68164400D01*
X46072472Y-68164400D01*
X46072475Y-68164400D01*
X46212485Y-68126884D01*
X46338015Y-68054409D01*
X46440509Y-67951915D01*
X46512984Y-67826385D01*
X46550500Y-67686375D01*
X46550500Y-67541425D01*
X46512984Y-67401415D01*
X46495192Y-67370599D01*
X46440511Y-67275888D01*
X46440506Y-67275882D01*
X46338017Y-67173393D01*
X46338015Y-67173391D01*
X46304746Y-67154183D01*
X46256530Y-67103616D01*
X46243308Y-67035009D01*
X46269276Y-66970144D01*
X46279056Y-66959124D01*
X47898663Y-65339519D01*
X47959986Y-65306034D01*
X47986344Y-65303200D01*
X48062272Y-65303200D01*
X48062275Y-65303200D01*
X48202285Y-65265684D01*
X48327815Y-65193209D01*
X48430309Y-65090715D01*
X48502784Y-64965185D01*
X48540300Y-64825175D01*
X48540300Y-64680225D01*
X48502784Y-64540215D01*
X48501466Y-64537933D01*
X48430311Y-64414688D01*
X48430306Y-64414682D01*
X48327816Y-64312192D01*
X48327795Y-64312176D01*
X48327781Y-64312157D01*
X48322068Y-64306444D01*
X48322958Y-64305553D01*
X48286592Y-64255749D01*
X48282437Y-64186003D01*
X48316649Y-64125082D01*
X48378366Y-64092329D01*
X48403281Y-64089800D01*
X53467242Y-64089800D01*
X53467244Y-64089800D01*
X53556388Y-64065914D01*
X53636312Y-64019770D01*
X54014063Y-63642019D01*
X54075386Y-63608534D01*
X54101744Y-63605700D01*
X54177672Y-63605700D01*
X54177675Y-63605700D01*
X54317685Y-63568184D01*
X54443215Y-63495709D01*
X54545709Y-63393215D01*
X54618184Y-63267685D01*
X54655700Y-63127675D01*
X54655700Y-62982725D01*
X54618184Y-62842715D01*
X54589589Y-62793188D01*
X54545711Y-62717188D01*
X54545706Y-62717182D01*
X54443217Y-62614693D01*
X54443211Y-62614688D01*
X54317688Y-62542217D01*
X54317689Y-62542217D01*
X54306206Y-62539140D01*
X54177675Y-62504700D01*
X54032725Y-62504700D01*
X53904193Y-62539140D01*
X53892711Y-62542217D01*
X53767188Y-62614688D01*
X53767182Y-62614693D01*
X53664693Y-62717182D01*
X53664688Y-62717188D01*
X53592217Y-62842711D01*
X53592216Y-62842715D01*
X53554700Y-62982725D01*
X53554700Y-62982727D01*
X53554700Y-63058656D01*
X53535015Y-63125695D01*
X53518381Y-63146337D01*
X53312237Y-63352481D01*
X53250914Y-63385966D01*
X53224556Y-63388800D01*
X48687795Y-63388800D01*
X48620756Y-63369115D01*
X48575001Y-63316311D01*
X48565057Y-63247153D01*
X48568021Y-63232705D01*
X48575800Y-63203675D01*
X48575800Y-63058725D01*
X48538284Y-62918715D01*
X48524082Y-62894117D01*
X48465811Y-62793188D01*
X48465806Y-62793182D01*
X48363317Y-62690693D01*
X48363311Y-62690688D01*
X48237788Y-62618217D01*
X48237789Y-62618217D01*
X48210810Y-62610988D01*
X48097775Y-62580700D01*
X47952825Y-62580700D01*
X47839790Y-62610988D01*
X47812811Y-62618217D01*
X47707903Y-62678787D01*
X47645903Y-62695400D01*
X36259500Y-62695400D01*
X36192461Y-62675715D01*
X36146706Y-62622911D01*
X36135500Y-62571400D01*
X36135500Y-62510427D01*
X36135500Y-62510425D01*
X36097984Y-62370415D01*
X36025509Y-62244885D01*
X35923015Y-62142391D01*
X35923013Y-62142390D01*
X35923011Y-62142388D01*
X35797488Y-62069917D01*
X35797489Y-62069917D01*
X35786006Y-62066840D01*
X35657475Y-62032400D01*
X35512525Y-62032400D01*
X35383993Y-62066840D01*
X35372511Y-62069917D01*
X35246988Y-62142388D01*
X35246982Y-62142393D01*
X35144493Y-62244882D01*
X35144488Y-62244888D01*
X35072017Y-62370411D01*
X35072016Y-62370415D01*
X35034500Y-62510425D01*
X35034500Y-62510427D01*
X35034500Y-62586356D01*
X35014815Y-62653395D01*
X34998181Y-62674037D01*
X33963937Y-63708281D01*
X33902614Y-63741766D01*
X33876256Y-63744600D01*
X32371844Y-63744600D01*
X32304805Y-63724915D01*
X32259050Y-63672111D01*
X32249106Y-63602953D01*
X32278131Y-63539397D01*
X32284163Y-63532919D01*
X34873657Y-60943425D01*
X38949500Y-60943425D01*
X38949500Y-61088375D01*
X38987016Y-61228385D01*
X38987017Y-61228388D01*
X39059488Y-61353911D01*
X39059490Y-61353913D01*
X39059491Y-61353915D01*
X39161985Y-61456409D01*
X39161986Y-61456410D01*
X39161988Y-61456411D01*
X39287511Y-61528882D01*
X39287512Y-61528882D01*
X39287515Y-61528884D01*
X39427525Y-61566400D01*
X39427528Y-61566400D01*
X39572472Y-61566400D01*
X39572475Y-61566400D01*
X39712485Y-61528884D01*
X39838015Y-61456409D01*
X39940509Y-61353915D01*
X40012984Y-61228385D01*
X40050500Y-61088375D01*
X40050500Y-60943425D01*
X40012984Y-60803415D01*
X40003265Y-60786582D01*
X39940511Y-60677888D01*
X39940506Y-60677882D01*
X39838017Y-60575393D01*
X39838011Y-60575388D01*
X39712488Y-60502917D01*
X39712489Y-60502917D01*
X39672806Y-60492284D01*
X39572475Y-60465400D01*
X39427525Y-60465400D01*
X39327194Y-60492284D01*
X39287511Y-60502917D01*
X39161988Y-60575388D01*
X39161982Y-60575393D01*
X39059493Y-60677882D01*
X39059488Y-60677888D01*
X38987017Y-60803411D01*
X38987016Y-60803415D01*
X38949500Y-60943425D01*
X34873657Y-60943425D01*
X39887557Y-55929525D01*
X51549500Y-55929525D01*
X51549500Y-56074475D01*
X51587016Y-56214485D01*
X51587017Y-56214488D01*
X51659488Y-56340011D01*
X51659490Y-56340013D01*
X51659491Y-56340015D01*
X51761985Y-56442509D01*
X51761986Y-56442510D01*
X51761988Y-56442511D01*
X51887511Y-56514982D01*
X51887512Y-56514982D01*
X51887515Y-56514984D01*
X52027525Y-56552500D01*
X52027528Y-56552500D01*
X52172472Y-56552500D01*
X52172475Y-56552500D01*
X52312485Y-56514984D01*
X52438015Y-56442509D01*
X52540509Y-56340015D01*
X52612984Y-56214485D01*
X52650500Y-56074475D01*
X52650500Y-55929525D01*
X52612984Y-55789515D01*
X52571994Y-55718519D01*
X52540511Y-55663988D01*
X52540506Y-55663982D01*
X52438017Y-55561493D01*
X52438011Y-55561488D01*
X52312488Y-55489017D01*
X52312489Y-55489017D01*
X52301006Y-55485940D01*
X52172475Y-55451500D01*
X52027525Y-55451500D01*
X51898993Y-55485940D01*
X51887511Y-55489017D01*
X51761988Y-55561488D01*
X51761982Y-55561493D01*
X51659493Y-55663982D01*
X51659488Y-55663988D01*
X51587017Y-55789511D01*
X51587016Y-55789515D01*
X51549500Y-55929525D01*
X39887557Y-55929525D01*
X40098563Y-55718519D01*
X40159886Y-55685034D01*
X40186244Y-55682200D01*
X43374442Y-55682200D01*
X43374444Y-55682200D01*
X43463588Y-55658314D01*
X43543512Y-55612170D01*
X49107031Y-50048649D01*
X49168352Y-50015166D01*
X49233029Y-50018401D01*
X49237547Y-50019869D01*
X49237555Y-50019873D01*
X49402299Y-50073402D01*
X49573389Y-50100500D01*
X49573390Y-50100500D01*
X49746610Y-50100500D01*
X49746611Y-50100500D01*
X49917701Y-50073402D01*
X50082445Y-50019873D01*
X50236788Y-49941232D01*
X50376928Y-49839414D01*
X50499414Y-49716928D01*
X50601232Y-49576788D01*
X50679873Y-49422445D01*
X50733402Y-49257701D01*
X50760500Y-49086611D01*
X50760500Y-48913389D01*
X51099500Y-48913389D01*
X51099500Y-49086610D01*
X51126597Y-49257697D01*
X51126597Y-49257699D01*
X51126598Y-49257701D01*
X51180127Y-49422445D01*
X51258768Y-49576788D01*
X51360586Y-49716928D01*
X51483072Y-49839414D01*
X51623212Y-49941232D01*
X51777555Y-50019873D01*
X51942299Y-50073402D01*
X52113389Y-50100500D01*
X52113390Y-50100500D01*
X52286610Y-50100500D01*
X52286611Y-50100500D01*
X52457701Y-50073402D01*
X52622445Y-50019873D01*
X52776788Y-49941232D01*
X52916928Y-49839414D01*
X53039414Y-49716928D01*
X53141232Y-49576788D01*
X53219873Y-49422445D01*
X53273402Y-49257701D01*
X53300500Y-49086611D01*
X53300500Y-48913389D01*
X53273402Y-48742299D01*
X53219873Y-48577555D01*
X53141232Y-48423212D01*
X53039414Y-48283072D01*
X52916928Y-48160586D01*
X52776788Y-48058768D01*
X52622445Y-47980127D01*
X52457701Y-47926598D01*
X52457699Y-47926597D01*
X52457698Y-47926597D01*
X52326271Y-47905781D01*
X52286611Y-47899500D01*
X52113389Y-47899500D01*
X52073728Y-47905781D01*
X51942302Y-47926597D01*
X51777552Y-47980128D01*
X51623211Y-48058768D01*
X51549474Y-48112342D01*
X51483072Y-48160586D01*
X51483070Y-48160588D01*
X51483069Y-48160588D01*
X51360588Y-48283069D01*
X51360588Y-48283070D01*
X51360586Y-48283072D01*
X51316859Y-48343256D01*
X51258768Y-48423211D01*
X51180128Y-48577552D01*
X51126597Y-48742302D01*
X51099500Y-48913389D01*
X50760500Y-48913389D01*
X50733402Y-48742299D01*
X50679873Y-48577555D01*
X50601232Y-48423212D01*
X50499414Y-48283072D01*
X50376928Y-48160586D01*
X50236788Y-48058768D01*
X50082445Y-47980127D01*
X49917701Y-47926598D01*
X49917699Y-47926597D01*
X49917698Y-47926597D01*
X49786271Y-47905781D01*
X49746611Y-47899500D01*
X49573389Y-47899500D01*
X49533728Y-47905781D01*
X49402302Y-47926597D01*
X49237552Y-47980128D01*
X49083211Y-48058768D01*
X49009474Y-48112342D01*
X48943072Y-48160586D01*
X48943070Y-48160588D01*
X48943069Y-48160588D01*
X48820588Y-48283069D01*
X48820588Y-48283070D01*
X48820586Y-48283072D01*
X48776859Y-48343256D01*
X48718768Y-48423211D01*
X48640128Y-48577552D01*
X48586597Y-48742302D01*
X48559500Y-48913389D01*
X48559500Y-49086610D01*
X48586597Y-49257698D01*
X48641597Y-49426970D01*
X48643592Y-49496811D01*
X48611347Y-49552969D01*
X43219437Y-54944881D01*
X43158114Y-54978366D01*
X43131756Y-54981200D01*
X39943556Y-54981200D01*
X39854412Y-55005086D01*
X39854409Y-55005087D01*
X39774491Y-55051227D01*
X39774486Y-55051231D01*
X32144816Y-62680900D01*
X32083493Y-62714385D01*
X32013801Y-62709401D01*
X31957868Y-62667529D01*
X31949748Y-62655220D01*
X31939643Y-62637718D01*
X31924209Y-62610985D01*
X31821715Y-62508491D01*
X31821713Y-62508490D01*
X31821711Y-62508488D01*
X31696188Y-62436017D01*
X31696189Y-62436017D01*
X31684706Y-62432940D01*
X31556175Y-62398500D01*
X31411225Y-62398500D01*
X31282693Y-62432940D01*
X31271211Y-62436017D01*
X31145688Y-62508488D01*
X31145682Y-62508493D01*
X31043193Y-62610982D01*
X31043188Y-62610988D01*
X30970717Y-62736511D01*
X30970716Y-62736515D01*
X30933200Y-62876525D01*
X30933200Y-63021475D01*
X30959762Y-63120608D01*
X30958100Y-63190456D01*
X30918938Y-63248319D01*
X30854709Y-63275823D01*
X30839988Y-63276700D01*
X30698656Y-63276700D01*
X30609512Y-63300586D01*
X30609509Y-63300587D01*
X30529591Y-63346727D01*
X30529586Y-63346731D01*
X29651637Y-64224681D01*
X29590314Y-64258166D01*
X29563956Y-64261000D01*
X29488025Y-64261000D01*
X29359493Y-64295440D01*
X29348011Y-64298517D01*
X29222488Y-64370988D01*
X29222482Y-64370993D01*
X29119993Y-64473482D01*
X29119991Y-64473485D01*
X29104296Y-64500669D01*
X29086200Y-64517921D01*
X29071220Y-64537933D01*
X29061351Y-64541613D01*
X29053727Y-64548883D01*
X29029179Y-64553613D01*
X29005756Y-64562350D01*
X28995462Y-64560110D01*
X28985120Y-64562104D01*
X28961911Y-64552812D01*
X28937483Y-64547498D01*
X28924658Y-64537897D01*
X28920256Y-64536135D01*
X28909229Y-64526347D01*
X28884519Y-64501637D01*
X28851034Y-64440314D01*
X28848200Y-64413956D01*
X28848200Y-64338027D01*
X28848200Y-64338025D01*
X28810684Y-64198015D01*
X28790172Y-64162488D01*
X28738211Y-64072488D01*
X28738206Y-64072482D01*
X28684519Y-64018795D01*
X28651034Y-63957472D01*
X28648200Y-63931114D01*
X28648200Y-58650825D01*
X32649500Y-58650825D01*
X32649500Y-58795775D01*
X32687016Y-58935785D01*
X32687017Y-58935788D01*
X32759488Y-59061311D01*
X32759490Y-59061313D01*
X32759491Y-59061315D01*
X32861985Y-59163809D01*
X32861986Y-59163810D01*
X32861988Y-59163811D01*
X32987511Y-59236282D01*
X32987512Y-59236282D01*
X32987515Y-59236284D01*
X33127525Y-59273800D01*
X33127528Y-59273800D01*
X33272472Y-59273800D01*
X33272475Y-59273800D01*
X33412485Y-59236284D01*
X33538015Y-59163809D01*
X33640509Y-59061315D01*
X33712984Y-58935785D01*
X33750500Y-58795775D01*
X33750500Y-58650825D01*
X33712984Y-58510815D01*
X33640509Y-58385285D01*
X33538015Y-58282791D01*
X33538013Y-58282790D01*
X33538011Y-58282788D01*
X33412488Y-58210317D01*
X33412489Y-58210317D01*
X33401006Y-58207240D01*
X33272475Y-58172800D01*
X33127525Y-58172800D01*
X32998993Y-58207240D01*
X32987511Y-58210317D01*
X32861988Y-58282788D01*
X32861982Y-58282793D01*
X32759493Y-58385282D01*
X32759488Y-58385288D01*
X32687017Y-58510811D01*
X32687016Y-58510815D01*
X32649500Y-58650825D01*
X28648200Y-58650825D01*
X28648200Y-55374900D01*
X28667885Y-55307861D01*
X28720689Y-55262106D01*
X28772200Y-55250900D01*
X36185742Y-55250900D01*
X36185744Y-55250900D01*
X36274888Y-55227014D01*
X36285512Y-55220880D01*
X36354812Y-55180870D01*
X41487031Y-50048649D01*
X41548352Y-50015166D01*
X41613029Y-50018401D01*
X41617547Y-50019869D01*
X41617555Y-50019873D01*
X41782299Y-50073402D01*
X41953389Y-50100500D01*
X41953390Y-50100500D01*
X42126610Y-50100500D01*
X42126611Y-50100500D01*
X42297701Y-50073402D01*
X42462445Y-50019873D01*
X42616788Y-49941232D01*
X42756928Y-49839414D01*
X42879414Y-49716928D01*
X42981232Y-49576788D01*
X43059873Y-49422445D01*
X43113402Y-49257701D01*
X43140500Y-49086611D01*
X43140500Y-48913389D01*
X43479500Y-48913389D01*
X43479500Y-49086610D01*
X43506597Y-49257697D01*
X43506597Y-49257699D01*
X43506598Y-49257701D01*
X43560127Y-49422445D01*
X43638768Y-49576788D01*
X43740586Y-49716928D01*
X43863072Y-49839414D01*
X44003212Y-49941232D01*
X44157555Y-50019873D01*
X44322299Y-50073402D01*
X44493389Y-50100500D01*
X44493390Y-50100500D01*
X44666610Y-50100500D01*
X44666611Y-50100500D01*
X44837701Y-50073402D01*
X45002445Y-50019873D01*
X45156788Y-49941232D01*
X45296928Y-49839414D01*
X45419414Y-49716928D01*
X45521232Y-49576788D01*
X45599873Y-49422445D01*
X45653402Y-49257701D01*
X45680500Y-49086611D01*
X45680500Y-48913389D01*
X46019500Y-48913389D01*
X46019500Y-49086610D01*
X46046597Y-49257697D01*
X46046597Y-49257699D01*
X46046598Y-49257701D01*
X46100127Y-49422445D01*
X46178768Y-49576788D01*
X46280586Y-49716928D01*
X46403072Y-49839414D01*
X46543212Y-49941232D01*
X46697555Y-50019873D01*
X46862299Y-50073402D01*
X47033389Y-50100500D01*
X47033390Y-50100500D01*
X47206610Y-50100500D01*
X47206611Y-50100500D01*
X47377701Y-50073402D01*
X47542445Y-50019873D01*
X47696788Y-49941232D01*
X47836928Y-49839414D01*
X47959414Y-49716928D01*
X48061232Y-49576788D01*
X48139873Y-49422445D01*
X48193402Y-49257701D01*
X48220500Y-49086611D01*
X48220500Y-48913389D01*
X48193402Y-48742299D01*
X48139873Y-48577555D01*
X48061232Y-48423212D01*
X47959414Y-48283072D01*
X47836928Y-48160586D01*
X47696788Y-48058768D01*
X47542445Y-47980127D01*
X47377701Y-47926598D01*
X47377699Y-47926597D01*
X47377698Y-47926597D01*
X47246271Y-47905781D01*
X47206611Y-47899500D01*
X47033389Y-47899500D01*
X46993728Y-47905781D01*
X46862302Y-47926597D01*
X46697552Y-47980128D01*
X46543211Y-48058768D01*
X46469474Y-48112342D01*
X46403072Y-48160586D01*
X46403070Y-48160588D01*
X46403069Y-48160588D01*
X46280588Y-48283069D01*
X46280588Y-48283070D01*
X46280586Y-48283072D01*
X46236859Y-48343256D01*
X46178768Y-48423211D01*
X46100128Y-48577552D01*
X46046597Y-48742302D01*
X46019500Y-48913389D01*
X45680500Y-48913389D01*
X45653402Y-48742299D01*
X45599873Y-48577555D01*
X45521232Y-48423212D01*
X45419414Y-48283072D01*
X45296928Y-48160586D01*
X45156788Y-48058768D01*
X45002445Y-47980127D01*
X44837701Y-47926598D01*
X44837699Y-47926597D01*
X44837698Y-47926597D01*
X44706271Y-47905781D01*
X44666611Y-47899500D01*
X44493389Y-47899500D01*
X44453728Y-47905781D01*
X44322302Y-47926597D01*
X44157552Y-47980128D01*
X44003211Y-48058768D01*
X43929474Y-48112342D01*
X43863072Y-48160586D01*
X43863070Y-48160588D01*
X43863069Y-48160588D01*
X43740588Y-48283069D01*
X43740588Y-48283070D01*
X43740586Y-48283072D01*
X43696859Y-48343256D01*
X43638768Y-48423211D01*
X43560128Y-48577552D01*
X43506597Y-48742302D01*
X43479500Y-48913389D01*
X43140500Y-48913389D01*
X43113402Y-48742299D01*
X43059873Y-48577555D01*
X42981232Y-48423212D01*
X42879414Y-48283072D01*
X42756928Y-48160586D01*
X42616788Y-48058768D01*
X42462445Y-47980127D01*
X42297701Y-47926598D01*
X42297699Y-47926597D01*
X42297698Y-47926597D01*
X42166271Y-47905781D01*
X42126611Y-47899500D01*
X41953389Y-47899500D01*
X41913728Y-47905781D01*
X41782302Y-47926597D01*
X41617552Y-47980128D01*
X41463211Y-48058768D01*
X41389474Y-48112342D01*
X41323072Y-48160586D01*
X41323070Y-48160588D01*
X41323069Y-48160588D01*
X41200588Y-48283069D01*
X41200588Y-48283070D01*
X41200586Y-48283072D01*
X41156859Y-48343256D01*
X41098768Y-48423211D01*
X41084485Y-48451244D01*
X41036510Y-48502040D01*
X40968689Y-48518835D01*
X40902554Y-48496297D01*
X40859103Y-48441582D01*
X40850000Y-48394949D01*
X40850000Y-48102172D01*
X40849999Y-48102155D01*
X40843598Y-48042627D01*
X40843596Y-48042620D01*
X40793354Y-47907913D01*
X40793350Y-47907906D01*
X40707190Y-47792812D01*
X40707187Y-47792809D01*
X40592093Y-47706649D01*
X40592086Y-47706645D01*
X40457380Y-47656403D01*
X40457373Y-47656401D01*
X40374555Y-47647497D01*
X40374884Y-47644431D01*
X40357875Y-47645330D01*
X40298803Y-47612356D01*
X39629408Y-46942962D01*
X39692993Y-46925925D01*
X39807007Y-46860099D01*
X39900099Y-46767007D01*
X39965925Y-46652993D01*
X39982962Y-46589409D01*
X40615270Y-47221717D01*
X40615270Y-47221716D01*
X40654622Y-47167554D01*
X40751096Y-46978215D01*
X40783239Y-46879288D01*
X40822676Y-46821612D01*
X40887034Y-46794413D01*
X40955880Y-46806327D01*
X41007357Y-46853571D01*
X41019100Y-46879284D01*
X41020127Y-46882446D01*
X41042281Y-46925925D01*
X41098768Y-47036788D01*
X41200586Y-47176928D01*
X41323072Y-47299414D01*
X41463212Y-47401232D01*
X41617555Y-47479873D01*
X41782299Y-47533402D01*
X41953389Y-47560500D01*
X41953390Y-47560500D01*
X42126610Y-47560500D01*
X42126611Y-47560500D01*
X42297701Y-47533402D01*
X42462445Y-47479873D01*
X42616788Y-47401232D01*
X42756928Y-47299414D01*
X42879414Y-47176928D01*
X42981232Y-47036788D01*
X43059873Y-46882445D01*
X43113402Y-46717701D01*
X43140500Y-46546611D01*
X43140500Y-46373389D01*
X43113402Y-46202299D01*
X43059873Y-46037555D01*
X42981232Y-45883212D01*
X42879414Y-45743072D01*
X42756928Y-45620586D01*
X42616788Y-45518768D01*
X42462445Y-45440127D01*
X42297701Y-45386598D01*
X42297699Y-45386597D01*
X42297698Y-45386597D01*
X42166271Y-45365781D01*
X42126611Y-45359500D01*
X41953389Y-45359500D01*
X41913728Y-45365781D01*
X41782302Y-45386597D01*
X41617552Y-45440128D01*
X41463211Y-45518768D01*
X41389474Y-45572342D01*
X41323072Y-45620586D01*
X41323070Y-45620588D01*
X41323069Y-45620588D01*
X41200588Y-45743069D01*
X41200588Y-45743070D01*
X41200586Y-45743072D01*
X41156859Y-45803256D01*
X41098768Y-45883211D01*
X41020128Y-46037550D01*
X41019487Y-46039522D01*
X41019102Y-46040712D01*
X41019099Y-46040720D01*
X41018381Y-46041769D01*
X41018266Y-46042048D01*
X41018207Y-46042023D01*
X40979657Y-46098393D01*
X40915297Y-46125587D01*
X40846451Y-46113668D01*
X40794979Y-46066420D01*
X40783239Y-46040711D01*
X40751096Y-45941784D01*
X40654624Y-45752449D01*
X40615270Y-45698282D01*
X40615269Y-45698282D01*
X39982962Y-46330590D01*
X39965925Y-46267007D01*
X39900099Y-46152993D01*
X39807007Y-46059901D01*
X39692993Y-45994075D01*
X39629409Y-45977037D01*
X40261716Y-45344728D01*
X40207550Y-45305375D01*
X40018217Y-45208904D01*
X39816129Y-45143242D01*
X39606246Y-45110000D01*
X39393754Y-45110000D01*
X39183872Y-45143242D01*
X39183869Y-45143242D01*
X38981782Y-45208904D01*
X38792439Y-45305380D01*
X38738282Y-45344727D01*
X38738282Y-45344728D01*
X39370591Y-45977037D01*
X39307007Y-45994075D01*
X39192993Y-46059901D01*
X39099901Y-46152993D01*
X39034075Y-46267007D01*
X39017037Y-46330591D01*
X38384728Y-45698282D01*
X38384727Y-45698282D01*
X38345380Y-45752439D01*
X38248904Y-45941782D01*
X38183242Y-46143869D01*
X38183242Y-46143872D01*
X38150000Y-46353753D01*
X38150000Y-46566246D01*
X38183242Y-46776127D01*
X38183242Y-46776130D01*
X38248904Y-46978217D01*
X38345375Y-47167550D01*
X38384728Y-47221716D01*
X39017037Y-46589408D01*
X39034075Y-46652993D01*
X39099901Y-46767007D01*
X39192993Y-46860099D01*
X39307007Y-46925925D01*
X39370590Y-46942962D01*
X38701195Y-47612356D01*
X38639872Y-47645841D01*
X38625167Y-47644924D01*
X38625444Y-47647497D01*
X38542626Y-47656401D01*
X38542619Y-47656403D01*
X38407913Y-47706645D01*
X38407906Y-47706649D01*
X38292812Y-47792809D01*
X38292809Y-47792812D01*
X38206649Y-47907906D01*
X38206645Y-47907913D01*
X38156403Y-48042620D01*
X38156401Y-48042627D01*
X38150000Y-48102155D01*
X38150000Y-48750000D01*
X39066988Y-48750000D01*
X39034075Y-48807007D01*
X39000000Y-48934174D01*
X39000000Y-49065826D01*
X39034075Y-49192993D01*
X39066988Y-49250000D01*
X38150000Y-49250000D01*
X38150000Y-49897844D01*
X38156401Y-49957372D01*
X38156403Y-49957379D01*
X38206645Y-50092086D01*
X38206649Y-50092093D01*
X38292809Y-50207187D01*
X38292812Y-50207190D01*
X38407906Y-50293350D01*
X38407913Y-50293354D01*
X38542620Y-50343596D01*
X38542627Y-50343598D01*
X38602155Y-50349999D01*
X38602172Y-50350000D01*
X39250000Y-50350000D01*
X39250000Y-49433012D01*
X39307007Y-49465925D01*
X39434174Y-49500000D01*
X39565826Y-49500000D01*
X39692993Y-49465925D01*
X39750000Y-49433012D01*
X39750000Y-50350000D01*
X39894955Y-50350000D01*
X39961994Y-50369685D01*
X40007749Y-50422489D01*
X40017693Y-50491647D01*
X39988668Y-50555203D01*
X39982636Y-50561681D01*
X36030737Y-54513581D01*
X35969414Y-54547066D01*
X35943056Y-54549900D01*
X16317986Y-54549900D01*
X16250947Y-54530215D01*
X16230305Y-54513581D01*
X16176617Y-54459893D01*
X16176611Y-54459888D01*
X16051088Y-54387417D01*
X16051089Y-54387417D01*
X16039606Y-54384340D01*
X15911075Y-54349900D01*
X15766125Y-54349900D01*
X15731593Y-54359153D01*
X15661743Y-54357490D01*
X15603881Y-54318327D01*
X15576377Y-54254099D01*
X15575500Y-54239378D01*
X15575500Y-39648443D01*
X15595185Y-39581404D01*
X15611814Y-39560767D01*
X21130965Y-34041615D01*
X21192286Y-34008132D01*
X21261978Y-34013116D01*
X21317911Y-34054988D01*
X21326028Y-34067293D01*
X21351791Y-34111915D01*
X21454285Y-34214409D01*
X21454286Y-34214410D01*
X21454288Y-34214411D01*
X21579811Y-34286882D01*
X21579812Y-34286882D01*
X21579815Y-34286884D01*
X21719825Y-34324400D01*
X21719828Y-34324400D01*
X21864772Y-34324400D01*
X21864775Y-34324400D01*
X22004785Y-34286884D01*
X22130315Y-34214409D01*
X22232809Y-34111915D01*
X22305284Y-33986385D01*
X22342800Y-33846375D01*
X22342800Y-33701425D01*
X22305284Y-33561415D01*
X22232809Y-33435885D01*
X22232805Y-33435881D01*
X22228970Y-33429238D01*
X22212497Y-33361338D01*
X22235349Y-33295311D01*
X22274360Y-33259848D01*
X22280212Y-33256470D01*
X24276919Y-31259761D01*
X24338240Y-31226278D01*
X24407932Y-31231262D01*
X24463865Y-31273134D01*
X24471984Y-31285442D01*
X24490788Y-31318011D01*
X24490790Y-31318013D01*
X24490791Y-31318015D01*
X24593285Y-31420509D01*
X24593286Y-31420510D01*
X24593288Y-31420511D01*
X24718811Y-31492982D01*
X24718812Y-31492982D01*
X24718815Y-31492984D01*
X24858825Y-31530500D01*
X24858828Y-31530500D01*
X25003772Y-31530500D01*
X25003775Y-31530500D01*
X25143785Y-31492984D01*
X25269315Y-31420509D01*
X25371809Y-31318015D01*
X25444284Y-31192485D01*
X25481800Y-31052475D01*
X25481800Y-30907525D01*
X25444284Y-30767515D01*
X25405642Y-30700586D01*
X25371811Y-30641988D01*
X25371806Y-30641982D01*
X25269317Y-30539493D01*
X25269311Y-30539488D01*
X25236742Y-30520684D01*
X25188527Y-30470116D01*
X25175306Y-30401508D01*
X25201275Y-30336644D01*
X25211055Y-30325625D01*
X25793657Y-29743023D01*
X25854978Y-29709540D01*
X25924670Y-29714524D01*
X25980603Y-29756396D01*
X25988720Y-29768701D01*
X26000391Y-29788915D01*
X26102885Y-29891409D01*
X26102886Y-29891410D01*
X26102888Y-29891411D01*
X26228411Y-29963882D01*
X26228412Y-29963882D01*
X26228415Y-29963884D01*
X26368425Y-30001400D01*
X26444356Y-30001400D01*
X26511395Y-30021085D01*
X26532037Y-30037719D01*
X30519883Y-34025565D01*
X30553368Y-34086888D01*
X30548384Y-34156580D01*
X30506512Y-34212513D01*
X30464297Y-34233020D01*
X30430276Y-34242136D01*
X30422511Y-34244217D01*
X30296988Y-34316688D01*
X30296982Y-34316693D01*
X30194493Y-34419182D01*
X30194488Y-34419188D01*
X30122017Y-34544711D01*
X30118507Y-34557811D01*
X30084500Y-34684725D01*
X30084500Y-34829675D01*
X30120009Y-34962194D01*
X30122017Y-34969688D01*
X30194488Y-35095211D01*
X30194490Y-35095213D01*
X30194491Y-35095215D01*
X30296985Y-35197709D01*
X30296986Y-35197710D01*
X30296988Y-35197711D01*
X30422511Y-35270182D01*
X30422512Y-35270182D01*
X30422515Y-35270184D01*
X30562525Y-35307700D01*
X30638456Y-35307700D01*
X30705495Y-35327385D01*
X30726137Y-35344019D01*
X32242587Y-36860469D01*
X32272427Y-36877697D01*
X32272431Y-36877699D01*
X32272433Y-36877701D01*
X32272434Y-36877701D01*
X32322512Y-36906614D01*
X32411656Y-36930500D01*
X34503456Y-36930500D01*
X34570495Y-36950185D01*
X34591137Y-36966819D01*
X43531347Y-45907029D01*
X43564832Y-45968352D01*
X43561597Y-46033028D01*
X43506597Y-46202301D01*
X43496349Y-46267007D01*
X43479500Y-46373389D01*
X43479500Y-46546611D01*
X43506598Y-46717701D01*
X43560127Y-46882445D01*
X43638768Y-47036788D01*
X43740586Y-47176928D01*
X43863072Y-47299414D01*
X44003212Y-47401232D01*
X44157555Y-47479873D01*
X44322299Y-47533402D01*
X44493389Y-47560500D01*
X44493390Y-47560500D01*
X44666610Y-47560500D01*
X44666611Y-47560500D01*
X44837701Y-47533402D01*
X45002445Y-47479873D01*
X45156788Y-47401232D01*
X45296928Y-47299414D01*
X45419414Y-47176928D01*
X45521232Y-47036788D01*
X45599873Y-46882445D01*
X45653402Y-46717701D01*
X45680500Y-46546611D01*
X45680500Y-46373389D01*
X46019500Y-46373389D01*
X46019500Y-46546611D01*
X46046598Y-46717701D01*
X46100127Y-46882445D01*
X46178768Y-47036788D01*
X46280586Y-47176928D01*
X46403072Y-47299414D01*
X46543212Y-47401232D01*
X46697555Y-47479873D01*
X46862299Y-47533402D01*
X47033389Y-47560500D01*
X47033390Y-47560500D01*
X47206610Y-47560500D01*
X47206611Y-47560500D01*
X47377701Y-47533402D01*
X47542445Y-47479873D01*
X47696788Y-47401232D01*
X47836928Y-47299414D01*
X47959414Y-47176928D01*
X48061232Y-47036788D01*
X48139873Y-46882445D01*
X48193402Y-46717701D01*
X48220500Y-46546611D01*
X48220500Y-46373389D01*
X48193402Y-46202299D01*
X48139873Y-46037555D01*
X48061232Y-45883212D01*
X47959414Y-45743072D01*
X47836928Y-45620586D01*
X47696788Y-45518768D01*
X47542445Y-45440127D01*
X47377701Y-45386598D01*
X47377699Y-45386597D01*
X47377698Y-45386597D01*
X47246271Y-45365781D01*
X47206611Y-45359500D01*
X47033389Y-45359500D01*
X46993728Y-45365781D01*
X46862302Y-45386597D01*
X46697552Y-45440128D01*
X46543211Y-45518768D01*
X46469474Y-45572342D01*
X46403072Y-45620586D01*
X46403070Y-45620588D01*
X46403069Y-45620588D01*
X46280588Y-45743069D01*
X46280588Y-45743070D01*
X46280586Y-45743072D01*
X46236859Y-45803256D01*
X46178768Y-45883211D01*
X46100128Y-46037552D01*
X46046597Y-46202302D01*
X46036349Y-46267007D01*
X46019500Y-46373389D01*
X45680500Y-46373389D01*
X45653402Y-46202299D01*
X45599873Y-46037555D01*
X45521232Y-45883212D01*
X45419414Y-45743072D01*
X45296928Y-45620586D01*
X45156788Y-45518768D01*
X45002445Y-45440127D01*
X44837701Y-45386598D01*
X44837699Y-45386597D01*
X44837698Y-45386597D01*
X44706271Y-45365781D01*
X44666611Y-45359500D01*
X44493389Y-45359500D01*
X44461192Y-45364599D01*
X44322301Y-45386597D01*
X44153028Y-45441597D01*
X44083186Y-45443592D01*
X44027029Y-45411347D01*
X34915213Y-36299531D01*
X34915208Y-36299527D01*
X34835290Y-36253387D01*
X34835289Y-36253386D01*
X34835288Y-36253386D01*
X34746144Y-36229500D01*
X34746143Y-36229500D01*
X32654344Y-36229500D01*
X32624903Y-36220855D01*
X32594917Y-36214332D01*
X32589901Y-36210577D01*
X32587305Y-36209815D01*
X32566663Y-36193181D01*
X32546963Y-36173481D01*
X32513478Y-36112158D01*
X32518462Y-36042466D01*
X32560334Y-35986533D01*
X32625798Y-35962116D01*
X32634644Y-35961800D01*
X38614756Y-35961800D01*
X38681795Y-35981485D01*
X38702437Y-35998119D01*
X48611347Y-45907029D01*
X48644832Y-45968352D01*
X48641597Y-46033028D01*
X48586597Y-46202301D01*
X48576349Y-46267007D01*
X48559500Y-46373389D01*
X48559500Y-46546611D01*
X48586598Y-46717701D01*
X48640127Y-46882445D01*
X48718768Y-47036788D01*
X48820586Y-47176928D01*
X48943072Y-47299414D01*
X49083212Y-47401232D01*
X49237555Y-47479873D01*
X49402299Y-47533402D01*
X49573389Y-47560500D01*
X49573390Y-47560500D01*
X49746610Y-47560500D01*
X49746611Y-47560500D01*
X49917701Y-47533402D01*
X50082445Y-47479873D01*
X50236788Y-47401232D01*
X50376928Y-47299414D01*
X50499414Y-47176928D01*
X50601232Y-47036788D01*
X50679873Y-46882445D01*
X50733402Y-46717701D01*
X50760500Y-46546611D01*
X50760500Y-46373389D01*
X50733402Y-46202299D01*
X50679873Y-46037555D01*
X50601232Y-45883212D01*
X50499414Y-45743072D01*
X50376928Y-45620586D01*
X50236788Y-45518768D01*
X50082445Y-45440127D01*
X49917701Y-45386598D01*
X49917699Y-45386597D01*
X49917698Y-45386597D01*
X49786271Y-45365781D01*
X49746611Y-45359500D01*
X49573389Y-45359500D01*
X49541192Y-45364599D01*
X49402301Y-45386597D01*
X49233028Y-45441597D01*
X49163186Y-45443592D01*
X49107029Y-45411347D01*
X39028163Y-35332481D01*
X38994678Y-35271158D01*
X38999662Y-35201466D01*
X39041534Y-35145533D01*
X39106998Y-35121116D01*
X39115844Y-35120800D01*
X40313756Y-35120800D01*
X40380795Y-35140485D01*
X40401437Y-35157119D01*
X45789698Y-40545380D01*
X51151347Y-45907028D01*
X51184832Y-45968351D01*
X51181597Y-46033026D01*
X51126598Y-46202297D01*
X51126597Y-46202301D01*
X51116349Y-46267007D01*
X51099500Y-46373389D01*
X51099500Y-46546611D01*
X51126598Y-46717701D01*
X51180127Y-46882445D01*
X51258768Y-47036788D01*
X51360586Y-47176928D01*
X51483072Y-47299414D01*
X51623212Y-47401232D01*
X51777555Y-47479873D01*
X51942299Y-47533402D01*
X52113389Y-47560500D01*
X52113390Y-47560500D01*
X52286610Y-47560500D01*
X52286611Y-47560500D01*
X52457701Y-47533402D01*
X52622445Y-47479873D01*
X52776788Y-47401232D01*
X52916928Y-47299414D01*
X53039414Y-47176928D01*
X53141232Y-47036788D01*
X53219873Y-46882445D01*
X53273402Y-46717701D01*
X53300500Y-46546611D01*
X53300500Y-46373389D01*
X53273402Y-46202299D01*
X53219873Y-46037555D01*
X53141232Y-45883212D01*
X53039414Y-45743072D01*
X52916928Y-45620586D01*
X52776788Y-45518768D01*
X52622445Y-45440127D01*
X52457701Y-45386598D01*
X52457699Y-45386597D01*
X52457698Y-45386597D01*
X52326271Y-45365781D01*
X52286611Y-45359500D01*
X52113389Y-45359500D01*
X52081192Y-45364599D01*
X51942301Y-45386597D01*
X51942297Y-45386598D01*
X51773026Y-45441597D01*
X51703185Y-45443592D01*
X51647028Y-45411347D01*
X49091373Y-42855692D01*
X46112611Y-39876930D01*
X40725512Y-34489830D01*
X40725511Y-34489829D01*
X40719765Y-34484083D01*
X40720775Y-34483072D01*
X40684758Y-34433744D01*
X40680606Y-34363998D01*
X40714821Y-34303078D01*
X40776539Y-34270328D01*
X40801449Y-34267800D01*
X42709356Y-34267800D01*
X42738796Y-34276444D01*
X42768783Y-34282968D01*
X42773798Y-34286722D01*
X42776395Y-34287485D01*
X42797037Y-34304119D01*
X42856337Y-34363419D01*
X42889822Y-34424742D01*
X42884838Y-34494434D01*
X42842966Y-34550367D01*
X42777502Y-34574784D01*
X42768656Y-34575100D01*
X42752525Y-34575100D01*
X42623993Y-34609540D01*
X42612511Y-34612617D01*
X42486988Y-34685088D01*
X42486982Y-34685093D01*
X42384493Y-34787582D01*
X42384488Y-34787588D01*
X42312017Y-34913111D01*
X42312016Y-34913115D01*
X42274500Y-35053125D01*
X42274500Y-35198075D01*
X42312016Y-35338085D01*
X42312017Y-35338088D01*
X42384488Y-35463611D01*
X42384490Y-35463613D01*
X42384491Y-35463615D01*
X42486985Y-35566109D01*
X42486986Y-35566110D01*
X42486988Y-35566111D01*
X42612511Y-35638582D01*
X42612512Y-35638582D01*
X42612515Y-35638584D01*
X42752525Y-35676100D01*
X42752528Y-35676100D01*
X42897472Y-35676100D01*
X42897475Y-35676100D01*
X43037485Y-35638584D01*
X43163015Y-35566109D01*
X43265509Y-35463615D01*
X43337984Y-35338085D01*
X43375500Y-35198075D01*
X43375500Y-35181944D01*
X43395185Y-35114905D01*
X43447989Y-35069150D01*
X43517147Y-35059206D01*
X43580703Y-35088231D01*
X43587181Y-35094263D01*
X45501381Y-37008463D01*
X45534866Y-37069786D01*
X45537700Y-37096144D01*
X45537700Y-37172075D01*
X45575216Y-37312085D01*
X45575217Y-37312088D01*
X45647688Y-37437611D01*
X45647690Y-37437613D01*
X45647691Y-37437615D01*
X45750185Y-37540109D01*
X45750186Y-37540110D01*
X45750188Y-37540111D01*
X45875711Y-37612582D01*
X45875712Y-37612582D01*
X45875715Y-37612584D01*
X46015725Y-37650100D01*
X46015728Y-37650100D01*
X46160672Y-37650100D01*
X46160675Y-37650100D01*
X46300685Y-37612584D01*
X46426215Y-37540109D01*
X46528709Y-37437615D01*
X46601184Y-37312085D01*
X46638700Y-37172075D01*
X46638700Y-37027125D01*
X46601184Y-36887115D01*
X46595746Y-36877697D01*
X46528711Y-36761588D01*
X46528706Y-36761582D01*
X46426217Y-36659093D01*
X46426211Y-36659088D01*
X46300688Y-36586617D01*
X46300689Y-36586617D01*
X46289206Y-36583540D01*
X46160675Y-36549100D01*
X46160672Y-36549100D01*
X46084744Y-36549100D01*
X46017705Y-36529415D01*
X45997063Y-36512781D01*
X43121113Y-33636831D01*
X43121108Y-33636827D01*
X43041190Y-33590687D01*
X43041189Y-33590686D01*
X43041188Y-33590686D01*
X42952044Y-33566800D01*
X42952043Y-33566800D01*
X40589886Y-33566800D01*
X40522847Y-33547115D01*
X40502205Y-33530481D01*
X40448517Y-33476793D01*
X40448511Y-33476788D01*
X40322988Y-33404317D01*
X40322989Y-33404317D01*
X40311506Y-33401240D01*
X40182975Y-33366800D01*
X40038025Y-33366800D01*
X39909493Y-33401240D01*
X39898011Y-33404317D01*
X39772488Y-33476788D01*
X39772482Y-33476793D01*
X39669993Y-33579282D01*
X39669988Y-33579288D01*
X39597517Y-33704811D01*
X39597516Y-33704815D01*
X39560000Y-33844825D01*
X39560000Y-33989775D01*
X39597516Y-34129785D01*
X39597517Y-34129788D01*
X39657569Y-34233800D01*
X39674042Y-34301700D01*
X39651190Y-34367727D01*
X39596269Y-34410917D01*
X39550182Y-34419800D01*
X33654386Y-34419800D01*
X33587347Y-34400115D01*
X33566705Y-34383481D01*
X33513017Y-34329793D01*
X33513011Y-34329788D01*
X33387488Y-34257317D01*
X33387489Y-34257317D01*
X33338599Y-34244217D01*
X33247475Y-34219800D01*
X33102525Y-34219800D01*
X33011401Y-34244217D01*
X32962511Y-34257317D01*
X32836988Y-34329788D01*
X32836982Y-34329793D01*
X32734493Y-34432282D01*
X32734488Y-34432288D01*
X32662017Y-34557811D01*
X32662016Y-34557815D01*
X32624500Y-34697825D01*
X32624500Y-34697827D01*
X32624500Y-34839456D01*
X32604815Y-34906495D01*
X32552011Y-34952250D01*
X32482853Y-34962194D01*
X32419297Y-34933169D01*
X32412819Y-34927137D01*
X27027719Y-29542037D01*
X26994234Y-29480714D01*
X26991400Y-29454356D01*
X26991400Y-29378427D01*
X26991400Y-29378425D01*
X26953884Y-29238415D01*
X26881409Y-29112885D01*
X26778915Y-29010391D01*
X26758704Y-28998722D01*
X26710490Y-28948155D01*
X26697268Y-28879548D01*
X26723236Y-28814683D01*
X26733017Y-28803663D01*
X29963055Y-25573625D01*
X36122400Y-25573625D01*
X36122400Y-25718575D01*
X36135931Y-25769072D01*
X36159917Y-25858588D01*
X36232388Y-25984111D01*
X36232390Y-25984113D01*
X36232391Y-25984115D01*
X36334885Y-26086609D01*
X36334886Y-26086610D01*
X36334888Y-26086611D01*
X36460411Y-26159082D01*
X36460412Y-26159082D01*
X36460415Y-26159084D01*
X36600425Y-26196600D01*
X36600428Y-26196600D01*
X36745372Y-26196600D01*
X36745375Y-26196600D01*
X36885385Y-26159084D01*
X37010915Y-26086609D01*
X37053383Y-26044140D01*
X37114704Y-26010656D01*
X37184395Y-26015640D01*
X37203064Y-26024436D01*
X37264109Y-26059681D01*
X37264110Y-26059682D01*
X37264112Y-26059682D01*
X37264115Y-26059684D01*
X37404125Y-26097200D01*
X37480056Y-26097200D01*
X37547095Y-26116885D01*
X37567737Y-26133519D01*
X50703081Y-39268863D01*
X50736566Y-39330186D01*
X50739400Y-39356544D01*
X50739400Y-40368568D01*
X50719715Y-40435607D01*
X50666911Y-40481362D01*
X50647495Y-40488342D01*
X50612518Y-40497714D01*
X50612511Y-40497717D01*
X50486988Y-40570188D01*
X50486982Y-40570193D01*
X50384493Y-40672682D01*
X50384488Y-40672688D01*
X50312017Y-40798211D01*
X50312016Y-40798215D01*
X50274500Y-40938225D01*
X50274500Y-41083175D01*
X50300922Y-41181782D01*
X50312017Y-41223188D01*
X50384488Y-41348711D01*
X50384490Y-41348713D01*
X50384491Y-41348715D01*
X50486985Y-41451209D01*
X50486986Y-41451210D01*
X50486988Y-41451211D01*
X50612511Y-41523682D01*
X50612512Y-41523682D01*
X50612515Y-41523684D01*
X50752525Y-41561200D01*
X50752528Y-41561200D01*
X50897472Y-41561200D01*
X50897475Y-41561200D01*
X51037485Y-41523684D01*
X51163015Y-41451209D01*
X51265509Y-41348715D01*
X51337984Y-41223185D01*
X51375500Y-41083175D01*
X51375500Y-40985351D01*
X51392114Y-40923349D01*
X51416513Y-40881089D01*
X51416514Y-40881088D01*
X51419342Y-40870530D01*
X51423207Y-40856112D01*
X51431803Y-40824028D01*
X51440400Y-40791944D01*
X51440400Y-39634500D01*
X51460085Y-39567461D01*
X51512889Y-39521706D01*
X51564400Y-39510500D01*
X54867481Y-39510500D01*
X54934520Y-39530185D01*
X54977966Y-39578205D01*
X55006650Y-39634500D01*
X55058768Y-39736788D01*
X55160586Y-39876928D01*
X55283072Y-39999414D01*
X55423212Y-40101232D01*
X55577555Y-40179873D01*
X55580708Y-40180897D01*
X55581752Y-40181611D01*
X55582048Y-40181734D01*
X55582022Y-40181795D01*
X55638383Y-40220330D01*
X55665585Y-40284688D01*
X55653674Y-40353535D01*
X55606433Y-40405013D01*
X55580712Y-40416760D01*
X55481783Y-40448904D01*
X55292439Y-40545380D01*
X55238282Y-40584727D01*
X55238282Y-40584728D01*
X55870591Y-41217037D01*
X55807007Y-41234075D01*
X55692993Y-41299901D01*
X55599901Y-41392993D01*
X55534075Y-41507007D01*
X55517037Y-41570591D01*
X54884728Y-40938282D01*
X54884727Y-40938282D01*
X54845380Y-40992439D01*
X54748904Y-41181782D01*
X54683242Y-41383869D01*
X54683242Y-41383872D01*
X54650000Y-41593753D01*
X54650000Y-41806246D01*
X54683242Y-42016127D01*
X54683242Y-42016130D01*
X54748904Y-42218217D01*
X54845375Y-42407550D01*
X54884728Y-42461716D01*
X55517037Y-41829408D01*
X55534075Y-41892993D01*
X55599901Y-42007007D01*
X55692993Y-42100099D01*
X55807007Y-42165925D01*
X55870590Y-42182962D01*
X55238282Y-42815269D01*
X55238282Y-42815270D01*
X55292449Y-42854624D01*
X55481782Y-42951095D01*
X55683870Y-43016757D01*
X55893754Y-43050000D01*
X56106246Y-43050000D01*
X56316127Y-43016757D01*
X56316130Y-43016757D01*
X56518217Y-42951095D01*
X56707554Y-42854622D01*
X56761716Y-42815270D01*
X56761717Y-42815270D01*
X56129408Y-42182962D01*
X56192993Y-42165925D01*
X56307007Y-42100099D01*
X56400099Y-42007007D01*
X56465925Y-41892993D01*
X56482962Y-41829409D01*
X57115270Y-42461717D01*
X57115270Y-42461716D01*
X57154622Y-42407554D01*
X57251095Y-42218217D01*
X57316757Y-42016130D01*
X57316757Y-42016127D01*
X57350000Y-41806246D01*
X57350000Y-41593753D01*
X57316757Y-41383872D01*
X57316757Y-41383869D01*
X57251095Y-41181782D01*
X57154624Y-40992449D01*
X57115270Y-40938282D01*
X57115269Y-40938282D01*
X56482962Y-41570590D01*
X56465925Y-41507007D01*
X56400099Y-41392993D01*
X56307007Y-41299901D01*
X56192993Y-41234075D01*
X56129409Y-41217037D01*
X56761716Y-40584728D01*
X56707550Y-40545375D01*
X56518217Y-40448904D01*
X56419287Y-40416760D01*
X56361611Y-40377323D01*
X56334413Y-40312964D01*
X56346328Y-40244118D01*
X56393572Y-40192642D01*
X56419290Y-40180897D01*
X56422445Y-40179873D01*
X56576788Y-40101232D01*
X56716928Y-39999414D01*
X56839414Y-39876928D01*
X56941232Y-39736788D01*
X57019873Y-39582445D01*
X57073402Y-39417701D01*
X57100500Y-39246611D01*
X57100500Y-39073389D01*
X57073402Y-38902299D01*
X57019873Y-38737555D01*
X56941232Y-38583212D01*
X56839414Y-38443072D01*
X56716928Y-38320586D01*
X56576788Y-38218768D01*
X56422445Y-38140127D01*
X56257701Y-38086598D01*
X56257699Y-38086597D01*
X56257698Y-38086597D01*
X56126271Y-38065781D01*
X56086611Y-38059500D01*
X55913389Y-38059500D01*
X55873728Y-38065781D01*
X55742302Y-38086597D01*
X55577552Y-38140128D01*
X55423211Y-38218768D01*
X55343256Y-38276859D01*
X55283072Y-38320586D01*
X55283070Y-38320588D01*
X55283069Y-38320588D01*
X55160588Y-38443069D01*
X55160588Y-38443070D01*
X55160586Y-38443072D01*
X55116859Y-38503256D01*
X55058768Y-38583211D01*
X54977966Y-38741795D01*
X54929991Y-38792591D01*
X54867481Y-38809500D01*
X51286444Y-38809500D01*
X51219405Y-38789815D01*
X51198763Y-38773181D01*
X38063419Y-25637837D01*
X38052362Y-25617588D01*
X38037522Y-25599916D01*
X38034292Y-25584495D01*
X38029934Y-25576514D01*
X38028104Y-25565902D01*
X38027100Y-25558059D01*
X38027100Y-25474225D01*
X38006549Y-25397530D01*
X38005489Y-25389246D01*
X38009732Y-25362660D01*
X38010373Y-25335743D01*
X38015155Y-25328676D01*
X38016501Y-25320249D01*
X38034445Y-25300176D01*
X38049536Y-25277881D01*
X38057380Y-25274521D01*
X38063068Y-25268160D01*
X38089013Y-25260975D01*
X38113764Y-25250377D01*
X38128485Y-25249500D01*
X39257256Y-25249500D01*
X39324295Y-25269185D01*
X39344937Y-25285819D01*
X50238181Y-36179062D01*
X50271666Y-36240385D01*
X50274500Y-36266743D01*
X50274500Y-36342675D01*
X50312016Y-36482685D01*
X50312017Y-36482688D01*
X50384488Y-36608211D01*
X50384490Y-36608213D01*
X50384491Y-36608215D01*
X50486985Y-36710709D01*
X50486986Y-36710710D01*
X50486988Y-36710711D01*
X50612511Y-36783182D01*
X50612512Y-36783182D01*
X50612515Y-36783184D01*
X50752525Y-36820700D01*
X50752528Y-36820700D01*
X50897472Y-36820700D01*
X50897475Y-36820700D01*
X51037485Y-36783184D01*
X51163015Y-36710709D01*
X51265509Y-36608215D01*
X51308710Y-36533389D01*
X54899500Y-36533389D01*
X54899500Y-36706611D01*
X54907677Y-36758239D01*
X54923868Y-36860469D01*
X54926598Y-36877701D01*
X54980127Y-37042445D01*
X55058768Y-37196788D01*
X55160586Y-37336928D01*
X55283072Y-37459414D01*
X55423212Y-37561232D01*
X55577555Y-37639873D01*
X55742299Y-37693402D01*
X55913389Y-37720500D01*
X55913390Y-37720500D01*
X56086610Y-37720500D01*
X56086611Y-37720500D01*
X56257701Y-37693402D01*
X56422445Y-37639873D01*
X56576788Y-37561232D01*
X56716928Y-37459414D01*
X56839414Y-37336928D01*
X56941232Y-37196788D01*
X57019873Y-37042445D01*
X57073402Y-36877701D01*
X57100500Y-36706611D01*
X57100500Y-36533389D01*
X57073402Y-36362299D01*
X57019873Y-36197555D01*
X56941232Y-36043212D01*
X56839414Y-35903072D01*
X56716928Y-35780586D01*
X56576788Y-35678768D01*
X56422445Y-35600127D01*
X56257701Y-35546598D01*
X56257699Y-35546597D01*
X56257698Y-35546597D01*
X56126271Y-35525781D01*
X56086611Y-35519500D01*
X55913389Y-35519500D01*
X55873728Y-35525781D01*
X55742302Y-35546597D01*
X55577552Y-35600128D01*
X55423211Y-35678768D01*
X55366874Y-35719700D01*
X55283072Y-35780586D01*
X55283070Y-35780588D01*
X55283069Y-35780588D01*
X55160588Y-35903069D01*
X55160588Y-35903070D01*
X55160586Y-35903072D01*
X55135272Y-35937914D01*
X55058768Y-36043211D01*
X54980128Y-36197552D01*
X54926597Y-36362302D01*
X54907531Y-36482685D01*
X54899500Y-36533389D01*
X51308710Y-36533389D01*
X51337984Y-36482685D01*
X51375500Y-36342675D01*
X51375500Y-36266743D01*
X51395185Y-36199705D01*
X51411819Y-36179063D01*
X53124063Y-34466819D01*
X53185386Y-34433334D01*
X53211744Y-34430500D01*
X54867481Y-34430500D01*
X54934520Y-34450185D01*
X54977966Y-34498205D01*
X55001662Y-34544711D01*
X55058768Y-34656788D01*
X55160586Y-34796928D01*
X55283072Y-34919414D01*
X55423212Y-35021232D01*
X55577555Y-35099873D01*
X55742299Y-35153402D01*
X55913389Y-35180500D01*
X55913390Y-35180500D01*
X56086610Y-35180500D01*
X56086611Y-35180500D01*
X56257701Y-35153402D01*
X56422445Y-35099873D01*
X56576788Y-35021232D01*
X56716928Y-34919414D01*
X56839414Y-34796928D01*
X56941232Y-34656788D01*
X57019873Y-34502445D01*
X57073402Y-34337701D01*
X57100500Y-34166611D01*
X57100500Y-33993389D01*
X57073402Y-33822299D01*
X57019873Y-33657555D01*
X56941232Y-33503212D01*
X56839414Y-33363072D01*
X56716928Y-33240586D01*
X56576788Y-33138768D01*
X56422445Y-33060127D01*
X56257701Y-33006598D01*
X56257699Y-33006597D01*
X56257698Y-33006597D01*
X56126271Y-32985781D01*
X56086611Y-32979500D01*
X55913389Y-32979500D01*
X55873728Y-32985781D01*
X55742302Y-33006597D01*
X55577552Y-33060128D01*
X55423211Y-33138768D01*
X55343256Y-33196859D01*
X55283072Y-33240586D01*
X55283070Y-33240588D01*
X55283069Y-33240588D01*
X55160588Y-33363069D01*
X55160588Y-33363070D01*
X55160586Y-33363072D01*
X55130620Y-33404317D01*
X55058768Y-33503211D01*
X54977966Y-33661795D01*
X54929991Y-33712591D01*
X54867481Y-33729500D01*
X52969056Y-33729500D01*
X52879912Y-33753386D01*
X52879909Y-33753387D01*
X52799991Y-33799527D01*
X52799986Y-33799531D01*
X50916137Y-35683381D01*
X50889209Y-35698084D01*
X50863391Y-35714677D01*
X50857190Y-35715568D01*
X50854814Y-35716866D01*
X50828456Y-35719700D01*
X50821543Y-35719700D01*
X50754504Y-35700015D01*
X50733862Y-35683381D01*
X46586680Y-31536198D01*
X46503871Y-31453389D01*
X54899500Y-31453389D01*
X54899500Y-31626611D01*
X54926598Y-31797701D01*
X54980127Y-31962445D01*
X55058768Y-32116788D01*
X55160586Y-32256928D01*
X55283072Y-32379414D01*
X55423212Y-32481232D01*
X55577555Y-32559873D01*
X55742299Y-32613402D01*
X55913389Y-32640500D01*
X55913390Y-32640500D01*
X56086610Y-32640500D01*
X56086611Y-32640500D01*
X56257701Y-32613402D01*
X56422445Y-32559873D01*
X56576788Y-32481232D01*
X56716928Y-32379414D01*
X56839414Y-32256928D01*
X56941232Y-32116788D01*
X57019873Y-31962445D01*
X57073402Y-31797701D01*
X57100500Y-31626611D01*
X57100500Y-31453389D01*
X57073402Y-31282299D01*
X57019873Y-31117555D01*
X56941232Y-30963212D01*
X56839414Y-30823072D01*
X56716928Y-30700586D01*
X56576788Y-30598768D01*
X56422445Y-30520127D01*
X56257701Y-30466598D01*
X56257699Y-30466597D01*
X56257698Y-30466597D01*
X56126271Y-30445781D01*
X56086611Y-30439500D01*
X55913389Y-30439500D01*
X55873728Y-30445781D01*
X55742302Y-30466597D01*
X55577552Y-30520128D01*
X55423211Y-30598768D01*
X55363733Y-30641982D01*
X55283072Y-30700586D01*
X55283070Y-30700588D01*
X55283069Y-30700588D01*
X55160588Y-30823069D01*
X55160588Y-30823070D01*
X55160586Y-30823072D01*
X55116859Y-30883256D01*
X55058768Y-30963211D01*
X54980128Y-31117552D01*
X54926597Y-31282302D01*
X54904708Y-31420506D01*
X54899500Y-31453389D01*
X46503871Y-31453389D01*
X43175803Y-28125321D01*
X54899500Y-28125321D01*
X54899500Y-29874678D01*
X54914032Y-29947735D01*
X54914033Y-29947739D01*
X54924821Y-29963884D01*
X54969399Y-30030601D01*
X55052260Y-30085966D01*
X55052264Y-30085967D01*
X55125321Y-30100499D01*
X55125324Y-30100500D01*
X55125326Y-30100500D01*
X56874676Y-30100500D01*
X56874677Y-30100499D01*
X56947740Y-30085966D01*
X57030601Y-30030601D01*
X57085966Y-29947740D01*
X57100500Y-29874674D01*
X57100500Y-28125326D01*
X57100500Y-28125323D01*
X57100499Y-28125321D01*
X57085967Y-28052264D01*
X57085966Y-28052260D01*
X57030601Y-27969399D01*
X56947740Y-27914034D01*
X56947739Y-27914033D01*
X56947735Y-27914032D01*
X56874677Y-27899500D01*
X56874674Y-27899500D01*
X55125326Y-27899500D01*
X55125323Y-27899500D01*
X55052264Y-27914032D01*
X55052260Y-27914033D01*
X54969399Y-27969399D01*
X54914033Y-28052260D01*
X54914032Y-28052264D01*
X54899500Y-28125321D01*
X43175803Y-28125321D01*
X39669013Y-24618531D01*
X39669008Y-24618527D01*
X39589090Y-24572387D01*
X39589089Y-24572386D01*
X39589088Y-24572386D01*
X39499944Y-24548500D01*
X37227256Y-24548500D01*
X37138112Y-24572386D01*
X37138111Y-24572386D01*
X37138109Y-24572387D01*
X37138106Y-24572388D01*
X37058194Y-24618526D01*
X37058189Y-24618530D01*
X36597544Y-25079173D01*
X36541958Y-25111265D01*
X36460418Y-25133114D01*
X36460411Y-25133117D01*
X36334888Y-25205588D01*
X36334882Y-25205593D01*
X36232393Y-25308082D01*
X36232388Y-25308088D01*
X36159917Y-25433611D01*
X36159916Y-25433615D01*
X36122400Y-25573625D01*
X29963055Y-25573625D01*
X33363855Y-22172825D01*
X39464800Y-22172825D01*
X39464800Y-22317775D01*
X39502316Y-22457785D01*
X39502317Y-22457788D01*
X39574788Y-22583311D01*
X39574790Y-22583313D01*
X39574791Y-22583315D01*
X39677285Y-22685809D01*
X39677286Y-22685810D01*
X39677288Y-22685811D01*
X39802811Y-22758282D01*
X39802812Y-22758282D01*
X39802815Y-22758284D01*
X39942825Y-22795800D01*
X39942828Y-22795800D01*
X40087772Y-22795800D01*
X40087775Y-22795800D01*
X40227785Y-22758284D01*
X40353315Y-22685809D01*
X40455809Y-22583315D01*
X40528284Y-22457785D01*
X40565800Y-22317775D01*
X40565800Y-22172825D01*
X40528284Y-22032815D01*
X40455809Y-21907285D01*
X40353315Y-21804791D01*
X40353313Y-21804790D01*
X40353311Y-21804788D01*
X40227788Y-21732317D01*
X40227789Y-21732317D01*
X40216306Y-21729240D01*
X40087775Y-21694800D01*
X39942825Y-21694800D01*
X39814293Y-21729240D01*
X39802811Y-21732317D01*
X39677288Y-21804788D01*
X39677282Y-21804793D01*
X39574793Y-21907282D01*
X39574788Y-21907288D01*
X39502317Y-22032811D01*
X39502316Y-22032815D01*
X39464800Y-22172825D01*
X33363855Y-22172825D01*
X37149202Y-18387478D01*
X37210523Y-18353995D01*
X37268973Y-18355385D01*
X37404125Y-18391600D01*
X37404127Y-18391600D01*
X37549072Y-18391600D01*
X37549075Y-18391600D01*
X37689085Y-18354084D01*
X37814615Y-18281609D01*
X37917109Y-18179115D01*
X37989584Y-18053585D01*
X38027100Y-17913575D01*
X38027100Y-17768625D01*
X37989584Y-17628615D01*
X37950333Y-17560631D01*
X37917111Y-17503088D01*
X37917106Y-17503082D01*
X37814617Y-17400593D01*
X37814611Y-17400588D01*
X37689088Y-17328117D01*
X37689089Y-17328117D01*
X37677606Y-17325040D01*
X37549075Y-17290600D01*
X37404125Y-17290600D01*
X37275593Y-17325040D01*
X37264111Y-17328117D01*
X37138588Y-17400588D01*
X37138586Y-17400590D01*
X37036090Y-17503085D01*
X37028566Y-17516117D01*
X36990205Y-17554480D01*
X36991131Y-17555686D01*
X36984685Y-17560631D01*
X21956137Y-32589181D01*
X21894814Y-32622666D01*
X21868456Y-32625500D01*
X21654756Y-32625500D01*
X21598775Y-32640499D01*
X21598775Y-32640500D01*
X21587720Y-32643462D01*
X21565610Y-32649386D01*
X21565609Y-32649387D01*
X21485691Y-32695527D01*
X21485686Y-32695531D01*
X14944531Y-39236686D01*
X14944527Y-39236691D01*
X14898387Y-39316609D01*
X14898386Y-39316612D01*
X14874500Y-39405756D01*
X14874500Y-71527414D01*
X14854815Y-71594453D01*
X14838181Y-71615095D01*
X14784493Y-71668782D01*
X14784488Y-71668788D01*
X14712017Y-71794311D01*
X14712016Y-71794315D01*
X14674500Y-71934325D01*
X1500500Y-71934325D01*
X1500500Y-26914225D01*
X12350900Y-26914225D01*
X12350900Y-27059175D01*
X12365674Y-27114311D01*
X12388417Y-27199188D01*
X12460888Y-27324711D01*
X12460890Y-27324713D01*
X12460891Y-27324715D01*
X12563385Y-27427209D01*
X12563386Y-27427210D01*
X12563388Y-27427211D01*
X12688911Y-27499682D01*
X12688912Y-27499682D01*
X12688915Y-27499684D01*
X12828925Y-27537200D01*
X12828928Y-27537200D01*
X12973872Y-27537200D01*
X12973875Y-27537200D01*
X13113885Y-27499684D01*
X13239415Y-27427209D01*
X13293105Y-27373519D01*
X13354428Y-27340034D01*
X13380786Y-27337200D01*
X14531042Y-27337200D01*
X14531044Y-27337200D01*
X14620188Y-27313314D01*
X14630812Y-27307180D01*
X14700112Y-27267170D01*
X16343156Y-25624125D01*
X21954600Y-25624125D01*
X21954600Y-25769075D01*
X21992116Y-25909085D01*
X21992117Y-25909088D01*
X22064588Y-26034611D01*
X22064590Y-26034613D01*
X22064591Y-26034615D01*
X22167085Y-26137109D01*
X22167086Y-26137110D01*
X22167088Y-26137111D01*
X22292611Y-26209582D01*
X22292612Y-26209582D01*
X22292615Y-26209584D01*
X22432625Y-26247100D01*
X22432628Y-26247100D01*
X22577572Y-26247100D01*
X22577575Y-26247100D01*
X22705213Y-26212899D01*
X22775059Y-26214562D01*
X22832921Y-26253724D01*
X22860426Y-26317952D01*
X22848840Y-26386854D01*
X22844691Y-26394673D01*
X22806217Y-26461312D01*
X22806216Y-26461314D01*
X22806216Y-26461315D01*
X22768700Y-26601325D01*
X22768700Y-26746275D01*
X22776186Y-26774211D01*
X22806217Y-26886288D01*
X22878688Y-27011811D01*
X22878690Y-27011813D01*
X22878691Y-27011815D01*
X22981185Y-27114309D01*
X22981186Y-27114310D01*
X22981188Y-27114311D01*
X23106711Y-27186782D01*
X23106712Y-27186782D01*
X23106715Y-27186784D01*
X23246725Y-27224300D01*
X23246728Y-27224300D01*
X23391672Y-27224300D01*
X23391675Y-27224300D01*
X23531685Y-27186784D01*
X23657215Y-27114309D01*
X23759709Y-27011815D01*
X23832184Y-26886285D01*
X23869700Y-26746275D01*
X23869700Y-26601325D01*
X23832184Y-26461315D01*
X23759709Y-26335785D01*
X23657215Y-26233291D01*
X23657213Y-26233290D01*
X23657211Y-26233288D01*
X23531688Y-26160817D01*
X23531689Y-26160817D01*
X23513103Y-26155837D01*
X23391675Y-26123300D01*
X23246725Y-26123300D01*
X23119089Y-26157500D01*
X23049239Y-26155837D01*
X22991377Y-26116674D01*
X22963873Y-26052446D01*
X22975460Y-25983544D01*
X22979599Y-25975741D01*
X23018084Y-25909085D01*
X23055600Y-25769075D01*
X23055600Y-25624125D01*
X23018084Y-25484115D01*
X22988925Y-25433611D01*
X22945611Y-25358588D01*
X22945606Y-25358582D01*
X22843117Y-25256093D01*
X22843111Y-25256088D01*
X22717588Y-25183617D01*
X22717589Y-25183617D01*
X22706106Y-25180540D01*
X22577575Y-25146100D01*
X22432625Y-25146100D01*
X22304093Y-25180540D01*
X22292611Y-25183617D01*
X22167088Y-25256088D01*
X22167082Y-25256093D01*
X22064593Y-25358582D01*
X22064588Y-25358588D01*
X21992117Y-25484111D01*
X21992116Y-25484115D01*
X21954600Y-25624125D01*
X16343156Y-25624125D01*
X17408862Y-24558418D01*
X17470185Y-24524934D01*
X17496543Y-24522100D01*
X17572472Y-24522100D01*
X17572475Y-24522100D01*
X17712485Y-24484584D01*
X17838015Y-24412109D01*
X17940509Y-24309615D01*
X18012984Y-24184085D01*
X18012985Y-24184079D01*
X18016092Y-24176581D01*
X18017595Y-24177203D01*
X18049018Y-24125649D01*
X18111864Y-24095118D01*
X18132431Y-24093400D01*
X18918614Y-24093400D01*
X18985653Y-24113085D01*
X19006295Y-24129719D01*
X19059985Y-24183409D01*
X19059986Y-24183410D01*
X19059988Y-24183411D01*
X19185511Y-24255882D01*
X19185512Y-24255882D01*
X19185515Y-24255884D01*
X19325525Y-24293400D01*
X19325528Y-24293400D01*
X19457654Y-24293400D01*
X19524693Y-24313085D01*
X19570448Y-24365889D01*
X19580392Y-24435047D01*
X19556027Y-24492891D01*
X19553193Y-24496582D01*
X19553191Y-24496585D01*
X19553189Y-24496588D01*
X19553187Y-24496591D01*
X19480717Y-24622111D01*
X19480716Y-24622115D01*
X19443200Y-24762125D01*
X19443200Y-24907075D01*
X19480716Y-25047085D01*
X19480717Y-25047088D01*
X19553188Y-25172611D01*
X19553190Y-25172613D01*
X19553191Y-25172615D01*
X19655685Y-25275109D01*
X19655686Y-25275110D01*
X19655688Y-25275111D01*
X19781211Y-25347582D01*
X19781212Y-25347582D01*
X19781215Y-25347584D01*
X19921225Y-25385100D01*
X19921228Y-25385100D01*
X20066172Y-25385100D01*
X20066175Y-25385100D01*
X20206185Y-25347584D01*
X20331715Y-25275109D01*
X20434209Y-25172615D01*
X20506684Y-25047085D01*
X20544200Y-24907075D01*
X20544200Y-24762125D01*
X20506684Y-24622115D01*
X20504614Y-24618530D01*
X20434211Y-24496588D01*
X20434206Y-24496582D01*
X20331717Y-24394093D01*
X20331711Y-24394088D01*
X20206188Y-24321617D01*
X20206189Y-24321617D01*
X20174347Y-24313085D01*
X20066175Y-24284100D01*
X19934046Y-24284100D01*
X19867007Y-24264415D01*
X19821252Y-24211611D01*
X19811308Y-24142453D01*
X19835673Y-24084609D01*
X19838498Y-24080925D01*
X19838509Y-24080915D01*
X19910984Y-23955385D01*
X19948500Y-23815375D01*
X19948500Y-23670425D01*
X19910984Y-23530415D01*
X19869531Y-23458617D01*
X19838511Y-23404888D01*
X19838506Y-23404882D01*
X19736017Y-23302393D01*
X19736011Y-23302388D01*
X19610488Y-23229917D01*
X19610489Y-23229917D01*
X19599006Y-23226840D01*
X19470475Y-23192400D01*
X19325525Y-23192400D01*
X19196993Y-23226840D01*
X19185511Y-23229917D01*
X19059988Y-23302388D01*
X19059982Y-23302393D01*
X19006295Y-23356081D01*
X18944972Y-23389566D01*
X18918614Y-23392400D01*
X17682556Y-23392400D01*
X17591213Y-23416875D01*
X17559120Y-23421100D01*
X17427525Y-23421100D01*
X17298993Y-23455540D01*
X17287511Y-23458617D01*
X17161988Y-23531088D01*
X17161982Y-23531093D01*
X17059493Y-23633582D01*
X17059488Y-23633588D01*
X16987017Y-23759111D01*
X16987016Y-23759115D01*
X16949500Y-23899125D01*
X16949500Y-23899127D01*
X16949500Y-23975056D01*
X16929815Y-24042095D01*
X16913181Y-24062737D01*
X14376037Y-26599881D01*
X14314714Y-26633366D01*
X14288356Y-26636200D01*
X13380786Y-26636200D01*
X13313747Y-26616515D01*
X13293105Y-26599881D01*
X13239417Y-26546193D01*
X13239411Y-26546188D01*
X13113888Y-26473717D01*
X13113889Y-26473717D01*
X13067604Y-26461315D01*
X12973875Y-26436200D01*
X12828925Y-26436200D01*
X12735196Y-26461315D01*
X12688911Y-26473717D01*
X12563388Y-26546188D01*
X12563382Y-26546193D01*
X12460893Y-26648682D01*
X12460888Y-26648688D01*
X12388417Y-26774211D01*
X12388416Y-26774215D01*
X12350900Y-26914225D01*
X1500500Y-26914225D01*
X1500500Y-19869025D01*
X21956100Y-19869025D01*
X21956100Y-20013975D01*
X21961066Y-20032507D01*
X21993617Y-20153988D01*
X22066088Y-20279511D01*
X22066090Y-20279513D01*
X22066091Y-20279515D01*
X22168585Y-20382009D01*
X22168586Y-20382010D01*
X22168588Y-20382011D01*
X22294111Y-20454482D01*
X22294112Y-20454482D01*
X22294115Y-20454484D01*
X22434125Y-20492000D01*
X22434128Y-20492000D01*
X22456491Y-20492000D01*
X22523530Y-20511685D01*
X22569285Y-20564489D01*
X22579229Y-20633647D01*
X22576267Y-20648088D01*
X22571300Y-20666625D01*
X22571300Y-20811575D01*
X22608816Y-20951585D01*
X22608817Y-20951588D01*
X22681288Y-21077111D01*
X22681290Y-21077113D01*
X22681291Y-21077115D01*
X22783785Y-21179609D01*
X22783786Y-21179610D01*
X22783788Y-21179611D01*
X22909311Y-21252082D01*
X22909312Y-21252082D01*
X22909315Y-21252084D01*
X23049325Y-21289600D01*
X23049328Y-21289600D01*
X23194272Y-21289600D01*
X23194275Y-21289600D01*
X23334285Y-21252084D01*
X23459815Y-21179609D01*
X23562309Y-21077115D01*
X23634784Y-20951585D01*
X23672300Y-20811575D01*
X23672300Y-20666625D01*
X23634784Y-20526615D01*
X23562309Y-20401085D01*
X23459815Y-20298591D01*
X23459813Y-20298590D01*
X23459811Y-20298588D01*
X23334288Y-20226117D01*
X23334289Y-20226117D01*
X23322806Y-20223040D01*
X23194275Y-20188600D01*
X23171909Y-20188600D01*
X23104870Y-20168915D01*
X23059115Y-20116111D01*
X23049171Y-20046953D01*
X23052134Y-20032507D01*
X23057100Y-20013975D01*
X23057100Y-19869025D01*
X23019584Y-19729015D01*
X22947109Y-19603485D01*
X22844615Y-19500991D01*
X22844613Y-19500990D01*
X22844611Y-19500988D01*
X22719088Y-19428517D01*
X22719089Y-19428517D01*
X22707606Y-19425440D01*
X22579075Y-19391000D01*
X22434125Y-19391000D01*
X22305593Y-19425440D01*
X22294111Y-19428517D01*
X22168588Y-19500988D01*
X22168582Y-19500993D01*
X22066093Y-19603482D01*
X22066088Y-19603488D01*
X21993617Y-19729011D01*
X21993616Y-19729015D01*
X21956100Y-19869025D01*
X1500500Y-19869025D01*
X1500500Y-1624500D01*
X1520185Y-1557461D01*
X1572989Y-1511706D01*
X1624500Y-1500500D01*
X5876000Y-1500500D01*
X5943039Y-1520185D01*
G37*
%TD.AperFunction*%
%TA.AperFunction,Conductor*%
G36*
X58406052Y-47232499D02*
G01*
X58434146Y-47238401D01*
X58483904Y-47287451D01*
X58499500Y-47347656D01*
X58499500Y-48112342D01*
X58479815Y-48179381D01*
X58427011Y-48225136D01*
X58404423Y-48229128D01*
X57762962Y-48870590D01*
X57745925Y-48807007D01*
X57680099Y-48692993D01*
X57587007Y-48599901D01*
X57472993Y-48534075D01*
X57409409Y-48517037D01*
X58041716Y-47884728D01*
X57987550Y-47845375D01*
X57977954Y-47840486D01*
X57927157Y-47792512D01*
X57910361Y-47724692D01*
X57932897Y-47658556D01*
X57977954Y-47619514D01*
X57987554Y-47614622D01*
X58041716Y-47575270D01*
X58041717Y-47575270D01*
X57409408Y-46942962D01*
X57472993Y-46925925D01*
X57587007Y-46860099D01*
X57680099Y-46767007D01*
X57745925Y-46652993D01*
X57762962Y-46589408D01*
X58406052Y-47232499D01*
G37*
%TD.AperFunction*%
%TD*%
M02*
