%TF.GenerationSoftware,KiCad,Pcbnew,10.0.4*%
%TF.CreationDate,2026-07-22T20:09:27+08:00*%
%TF.ProjectId,ai_mobile_reader_routed,61695f6d-6f62-4696-9c65-5f7265616465,rev?*%
%TF.SameCoordinates,Original*%
%TF.FileFunction,Copper,L3,Inr*%
%TF.FilePolarity,Positive*%
%FSLAX46Y46*%
G04 Gerber Fmt 4.6, Leading zero omitted, Abs format (unit mm)*
G04 Created by KiCad (PCBNEW 10.0.4) date 2026-07-22 20:09:27*
%MOMM*%
%LPD*%
G01*
G04 APERTURE LIST*
G04 Aperture macros list*
%AMRoundRect*
0 Rectangle with rounded corners*
0 $1 Rounding radius*
0 $2 $3 $4 $5 $6 $7 $8 $9 X,Y pos of 4 corners*
0 Add a 4 corners polygon primitive as box body*
4,1,4,$2,$3,$4,$5,$6,$7,$8,$9,$2,$3,0*
0 Add four circle primitives for the rounded corners*
1,1,$1+$1,$2,$3*
1,1,$1+$1,$4,$5*
1,1,$1+$1,$6,$7*
1,1,$1+$1,$8,$9*
0 Add four rect primitives between the rounded corners*
20,1,$1+$1,$2,$3,$4,$5,0*
20,1,$1+$1,$4,$5,$6,$7,0*
20,1,$1+$1,$6,$7,$8,$9,0*
20,1,$1+$1,$8,$9,$2,$3,0*%
G04 Aperture macros list end*
%TA.AperFunction,ComponentPad*%
%ADD10R,1.700000X1.700000*%
%TD*%
%TA.AperFunction,ComponentPad*%
%ADD11C,1.700000*%
%TD*%
%TA.AperFunction,ComponentPad*%
%ADD12O,1.000000X2.100000*%
%TD*%
%TA.AperFunction,ComponentPad*%
%ADD13O,1.000000X1.800000*%
%TD*%
%TA.AperFunction,ComponentPad*%
%ADD14C,0.800000*%
%TD*%
%TA.AperFunction,ComponentPad*%
%ADD15C,5.000000*%
%TD*%
%TA.AperFunction,HeatsinkPad*%
%ADD16C,0.600000*%
%TD*%
%TA.AperFunction,ComponentPad*%
%ADD17RoundRect,0.250000X0.625000X-0.350000X0.625000X0.350000X-0.625000X0.350000X-0.625000X-0.350000X0*%
%TD*%
%TA.AperFunction,ComponentPad*%
%ADD18O,1.750000X1.200000*%
%TD*%
%TA.AperFunction,ViaPad*%
%ADD19C,0.600000*%
%TD*%
%TA.AperFunction,Conductor*%
%ADD20C,0.200000*%
%TD*%
G04 APERTURE END LIST*
D10*
%TO.N,BTN_BACK*%
%TO.C,J5*%
X56000000Y-29000000D03*
D11*
%TO.N,BTN_POWER*%
X56000000Y-31540000D03*
%TO.N,BTN_UP*%
X56000000Y-34080000D03*
%TO.N,BTN_HOME*%
X56000000Y-36620000D03*
%TO.N,BTN_DOWN*%
X56000000Y-39160000D03*
%TO.N,GND*%
X56000000Y-41700000D03*
%TD*%
D12*
%TO.N,GND*%
%TO.C,J1*%
X25680000Y-97095000D03*
D13*
X25680000Y-101275000D03*
D12*
X34320000Y-97095000D03*
D13*
X34320000Y-101275000D03*
%TD*%
D14*
%TO.N,GND*%
%TO.C,H1*%
X2125000Y-99000000D03*
X2674175Y-97674175D03*
X2674175Y-100325825D03*
X4000000Y-97125000D03*
D15*
X4000000Y-99000000D03*
D14*
X4000000Y-100875000D03*
X5325825Y-97674175D03*
X5325825Y-100325825D03*
X5875000Y-99000000D03*
%TD*%
D16*
%TO.N,GND*%
%TO.C,U1*%
X27100000Y-22760000D03*
X27100000Y-24160000D03*
X27800000Y-22060000D03*
X27800000Y-23460000D03*
X27800000Y-24860000D03*
X28500000Y-22760000D03*
X28500000Y-24160000D03*
X29200000Y-22060000D03*
X29200000Y-23460000D03*
X29200000Y-24860000D03*
X29900000Y-22760000D03*
X29900000Y-24160000D03*
%TD*%
D14*
%TO.N,GND*%
%TO.C,H2*%
X54125000Y-99000000D03*
X54674175Y-97674175D03*
X54674175Y-100325825D03*
X56000000Y-97125000D03*
D15*
X56000000Y-99000000D03*
D14*
X56000000Y-100875000D03*
X57325825Y-97674175D03*
X57325825Y-100325825D03*
X57875000Y-99000000D03*
%TD*%
D17*
%TO.N,VBAT*%
%TO.C,J2*%
X5000000Y-80000000D03*
D18*
%TO.N,GND*%
X5000000Y-78000000D03*
%TD*%
D19*
%TO.N,USB_VBUS*%
X32358700Y-95142200D03*
X37551100Y-92362900D03*
X11843800Y-83835900D03*
X11784200Y-95100800D03*
%TO.N,GND*%
X16906300Y-89958700D03*
X51397100Y-61012400D03*
X33936500Y-60424500D03*
X37275000Y-60424500D03*
X40323800Y-60652800D03*
X5265000Y-37400000D03*
X14987100Y-57077100D03*
X16905000Y-71752000D03*
X8647000Y-85928200D03*
X43095000Y-60824500D03*
X12824100Y-71752100D03*
X16905000Y-80632000D03*
X19638800Y-19503200D03*
X10469000Y-81678500D03*
X13995000Y-77672100D03*
X47612300Y-47300200D03*
X11968400Y-35145000D03*
X13997800Y-84120000D03*
X32155000Y-65820000D03*
X54735000Y-60424500D03*
X41971900Y-48447000D03*
X19323700Y-24785700D03*
X46650700Y-61019700D03*
X25339700Y-95143100D03*
X39383800Y-96755300D03*
X21925500Y-67308400D03*
X26158000Y-87214800D03*
X19047700Y-16778600D03*
X25019000Y-87987900D03*
X18983900Y-57203500D03*
X46005000Y-58320000D03*
X7632800Y-87628500D03*
X8947900Y-90730500D03*
X57590000Y-45510000D03*
X34422400Y-87555600D03*
X8084600Y-65844500D03*
X23015800Y-87987900D03*
X36910000Y-15845000D03*
X46805000Y-27765000D03*
X34365000Y-84250000D03*
X57590000Y-51415000D03*
X45275000Y-45265000D03*
X24912800Y-81749700D03*
X8390000Y-89887000D03*
X8000100Y-53980000D03*
X31013000Y-84175800D03*
X27520700Y-57840000D03*
X52340000Y-28640000D03*
X16905000Y-19484500D03*
X28733600Y-69740700D03*
X33161200Y-95142200D03*
X47922200Y-63055200D03*
%TO.N,+3V3*%
X10475200Y-66532000D03*
X34249700Y-70066400D03*
%TO.N,BTN_DOWN*%
X40028000Y-24867100D03*
%TO.N,EPD_VSH2*%
X34000000Y-65670000D03*
%TO.N,BTN_BACK*%
X40570000Y-22300000D03*
X40934600Y-31396300D03*
%TO.N,BTN_POWER*%
X46005000Y-33500000D03*
%TO.N,BTN_UP*%
X36910000Y-28860000D03*
%TO.N,BTN_HOME*%
X41337300Y-25931900D03*
X46875100Y-40949400D03*
%TO.N,USB_D-*%
X25578500Y-31481500D03*
X34365000Y-89638700D03*
%TO.N,PREVGH*%
X44082800Y-63055200D03*
X27000000Y-62953300D03*
%TO.N,EPD_VSH1*%
X43000000Y-64963600D03*
%TO.N,PREVGL*%
X51825000Y-66600000D03*
X24650000Y-68820400D03*
%TO.N,EPD_RESE*%
X16681000Y-63873100D03*
X35527400Y-65412600D03*
%TO.N,SD_CS*%
X43387900Y-52732500D03*
X30565200Y-32067600D03*
%TO.N,EN*%
X17403200Y-24892000D03*
X19878600Y-17928700D03*
%TO.N,BAT_ADC*%
X36910000Y-17305000D03*
X16027500Y-71481000D03*
X16675000Y-28640000D03*
%TO.N,USB_D+*%
X38400400Y-92821800D03*
X22725000Y-37400000D03*
X31455000Y-89637100D03*
%TO.N,EPD_VCOM*%
X53832200Y-63055200D03*
X23395600Y-66055100D03*
%TO.N,SD_DAT1*%
X48288400Y-48133200D03*
X48751700Y-58003300D03*
%TO.N,EPD_VSL*%
X49000000Y-65452700D03*
%TO.N,EPD_BUSY*%
X31558400Y-69590800D03*
X25635000Y-19880000D03*
%TO.N,EPD_CS*%
X29907800Y-68334600D03*
X28340000Y-31630000D03*
%TO.N,EPD_DC*%
X30648600Y-69403500D03*
X22521500Y-24173500D03*
%TO.N,EPD_RST*%
X23088400Y-25491600D03*
X30618900Y-65563300D03*
%TO.N,SPI_MOSI*%
X34127900Y-68845300D03*
X45275000Y-52065000D03*
X22665500Y-27761100D03*
X40957500Y-57500000D03*
%TO.N,SPI_SCK*%
X23090000Y-28640000D03*
X31074300Y-62751500D03*
X43252700Y-46498100D03*
%TO.N,EPD_GDR*%
X35021500Y-62846900D03*
%TO.N,EPD_VDD*%
X38771800Y-63950000D03*
%TD*%
%TO.N,USB_VBUS*%
D20*
X11843800Y-95041200D02*
X11784200Y-95100800D01*
X11843800Y-83835900D02*
X11843800Y-95041200D01*
%TO.N,BTN_BACK*%
X40735600Y-31197300D02*
X40934600Y-31396300D01*
X40735600Y-22465600D02*
X40735600Y-31197300D01*
X40570000Y-22300000D02*
X40735600Y-22465600D01*
%TO.N,USB_D-*%
X25578500Y-31481500D02*
X25578500Y-80852200D01*
X25578500Y-80852200D02*
X34365000Y-89638700D01*
%TO.N,EN*%
X17403200Y-24892000D02*
X17403200Y-20404100D01*
X17403200Y-20404100D02*
X19878600Y-17928700D01*
%TO.N,BAT_ADC*%
X16027500Y-29287500D02*
X16675000Y-28640000D01*
X16027500Y-71481000D02*
X16027500Y-29287500D01*
%TO.N,USB_D+*%
X22725000Y-37400000D02*
X22725000Y-80907100D01*
X22725000Y-80907100D02*
X31455000Y-89637100D01*
%TO.N,SD_DAT1*%
X48288400Y-48133200D02*
X48751700Y-48596500D01*
X48751700Y-48596500D02*
X48751700Y-58003300D01*
%TO.N,EPD_BUSY*%
X41359200Y-39324500D02*
X25635000Y-23600300D01*
X31501400Y-69533800D02*
X31501400Y-65140800D01*
X31558400Y-69590800D02*
X31501400Y-69533800D01*
X31501400Y-65140800D02*
X41359200Y-55283000D01*
X41359200Y-55283000D02*
X41359200Y-39324500D01*
X25635000Y-23600300D02*
X25635000Y-19880000D01*
%TO.N,EPD_CS*%
X28340000Y-31630000D02*
X29907800Y-33197800D01*
X29907800Y-33197800D02*
X29907800Y-68334600D01*
%TO.N,EPD_DC*%
X26289700Y-29914700D02*
X22443000Y-26068000D01*
X26289700Y-65583500D02*
X26289700Y-29914700D01*
X22443000Y-24252000D02*
X22521500Y-24173500D01*
X22443000Y-26068000D02*
X22443000Y-24252000D01*
X30109700Y-69403500D02*
X26289700Y-65583500D01*
X30648600Y-69403500D02*
X30109700Y-69403500D01*
%TO.N,EPD_RST*%
X23088400Y-25491600D02*
X30472600Y-32875800D01*
X30472600Y-32875800D02*
X30472600Y-65417000D01*
X30472600Y-65417000D02*
X30618900Y-65563300D01*
%TO.N,SPI_MOSI*%
X40957500Y-59117500D02*
X40957500Y-57500000D01*
X37875200Y-62199800D02*
X40957500Y-59117500D01*
X37875200Y-65098000D02*
X37875200Y-62199800D01*
X34127900Y-68845300D02*
X37875200Y-65098000D01*
%TD*%
%TA.AperFunction,Conductor*%
%TO.N,GND*%
G36*
X26813333Y-29721860D02*
G01*
X26846834Y-29745716D01*
X28070696Y-30969578D01*
X28104181Y-31030901D01*
X28099197Y-31100593D01*
X28057325Y-31156526D01*
X28045018Y-31164645D01*
X28001985Y-31189491D01*
X28001982Y-31189493D01*
X27899493Y-31291982D01*
X27899488Y-31291988D01*
X27827017Y-31417511D01*
X27827016Y-31417515D01*
X27789500Y-31557525D01*
X27789500Y-31702475D01*
X27825495Y-31836809D01*
X27827017Y-31842488D01*
X27899488Y-31968011D01*
X27899490Y-31968013D01*
X27899491Y-31968015D01*
X28001985Y-32070509D01*
X28001986Y-32070510D01*
X28001988Y-32070511D01*
X28127511Y-32142982D01*
X28127512Y-32142982D01*
X28127515Y-32142984D01*
X28267525Y-32180500D01*
X28343456Y-32180500D01*
X28410495Y-32200185D01*
X28431137Y-32216819D01*
X29520981Y-33306663D01*
X29554466Y-33367986D01*
X29557300Y-33394344D01*
X29557300Y-67855214D01*
X29550230Y-67879290D01*
X29547211Y-67904208D01*
X29539630Y-67915388D01*
X29537615Y-67922253D01*
X29528793Y-67934315D01*
X29525086Y-67938789D01*
X29467291Y-67996585D01*
X29444470Y-68036111D01*
X29437800Y-68044164D01*
X29417151Y-68058091D01*
X29399126Y-68075279D01*
X29388689Y-68077290D01*
X29379876Y-68083235D01*
X29354972Y-68083788D01*
X29330519Y-68088501D01*
X29320651Y-68084550D01*
X29310023Y-68084787D01*
X29288775Y-68071789D01*
X29265654Y-68062533D01*
X29254626Y-68052744D01*
X26676519Y-65474637D01*
X26643034Y-65413314D01*
X26640200Y-65386956D01*
X26640200Y-63588410D01*
X26659885Y-63521371D01*
X26712689Y-63475616D01*
X26781847Y-63465672D01*
X26796272Y-63468630D01*
X26927525Y-63503800D01*
X26927528Y-63503800D01*
X27072472Y-63503800D01*
X27072475Y-63503800D01*
X27212485Y-63466284D01*
X27338015Y-63393809D01*
X27440509Y-63291315D01*
X27512984Y-63165785D01*
X27550500Y-63025775D01*
X27550500Y-62880825D01*
X27512984Y-62740815D01*
X27499339Y-62717182D01*
X27440511Y-62615288D01*
X27440506Y-62615282D01*
X27338017Y-62512793D01*
X27338011Y-62512788D01*
X27212488Y-62440317D01*
X27212489Y-62440317D01*
X27197501Y-62436301D01*
X27072475Y-62402800D01*
X26927525Y-62402800D01*
X26796292Y-62437963D01*
X26726444Y-62436301D01*
X26668581Y-62397139D01*
X26641077Y-62332910D01*
X26640200Y-62318189D01*
X26640200Y-29868558D01*
X26640200Y-29868556D01*
X26639378Y-29865488D01*
X26639442Y-29862801D01*
X26639139Y-29860500D01*
X26639497Y-29860452D01*
X26641041Y-29795641D01*
X26680203Y-29737779D01*
X26744431Y-29710274D01*
X26813333Y-29721860D01*
G37*
%TD.AperFunction*%
%TA.AperFunction,Conductor*%
G36*
X5943039Y-1520185D02*
G01*
X5988794Y-1572989D01*
X6000000Y-1624500D01*
X6000000Y-14250000D01*
X18876000Y-14250000D01*
X18943039Y-14269685D01*
X18988794Y-14322489D01*
X19000000Y-14374000D01*
X19000000Y-14500000D01*
X41000000Y-14500000D01*
X41000000Y-14374000D01*
X41019685Y-14306961D01*
X41072489Y-14261206D01*
X41124000Y-14250000D01*
X54000000Y-14250000D01*
X54000000Y-1624500D01*
X54019685Y-1557461D01*
X54072489Y-1511706D01*
X54124000Y-1500500D01*
X58375500Y-1500500D01*
X58442539Y-1520185D01*
X58488294Y-1572989D01*
X58499500Y-1624500D01*
X58499500Y-102375500D01*
X58479815Y-102442539D01*
X58427011Y-102488294D01*
X58375500Y-102499500D01*
X35203765Y-102499500D01*
X35136726Y-102479815D01*
X35090971Y-102427011D01*
X35081027Y-102357853D01*
X35100663Y-102306609D01*
X35206185Y-102148684D01*
X35206192Y-102148671D01*
X35281569Y-101966693D01*
X35281572Y-101966681D01*
X35319999Y-101773495D01*
X35320000Y-101773492D01*
X35320000Y-101525000D01*
X34620000Y-101525000D01*
X34620000Y-101025000D01*
X35320000Y-101025000D01*
X35320000Y-100776508D01*
X35319999Y-100776504D01*
X35281572Y-100583318D01*
X35281569Y-100583306D01*
X35206192Y-100401328D01*
X35206185Y-100401315D01*
X35096751Y-100237537D01*
X35096748Y-100237533D01*
X34957466Y-100098251D01*
X34957462Y-100098248D01*
X34793684Y-99988814D01*
X34793671Y-99988807D01*
X34611691Y-99913429D01*
X34611683Y-99913427D01*
X34570000Y-99905135D01*
X34570000Y-100708011D01*
X34560060Y-100690795D01*
X34504205Y-100634940D01*
X34435796Y-100595444D01*
X34359496Y-100575000D01*
X34280504Y-100575000D01*
X34204204Y-100595444D01*
X34135795Y-100634940D01*
X34079940Y-100690795D01*
X34070000Y-100708011D01*
X34070000Y-99905136D01*
X34069999Y-99905135D01*
X34028316Y-99913427D01*
X34028308Y-99913429D01*
X33846328Y-99988807D01*
X33846315Y-99988814D01*
X33682537Y-100098248D01*
X33682533Y-100098251D01*
X33543251Y-100237533D01*
X33543248Y-100237537D01*
X33433814Y-100401315D01*
X33433807Y-100401328D01*
X33358430Y-100583306D01*
X33358427Y-100583318D01*
X33320000Y-100776504D01*
X33320000Y-101025000D01*
X34020000Y-101025000D01*
X34020000Y-101525000D01*
X33320000Y-101525000D01*
X33320000Y-101773495D01*
X33358427Y-101966681D01*
X33358430Y-101966693D01*
X33433807Y-102148671D01*
X33433814Y-102148684D01*
X33539337Y-102306609D01*
X33560215Y-102373286D01*
X33541731Y-102440667D01*
X33489752Y-102487357D01*
X33436235Y-102499500D01*
X26563765Y-102499500D01*
X26496726Y-102479815D01*
X26450971Y-102427011D01*
X26441027Y-102357853D01*
X26460663Y-102306609D01*
X26566185Y-102148684D01*
X26566192Y-102148671D01*
X26641569Y-101966693D01*
X26641572Y-101966681D01*
X26679999Y-101773495D01*
X26680000Y-101773492D01*
X26680000Y-101525000D01*
X25980000Y-101525000D01*
X25980000Y-101025000D01*
X26680000Y-101025000D01*
X26680000Y-100776508D01*
X26679999Y-100776504D01*
X26641572Y-100583318D01*
X26641569Y-100583306D01*
X26566192Y-100401328D01*
X26566185Y-100401315D01*
X26456751Y-100237537D01*
X26456748Y-100237533D01*
X26317466Y-100098251D01*
X26317462Y-100098248D01*
X26153684Y-99988814D01*
X26153671Y-99988807D01*
X25971691Y-99913429D01*
X25971683Y-99913427D01*
X25930000Y-99905135D01*
X25930000Y-100708011D01*
X25920060Y-100690795D01*
X25864205Y-100634940D01*
X25795796Y-100595444D01*
X25719496Y-100575000D01*
X25640504Y-100575000D01*
X25564204Y-100595444D01*
X25495795Y-100634940D01*
X25439940Y-100690795D01*
X25430000Y-100708011D01*
X25430000Y-99905136D01*
X25429999Y-99905135D01*
X25388316Y-99913427D01*
X25388308Y-99913429D01*
X25206328Y-99988807D01*
X25206315Y-99988814D01*
X25042537Y-100098248D01*
X25042533Y-100098251D01*
X24903251Y-100237533D01*
X24903248Y-100237537D01*
X24793814Y-100401315D01*
X24793807Y-100401328D01*
X24718430Y-100583306D01*
X24718427Y-100583318D01*
X24680000Y-100776504D01*
X24680000Y-101025000D01*
X25380000Y-101025000D01*
X25380000Y-101525000D01*
X24680000Y-101525000D01*
X24680000Y-101773495D01*
X24718427Y-101966681D01*
X24718430Y-101966693D01*
X24793807Y-102148671D01*
X24793814Y-102148684D01*
X24899337Y-102306609D01*
X24920215Y-102373286D01*
X24901731Y-102440667D01*
X24849752Y-102487357D01*
X24796235Y-102499500D01*
X1624500Y-102499500D01*
X1557461Y-102479815D01*
X1511706Y-102427011D01*
X1500500Y-102375500D01*
X1500500Y-96446504D01*
X24680000Y-96446504D01*
X24680000Y-96845000D01*
X25380000Y-96845000D01*
X25380000Y-97345000D01*
X24680000Y-97345000D01*
X24680000Y-97743495D01*
X24718427Y-97936681D01*
X24718430Y-97936693D01*
X24793807Y-98118671D01*
X24793814Y-98118684D01*
X24903248Y-98282462D01*
X24903251Y-98282466D01*
X25042533Y-98421748D01*
X25042537Y-98421751D01*
X25206315Y-98531185D01*
X25206328Y-98531192D01*
X25388308Y-98606569D01*
X25430000Y-98614862D01*
X25430000Y-97811988D01*
X25439940Y-97829205D01*
X25495795Y-97885060D01*
X25564204Y-97924556D01*
X25640504Y-97945000D01*
X25719496Y-97945000D01*
X25795796Y-97924556D01*
X25864205Y-97885060D01*
X25920060Y-97829205D01*
X25930000Y-97811988D01*
X25930000Y-98614862D01*
X25971690Y-98606569D01*
X25971692Y-98606569D01*
X26153671Y-98531192D01*
X26153684Y-98531185D01*
X26317462Y-98421751D01*
X26317466Y-98421748D01*
X26456748Y-98282466D01*
X26456751Y-98282462D01*
X26566185Y-98118684D01*
X26566187Y-98118680D01*
X26610871Y-98010802D01*
X26654712Y-97956399D01*
X26721006Y-97934333D01*
X26788705Y-97951612D01*
X26813114Y-97970573D01*
X26818036Y-97975495D01*
X26926464Y-98038095D01*
X27047399Y-98070500D01*
X27047401Y-98070500D01*
X27172599Y-98070500D01*
X27172601Y-98070500D01*
X27293536Y-98038095D01*
X27401964Y-97975495D01*
X27490495Y-97886964D01*
X27553095Y-97778536D01*
X27585500Y-97657601D01*
X27585500Y-97532399D01*
X32414500Y-97532399D01*
X32414500Y-97657601D01*
X32446905Y-97778536D01*
X32509505Y-97886964D01*
X32598036Y-97975495D01*
X32706464Y-98038095D01*
X32827399Y-98070500D01*
X32827401Y-98070500D01*
X32952599Y-98070500D01*
X32952601Y-98070500D01*
X33073536Y-98038095D01*
X33181964Y-97975495D01*
X33186883Y-97970575D01*
X33248202Y-97937089D01*
X33317894Y-97942070D01*
X33373830Y-97983939D01*
X33389127Y-98010802D01*
X33433807Y-98118671D01*
X33433814Y-98118684D01*
X33543248Y-98282462D01*
X33543251Y-98282466D01*
X33682533Y-98421748D01*
X33682537Y-98421751D01*
X33846315Y-98531185D01*
X33846328Y-98531192D01*
X34028308Y-98606569D01*
X34070000Y-98614862D01*
X34070000Y-97811988D01*
X34079940Y-97829205D01*
X34135795Y-97885060D01*
X34204204Y-97924556D01*
X34280504Y-97945000D01*
X34359496Y-97945000D01*
X34435796Y-97924556D01*
X34504205Y-97885060D01*
X34560060Y-97829205D01*
X34570000Y-97811988D01*
X34570000Y-98614862D01*
X34611690Y-98606569D01*
X34611692Y-98606569D01*
X34793671Y-98531192D01*
X34793684Y-98531185D01*
X34957462Y-98421751D01*
X34957466Y-98421748D01*
X35096748Y-98282466D01*
X35096751Y-98282462D01*
X35206185Y-98118684D01*
X35206192Y-98118671D01*
X35281569Y-97936693D01*
X35281572Y-97936681D01*
X35319999Y-97743495D01*
X35320000Y-97743492D01*
X35320000Y-97345000D01*
X34620000Y-97345000D01*
X34620000Y-96845000D01*
X35320000Y-96845000D01*
X35320000Y-96446508D01*
X35319999Y-96446504D01*
X35281572Y-96253318D01*
X35281569Y-96253306D01*
X35206192Y-96071328D01*
X35206185Y-96071315D01*
X35096751Y-95907537D01*
X35096748Y-95907533D01*
X34957466Y-95768251D01*
X34957462Y-95768248D01*
X34793684Y-95658814D01*
X34793671Y-95658807D01*
X34611691Y-95583429D01*
X34611683Y-95583427D01*
X34570000Y-95575135D01*
X34570000Y-96378011D01*
X34560060Y-96360795D01*
X34504205Y-96304940D01*
X34435796Y-96265444D01*
X34359496Y-96245000D01*
X34280504Y-96245000D01*
X34204204Y-96265444D01*
X34135795Y-96304940D01*
X34079940Y-96360795D01*
X34070000Y-96378011D01*
X34070000Y-95575136D01*
X34069999Y-95575135D01*
X34028316Y-95583427D01*
X34028308Y-95583429D01*
X33846328Y-95658807D01*
X33846315Y-95658814D01*
X33682537Y-95768248D01*
X33682533Y-95768251D01*
X33543251Y-95907533D01*
X33543248Y-95907537D01*
X33433814Y-96071315D01*
X33433807Y-96071328D01*
X33358430Y-96253306D01*
X33358427Y-96253318D01*
X33320000Y-96446504D01*
X33320000Y-96845000D01*
X34020000Y-96845000D01*
X34020000Y-97345000D01*
X33363821Y-97345000D01*
X33296782Y-97325315D01*
X33276140Y-97308681D01*
X33181965Y-97214506D01*
X33181964Y-97214505D01*
X33073536Y-97151905D01*
X33073537Y-97151905D01*
X33033224Y-97141103D01*
X32952601Y-97119500D01*
X32827399Y-97119500D01*
X32746775Y-97141103D01*
X32706463Y-97151905D01*
X32598037Y-97214504D01*
X32598034Y-97214506D01*
X32509506Y-97303034D01*
X32509504Y-97303037D01*
X32446905Y-97411463D01*
X32446905Y-97411464D01*
X32414500Y-97532399D01*
X27585500Y-97532399D01*
X27553095Y-97411464D01*
X27490495Y-97303036D01*
X27401964Y-97214505D01*
X27293536Y-97151905D01*
X27293537Y-97151905D01*
X27253224Y-97141103D01*
X27172601Y-97119500D01*
X27047399Y-97119500D01*
X26966775Y-97141103D01*
X26926463Y-97151905D01*
X26818037Y-97214504D01*
X26818034Y-97214506D01*
X26723860Y-97308681D01*
X26662537Y-97342166D01*
X26636179Y-97345000D01*
X25980000Y-97345000D01*
X25980000Y-96845000D01*
X26680000Y-96845000D01*
X26680000Y-96446508D01*
X26679999Y-96446504D01*
X26641572Y-96253318D01*
X26641569Y-96253306D01*
X26566192Y-96071328D01*
X26566185Y-96071315D01*
X26456751Y-95907537D01*
X26456748Y-95907533D01*
X26317466Y-95768251D01*
X26317462Y-95768248D01*
X26153684Y-95658814D01*
X26153671Y-95658807D01*
X25971691Y-95583429D01*
X25971683Y-95583427D01*
X25930000Y-95575135D01*
X25930000Y-96378011D01*
X25920060Y-96360795D01*
X25864205Y-96304940D01*
X25795796Y-96265444D01*
X25719496Y-96245000D01*
X25640504Y-96245000D01*
X25564204Y-96265444D01*
X25495795Y-96304940D01*
X25439940Y-96360795D01*
X25430000Y-96378011D01*
X25430000Y-95575136D01*
X25429999Y-95575135D01*
X25388316Y-95583427D01*
X25388308Y-95583429D01*
X25206328Y-95658807D01*
X25206315Y-95658814D01*
X25042537Y-95768248D01*
X25042533Y-95768251D01*
X24903251Y-95907533D01*
X24903248Y-95907537D01*
X24793814Y-96071315D01*
X24793807Y-96071328D01*
X24718430Y-96253306D01*
X24718427Y-96253318D01*
X24680000Y-96446504D01*
X1500500Y-96446504D01*
X1500500Y-95028325D01*
X11233700Y-95028325D01*
X11233700Y-95173275D01*
X11271216Y-95313285D01*
X11271217Y-95313288D01*
X11343688Y-95438811D01*
X11343690Y-95438813D01*
X11343691Y-95438815D01*
X11446185Y-95541309D01*
X11446186Y-95541310D01*
X11446188Y-95541311D01*
X11571711Y-95613782D01*
X11571712Y-95613782D01*
X11571715Y-95613784D01*
X11711725Y-95651300D01*
X11711728Y-95651300D01*
X11856672Y-95651300D01*
X11856675Y-95651300D01*
X11996685Y-95613784D01*
X12122215Y-95541309D01*
X12224709Y-95438815D01*
X12297184Y-95313285D01*
X12334700Y-95173275D01*
X12334700Y-95069725D01*
X31808200Y-95069725D01*
X31808200Y-95214675D01*
X31834623Y-95313285D01*
X31845717Y-95354688D01*
X31918188Y-95480211D01*
X31918190Y-95480213D01*
X31918191Y-95480215D01*
X32020685Y-95582709D01*
X32020686Y-95582710D01*
X32020688Y-95582711D01*
X32146211Y-95655182D01*
X32146212Y-95655182D01*
X32146215Y-95655184D01*
X32286225Y-95692700D01*
X32286228Y-95692700D01*
X32431172Y-95692700D01*
X32431175Y-95692700D01*
X32571185Y-95655184D01*
X32696715Y-95582709D01*
X32799209Y-95480215D01*
X32871684Y-95354685D01*
X32909200Y-95214675D01*
X32909200Y-95069725D01*
X32871684Y-94929715D01*
X32847779Y-94888311D01*
X32799211Y-94804188D01*
X32799206Y-94804182D01*
X32696717Y-94701693D01*
X32696711Y-94701688D01*
X32571188Y-94629217D01*
X32571189Y-94629217D01*
X32559706Y-94626140D01*
X32431175Y-94591700D01*
X32286225Y-94591700D01*
X32157693Y-94626140D01*
X32146211Y-94629217D01*
X32020688Y-94701688D01*
X32020682Y-94701693D01*
X31918193Y-94804182D01*
X31918188Y-94804188D01*
X31845717Y-94929711D01*
X31845716Y-94929715D01*
X31808200Y-95069725D01*
X12334700Y-95069725D01*
X12334700Y-95028325D01*
X12297184Y-94888315D01*
X12224709Y-94762785D01*
X12224706Y-94762782D01*
X12219924Y-94756549D01*
X12194730Y-94691380D01*
X12194300Y-94681063D01*
X12194300Y-92290425D01*
X37000600Y-92290425D01*
X37000600Y-92435375D01*
X37038116Y-92575385D01*
X37038117Y-92575388D01*
X37110588Y-92700911D01*
X37110590Y-92700913D01*
X37110591Y-92700915D01*
X37213085Y-92803409D01*
X37213086Y-92803410D01*
X37213088Y-92803411D01*
X37338611Y-92875882D01*
X37338612Y-92875882D01*
X37338615Y-92875884D01*
X37478625Y-92913400D01*
X37478628Y-92913400D01*
X37623572Y-92913400D01*
X37623575Y-92913400D01*
X37719748Y-92887630D01*
X37789595Y-92889293D01*
X37847457Y-92928455D01*
X37871614Y-92975310D01*
X37887417Y-93034289D01*
X37959888Y-93159811D01*
X37959890Y-93159813D01*
X37959891Y-93159815D01*
X38062385Y-93262309D01*
X38062386Y-93262310D01*
X38062388Y-93262311D01*
X38187911Y-93334782D01*
X38187912Y-93334782D01*
X38187915Y-93334784D01*
X38327925Y-93372300D01*
X38327928Y-93372300D01*
X38472872Y-93372300D01*
X38472875Y-93372300D01*
X38612885Y-93334784D01*
X38738415Y-93262309D01*
X38840909Y-93159815D01*
X38913384Y-93034285D01*
X38950900Y-92894275D01*
X38950900Y-92749325D01*
X38913384Y-92609315D01*
X38893794Y-92575385D01*
X38840911Y-92483788D01*
X38840906Y-92483782D01*
X38738417Y-92381293D01*
X38738411Y-92381288D01*
X38612888Y-92308817D01*
X38612889Y-92308817D01*
X38601406Y-92305740D01*
X38472875Y-92271300D01*
X38327925Y-92271300D01*
X38231753Y-92297069D01*
X38161903Y-92295406D01*
X38104041Y-92256243D01*
X38079886Y-92209389D01*
X38064084Y-92150415D01*
X37991609Y-92024885D01*
X37889115Y-91922391D01*
X37889113Y-91922390D01*
X37889111Y-91922388D01*
X37763588Y-91849917D01*
X37763589Y-91849917D01*
X37752106Y-91846840D01*
X37623575Y-91812400D01*
X37478625Y-91812400D01*
X37350093Y-91846840D01*
X37338611Y-91849917D01*
X37213088Y-91922388D01*
X37213082Y-91922393D01*
X37110593Y-92024882D01*
X37110588Y-92024888D01*
X37038117Y-92150411D01*
X37038116Y-92150415D01*
X37000600Y-92290425D01*
X12194300Y-92290425D01*
X12194300Y-84315286D01*
X12213985Y-84248247D01*
X12230619Y-84227605D01*
X12284309Y-84173915D01*
X12356784Y-84048385D01*
X12394300Y-83908375D01*
X12394300Y-83763425D01*
X12356784Y-83623415D01*
X12284309Y-83497885D01*
X12181815Y-83395391D01*
X12181813Y-83395390D01*
X12181811Y-83395388D01*
X12056288Y-83322917D01*
X12056289Y-83322917D01*
X12044806Y-83319840D01*
X11916275Y-83285400D01*
X11771325Y-83285400D01*
X11642793Y-83319840D01*
X11631311Y-83322917D01*
X11505788Y-83395388D01*
X11505782Y-83395393D01*
X11403293Y-83497882D01*
X11403288Y-83497888D01*
X11330817Y-83623411D01*
X11330816Y-83623415D01*
X11293300Y-83763425D01*
X11293300Y-83908375D01*
X11330816Y-84048385D01*
X11330817Y-84048388D01*
X11403288Y-84173911D01*
X11403293Y-84173917D01*
X11456981Y-84227605D01*
X11490466Y-84288928D01*
X11493300Y-84315286D01*
X11493300Y-94562988D01*
X11473615Y-94630027D01*
X11451479Y-94654091D01*
X11451932Y-94654544D01*
X11343693Y-94762782D01*
X11343688Y-94762788D01*
X11271217Y-94888311D01*
X11271216Y-94888315D01*
X11233700Y-95028325D01*
X1500500Y-95028325D01*
X1500500Y-77749999D01*
X3650884Y-77749999D01*
X3650885Y-77750000D01*
X4719670Y-77750000D01*
X4699925Y-77769745D01*
X4650556Y-77855255D01*
X4625000Y-77950630D01*
X4625000Y-78049370D01*
X4650556Y-78144745D01*
X4699925Y-78230255D01*
X4719670Y-78250000D01*
X3650885Y-78250000D01*
X3652085Y-78257584D01*
X3705591Y-78422255D01*
X3784195Y-78576524D01*
X3885967Y-78716602D01*
X4008397Y-78839032D01*
X4148475Y-78940804D01*
X4191162Y-78962554D01*
X4241958Y-79010529D01*
X4258753Y-79078350D01*
X4236216Y-79144485D01*
X4181501Y-79187936D01*
X4178201Y-79189221D01*
X4132670Y-79206203D01*
X4132664Y-79206206D01*
X4017455Y-79292452D01*
X4017452Y-79292455D01*
X3931206Y-79407664D01*
X3931202Y-79407671D01*
X3880908Y-79542517D01*
X3874501Y-79602116D01*
X3874501Y-79602123D01*
X3874500Y-79602135D01*
X3874500Y-80397870D01*
X3874501Y-80397876D01*
X3880908Y-80457483D01*
X3931202Y-80592328D01*
X3931206Y-80592335D01*
X4017452Y-80707544D01*
X4017455Y-80707547D01*
X4132664Y-80793793D01*
X4132671Y-80793797D01*
X4267517Y-80844091D01*
X4267516Y-80844091D01*
X4274444Y-80844835D01*
X4327127Y-80850500D01*
X5672872Y-80850499D01*
X5732483Y-80844091D01*
X5867331Y-80793796D01*
X5982546Y-80707546D01*
X6068796Y-80592331D01*
X6119091Y-80457483D01*
X6125500Y-80397873D01*
X6125499Y-79602128D01*
X6119091Y-79542517D01*
X6068796Y-79407669D01*
X6068795Y-79407668D01*
X6068793Y-79407664D01*
X5982547Y-79292455D01*
X5982544Y-79292452D01*
X5867335Y-79206206D01*
X5867330Y-79206203D01*
X5821798Y-79189221D01*
X5765865Y-79147349D01*
X5741448Y-79081885D01*
X5756300Y-79013612D01*
X5805705Y-78964207D01*
X5808838Y-78962554D01*
X5851522Y-78940805D01*
X5991602Y-78839032D01*
X6114032Y-78716602D01*
X6215804Y-78576524D01*
X6294408Y-78422255D01*
X6347914Y-78257584D01*
X6349115Y-78250000D01*
X5280330Y-78250000D01*
X5300075Y-78230255D01*
X5349444Y-78144745D01*
X5375000Y-78049370D01*
X5375000Y-77950630D01*
X5349444Y-77855255D01*
X5300075Y-77769745D01*
X5280330Y-77750000D01*
X6349115Y-77750000D01*
X6349115Y-77749999D01*
X6347914Y-77742415D01*
X6294408Y-77577744D01*
X6215804Y-77423475D01*
X6114032Y-77283397D01*
X5991602Y-77160967D01*
X5851524Y-77059195D01*
X5697257Y-76980591D01*
X5532584Y-76927085D01*
X5361571Y-76900000D01*
X5250000Y-76900000D01*
X5250000Y-77719670D01*
X5230255Y-77699925D01*
X5144745Y-77650556D01*
X5049370Y-77625000D01*
X4950630Y-77625000D01*
X4855255Y-77650556D01*
X4769745Y-77699925D01*
X4750000Y-77719670D01*
X4750000Y-76900000D01*
X4638429Y-76900000D01*
X4467415Y-76927085D01*
X4302742Y-76980591D01*
X4148475Y-77059195D01*
X4008397Y-77160967D01*
X3885967Y-77283397D01*
X3784195Y-77423475D01*
X3705591Y-77577744D01*
X3652085Y-77742415D01*
X3650884Y-77749999D01*
X1500500Y-77749999D01*
X1500500Y-71408525D01*
X15477000Y-71408525D01*
X15477000Y-71553475D01*
X15514516Y-71693485D01*
X15514517Y-71693488D01*
X15586988Y-71819011D01*
X15586990Y-71819013D01*
X15586991Y-71819015D01*
X15689485Y-71921509D01*
X15689486Y-71921510D01*
X15689488Y-71921511D01*
X15815011Y-71993982D01*
X15815012Y-71993982D01*
X15815015Y-71993984D01*
X15955025Y-72031500D01*
X15955028Y-72031500D01*
X16099972Y-72031500D01*
X16099975Y-72031500D01*
X16239985Y-71993984D01*
X16365515Y-71921509D01*
X16468009Y-71819015D01*
X16540484Y-71693485D01*
X16578000Y-71553475D01*
X16578000Y-71408525D01*
X16540484Y-71268515D01*
X16468009Y-71142985D01*
X16414319Y-71089295D01*
X16380834Y-71027972D01*
X16378000Y-71001614D01*
X16378000Y-64523430D01*
X16397685Y-64456391D01*
X16450489Y-64410636D01*
X16519647Y-64400692D01*
X16534077Y-64403651D01*
X16608525Y-64423600D01*
X16608528Y-64423600D01*
X16753472Y-64423600D01*
X16753475Y-64423600D01*
X16893485Y-64386084D01*
X17019015Y-64313609D01*
X17121509Y-64211115D01*
X17193984Y-64085585D01*
X17231500Y-63945575D01*
X17231500Y-63800625D01*
X17193984Y-63660615D01*
X17165907Y-63611985D01*
X17121511Y-63535088D01*
X17121506Y-63535082D01*
X17019017Y-63432593D01*
X17019011Y-63432588D01*
X16893488Y-63360117D01*
X16893489Y-63360117D01*
X16882006Y-63357040D01*
X16753475Y-63322600D01*
X16608525Y-63322600D01*
X16534093Y-63342544D01*
X16464243Y-63340881D01*
X16406381Y-63301718D01*
X16378877Y-63237490D01*
X16378000Y-63222769D01*
X16378000Y-37327525D01*
X22174500Y-37327525D01*
X22174500Y-37472475D01*
X22198283Y-37561232D01*
X22212017Y-37612488D01*
X22284488Y-37738011D01*
X22284493Y-37738017D01*
X22338181Y-37791705D01*
X22371666Y-37853028D01*
X22374500Y-37879386D01*
X22374500Y-80953246D01*
X22383675Y-80987485D01*
X22383676Y-80987489D01*
X22398384Y-81042385D01*
X22398385Y-81042386D01*
X22444527Y-81122308D01*
X22444531Y-81122313D01*
X30868181Y-89545962D01*
X30901666Y-89607285D01*
X30904500Y-89633643D01*
X30904500Y-89709575D01*
X30942016Y-89849585D01*
X30942017Y-89849588D01*
X31014488Y-89975111D01*
X31014490Y-89975113D01*
X31014491Y-89975115D01*
X31116985Y-90077609D01*
X31116986Y-90077610D01*
X31116988Y-90077611D01*
X31242511Y-90150082D01*
X31242512Y-90150082D01*
X31242515Y-90150084D01*
X31382525Y-90187600D01*
X31382528Y-90187600D01*
X31527472Y-90187600D01*
X31527475Y-90187600D01*
X31667485Y-90150084D01*
X31793015Y-90077609D01*
X31895509Y-89975115D01*
X31967984Y-89849585D01*
X32005500Y-89709575D01*
X32005500Y-89564625D01*
X31967984Y-89424615D01*
X31896434Y-89300688D01*
X31895511Y-89299088D01*
X31895506Y-89299082D01*
X31793017Y-89196593D01*
X31793011Y-89196588D01*
X31667488Y-89124117D01*
X31667489Y-89124117D01*
X31656006Y-89121040D01*
X31527475Y-89086600D01*
X31527472Y-89086600D01*
X31451543Y-89086600D01*
X31384504Y-89066915D01*
X31363862Y-89050281D01*
X23111819Y-80798237D01*
X23078334Y-80736914D01*
X23075500Y-80710556D01*
X23075500Y-66700848D01*
X23095185Y-66633809D01*
X23147989Y-66588054D01*
X23217147Y-66578110D01*
X23231577Y-66581069D01*
X23323125Y-66605600D01*
X23323128Y-66605600D01*
X23468072Y-66605600D01*
X23468075Y-66605600D01*
X23608085Y-66568084D01*
X23733615Y-66495609D01*
X23836109Y-66393115D01*
X23908584Y-66267585D01*
X23946100Y-66127575D01*
X23946100Y-65982625D01*
X23908584Y-65842615D01*
X23878619Y-65790715D01*
X23836111Y-65717088D01*
X23836106Y-65717082D01*
X23733617Y-65614593D01*
X23733611Y-65614588D01*
X23608088Y-65542117D01*
X23608089Y-65542117D01*
X23596606Y-65539040D01*
X23468075Y-65504600D01*
X23323125Y-65504600D01*
X23231593Y-65529126D01*
X23161743Y-65527463D01*
X23103881Y-65488300D01*
X23076377Y-65424072D01*
X23075500Y-65409351D01*
X23075500Y-37879386D01*
X23095185Y-37812347D01*
X23111819Y-37791705D01*
X23165509Y-37738015D01*
X23237984Y-37612485D01*
X23275500Y-37472475D01*
X23275500Y-37327525D01*
X23237984Y-37187515D01*
X23165509Y-37061985D01*
X23063015Y-36959491D01*
X23063013Y-36959490D01*
X23063011Y-36959488D01*
X22937488Y-36887017D01*
X22937489Y-36887017D01*
X22902706Y-36877697D01*
X22797475Y-36849500D01*
X22652525Y-36849500D01*
X22547294Y-36877697D01*
X22512511Y-36887017D01*
X22386988Y-36959488D01*
X22386982Y-36959493D01*
X22284493Y-37061982D01*
X22284488Y-37061988D01*
X22212017Y-37187511D01*
X22212016Y-37187515D01*
X22174500Y-37327525D01*
X16378000Y-37327525D01*
X16378000Y-29484043D01*
X16386644Y-29454602D01*
X16393168Y-29424616D01*
X16396922Y-29419600D01*
X16397685Y-29417004D01*
X16414319Y-29396362D01*
X16583862Y-29226819D01*
X16645185Y-29193334D01*
X16671543Y-29190500D01*
X16747472Y-29190500D01*
X16747475Y-29190500D01*
X16887485Y-29152984D01*
X17013015Y-29080509D01*
X17115509Y-28978015D01*
X17187984Y-28852485D01*
X17225500Y-28712475D01*
X17225500Y-28567525D01*
X17187984Y-28427515D01*
X17183352Y-28419493D01*
X17115511Y-28301988D01*
X17115506Y-28301982D01*
X17013017Y-28199493D01*
X17013011Y-28199488D01*
X16887488Y-28127017D01*
X16887489Y-28127017D01*
X16876006Y-28123940D01*
X16747475Y-28089500D01*
X16602525Y-28089500D01*
X16473993Y-28123940D01*
X16462511Y-28127017D01*
X16336988Y-28199488D01*
X16336982Y-28199493D01*
X16234493Y-28301982D01*
X16234488Y-28301988D01*
X16162017Y-28427511D01*
X16162016Y-28427515D01*
X16124500Y-28567525D01*
X16124500Y-28567527D01*
X16124500Y-28643456D01*
X16104815Y-28710495D01*
X16088181Y-28731137D01*
X15747031Y-29072286D01*
X15747027Y-29072291D01*
X15727618Y-29105911D01*
X15727616Y-29105914D01*
X15700888Y-29152206D01*
X15700887Y-29152209D01*
X15700886Y-29152211D01*
X15700886Y-29152212D01*
X15688614Y-29198011D01*
X15677000Y-29241356D01*
X15677000Y-71001614D01*
X15657315Y-71068653D01*
X15640681Y-71089295D01*
X15586993Y-71142982D01*
X15586988Y-71142988D01*
X15514517Y-71268511D01*
X15514516Y-71268515D01*
X15477000Y-71408525D01*
X1500500Y-71408525D01*
X1500500Y-66459525D01*
X9924700Y-66459525D01*
X9924700Y-66604475D01*
X9962216Y-66744485D01*
X9962217Y-66744488D01*
X10034688Y-66870011D01*
X10034690Y-66870013D01*
X10034691Y-66870015D01*
X10137185Y-66972509D01*
X10137186Y-66972510D01*
X10137188Y-66972511D01*
X10262711Y-67044982D01*
X10262712Y-67044982D01*
X10262715Y-67044984D01*
X10402725Y-67082500D01*
X10402728Y-67082500D01*
X10547672Y-67082500D01*
X10547675Y-67082500D01*
X10687685Y-67044984D01*
X10813215Y-66972509D01*
X10915709Y-66870015D01*
X10988184Y-66744485D01*
X11025700Y-66604475D01*
X11025700Y-66459525D01*
X10988184Y-66319515D01*
X10931017Y-66220500D01*
X10915711Y-66193988D01*
X10915706Y-66193982D01*
X10813217Y-66091493D01*
X10813211Y-66091488D01*
X10687688Y-66019017D01*
X10687689Y-66019017D01*
X10676206Y-66015940D01*
X10547675Y-65981500D01*
X10402725Y-65981500D01*
X10274193Y-66015940D01*
X10262711Y-66019017D01*
X10137188Y-66091488D01*
X10137182Y-66091493D01*
X10034693Y-66193982D01*
X10034688Y-66193988D01*
X9962217Y-66319511D01*
X9962216Y-66319515D01*
X9924700Y-66459525D01*
X1500500Y-66459525D01*
X1500500Y-24819525D01*
X16852700Y-24819525D01*
X16852700Y-24964475D01*
X16883544Y-25079585D01*
X16890217Y-25104488D01*
X16962688Y-25230011D01*
X16962690Y-25230013D01*
X16962691Y-25230015D01*
X17065185Y-25332509D01*
X17065186Y-25332510D01*
X17065188Y-25332511D01*
X17190711Y-25404982D01*
X17190712Y-25404982D01*
X17190715Y-25404984D01*
X17330725Y-25442500D01*
X17330728Y-25442500D01*
X17475672Y-25442500D01*
X17475675Y-25442500D01*
X17615685Y-25404984D01*
X17741215Y-25332509D01*
X17843709Y-25230015D01*
X17916184Y-25104485D01*
X17953700Y-24964475D01*
X17953700Y-24819525D01*
X17916184Y-24679515D01*
X17902997Y-24656675D01*
X17843711Y-24553988D01*
X17843706Y-24553982D01*
X17790019Y-24500295D01*
X17756534Y-24438972D01*
X17753700Y-24412614D01*
X17753700Y-24101025D01*
X21971000Y-24101025D01*
X21971000Y-24245975D01*
X22008516Y-24385985D01*
X22075887Y-24502676D01*
X22092500Y-24564674D01*
X22092500Y-26114144D01*
X22109560Y-26177813D01*
X22116386Y-26203288D01*
X22116387Y-26203290D01*
X22162527Y-26283208D01*
X22162531Y-26283213D01*
X22891508Y-27012190D01*
X22924993Y-27073513D01*
X22920009Y-27143205D01*
X22878137Y-27199138D01*
X22812673Y-27223555D01*
X22771735Y-27219646D01*
X22737975Y-27210600D01*
X22593025Y-27210600D01*
X22464493Y-27245040D01*
X22453011Y-27248117D01*
X22327488Y-27320588D01*
X22327482Y-27320593D01*
X22224993Y-27423082D01*
X22224988Y-27423088D01*
X22152517Y-27548611D01*
X22152516Y-27548615D01*
X22115000Y-27688625D01*
X22115000Y-27833575D01*
X22152516Y-27973585D01*
X22152517Y-27973588D01*
X22224988Y-28099111D01*
X22224990Y-28099113D01*
X22224991Y-28099115D01*
X22327485Y-28201609D01*
X22453015Y-28274084D01*
X22487293Y-28283269D01*
X22546953Y-28319633D01*
X22577482Y-28382480D01*
X22574974Y-28435135D01*
X22539500Y-28567525D01*
X22539500Y-28712475D01*
X22577016Y-28852485D01*
X22577017Y-28852488D01*
X22649488Y-28978011D01*
X22649490Y-28978013D01*
X22649491Y-28978015D01*
X22751985Y-29080509D01*
X22751986Y-29080510D01*
X22751988Y-29080511D01*
X22877511Y-29152982D01*
X22877512Y-29152982D01*
X22877515Y-29152984D01*
X23017525Y-29190500D01*
X23017528Y-29190500D01*
X23162472Y-29190500D01*
X23162475Y-29190500D01*
X23302485Y-29152984D01*
X23428015Y-29080509D01*
X23530509Y-28978015D01*
X23602984Y-28852485D01*
X23640500Y-28712475D01*
X23640500Y-28567525D01*
X23602984Y-28427515D01*
X23598352Y-28419493D01*
X23530511Y-28301988D01*
X23530506Y-28301982D01*
X23428017Y-28199493D01*
X23428011Y-28199488D01*
X23302488Y-28127017D01*
X23302483Y-28127015D01*
X23268205Y-28117830D01*
X23208545Y-28081465D01*
X23178017Y-28018617D01*
X23180524Y-27965969D01*
X23216000Y-27833575D01*
X23216000Y-27688625D01*
X23206954Y-27654865D01*
X23208615Y-27585017D01*
X23247777Y-27527154D01*
X23312005Y-27499649D01*
X23380908Y-27511235D01*
X23414409Y-27535091D01*
X25902881Y-30023562D01*
X25936366Y-30084885D01*
X25939200Y-30111243D01*
X25939200Y-30846630D01*
X25919515Y-30913669D01*
X25866711Y-30959424D01*
X25797553Y-30969368D01*
X25783109Y-30966405D01*
X25650975Y-30931000D01*
X25506025Y-30931000D01*
X25385813Y-30963211D01*
X25366011Y-30968517D01*
X25240488Y-31040988D01*
X25240482Y-31040993D01*
X25137993Y-31143482D01*
X25137988Y-31143488D01*
X25065517Y-31269011D01*
X25065516Y-31269015D01*
X25028000Y-31409025D01*
X25028000Y-31553975D01*
X25065516Y-31693985D01*
X25065517Y-31693988D01*
X25137988Y-31819511D01*
X25137993Y-31819517D01*
X25191681Y-31873205D01*
X25225166Y-31934528D01*
X25228000Y-31960886D01*
X25228000Y-68320514D01*
X25208315Y-68387553D01*
X25155511Y-68433308D01*
X25086353Y-68443252D01*
X25022797Y-68414227D01*
X25016319Y-68408195D01*
X24988017Y-68379893D01*
X24988011Y-68379888D01*
X24862488Y-68307417D01*
X24862489Y-68307417D01*
X24851006Y-68304340D01*
X24722475Y-68269900D01*
X24577525Y-68269900D01*
X24448993Y-68304340D01*
X24437511Y-68307417D01*
X24311988Y-68379888D01*
X24311982Y-68379893D01*
X24209493Y-68482382D01*
X24209488Y-68482388D01*
X24137017Y-68607911D01*
X24137016Y-68607915D01*
X24099500Y-68747925D01*
X24099500Y-68892875D01*
X24137016Y-69032885D01*
X24137017Y-69032888D01*
X24209488Y-69158411D01*
X24209490Y-69158413D01*
X24209491Y-69158415D01*
X24311985Y-69260909D01*
X24311986Y-69260910D01*
X24311988Y-69260911D01*
X24437511Y-69333382D01*
X24437512Y-69333382D01*
X24437515Y-69333384D01*
X24577525Y-69370900D01*
X24577528Y-69370900D01*
X24722472Y-69370900D01*
X24722475Y-69370900D01*
X24862485Y-69333384D01*
X24988015Y-69260909D01*
X25016319Y-69232605D01*
X25077642Y-69199120D01*
X25147334Y-69204104D01*
X25203267Y-69245976D01*
X25227684Y-69311440D01*
X25228000Y-69320286D01*
X25228000Y-80898344D01*
X25251886Y-80987488D01*
X25251887Y-80987489D01*
X25298027Y-81067408D01*
X25298031Y-81067413D01*
X33778181Y-89547563D01*
X33811666Y-89608886D01*
X33814500Y-89635244D01*
X33814500Y-89711175D01*
X33851587Y-89849585D01*
X33852017Y-89851188D01*
X33924488Y-89976711D01*
X33924490Y-89976713D01*
X33924491Y-89976715D01*
X34026985Y-90079209D01*
X34026986Y-90079210D01*
X34026988Y-90079211D01*
X34152511Y-90151682D01*
X34152512Y-90151682D01*
X34152515Y-90151684D01*
X34292525Y-90189200D01*
X34292528Y-90189200D01*
X34437472Y-90189200D01*
X34437475Y-90189200D01*
X34577485Y-90151684D01*
X34703015Y-90079209D01*
X34805509Y-89976715D01*
X34877984Y-89851185D01*
X34915500Y-89711175D01*
X34915500Y-89566225D01*
X34877984Y-89426215D01*
X34877060Y-89424615D01*
X34805511Y-89300688D01*
X34805506Y-89300682D01*
X34703017Y-89198193D01*
X34703011Y-89198188D01*
X34577488Y-89125717D01*
X34577489Y-89125717D01*
X34566006Y-89122640D01*
X34437475Y-89088200D01*
X34437472Y-89088200D01*
X34361544Y-89088200D01*
X34294505Y-89068515D01*
X34273863Y-89051881D01*
X25965319Y-80743337D01*
X25931834Y-80682014D01*
X25929000Y-80655656D01*
X25929000Y-66017844D01*
X25948685Y-65950805D01*
X26001489Y-65905050D01*
X26070647Y-65895106D01*
X26134203Y-65924131D01*
X26140681Y-65930163D01*
X29894488Y-69683970D01*
X29963785Y-69723978D01*
X29963787Y-69723980D01*
X29971042Y-69728168D01*
X29974412Y-69730114D01*
X30063556Y-69754000D01*
X30169214Y-69754000D01*
X30236253Y-69773685D01*
X30256895Y-69790319D01*
X30310585Y-69844009D01*
X30310586Y-69844010D01*
X30310588Y-69844011D01*
X30436111Y-69916482D01*
X30436112Y-69916482D01*
X30436115Y-69916484D01*
X30576125Y-69954000D01*
X30576128Y-69954000D01*
X30721072Y-69954000D01*
X30721075Y-69954000D01*
X30861085Y-69916484D01*
X30861087Y-69916482D01*
X30861089Y-69916482D01*
X30861090Y-69916481D01*
X30862356Y-69915750D01*
X30940962Y-69870366D01*
X31008860Y-69853893D01*
X31074888Y-69876745D01*
X31110347Y-69915749D01*
X31117891Y-69928815D01*
X31220385Y-70031309D01*
X31220386Y-70031310D01*
X31220388Y-70031311D01*
X31345911Y-70103782D01*
X31345912Y-70103782D01*
X31345915Y-70103784D01*
X31485925Y-70141300D01*
X31485928Y-70141300D01*
X31630872Y-70141300D01*
X31630875Y-70141300D01*
X31770885Y-70103784D01*
X31896415Y-70031309D01*
X31998909Y-69928815D01*
X32071384Y-69803285D01*
X32108900Y-69663275D01*
X32108900Y-69518325D01*
X32071384Y-69378315D01*
X32017975Y-69285809D01*
X31998911Y-69252788D01*
X31998906Y-69252782D01*
X31890668Y-69144544D01*
X31892577Y-69142634D01*
X31859202Y-69096906D01*
X31851900Y-69054983D01*
X31851900Y-68772825D01*
X33577400Y-68772825D01*
X33577400Y-68917775D01*
X33608244Y-69032885D01*
X33614917Y-69057788D01*
X33687388Y-69183311D01*
X33687390Y-69183313D01*
X33687391Y-69183315D01*
X33789885Y-69285809D01*
X33915415Y-69358284D01*
X33940288Y-69364948D01*
X33999948Y-69401313D01*
X34030477Y-69464160D01*
X34022182Y-69533535D01*
X33977697Y-69587413D01*
X33970195Y-69592110D01*
X33911685Y-69625891D01*
X33911682Y-69625893D01*
X33809193Y-69728382D01*
X33809188Y-69728388D01*
X33736717Y-69853911D01*
X33736716Y-69853915D01*
X33699200Y-69993925D01*
X33699200Y-70138875D01*
X33736716Y-70278885D01*
X33736717Y-70278888D01*
X33809188Y-70404411D01*
X33809190Y-70404413D01*
X33809191Y-70404415D01*
X33911685Y-70506909D01*
X33911686Y-70506910D01*
X33911688Y-70506911D01*
X34037211Y-70579382D01*
X34037212Y-70579382D01*
X34037215Y-70579384D01*
X34177225Y-70616900D01*
X34177228Y-70616900D01*
X34322172Y-70616900D01*
X34322175Y-70616900D01*
X34462185Y-70579384D01*
X34587715Y-70506909D01*
X34690209Y-70404415D01*
X34762684Y-70278885D01*
X34800200Y-70138875D01*
X34800200Y-69993925D01*
X34762684Y-69853915D01*
X34762671Y-69853893D01*
X34690211Y-69728388D01*
X34690206Y-69728382D01*
X34587717Y-69625893D01*
X34587711Y-69625888D01*
X34462188Y-69553417D01*
X34462185Y-69553416D01*
X34437309Y-69546750D01*
X34377650Y-69510384D01*
X34347121Y-69447537D01*
X34355418Y-69378161D01*
X34399904Y-69324284D01*
X34407379Y-69319604D01*
X34465915Y-69285809D01*
X34568409Y-69183315D01*
X34640884Y-69057785D01*
X34678400Y-68917775D01*
X34678400Y-68841844D01*
X34698085Y-68774805D01*
X34714719Y-68754163D01*
X36941357Y-66527525D01*
X51274500Y-66527525D01*
X51274500Y-66672475D01*
X51312016Y-66812485D01*
X51312017Y-66812488D01*
X51384488Y-66938011D01*
X51384490Y-66938013D01*
X51384491Y-66938015D01*
X51486985Y-67040509D01*
X51486986Y-67040510D01*
X51486988Y-67040511D01*
X51612511Y-67112982D01*
X51612512Y-67112982D01*
X51612515Y-67112984D01*
X51752525Y-67150500D01*
X51752528Y-67150500D01*
X51897472Y-67150500D01*
X51897475Y-67150500D01*
X52037485Y-67112984D01*
X52163015Y-67040509D01*
X52265509Y-66938015D01*
X52337984Y-66812485D01*
X52375500Y-66672475D01*
X52375500Y-66527525D01*
X52337984Y-66387515D01*
X52265509Y-66261985D01*
X52163015Y-66159491D01*
X52163013Y-66159490D01*
X52163011Y-66159488D01*
X52037488Y-66087017D01*
X52037489Y-66087017D01*
X52005408Y-66078421D01*
X51897475Y-66049500D01*
X51752525Y-66049500D01*
X51644592Y-66078421D01*
X51612511Y-66087017D01*
X51486988Y-66159488D01*
X51486982Y-66159493D01*
X51384493Y-66261982D01*
X51384488Y-66261988D01*
X51312017Y-66387511D01*
X51310515Y-66393115D01*
X51274500Y-66527525D01*
X36941357Y-66527525D01*
X37037165Y-66431717D01*
X37586397Y-65882485D01*
X38155669Y-65313213D01*
X38201814Y-65233288D01*
X38210254Y-65201788D01*
X38210703Y-65200115D01*
X38217141Y-65176085D01*
X38225700Y-65144144D01*
X38225700Y-64891125D01*
X42449500Y-64891125D01*
X42449500Y-65036075D01*
X42481907Y-65157017D01*
X42487017Y-65176088D01*
X42559488Y-65301611D01*
X42559490Y-65301613D01*
X42559491Y-65301615D01*
X42661985Y-65404109D01*
X42661986Y-65404110D01*
X42661988Y-65404111D01*
X42787511Y-65476582D01*
X42787512Y-65476582D01*
X42787515Y-65476584D01*
X42927525Y-65514100D01*
X42927528Y-65514100D01*
X43072472Y-65514100D01*
X43072475Y-65514100D01*
X43212485Y-65476584D01*
X43338015Y-65404109D01*
X43361899Y-65380225D01*
X48449500Y-65380225D01*
X48449500Y-65525175D01*
X48473460Y-65614593D01*
X48487017Y-65665188D01*
X48559488Y-65790711D01*
X48559490Y-65790713D01*
X48559491Y-65790715D01*
X48661985Y-65893209D01*
X48661986Y-65893210D01*
X48661988Y-65893211D01*
X48787511Y-65965682D01*
X48787512Y-65965682D01*
X48787515Y-65965684D01*
X48927525Y-66003200D01*
X48927528Y-66003200D01*
X49072472Y-66003200D01*
X49072475Y-66003200D01*
X49212485Y-65965684D01*
X49338015Y-65893209D01*
X49440509Y-65790715D01*
X49512984Y-65665185D01*
X49550500Y-65525175D01*
X49550500Y-65380225D01*
X49512984Y-65240215D01*
X49506792Y-65229491D01*
X49440511Y-65114688D01*
X49440506Y-65114682D01*
X49338017Y-65012193D01*
X49338011Y-65012188D01*
X49212488Y-64939717D01*
X49212489Y-64939717D01*
X49201006Y-64936640D01*
X49072475Y-64902200D01*
X48927525Y-64902200D01*
X48798993Y-64936640D01*
X48787511Y-64939717D01*
X48661988Y-65012188D01*
X48661982Y-65012193D01*
X48559493Y-65114682D01*
X48559488Y-65114688D01*
X48487017Y-65240211D01*
X48487016Y-65240215D01*
X48449500Y-65380225D01*
X43361899Y-65380225D01*
X43440509Y-65301615D01*
X43512984Y-65176085D01*
X43550500Y-65036075D01*
X43550500Y-64891125D01*
X43512984Y-64751115D01*
X43440509Y-64625585D01*
X43338015Y-64523091D01*
X43338013Y-64523090D01*
X43338011Y-64523088D01*
X43212488Y-64450617D01*
X43212489Y-64450617D01*
X43201006Y-64447540D01*
X43072475Y-64413100D01*
X42927525Y-64413100D01*
X42798993Y-64447540D01*
X42787511Y-64450617D01*
X42661988Y-64523088D01*
X42661982Y-64523093D01*
X42559493Y-64625582D01*
X42559488Y-64625588D01*
X42487017Y-64751111D01*
X42487016Y-64751115D01*
X42449500Y-64891125D01*
X38225700Y-64891125D01*
X38225700Y-64481786D01*
X38245385Y-64414747D01*
X38298189Y-64368992D01*
X38367347Y-64359048D01*
X38426837Y-64386216D01*
X38427339Y-64385562D01*
X38430182Y-64387743D01*
X38430903Y-64388073D01*
X38432269Y-64389345D01*
X38433788Y-64390511D01*
X38559311Y-64462982D01*
X38559312Y-64462982D01*
X38559315Y-64462984D01*
X38699325Y-64500500D01*
X38699328Y-64500500D01*
X38844272Y-64500500D01*
X38844275Y-64500500D01*
X38984285Y-64462984D01*
X39109815Y-64390509D01*
X39212309Y-64288015D01*
X39284784Y-64162485D01*
X39322300Y-64022475D01*
X39322300Y-63877525D01*
X39284784Y-63737515D01*
X39240383Y-63660611D01*
X39212311Y-63611988D01*
X39212306Y-63611982D01*
X39109817Y-63509493D01*
X39109811Y-63509488D01*
X38984288Y-63437017D01*
X38984289Y-63437017D01*
X38947129Y-63427060D01*
X38844275Y-63399500D01*
X38699325Y-63399500D01*
X38596471Y-63427060D01*
X38559311Y-63437017D01*
X38433788Y-63509488D01*
X38427339Y-63514438D01*
X38425684Y-63512281D01*
X38376058Y-63539380D01*
X38306366Y-63534396D01*
X38250433Y-63492524D01*
X38226016Y-63427060D01*
X38225700Y-63418214D01*
X38225700Y-62982725D01*
X43532300Y-62982725D01*
X43532300Y-63127675D01*
X43562969Y-63242131D01*
X43569817Y-63267688D01*
X43642288Y-63393211D01*
X43642290Y-63393213D01*
X43642291Y-63393215D01*
X43744785Y-63495709D01*
X43744786Y-63495710D01*
X43744788Y-63495711D01*
X43870311Y-63568182D01*
X43870312Y-63568182D01*
X43870315Y-63568184D01*
X44010325Y-63605700D01*
X44010328Y-63605700D01*
X44155272Y-63605700D01*
X44155275Y-63605700D01*
X44295285Y-63568184D01*
X44420815Y-63495709D01*
X44523309Y-63393215D01*
X44595784Y-63267685D01*
X44633300Y-63127675D01*
X44633300Y-62982725D01*
X53281700Y-62982725D01*
X53281700Y-63127675D01*
X53312369Y-63242131D01*
X53319217Y-63267688D01*
X53391688Y-63393211D01*
X53391690Y-63393213D01*
X53391691Y-63393215D01*
X53494185Y-63495709D01*
X53494186Y-63495710D01*
X53494188Y-63495711D01*
X53619711Y-63568182D01*
X53619712Y-63568182D01*
X53619715Y-63568184D01*
X53759725Y-63605700D01*
X53759728Y-63605700D01*
X53904672Y-63605700D01*
X53904675Y-63605700D01*
X54044685Y-63568184D01*
X54170215Y-63495709D01*
X54272709Y-63393215D01*
X54345184Y-63267685D01*
X54382700Y-63127675D01*
X54382700Y-62982725D01*
X54345184Y-62842715D01*
X54334364Y-62823975D01*
X54272711Y-62717188D01*
X54272706Y-62717182D01*
X54170217Y-62614693D01*
X54170211Y-62614688D01*
X54044688Y-62542217D01*
X54044689Y-62542217D01*
X54016172Y-62534576D01*
X53904675Y-62504700D01*
X53759725Y-62504700D01*
X53648228Y-62534576D01*
X53619711Y-62542217D01*
X53494188Y-62614688D01*
X53494182Y-62614693D01*
X53391693Y-62717182D01*
X53391688Y-62717188D01*
X53319217Y-62842711D01*
X53319216Y-62842715D01*
X53281700Y-62982725D01*
X44633300Y-62982725D01*
X44595784Y-62842715D01*
X44584964Y-62823975D01*
X44523311Y-62717188D01*
X44523306Y-62717182D01*
X44420817Y-62614693D01*
X44420811Y-62614688D01*
X44295288Y-62542217D01*
X44295289Y-62542217D01*
X44266772Y-62534576D01*
X44155275Y-62504700D01*
X44010325Y-62504700D01*
X43898828Y-62534576D01*
X43870311Y-62542217D01*
X43744788Y-62614688D01*
X43744782Y-62614693D01*
X43642293Y-62717182D01*
X43642288Y-62717188D01*
X43569817Y-62842711D01*
X43569816Y-62842715D01*
X43532300Y-62982725D01*
X38225700Y-62982725D01*
X38225700Y-62396344D01*
X38245385Y-62329305D01*
X38262019Y-62308663D01*
X38586096Y-61984586D01*
X41237969Y-59332713D01*
X41284114Y-59252788D01*
X41308000Y-59163644D01*
X41308000Y-57979386D01*
X41327685Y-57912347D01*
X41344319Y-57891705D01*
X41398009Y-57838015D01*
X41470484Y-57712485D01*
X41508000Y-57572475D01*
X41508000Y-57427525D01*
X41470484Y-57287515D01*
X41398009Y-57161985D01*
X41295515Y-57059491D01*
X41295513Y-57059490D01*
X41295511Y-57059488D01*
X41169988Y-56987017D01*
X41169989Y-56987017D01*
X41158506Y-56983940D01*
X41029975Y-56949500D01*
X40885025Y-56949500D01*
X40756493Y-56983940D01*
X40745011Y-56987017D01*
X40619488Y-57059488D01*
X40619482Y-57059493D01*
X40516993Y-57161982D01*
X40516988Y-57161988D01*
X40444517Y-57287511D01*
X40444516Y-57287515D01*
X40407000Y-57427525D01*
X40407000Y-57572475D01*
X40444516Y-57712485D01*
X40444517Y-57712488D01*
X40516988Y-57838011D01*
X40516993Y-57838017D01*
X40570681Y-57891705D01*
X40604166Y-57953028D01*
X40607000Y-57979386D01*
X40607000Y-58920956D01*
X40587315Y-58987995D01*
X40570681Y-59008637D01*
X37594731Y-61984586D01*
X37594727Y-61984591D01*
X37548587Y-62064509D01*
X37548586Y-62064512D01*
X37524700Y-62153656D01*
X37524700Y-64901456D01*
X37505015Y-64968495D01*
X37488381Y-64989137D01*
X34219037Y-68258481D01*
X34157714Y-68291966D01*
X34131356Y-68294800D01*
X34055425Y-68294800D01*
X33926893Y-68329240D01*
X33915411Y-68332317D01*
X33789888Y-68404788D01*
X33789882Y-68404793D01*
X33687393Y-68507282D01*
X33687388Y-68507288D01*
X33614917Y-68632811D01*
X33614916Y-68632815D01*
X33577400Y-68772825D01*
X31851900Y-68772825D01*
X31851900Y-65597525D01*
X33449500Y-65597525D01*
X33449500Y-65742475D01*
X33462427Y-65790717D01*
X33487017Y-65882488D01*
X33559488Y-66008011D01*
X33559490Y-66008013D01*
X33559491Y-66008015D01*
X33661985Y-66110509D01*
X33661986Y-66110510D01*
X33661988Y-66110511D01*
X33787511Y-66182982D01*
X33787512Y-66182982D01*
X33787515Y-66182984D01*
X33927525Y-66220500D01*
X33927528Y-66220500D01*
X34072472Y-66220500D01*
X34072475Y-66220500D01*
X34212485Y-66182984D01*
X34338015Y-66110509D01*
X34440509Y-66008015D01*
X34512984Y-65882485D01*
X34550500Y-65742475D01*
X34550500Y-65597525D01*
X34512984Y-65457515D01*
X34493676Y-65424072D01*
X34476314Y-65394000D01*
X34476313Y-65393999D01*
X34472247Y-65386956D01*
X34445209Y-65340125D01*
X34976900Y-65340125D01*
X34976900Y-65485075D01*
X35011604Y-65614591D01*
X35014417Y-65625088D01*
X35086888Y-65750611D01*
X35086890Y-65750613D01*
X35086891Y-65750615D01*
X35189385Y-65853109D01*
X35189386Y-65853110D01*
X35189388Y-65853111D01*
X35314911Y-65925582D01*
X35314912Y-65925582D01*
X35314915Y-65925584D01*
X35454925Y-65963100D01*
X35454928Y-65963100D01*
X35599872Y-65963100D01*
X35599875Y-65963100D01*
X35739885Y-65925584D01*
X35865415Y-65853109D01*
X35967909Y-65750615D01*
X36040384Y-65625085D01*
X36077900Y-65485075D01*
X36077900Y-65340125D01*
X36040384Y-65200115D01*
X36026510Y-65176085D01*
X35967911Y-65074588D01*
X35967906Y-65074582D01*
X35865417Y-64972093D01*
X35865411Y-64972088D01*
X35739888Y-64899617D01*
X35739889Y-64899617D01*
X35708204Y-64891127D01*
X35599875Y-64862100D01*
X35454925Y-64862100D01*
X35346596Y-64891127D01*
X35314911Y-64899617D01*
X35189388Y-64972088D01*
X35189382Y-64972093D01*
X35086893Y-65074582D01*
X35086888Y-65074588D01*
X35014417Y-65200111D01*
X35014416Y-65200115D01*
X34976900Y-65340125D01*
X34445209Y-65340125D01*
X34440509Y-65331985D01*
X34338015Y-65229491D01*
X34338013Y-65229490D01*
X34338011Y-65229488D01*
X34212488Y-65157017D01*
X34212489Y-65157017D01*
X34195892Y-65152570D01*
X34072475Y-65119500D01*
X33927525Y-65119500D01*
X33804108Y-65152570D01*
X33787511Y-65157017D01*
X33661988Y-65229488D01*
X33661982Y-65229493D01*
X33559493Y-65331982D01*
X33559488Y-65331988D01*
X33487017Y-65457511D01*
X33487016Y-65457515D01*
X33449500Y-65597525D01*
X31851900Y-65597525D01*
X31851900Y-65337343D01*
X31871585Y-65270304D01*
X31888214Y-65249667D01*
X34265775Y-62872105D01*
X34327096Y-62838622D01*
X34396788Y-62843606D01*
X34452721Y-62885478D01*
X34473229Y-62927694D01*
X34508517Y-63059388D01*
X34580988Y-63184911D01*
X34580990Y-63184913D01*
X34580991Y-63184915D01*
X34683485Y-63287409D01*
X34683486Y-63287410D01*
X34683488Y-63287411D01*
X34809011Y-63359882D01*
X34809012Y-63359882D01*
X34809015Y-63359884D01*
X34949025Y-63397400D01*
X34949028Y-63397400D01*
X35093972Y-63397400D01*
X35093975Y-63397400D01*
X35233985Y-63359884D01*
X35359515Y-63287409D01*
X35462009Y-63184915D01*
X35534484Y-63059385D01*
X35572000Y-62919375D01*
X35572000Y-62774425D01*
X35534484Y-62634415D01*
X35527586Y-62622468D01*
X35462011Y-62508888D01*
X35462006Y-62508882D01*
X35359517Y-62406393D01*
X35359511Y-62406388D01*
X35233988Y-62333917D01*
X35233989Y-62333917D01*
X35102294Y-62298629D01*
X35042633Y-62262263D01*
X35012105Y-62199416D01*
X35020400Y-62130041D01*
X35046704Y-62091176D01*
X41639669Y-55498213D01*
X41685814Y-55418288D01*
X41709700Y-55329144D01*
X41709700Y-52660025D01*
X42837400Y-52660025D01*
X42837400Y-52804975D01*
X42874916Y-52944985D01*
X42874917Y-52944988D01*
X42947388Y-53070511D01*
X42947390Y-53070513D01*
X42947391Y-53070515D01*
X43049885Y-53173009D01*
X43049886Y-53173010D01*
X43049888Y-53173011D01*
X43175411Y-53245482D01*
X43175412Y-53245482D01*
X43175415Y-53245484D01*
X43315425Y-53283000D01*
X43315428Y-53283000D01*
X43460372Y-53283000D01*
X43460375Y-53283000D01*
X43600385Y-53245484D01*
X43725915Y-53173009D01*
X43828409Y-53070515D01*
X43900884Y-52944985D01*
X43938400Y-52804975D01*
X43938400Y-52660025D01*
X43900884Y-52520015D01*
X43892507Y-52505506D01*
X43828411Y-52394488D01*
X43828406Y-52394482D01*
X43725917Y-52291993D01*
X43725911Y-52291988D01*
X43600388Y-52219517D01*
X43600389Y-52219517D01*
X43588906Y-52216440D01*
X43460375Y-52182000D01*
X43315425Y-52182000D01*
X43186893Y-52216440D01*
X43175411Y-52219517D01*
X43049888Y-52291988D01*
X43049882Y-52291993D01*
X42947393Y-52394482D01*
X42947388Y-52394488D01*
X42874917Y-52520011D01*
X42874916Y-52520015D01*
X42837400Y-52660025D01*
X41709700Y-52660025D01*
X41709700Y-51992525D01*
X44724500Y-51992525D01*
X44724500Y-52137475D01*
X44762016Y-52277485D01*
X44762017Y-52277488D01*
X44834488Y-52403011D01*
X44834490Y-52403013D01*
X44834491Y-52403015D01*
X44936985Y-52505509D01*
X44936986Y-52505510D01*
X44936988Y-52505511D01*
X45062511Y-52577982D01*
X45062512Y-52577982D01*
X45062515Y-52577984D01*
X45202525Y-52615500D01*
X45202528Y-52615500D01*
X45347472Y-52615500D01*
X45347475Y-52615500D01*
X45487485Y-52577984D01*
X45613015Y-52505509D01*
X45715509Y-52403015D01*
X45787984Y-52277485D01*
X45825500Y-52137475D01*
X45825500Y-51992525D01*
X45787984Y-51852515D01*
X45715509Y-51726985D01*
X45613015Y-51624491D01*
X45613013Y-51624490D01*
X45613011Y-51624488D01*
X45487488Y-51552017D01*
X45487489Y-51552017D01*
X45476006Y-51548940D01*
X45347475Y-51514500D01*
X45202525Y-51514500D01*
X45073993Y-51548940D01*
X45062511Y-51552017D01*
X44936988Y-51624488D01*
X44936982Y-51624493D01*
X44834493Y-51726982D01*
X44834488Y-51726988D01*
X44762017Y-51852511D01*
X44762016Y-51852515D01*
X44724500Y-51992525D01*
X41709700Y-51992525D01*
X41709700Y-48060725D01*
X47737900Y-48060725D01*
X47737900Y-48205675D01*
X47742901Y-48224337D01*
X47775417Y-48345688D01*
X47847888Y-48471211D01*
X47847890Y-48471213D01*
X47847891Y-48471215D01*
X47950385Y-48573709D01*
X47950386Y-48573710D01*
X47950388Y-48573711D01*
X48075911Y-48646182D01*
X48075912Y-48646182D01*
X48075915Y-48646184D01*
X48215925Y-48683700D01*
X48277200Y-48683700D01*
X48344239Y-48703385D01*
X48389994Y-48756189D01*
X48401200Y-48807700D01*
X48401200Y-57523914D01*
X48381515Y-57590953D01*
X48364881Y-57611595D01*
X48311193Y-57665282D01*
X48311188Y-57665288D01*
X48238717Y-57790811D01*
X48238716Y-57790815D01*
X48201200Y-57930825D01*
X48201200Y-58075775D01*
X48238716Y-58215785D01*
X48238717Y-58215788D01*
X48311188Y-58341311D01*
X48311190Y-58341313D01*
X48311191Y-58341315D01*
X48413685Y-58443809D01*
X48413686Y-58443810D01*
X48413688Y-58443811D01*
X48539211Y-58516282D01*
X48539212Y-58516282D01*
X48539215Y-58516284D01*
X48679225Y-58553800D01*
X48679228Y-58553800D01*
X48824172Y-58553800D01*
X48824175Y-58553800D01*
X48964185Y-58516284D01*
X49089715Y-58443809D01*
X49192209Y-58341315D01*
X49264684Y-58215785D01*
X49302200Y-58075775D01*
X49302200Y-57930825D01*
X49264684Y-57790815D01*
X49192209Y-57665285D01*
X49138519Y-57611595D01*
X49105034Y-57550272D01*
X49102200Y-57523914D01*
X49102200Y-48550358D01*
X49102200Y-48550356D01*
X49078314Y-48461212D01*
X49073965Y-48453680D01*
X49073964Y-48453678D01*
X49073964Y-48453677D01*
X49073962Y-48453675D01*
X49032170Y-48381288D01*
X48875219Y-48224337D01*
X48841734Y-48163014D01*
X48838900Y-48136656D01*
X48838900Y-48060727D01*
X48838900Y-48060725D01*
X48801384Y-47920715D01*
X48728909Y-47795185D01*
X48626415Y-47692691D01*
X48626413Y-47692690D01*
X48626411Y-47692688D01*
X48500888Y-47620217D01*
X48500889Y-47620217D01*
X48489406Y-47617140D01*
X48360875Y-47582700D01*
X48215925Y-47582700D01*
X48087393Y-47617140D01*
X48075911Y-47620217D01*
X47950388Y-47692688D01*
X47950382Y-47692693D01*
X47847893Y-47795182D01*
X47847888Y-47795188D01*
X47775417Y-47920711D01*
X47775416Y-47920715D01*
X47737900Y-48060725D01*
X41709700Y-48060725D01*
X41709700Y-46425625D01*
X42702200Y-46425625D01*
X42702200Y-46570575D01*
X42739716Y-46710585D01*
X42739717Y-46710588D01*
X42812188Y-46836111D01*
X42812190Y-46836113D01*
X42812191Y-46836115D01*
X42914685Y-46938609D01*
X42914686Y-46938610D01*
X42914688Y-46938611D01*
X43040211Y-47011082D01*
X43040212Y-47011082D01*
X43040215Y-47011084D01*
X43180225Y-47048600D01*
X43180228Y-47048600D01*
X43325172Y-47048600D01*
X43325175Y-47048600D01*
X43465185Y-47011084D01*
X43590715Y-46938609D01*
X43693209Y-46836115D01*
X43765684Y-46710585D01*
X43803200Y-46570575D01*
X43803200Y-46425625D01*
X43765684Y-46285615D01*
X43693209Y-46160085D01*
X43590715Y-46057591D01*
X43590713Y-46057590D01*
X43590711Y-46057588D01*
X43465188Y-45985117D01*
X43465189Y-45985117D01*
X43453706Y-45982040D01*
X43325175Y-45947600D01*
X43180225Y-45947600D01*
X43051693Y-45982040D01*
X43040211Y-45985117D01*
X42914688Y-46057588D01*
X42914682Y-46057593D01*
X42812193Y-46160082D01*
X42812188Y-46160088D01*
X42739717Y-46285611D01*
X42739716Y-46285615D01*
X42702200Y-46425625D01*
X41709700Y-46425625D01*
X41709700Y-41593753D01*
X54650000Y-41593753D01*
X54650000Y-41806246D01*
X54683242Y-42016127D01*
X54683242Y-42016130D01*
X54748904Y-42218217D01*
X54845375Y-42407550D01*
X54884728Y-42461716D01*
X55517037Y-41829408D01*
X55534075Y-41892993D01*
X55599901Y-42007007D01*
X55692993Y-42100099D01*
X55807007Y-42165925D01*
X55870590Y-42182962D01*
X55238282Y-42815269D01*
X55238282Y-42815270D01*
X55292449Y-42854624D01*
X55481782Y-42951095D01*
X55683870Y-43016757D01*
X55893754Y-43050000D01*
X56106246Y-43050000D01*
X56316127Y-43016757D01*
X56316130Y-43016757D01*
X56518217Y-42951095D01*
X56707554Y-42854622D01*
X56761716Y-42815270D01*
X56761717Y-42815270D01*
X56129408Y-42182962D01*
X56192993Y-42165925D01*
X56307007Y-42100099D01*
X56400099Y-42007007D01*
X56465925Y-41892993D01*
X56482962Y-41829409D01*
X57115270Y-42461717D01*
X57115270Y-42461716D01*
X57154622Y-42407554D01*
X57251095Y-42218217D01*
X57316757Y-42016130D01*
X57316757Y-42016127D01*
X57350000Y-41806246D01*
X57350000Y-41593753D01*
X57316757Y-41383872D01*
X57316757Y-41383869D01*
X57251095Y-41181782D01*
X57154624Y-40992449D01*
X57115270Y-40938282D01*
X57115269Y-40938282D01*
X56482962Y-41570590D01*
X56465925Y-41507007D01*
X56400099Y-41392993D01*
X56307007Y-41299901D01*
X56192993Y-41234075D01*
X56129409Y-41217037D01*
X56761716Y-40584728D01*
X56707550Y-40545375D01*
X56518217Y-40448904D01*
X56419287Y-40416760D01*
X56361611Y-40377323D01*
X56334413Y-40312964D01*
X56346328Y-40244118D01*
X56393572Y-40192642D01*
X56419290Y-40180897D01*
X56422445Y-40179873D01*
X56576788Y-40101232D01*
X56716928Y-39999414D01*
X56839414Y-39876928D01*
X56941232Y-39736788D01*
X57019873Y-39582445D01*
X57073402Y-39417701D01*
X57100500Y-39246611D01*
X57100500Y-39073389D01*
X57073402Y-38902299D01*
X57019873Y-38737555D01*
X56941232Y-38583212D01*
X56839414Y-38443072D01*
X56716928Y-38320586D01*
X56576788Y-38218768D01*
X56422445Y-38140127D01*
X56257701Y-38086598D01*
X56257699Y-38086597D01*
X56257698Y-38086597D01*
X56126271Y-38065781D01*
X56086611Y-38059500D01*
X55913389Y-38059500D01*
X55873728Y-38065781D01*
X55742302Y-38086597D01*
X55577552Y-38140128D01*
X55423211Y-38218768D01*
X55343256Y-38276859D01*
X55283072Y-38320586D01*
X55283070Y-38320588D01*
X55283069Y-38320588D01*
X55160588Y-38443069D01*
X55160588Y-38443070D01*
X55160586Y-38443072D01*
X55116859Y-38503256D01*
X55058768Y-38583211D01*
X54980128Y-38737552D01*
X54926597Y-38902302D01*
X54899500Y-39073389D01*
X54899500Y-39246611D01*
X54926598Y-39417701D01*
X54980127Y-39582445D01*
X55058768Y-39736788D01*
X55160586Y-39876928D01*
X55283072Y-39999414D01*
X55423212Y-40101232D01*
X55577555Y-40179873D01*
X55580708Y-40180897D01*
X55581752Y-40181611D01*
X55582048Y-40181734D01*
X55582022Y-40181795D01*
X55638383Y-40220330D01*
X55665585Y-40284688D01*
X55653674Y-40353535D01*
X55606433Y-40405013D01*
X55580712Y-40416760D01*
X55481783Y-40448904D01*
X55292439Y-40545380D01*
X55238282Y-40584727D01*
X55238282Y-40584728D01*
X55870591Y-41217037D01*
X55807007Y-41234075D01*
X55692993Y-41299901D01*
X55599901Y-41392993D01*
X55534075Y-41507007D01*
X55517037Y-41570591D01*
X54884728Y-40938282D01*
X54884727Y-40938282D01*
X54845380Y-40992439D01*
X54748904Y-41181782D01*
X54683242Y-41383869D01*
X54683242Y-41383872D01*
X54650000Y-41593753D01*
X41709700Y-41593753D01*
X41709700Y-40876925D01*
X46324600Y-40876925D01*
X46324600Y-41021875D01*
X46362116Y-41161885D01*
X46362117Y-41161888D01*
X46434588Y-41287411D01*
X46434590Y-41287413D01*
X46434591Y-41287415D01*
X46537085Y-41389909D01*
X46537086Y-41389910D01*
X46537088Y-41389911D01*
X46662611Y-41462382D01*
X46662612Y-41462382D01*
X46662615Y-41462384D01*
X46802625Y-41499900D01*
X46802628Y-41499900D01*
X46947572Y-41499900D01*
X46947575Y-41499900D01*
X47087585Y-41462384D01*
X47213115Y-41389909D01*
X47315609Y-41287415D01*
X47388084Y-41161885D01*
X47425600Y-41021875D01*
X47425600Y-40876925D01*
X47388084Y-40736915D01*
X47315609Y-40611385D01*
X47213115Y-40508891D01*
X47213113Y-40508890D01*
X47213111Y-40508888D01*
X47087588Y-40436417D01*
X47087589Y-40436417D01*
X47076106Y-40433340D01*
X46947575Y-40398900D01*
X46802625Y-40398900D01*
X46674093Y-40433340D01*
X46662611Y-40436417D01*
X46537088Y-40508888D01*
X46537082Y-40508893D01*
X46434593Y-40611382D01*
X46434588Y-40611388D01*
X46362117Y-40736911D01*
X46362116Y-40736915D01*
X46324600Y-40876925D01*
X41709700Y-40876925D01*
X41709700Y-39278356D01*
X41685814Y-39189212D01*
X41639670Y-39109288D01*
X39063771Y-36533389D01*
X54899500Y-36533389D01*
X54899500Y-36706611D01*
X54926598Y-36877701D01*
X54953173Y-36959491D01*
X54980128Y-37042447D01*
X54990083Y-37061985D01*
X55058768Y-37196788D01*
X55160586Y-37336928D01*
X55283072Y-37459414D01*
X55423212Y-37561232D01*
X55577555Y-37639873D01*
X55742299Y-37693402D01*
X55913389Y-37720500D01*
X55913390Y-37720500D01*
X56086610Y-37720500D01*
X56086611Y-37720500D01*
X56257701Y-37693402D01*
X56422445Y-37639873D01*
X56576788Y-37561232D01*
X56716928Y-37459414D01*
X56839414Y-37336928D01*
X56941232Y-37196788D01*
X57019873Y-37042445D01*
X57073402Y-36877701D01*
X57100500Y-36706611D01*
X57100500Y-36533389D01*
X57073402Y-36362299D01*
X57019873Y-36197555D01*
X56941232Y-36043212D01*
X56839414Y-35903072D01*
X56716928Y-35780586D01*
X56576788Y-35678768D01*
X56422445Y-35600127D01*
X56257701Y-35546598D01*
X56257699Y-35546597D01*
X56257698Y-35546597D01*
X56126271Y-35525781D01*
X56086611Y-35519500D01*
X55913389Y-35519500D01*
X55873728Y-35525781D01*
X55742302Y-35546597D01*
X55577552Y-35600128D01*
X55423211Y-35678768D01*
X55343256Y-35736859D01*
X55283072Y-35780586D01*
X55283070Y-35780588D01*
X55283069Y-35780588D01*
X55160588Y-35903069D01*
X55160588Y-35903070D01*
X55160586Y-35903072D01*
X55116859Y-35963256D01*
X55058768Y-36043211D01*
X54980128Y-36197552D01*
X54926597Y-36362302D01*
X54899500Y-36533389D01*
X39063771Y-36533389D01*
X35957907Y-33427525D01*
X45454500Y-33427525D01*
X45454500Y-33572475D01*
X45492016Y-33712485D01*
X45492017Y-33712488D01*
X45564488Y-33838011D01*
X45564490Y-33838013D01*
X45564491Y-33838015D01*
X45666985Y-33940509D01*
X45666986Y-33940510D01*
X45666988Y-33940511D01*
X45792511Y-34012982D01*
X45792512Y-34012982D01*
X45792515Y-34012984D01*
X45932525Y-34050500D01*
X45932528Y-34050500D01*
X46077472Y-34050500D01*
X46077475Y-34050500D01*
X46217485Y-34012984D01*
X46251424Y-33993389D01*
X54899500Y-33993389D01*
X54899500Y-34166611D01*
X54926598Y-34337701D01*
X54980127Y-34502445D01*
X55058768Y-34656788D01*
X55160586Y-34796928D01*
X55283072Y-34919414D01*
X55423212Y-35021232D01*
X55577555Y-35099873D01*
X55742299Y-35153402D01*
X55913389Y-35180500D01*
X55913390Y-35180500D01*
X56086610Y-35180500D01*
X56086611Y-35180500D01*
X56257701Y-35153402D01*
X56422445Y-35099873D01*
X56576788Y-35021232D01*
X56716928Y-34919414D01*
X56839414Y-34796928D01*
X56941232Y-34656788D01*
X57019873Y-34502445D01*
X57073402Y-34337701D01*
X57100500Y-34166611D01*
X57100500Y-33993389D01*
X57073402Y-33822299D01*
X57019873Y-33657555D01*
X56941232Y-33503212D01*
X56839414Y-33363072D01*
X56716928Y-33240586D01*
X56576788Y-33138768D01*
X56422445Y-33060127D01*
X56257701Y-33006598D01*
X56257699Y-33006597D01*
X56257698Y-33006597D01*
X56126271Y-32985781D01*
X56086611Y-32979500D01*
X55913389Y-32979500D01*
X55873728Y-32985781D01*
X55742302Y-33006597D01*
X55577552Y-33060128D01*
X55423211Y-33138768D01*
X55343256Y-33196859D01*
X55283072Y-33240586D01*
X55283070Y-33240588D01*
X55283069Y-33240588D01*
X55160588Y-33363069D01*
X55160588Y-33363070D01*
X55160586Y-33363072D01*
X55116859Y-33423256D01*
X55058768Y-33503211D01*
X54980128Y-33657552D01*
X54926597Y-33822302D01*
X54914159Y-33900836D01*
X54899500Y-33993389D01*
X46251424Y-33993389D01*
X46343015Y-33940509D01*
X46445509Y-33838015D01*
X46517984Y-33712485D01*
X46555500Y-33572475D01*
X46555500Y-33427525D01*
X46517984Y-33287515D01*
X46490889Y-33240586D01*
X46445511Y-33161988D01*
X46445506Y-33161982D01*
X46343017Y-33059493D01*
X46343011Y-33059488D01*
X46217488Y-32987017D01*
X46217489Y-32987017D01*
X46189435Y-32979500D01*
X46077475Y-32949500D01*
X45932525Y-32949500D01*
X45820565Y-32979500D01*
X45792511Y-32987017D01*
X45666988Y-33059488D01*
X45666982Y-33059493D01*
X45564493Y-33161982D01*
X45564488Y-33161988D01*
X45492017Y-33287511D01*
X45492016Y-33287515D01*
X45454500Y-33427525D01*
X35957907Y-33427525D01*
X31317907Y-28787525D01*
X36359500Y-28787525D01*
X36359500Y-28932475D01*
X36396963Y-29072286D01*
X36397017Y-29072488D01*
X36469488Y-29198011D01*
X36469490Y-29198013D01*
X36469491Y-29198015D01*
X36571985Y-29300509D01*
X36571986Y-29300510D01*
X36571988Y-29300511D01*
X36697511Y-29372982D01*
X36697512Y-29372982D01*
X36697515Y-29372984D01*
X36837525Y-29410500D01*
X36837528Y-29410500D01*
X36982472Y-29410500D01*
X36982475Y-29410500D01*
X37122485Y-29372984D01*
X37248015Y-29300509D01*
X37350509Y-29198015D01*
X37422984Y-29072485D01*
X37460500Y-28932475D01*
X37460500Y-28787525D01*
X37422984Y-28647515D01*
X37350509Y-28521985D01*
X37248015Y-28419491D01*
X37248013Y-28419490D01*
X37248011Y-28419488D01*
X37122488Y-28347017D01*
X37122489Y-28347017D01*
X37111006Y-28343940D01*
X36982475Y-28309500D01*
X36837525Y-28309500D01*
X36708993Y-28343940D01*
X36697511Y-28347017D01*
X36571988Y-28419488D01*
X36571982Y-28419493D01*
X36469493Y-28521982D01*
X36469488Y-28521988D01*
X36397017Y-28647511D01*
X36397016Y-28647515D01*
X36359500Y-28787525D01*
X31317907Y-28787525D01*
X27325007Y-24794625D01*
X39477500Y-24794625D01*
X39477500Y-24939575D01*
X39500711Y-25026198D01*
X39515017Y-25079588D01*
X39587488Y-25205111D01*
X39587490Y-25205113D01*
X39587491Y-25205115D01*
X39689985Y-25307609D01*
X39689986Y-25307610D01*
X39689988Y-25307611D01*
X39815511Y-25380082D01*
X39815512Y-25380082D01*
X39815515Y-25380084D01*
X39955525Y-25417600D01*
X39955528Y-25417600D01*
X40100472Y-25417600D01*
X40100475Y-25417600D01*
X40229008Y-25383159D01*
X40298856Y-25384822D01*
X40356719Y-25423984D01*
X40384223Y-25488212D01*
X40385100Y-25502934D01*
X40385100Y-31243446D01*
X40386771Y-31249682D01*
X40386771Y-31313854D01*
X40384100Y-31323822D01*
X40384100Y-31323825D01*
X40384100Y-31468775D01*
X40421616Y-31608785D01*
X40421617Y-31608788D01*
X40494088Y-31734311D01*
X40494090Y-31734313D01*
X40494091Y-31734315D01*
X40596585Y-31836809D01*
X40596586Y-31836810D01*
X40596588Y-31836811D01*
X40722111Y-31909282D01*
X40722112Y-31909282D01*
X40722115Y-31909284D01*
X40862125Y-31946800D01*
X40862128Y-31946800D01*
X41007072Y-31946800D01*
X41007075Y-31946800D01*
X41147085Y-31909284D01*
X41272615Y-31836809D01*
X41375109Y-31734315D01*
X41447584Y-31608785D01*
X41485100Y-31468775D01*
X41485100Y-31453389D01*
X54899500Y-31453389D01*
X54899500Y-31626610D01*
X54924030Y-31781492D01*
X54926598Y-31797701D01*
X54980127Y-31962445D01*
X55058768Y-32116788D01*
X55160586Y-32256928D01*
X55283072Y-32379414D01*
X55423212Y-32481232D01*
X55577555Y-32559873D01*
X55742299Y-32613402D01*
X55913389Y-32640500D01*
X55913390Y-32640500D01*
X56086610Y-32640500D01*
X56086611Y-32640500D01*
X56257701Y-32613402D01*
X56422445Y-32559873D01*
X56576788Y-32481232D01*
X56716928Y-32379414D01*
X56839414Y-32256928D01*
X56941232Y-32116788D01*
X57019873Y-31962445D01*
X57073402Y-31797701D01*
X57100500Y-31626611D01*
X57100500Y-31453389D01*
X57073402Y-31282299D01*
X57019873Y-31117555D01*
X56941232Y-30963212D01*
X56839414Y-30823072D01*
X56716928Y-30700586D01*
X56576788Y-30598768D01*
X56422445Y-30520127D01*
X56257701Y-30466598D01*
X56257699Y-30466597D01*
X56257698Y-30466597D01*
X56126271Y-30445781D01*
X56086611Y-30439500D01*
X55913389Y-30439500D01*
X55873728Y-30445781D01*
X55742302Y-30466597D01*
X55577552Y-30520128D01*
X55423211Y-30598768D01*
X55343256Y-30656859D01*
X55283072Y-30700586D01*
X55283070Y-30700588D01*
X55283069Y-30700588D01*
X55160588Y-30823069D01*
X55160588Y-30823070D01*
X55160586Y-30823072D01*
X55153131Y-30833333D01*
X55058768Y-30963211D01*
X54980128Y-31117552D01*
X54926597Y-31282302D01*
X54899500Y-31453389D01*
X41485100Y-31453389D01*
X41485100Y-31323825D01*
X41447584Y-31183815D01*
X41424299Y-31143485D01*
X41375111Y-31058288D01*
X41375106Y-31058282D01*
X41272617Y-30955793D01*
X41272615Y-30955791D01*
X41199658Y-30913669D01*
X41148099Y-30883901D01*
X41099884Y-30833333D01*
X41086100Y-30776514D01*
X41086100Y-28125321D01*
X54899500Y-28125321D01*
X54899500Y-29874678D01*
X54914032Y-29947735D01*
X54914033Y-29947739D01*
X54914034Y-29947740D01*
X54969399Y-30030601D01*
X55050642Y-30084885D01*
X55052260Y-30085966D01*
X55052264Y-30085967D01*
X55125321Y-30100499D01*
X55125324Y-30100500D01*
X55125326Y-30100500D01*
X56874676Y-30100500D01*
X56874677Y-30100499D01*
X56947740Y-30085966D01*
X57030601Y-30030601D01*
X57085966Y-29947740D01*
X57100500Y-29874674D01*
X57100500Y-28125326D01*
X57100500Y-28125323D01*
X57100499Y-28125321D01*
X57085967Y-28052264D01*
X57085966Y-28052260D01*
X57030601Y-27969399D01*
X56947740Y-27914034D01*
X56947739Y-27914033D01*
X56947735Y-27914032D01*
X56874677Y-27899500D01*
X56874674Y-27899500D01*
X55125326Y-27899500D01*
X55125323Y-27899500D01*
X55052264Y-27914032D01*
X55052260Y-27914033D01*
X54969399Y-27969399D01*
X54914033Y-28052260D01*
X54914032Y-28052264D01*
X54899500Y-28125321D01*
X41086100Y-28125321D01*
X41086100Y-26596110D01*
X41105785Y-26529071D01*
X41158589Y-26483316D01*
X41227747Y-26473372D01*
X41242191Y-26476335D01*
X41264825Y-26482400D01*
X41264827Y-26482400D01*
X41409772Y-26482400D01*
X41409775Y-26482400D01*
X41549785Y-26444884D01*
X41675315Y-26372409D01*
X41777809Y-26269915D01*
X41850284Y-26144385D01*
X41887800Y-26004375D01*
X41887800Y-25859425D01*
X41850284Y-25719415D01*
X41777809Y-25593885D01*
X41675315Y-25491391D01*
X41675313Y-25491390D01*
X41675311Y-25491388D01*
X41549788Y-25418917D01*
X41549789Y-25418917D01*
X41538306Y-25415840D01*
X41409775Y-25381400D01*
X41264825Y-25381400D01*
X41264820Y-25381400D01*
X41242191Y-25387464D01*
X41172341Y-25385800D01*
X41114480Y-25346637D01*
X41086977Y-25282408D01*
X41086100Y-25267689D01*
X41086100Y-22517181D01*
X41090325Y-22485087D01*
X41120500Y-22372475D01*
X41120500Y-22227525D01*
X41082984Y-22087515D01*
X41010509Y-21961985D01*
X40908015Y-21859491D01*
X40908013Y-21859490D01*
X40908011Y-21859488D01*
X40782488Y-21787017D01*
X40782489Y-21787017D01*
X40771006Y-21783940D01*
X40642475Y-21749500D01*
X40497525Y-21749500D01*
X40368993Y-21783940D01*
X40357511Y-21787017D01*
X40231988Y-21859488D01*
X40231982Y-21859493D01*
X40129493Y-21961982D01*
X40129488Y-21961988D01*
X40057017Y-22087511D01*
X40057016Y-22087515D01*
X40019500Y-22227525D01*
X40019500Y-22372475D01*
X40049675Y-22485087D01*
X40057017Y-22512488D01*
X40129488Y-22638011D01*
X40129490Y-22638013D01*
X40129491Y-22638015D01*
X40231985Y-22740509D01*
X40323100Y-22793114D01*
X40371315Y-22843681D01*
X40385100Y-22900501D01*
X40385100Y-24231265D01*
X40365415Y-24298304D01*
X40312611Y-24344059D01*
X40243453Y-24354003D01*
X40229007Y-24351040D01*
X40148874Y-24329568D01*
X40100475Y-24316600D01*
X39955525Y-24316600D01*
X39853048Y-24344059D01*
X39815511Y-24354117D01*
X39689988Y-24426588D01*
X39689982Y-24426593D01*
X39587493Y-24529082D01*
X39587488Y-24529088D01*
X39515017Y-24654611D01*
X39515016Y-24654615D01*
X39477500Y-24794625D01*
X27325007Y-24794625D01*
X26021819Y-23491437D01*
X25988334Y-23430114D01*
X25985500Y-23403756D01*
X25985500Y-20359386D01*
X26005185Y-20292347D01*
X26021819Y-20271705D01*
X26024714Y-20268810D01*
X26075509Y-20218015D01*
X26147984Y-20092485D01*
X26185500Y-19952475D01*
X26185500Y-19807525D01*
X26147984Y-19667515D01*
X26075509Y-19541985D01*
X25973015Y-19439491D01*
X25973013Y-19439490D01*
X25973011Y-19439488D01*
X25847488Y-19367017D01*
X25847489Y-19367017D01*
X25836006Y-19363940D01*
X25707475Y-19329500D01*
X25562525Y-19329500D01*
X25433993Y-19363940D01*
X25422511Y-19367017D01*
X25296988Y-19439488D01*
X25296982Y-19439493D01*
X25194493Y-19541982D01*
X25194488Y-19541988D01*
X25122017Y-19667511D01*
X25122016Y-19667515D01*
X25084500Y-19807525D01*
X25084500Y-19952475D01*
X25122016Y-20092485D01*
X25122017Y-20092488D01*
X25194488Y-20218011D01*
X25194493Y-20218017D01*
X25248181Y-20271705D01*
X25281666Y-20333028D01*
X25284500Y-20359386D01*
X25284500Y-23646444D01*
X25288271Y-23660516D01*
X25307690Y-23732991D01*
X25308387Y-23735590D01*
X25354527Y-23815508D01*
X25354531Y-23815513D01*
X40972381Y-39433363D01*
X41005866Y-39494686D01*
X41008700Y-39521044D01*
X41008700Y-55086456D01*
X40989015Y-55153495D01*
X40972381Y-55174137D01*
X31220931Y-64925586D01*
X31220929Y-64925589D01*
X31203834Y-64955199D01*
X31203832Y-64955202D01*
X31199497Y-64962712D01*
X31174786Y-65005512D01*
X31157588Y-65069695D01*
X31154748Y-65076727D01*
X31137583Y-65098416D01*
X31123182Y-65122042D01*
X31116203Y-65125432D01*
X31111389Y-65131515D01*
X31085219Y-65140482D01*
X31060335Y-65152570D01*
X31052631Y-65151648D01*
X31045292Y-65154164D01*
X31018427Y-65147559D01*
X30990959Y-65144275D01*
X30982910Y-65138827D01*
X30977443Y-65137483D01*
X30971216Y-65130912D01*
X30964443Y-65126327D01*
X30963361Y-65127738D01*
X30956918Y-65122794D01*
X30956915Y-65122791D01*
X30885098Y-65081327D01*
X30836884Y-65030760D01*
X30823100Y-64973941D01*
X30823100Y-63415710D01*
X30842785Y-63348671D01*
X30895589Y-63302916D01*
X30964747Y-63292972D01*
X30979191Y-63295935D01*
X31001825Y-63302000D01*
X31001827Y-63302000D01*
X31146772Y-63302000D01*
X31146775Y-63302000D01*
X31286785Y-63264484D01*
X31412315Y-63192009D01*
X31514809Y-63089515D01*
X31587284Y-62963985D01*
X31624800Y-62823975D01*
X31624800Y-62679025D01*
X31587284Y-62539015D01*
X31569888Y-62508885D01*
X31514811Y-62413488D01*
X31514806Y-62413482D01*
X31412317Y-62310993D01*
X31412311Y-62310988D01*
X31286788Y-62238517D01*
X31286789Y-62238517D01*
X31275306Y-62235440D01*
X31146775Y-62201000D01*
X31001825Y-62201000D01*
X31001820Y-62201000D01*
X30979191Y-62207064D01*
X30909341Y-62205400D01*
X30851480Y-62166237D01*
X30823977Y-62102008D01*
X30823100Y-62087289D01*
X30823100Y-32829658D01*
X30823100Y-32829656D01*
X30799214Y-32740512D01*
X30786580Y-32718630D01*
X30770107Y-32650731D01*
X30792959Y-32584704D01*
X30831963Y-32549246D01*
X30903215Y-32508109D01*
X31005709Y-32405615D01*
X31078184Y-32280085D01*
X31115700Y-32140075D01*
X31115700Y-31995125D01*
X31078184Y-31855115D01*
X31071148Y-31842929D01*
X31005711Y-31729588D01*
X31005706Y-31729582D01*
X30903217Y-31627093D01*
X30903211Y-31627088D01*
X30777688Y-31554617D01*
X30777689Y-31554617D01*
X30766206Y-31551540D01*
X30637675Y-31517100D01*
X30492725Y-31517100D01*
X30364193Y-31551540D01*
X30352711Y-31554617D01*
X30227188Y-31627088D01*
X30227182Y-31627093D01*
X30124693Y-31729582D01*
X30124686Y-31729591D01*
X30094721Y-31781492D01*
X30044154Y-31829707D01*
X29975546Y-31842929D01*
X29910682Y-31816961D01*
X29899654Y-31807172D01*
X23675219Y-25582737D01*
X23641734Y-25521414D01*
X23638900Y-25495056D01*
X23638900Y-25419127D01*
X23638900Y-25419125D01*
X23601384Y-25279115D01*
X23528909Y-25153585D01*
X23426415Y-25051091D01*
X23426413Y-25051090D01*
X23426411Y-25051088D01*
X23300888Y-24978617D01*
X23300889Y-24978617D01*
X23289406Y-24975540D01*
X23160875Y-24941100D01*
X23015925Y-24941100D01*
X22949592Y-24958873D01*
X22924598Y-24958278D01*
X22899853Y-24961837D01*
X22890272Y-24957461D01*
X22879744Y-24957211D01*
X22859039Y-24943198D01*
X22836297Y-24932812D01*
X22830603Y-24923952D01*
X22821881Y-24918049D01*
X22812039Y-24895065D01*
X22798523Y-24874034D01*
X22796243Y-24858178D01*
X22794377Y-24853820D01*
X22793500Y-24839099D01*
X22793500Y-24723714D01*
X22813185Y-24656675D01*
X22855503Y-24616325D01*
X22859515Y-24614009D01*
X22962009Y-24511515D01*
X23034484Y-24385985D01*
X23072000Y-24245975D01*
X23072000Y-24101025D01*
X23034484Y-23961015D01*
X22962009Y-23835485D01*
X22859515Y-23732991D01*
X22859513Y-23732990D01*
X22859511Y-23732988D01*
X22733988Y-23660517D01*
X22733989Y-23660517D01*
X22722506Y-23657440D01*
X22593975Y-23623000D01*
X22449025Y-23623000D01*
X22320493Y-23657440D01*
X22309011Y-23660517D01*
X22183488Y-23732988D01*
X22183482Y-23732993D01*
X22080993Y-23835482D01*
X22080988Y-23835488D01*
X22008517Y-23961011D01*
X22008516Y-23961015D01*
X21971000Y-24101025D01*
X17753700Y-24101025D01*
X17753700Y-20600643D01*
X17773385Y-20533604D01*
X17790019Y-20512962D01*
X19787462Y-18515519D01*
X19848785Y-18482034D01*
X19875143Y-18479200D01*
X19951072Y-18479200D01*
X19951075Y-18479200D01*
X20091085Y-18441684D01*
X20216615Y-18369209D01*
X20319109Y-18266715D01*
X20391584Y-18141185D01*
X20429100Y-18001175D01*
X20429100Y-17856225D01*
X20391584Y-17716215D01*
X20319109Y-17590685D01*
X20216615Y-17488191D01*
X20216613Y-17488190D01*
X20216611Y-17488188D01*
X20091088Y-17415717D01*
X20091089Y-17415717D01*
X20079606Y-17412640D01*
X19951075Y-17378200D01*
X19806125Y-17378200D01*
X19677593Y-17412640D01*
X19666111Y-17415717D01*
X19540588Y-17488188D01*
X19540582Y-17488193D01*
X19438093Y-17590682D01*
X19438088Y-17590688D01*
X19365617Y-17716211D01*
X19365616Y-17716215D01*
X19328100Y-17856225D01*
X19328100Y-17856227D01*
X19328100Y-17932156D01*
X19308415Y-17999195D01*
X19291781Y-18019837D01*
X17122731Y-20188886D01*
X17122729Y-20188889D01*
X17105915Y-20218013D01*
X17105914Y-20218015D01*
X17076586Y-20268810D01*
X17052700Y-20357956D01*
X17052700Y-24412614D01*
X17033015Y-24479653D01*
X17016381Y-24500295D01*
X16962693Y-24553982D01*
X16962688Y-24553988D01*
X16890217Y-24679511D01*
X16890216Y-24679515D01*
X16852700Y-24819525D01*
X1500500Y-24819525D01*
X1500500Y-17232525D01*
X36359500Y-17232525D01*
X36359500Y-17377475D01*
X36389166Y-17488188D01*
X36397017Y-17517488D01*
X36469488Y-17643011D01*
X36469490Y-17643013D01*
X36469491Y-17643015D01*
X36571985Y-17745509D01*
X36571986Y-17745510D01*
X36571988Y-17745511D01*
X36697511Y-17817982D01*
X36697512Y-17817982D01*
X36697515Y-17817984D01*
X36837525Y-17855500D01*
X36837528Y-17855500D01*
X36982472Y-17855500D01*
X36982475Y-17855500D01*
X37122485Y-17817984D01*
X37248015Y-17745509D01*
X37350509Y-17643015D01*
X37422984Y-17517485D01*
X37460500Y-17377475D01*
X37460500Y-17232525D01*
X37422984Y-17092515D01*
X37350509Y-16966985D01*
X37248015Y-16864491D01*
X37248013Y-16864490D01*
X37248011Y-16864488D01*
X37122488Y-16792017D01*
X37122489Y-16792017D01*
X37111006Y-16788940D01*
X36982475Y-16754500D01*
X36837525Y-16754500D01*
X36708993Y-16788940D01*
X36697511Y-16792017D01*
X36571988Y-16864488D01*
X36571982Y-16864493D01*
X36469493Y-16966982D01*
X36469488Y-16966988D01*
X36397017Y-17092511D01*
X36397016Y-17092515D01*
X36359500Y-17232525D01*
X1500500Y-17232525D01*
X1500500Y-1624500D01*
X1520185Y-1557461D01*
X1572989Y-1511706D01*
X1624500Y-1500500D01*
X5876000Y-1500500D01*
X5943039Y-1520185D01*
G37*
%TD.AperFunction*%
%TD*%
M02*
