%TF.GenerationSoftware,KiCad,Pcbnew,10.0.4*%
%TF.CreationDate,2026-07-22T20:09:27+08:00*%
%TF.ProjectId,ai_mobile_reader_routed,61695f6d-6f62-4696-9c65-5f7265616465,rev?*%
%TF.SameCoordinates,Original*%
%TF.FileFunction,Soldermask,Top*%
%TF.FilePolarity,Negative*%
%FSLAX46Y46*%
G04 Gerber Fmt 4.6, Leading zero omitted, Abs format (unit mm)*
G04 Created by KiCad (PCBNEW 10.0.4) date 2026-07-22 20:09:27*
%MOMM*%
%LPD*%
G01*
G04 APERTURE LIST*
G04 Aperture macros list*
%AMRoundRect*
0 Rectangle with rounded corners*
0 $1 Rounding radius*
0 $2 $3 $4 $5 $6 $7 $8 $9 X,Y pos of 4 corners*
0 Add a 4 corners polygon primitive as box body*
4,1,4,$2,$3,$4,$5,$6,$7,$8,$9,$2,$3,0*
0 Add four circle primitives for the rounded corners*
1,1,$1+$1,$2,$3*
1,1,$1+$1,$4,$5*
1,1,$1+$1,$6,$7*
1,1,$1+$1,$8,$9*
0 Add four rect primitives between the rounded corners*
20,1,$1+$1,$2,$3,$4,$5,0*
20,1,$1+$1,$4,$5,$6,$7,0*
20,1,$1+$1,$6,$7,$8,$9,0*
20,1,$1+$1,$8,$9,$2,$3,0*%
G04 Aperture macros list end*
%ADD10RoundRect,0.250000X-0.250000X-0.475000X0.250000X-0.475000X0.250000X0.475000X-0.250000X0.475000X0*%
%ADD11RoundRect,0.225000X-0.225000X-0.250000X0.225000X-0.250000X0.225000X0.250000X-0.225000X0.250000X0*%
%ADD12RoundRect,0.200000X-0.200000X-0.275000X0.200000X-0.275000X0.200000X0.275000X-0.200000X0.275000X0*%
%ADD13RoundRect,0.250000X0.475000X-0.250000X0.475000X0.250000X-0.475000X0.250000X-0.475000X-0.250000X0*%
%ADD14R,1.700000X1.700000*%
%ADD15C,1.700000*%
%ADD16RoundRect,0.225000X-0.225000X-0.375000X0.225000X-0.375000X0.225000X0.375000X-0.225000X0.375000X0*%
%ADD17RoundRect,0.200000X0.275000X-0.200000X0.275000X0.200000X-0.275000X0.200000X-0.275000X-0.200000X0*%
%ADD18C,1.000000*%
%ADD19RoundRect,0.225000X0.250000X-0.225000X0.250000X0.225000X-0.250000X0.225000X-0.250000X-0.225000X0*%
%ADD20C,0.650000*%
%ADD21RoundRect,0.150000X-0.150000X-0.425000X0.150000X-0.425000X0.150000X0.425000X-0.150000X0.425000X0*%
%ADD22RoundRect,0.075000X-0.075000X-0.500000X0.075000X-0.500000X0.075000X0.500000X-0.075000X0.500000X0*%
%ADD23O,1.000000X2.100000*%
%ADD24O,1.000000X1.800000*%
%ADD25RoundRect,0.062500X-0.350000X-0.062500X0.350000X-0.062500X0.350000X0.062500X-0.350000X0.062500X0*%
%ADD26R,1.200000X2.000000*%
%ADD27RoundRect,0.150000X-0.512500X-0.150000X0.512500X-0.150000X0.512500X0.150000X-0.512500X0.150000X0*%
%ADD28RoundRect,0.200000X-0.200000X-1.150000X0.200000X-1.150000X0.200000X1.150000X-0.200000X1.150000X0*%
%ADD29RoundRect,0.062500X-0.375000X-0.062500X0.375000X-0.062500X0.375000X0.062500X-0.375000X0.062500X0*%
%ADD30RoundRect,0.062500X-0.062500X-0.375000X0.062500X-0.375000X0.062500X0.375000X-0.062500X0.375000X0*%
%ADD31R,1.600000X1.600000*%
%ADD32C,0.800000*%
%ADD33C,5.000000*%
%ADD34R,1.500000X0.900000*%
%ADD35R,0.900000X1.500000*%
%ADD36C,0.600000*%
%ADD37R,3.900000X3.900000*%
%ADD38RoundRect,0.150000X-0.587500X-0.150000X0.587500X-0.150000X0.587500X0.150000X-0.587500X0.150000X0*%
%ADD39RoundRect,0.250000X0.625000X-0.350000X0.625000X0.350000X-0.625000X0.350000X-0.625000X-0.350000X0*%
%ADD40O,1.750000X1.200000*%
%ADD41R,1.100000X0.850000*%
%ADD42R,1.100000X0.750000*%
%ADD43R,1.000000X1.200000*%
%ADD44R,1.350000X1.550000*%
%ADD45R,1.350000X1.900000*%
%ADD46R,1.800000X1.170000*%
%ADD47R,1.550000X1.000000*%
%ADD48RoundRect,0.218750X-0.218750X-0.256250X0.218750X-0.256250X0.218750X0.256250X-0.218750X0.256250X0*%
G04 APERTURE END LIST*
D10*
%TO.C,C4*%
X7050000Y-92000000D03*
X8950000Y-92000000D03*
%TD*%
D11*
%TO.C,C7*%
X15225000Y-82000000D03*
X16775000Y-82000000D03*
%TD*%
D12*
%TO.C,R18*%
X49175000Y-42000000D03*
X50825000Y-42000000D03*
%TD*%
D10*
%TO.C,C5*%
X4550000Y-86000000D03*
X6450000Y-86000000D03*
%TD*%
D13*
%TO.C,C16*%
X34000000Y-63950000D03*
X34000000Y-62050000D03*
%TD*%
D12*
%TO.C,R10*%
X12175000Y-79000000D03*
X13825000Y-79000000D03*
%TD*%
D14*
%TO.C,J5*%
X56000000Y-29000000D03*
D15*
X56000000Y-31540000D03*
X56000000Y-34080000D03*
X56000000Y-36620000D03*
X56000000Y-39160000D03*
X56000000Y-41700000D03*
%TD*%
D16*
%TO.C,D2*%
X21350000Y-66000000D03*
X24650000Y-66000000D03*
%TD*%
D17*
%TO.C,R6*%
X35000000Y-92825000D03*
X35000000Y-91175000D03*
%TD*%
D16*
%TO.C,D1*%
X21350000Y-62000000D03*
X24650000Y-62000000D03*
%TD*%
D13*
%TO.C,C19*%
X43000000Y-63950000D03*
X43000000Y-62050000D03*
%TD*%
%TO.C,C20*%
X46000000Y-63950000D03*
X46000000Y-62050000D03*
%TD*%
D10*
%TO.C,C11*%
X32050000Y-86000000D03*
X33950000Y-86000000D03*
%TD*%
D13*
%TO.C,C22*%
X52000000Y-63950000D03*
X52000000Y-62050000D03*
%TD*%
D18*
%TO.C,TP6*%
X37500000Y-55000000D03*
%TD*%
%TO.C,TP3*%
X20600000Y-55000000D03*
%TD*%
D12*
%TO.C,R21*%
X40175000Y-53000000D03*
X41825000Y-53000000D03*
%TD*%
%TO.C,R16*%
X49175000Y-38000000D03*
X50825000Y-38000000D03*
%TD*%
D19*
%TO.C,C2*%
X19500000Y-22775000D03*
X19500000Y-21225000D03*
%TD*%
D10*
%TO.C,C6*%
X15550000Y-87000000D03*
X17450000Y-87000000D03*
%TD*%
D20*
%TO.C,J1*%
X27110000Y-97595000D03*
X32890000Y-97595000D03*
D21*
X26800000Y-96520000D03*
X27600000Y-96520000D03*
D22*
X28750000Y-96520000D03*
X29750000Y-96520000D03*
X30250000Y-96520000D03*
X31250000Y-96520000D03*
D21*
X32400000Y-96520000D03*
X33200000Y-96520000D03*
X33200000Y-96520000D03*
X32400000Y-96520000D03*
D22*
X31750000Y-96520000D03*
X30750000Y-96520000D03*
X29250000Y-96520000D03*
X28250000Y-96520000D03*
D21*
X27600000Y-96520000D03*
X26800000Y-96520000D03*
D23*
X25680000Y-97095000D03*
D24*
X25680000Y-101275000D03*
D23*
X34320000Y-97095000D03*
D24*
X34320000Y-101275000D03*
%TD*%
D11*
%TO.C,C3*%
X17225000Y-26000000D03*
X18775000Y-26000000D03*
%TD*%
D17*
%TO.C,R3*%
X23000000Y-90825000D03*
X23000000Y-89175000D03*
%TD*%
D12*
%TO.C,R20*%
X11175000Y-73000000D03*
X12825000Y-73000000D03*
%TD*%
D25*
%TO.C,U3*%
X26787500Y-83000000D03*
X26787500Y-83500000D03*
X26787500Y-84000000D03*
X26787500Y-84500000D03*
X26787500Y-85000000D03*
X29212500Y-85000000D03*
X29212500Y-84500000D03*
X29212500Y-84000000D03*
X29212500Y-83500000D03*
X29212500Y-83000000D03*
D26*
X28000000Y-84000000D03*
%TD*%
D12*
%TO.C,R25*%
X51175000Y-60000000D03*
X52825000Y-60000000D03*
%TD*%
D16*
%TO.C,D3*%
X21350000Y-70000000D03*
X24650000Y-70000000D03*
%TD*%
D27*
%TO.C,D4*%
X37862500Y-94050000D03*
X37862500Y-95000000D03*
X37862500Y-95950000D03*
X40137500Y-95950000D03*
X40137500Y-95000000D03*
X40137500Y-94050000D03*
%TD*%
D28*
%TO.C,L2*%
X9850000Y-64000000D03*
X12150000Y-64000000D03*
%TD*%
D12*
%TO.C,R8*%
X12175000Y-82000000D03*
X13825000Y-82000000D03*
%TD*%
D13*
%TO.C,C23*%
X55000000Y-63950000D03*
X55000000Y-62050000D03*
%TD*%
D29*
%TO.C,U2*%
X9562500Y-86250000D03*
X9562500Y-86750000D03*
X9562500Y-87250000D03*
X9562500Y-87750000D03*
D30*
X10250000Y-88437500D03*
X10750000Y-88437500D03*
X11250000Y-88437500D03*
X11750000Y-88437500D03*
D29*
X12437500Y-87750000D03*
X12437500Y-87250000D03*
X12437500Y-86750000D03*
X12437500Y-86250000D03*
D30*
X11750000Y-85562500D03*
X11250000Y-85562500D03*
X10750000Y-85562500D03*
X10250000Y-85562500D03*
D31*
X11000000Y-87000000D03*
%TD*%
D32*
%TO.C,H1*%
X2125000Y-99000000D03*
X2674175Y-97674175D03*
X2674175Y-100325825D03*
X4000000Y-97125000D03*
D33*
X4000000Y-99000000D03*
D32*
X4000000Y-100875000D03*
X5325825Y-97674175D03*
X5325825Y-100325825D03*
X5875000Y-99000000D03*
%TD*%
D18*
%TO.C,TP4*%
X26900000Y-55000000D03*
%TD*%
D13*
%TO.C,C12*%
X8000000Y-68950000D03*
X8000000Y-67050000D03*
%TD*%
%TO.C,C14*%
X27000000Y-61950000D03*
X27000000Y-60050000D03*
%TD*%
D17*
%TO.C,R13*%
X19000000Y-59825000D03*
X19000000Y-58175000D03*
%TD*%
D10*
%TO.C,C10*%
X32050000Y-82500000D03*
X33950000Y-82500000D03*
%TD*%
D12*
%TO.C,R17*%
X45175000Y-42000000D03*
X46825000Y-42000000D03*
%TD*%
%TO.C,R11*%
X20175000Y-94000000D03*
X21825000Y-94000000D03*
%TD*%
D11*
%TO.C,C25*%
X40225000Y-47000000D03*
X41775000Y-47000000D03*
%TD*%
D10*
%TO.C,C26*%
X40050000Y-50000000D03*
X41950000Y-50000000D03*
%TD*%
D12*
%TO.C,R7*%
X6175000Y-84000000D03*
X7825000Y-84000000D03*
%TD*%
D11*
%TO.C,C9*%
X23225000Y-87000000D03*
X24775000Y-87000000D03*
%TD*%
D12*
%TO.C,R24*%
X46175000Y-60000000D03*
X47825000Y-60000000D03*
%TD*%
D13*
%TO.C,C21*%
X49000000Y-63950000D03*
X49000000Y-62050000D03*
%TD*%
D34*
%TO.C,U1*%
X21250000Y-15740000D03*
X21250000Y-17010000D03*
X21250000Y-18280000D03*
X21250000Y-19550000D03*
X21250000Y-20820000D03*
X21250000Y-22090000D03*
X21250000Y-23360000D03*
X21250000Y-24630000D03*
X21250000Y-25900000D03*
X21250000Y-27170000D03*
X21250000Y-28440000D03*
X21250000Y-29710000D03*
X21250000Y-30980000D03*
X21250000Y-32250000D03*
D35*
X23015000Y-33500000D03*
X24285000Y-33500000D03*
X25555000Y-33500000D03*
X26825000Y-33500000D03*
X28095000Y-33500000D03*
X29365000Y-33500000D03*
X30635000Y-33500000D03*
X31905000Y-33500000D03*
X33175000Y-33500000D03*
X34445000Y-33500000D03*
X35715000Y-33500000D03*
X36985000Y-33500000D03*
D34*
X38750000Y-32250000D03*
X38750000Y-30980000D03*
X38750000Y-29710000D03*
X38750000Y-28440000D03*
X38750000Y-27170000D03*
X38750000Y-25900000D03*
X38750000Y-24630000D03*
X38750000Y-23360000D03*
X38750000Y-22090000D03*
X38750000Y-20820000D03*
X38750000Y-19550000D03*
X38750000Y-18280000D03*
X38750000Y-17010000D03*
X38750000Y-15740000D03*
D36*
X27100000Y-22760000D03*
X27100000Y-24160000D03*
X27800000Y-22060000D03*
X27800000Y-23460000D03*
X27800000Y-24860000D03*
X28500000Y-22760000D03*
D37*
X28500000Y-23460000D03*
D36*
X28500000Y-24160000D03*
X29200000Y-22060000D03*
X29200000Y-23460000D03*
X29200000Y-24860000D03*
X29900000Y-22760000D03*
X29900000Y-24160000D03*
%TD*%
D12*
%TO.C,R19*%
X6175000Y-73000000D03*
X7825000Y-73000000D03*
%TD*%
%TO.C,R22*%
X40175000Y-56000000D03*
X41825000Y-56000000D03*
%TD*%
D18*
%TO.C,TP1*%
X8000000Y-55000000D03*
%TD*%
%TO.C,TP7*%
X47000000Y-73000000D03*
%TD*%
D28*
%TO.C,L1*%
X26850000Y-79500000D03*
X29150000Y-79500000D03*
%TD*%
D38*
%TO.C,Q1*%
X16062500Y-63050000D03*
X16062500Y-64950000D03*
X17937500Y-64000000D03*
%TD*%
D18*
%TO.C,TP2*%
X14300000Y-55000000D03*
%TD*%
D32*
%TO.C,H2*%
X54125000Y-99000000D03*
X54674175Y-97674175D03*
X54674175Y-100325825D03*
X56000000Y-97125000D03*
D33*
X56000000Y-99000000D03*
D32*
X56000000Y-100875000D03*
X57325825Y-97674175D03*
X57325825Y-100325825D03*
X57875000Y-99000000D03*
%TD*%
D39*
%TO.C,J2*%
X5000000Y-80000000D03*
D40*
X5000000Y-78000000D03*
%TD*%
D12*
%TO.C,R15*%
X45175000Y-38000000D03*
X46825000Y-38000000D03*
%TD*%
D41*
%TO.C,J4*%
X46550000Y-54105000D03*
X46550000Y-53005000D03*
X46550000Y-51905000D03*
X46550000Y-50805000D03*
X46550000Y-49705000D03*
X46550000Y-48605000D03*
X46550000Y-47505000D03*
D42*
X46550000Y-46455000D03*
D43*
X52700000Y-56740000D03*
X56400000Y-56740000D03*
D44*
X46675000Y-56565000D03*
D45*
X57375000Y-53240000D03*
X57375000Y-47270000D03*
D46*
X46900000Y-45245000D03*
%TD*%
D47*
%TO.C,SW2*%
X45375000Y-26150000D03*
X50625000Y-26150000D03*
X45375000Y-27850000D03*
X50625000Y-27850000D03*
%TD*%
%TO.C,SW1*%
X5375000Y-33150000D03*
X10625000Y-33150000D03*
X5375000Y-34850000D03*
X10625000Y-34850000D03*
%TD*%
D13*
%TO.C,C18*%
X40000000Y-63950000D03*
X40000000Y-62050000D03*
%TD*%
%TO.C,C13*%
X19000000Y-68950000D03*
X19000000Y-67050000D03*
%TD*%
D12*
%TO.C,R9*%
X9175000Y-80000000D03*
X10825000Y-80000000D03*
%TD*%
D18*
%TO.C,TP8*%
X54000000Y-73000000D03*
%TD*%
%TO.C,TP5*%
X33200000Y-55000000D03*
%TD*%
D17*
%TO.C,R12*%
X15000000Y-59825000D03*
X15000000Y-58175000D03*
%TD*%
D13*
%TO.C,C1*%
X17500000Y-22950000D03*
X17500000Y-21050000D03*
%TD*%
D12*
%TO.C,R2*%
X41675000Y-27000000D03*
X43325000Y-27000000D03*
%TD*%
D11*
%TO.C,C24*%
X15225000Y-73000000D03*
X16775000Y-73000000D03*
%TD*%
D12*
%TO.C,R1*%
X13175000Y-26000000D03*
X14825000Y-26000000D03*
%TD*%
D17*
%TO.C,R4*%
X26000000Y-90825000D03*
X26000000Y-89175000D03*
%TD*%
D12*
%TO.C,R23*%
X40175000Y-59000000D03*
X41825000Y-59000000D03*
%TD*%
D13*
%TO.C,C17*%
X37000000Y-63950000D03*
X37000000Y-62050000D03*
%TD*%
%TO.C,C15*%
X27000000Y-70950000D03*
X27000000Y-69050000D03*
%TD*%
D17*
%TO.C,R5*%
X32000000Y-92825000D03*
X32000000Y-91175000D03*
%TD*%
D10*
%TO.C,C8*%
X22050000Y-84000000D03*
X23950000Y-84000000D03*
%TD*%
D12*
%TO.C,R14*%
X41175000Y-38000000D03*
X42825000Y-38000000D03*
%TD*%
D48*
%TO.C,D5*%
X16712500Y-94000000D03*
X18287500Y-94000000D03*
%TD*%
M02*
